<svg xmlns="http://www.w3.org/2000/svg" viewBox="0 0 500 500"><g id="freepik--Floor--inject-4"><ellipse id="freepik--floor--inject-4" cx="250" cy="351.33" rx="237.96" ry="135.52" style="fill:#f5f5f5"></ellipse></g><g id="freepik--Shadows--inject-4"><polygon id="freepik--Shadow--inject-4" points="130.96 447.97 268.09 368.38 200.81 329.13 154.8 355.69 63.67 408.71 130.96 447.97" style="fill:#e6e6e6"></polygon><ellipse id="freepik--shadow--inject-4" cx="396.08" cy="384.97" rx="55.29" ry="31.92" style="fill:#e6e6e6"></ellipse></g><g id="freepik--Plant--inject-4"><g id="freepik--Plants--inject-4"><path d="M421.35,382.26c-1-10.79-1.51-20.78,2.81-36.57,3.62-13.25,14.46-27.15,22.49-27.21,7.48-.05,9.82,9,3.74,17.61s-19.47,25.31-19.53,36.59l-1.88,13Z" style="fill:#ADE0F9"></path><path d="M421.35,382.26c-1-10.79-1.51-20.78,2.81-36.57,3.62-13.25,14.46-27.15,22.49-27.21,7.48-.05,9.82,9,3.74,17.61s-19.47,25.31-19.53,36.59l-1.88,13Z" style="opacity:0.2"></path><path d="M424.45,379.28a.47.47,0,0,0,.33-.47c-.74-25.25,11.71-47.27,22.94-54.6a.48.48,0,1,0-.52-.8c-11.42,7.45-24.13,29.84-23.38,55.42a.48.48,0,0,0,.5.47Z" style="fill:#fff"></path><path d="M431.84,387c.17-3.83,3.14-10.79,9.05-17.37,6.54-7.27,15.86-12.12,17.14-16.88,1.54-5.7-3.6-8.3-11.6-5.95-9.61,2.83-19.59,14.84-19.68,37.81Z" style="fill:#ADE0F9"></path><path d="M429.39,383.6a.48.48,0,0,0,.32-.41C431.94,363,444.6,353,451,350.59a.48.48,0,0,0,.27-.62.46.46,0,0,0-.61-.28c-7.07,2.68-19.62,12.74-21.89,33.4a.48.48,0,0,0,.43.53A.46.46,0,0,0,429.39,383.6Z" style="fill:#fff"></path></g></g><g id="freepik--character-2--inject-4"><g id="freepik--Character--inject-4"><path d="M412.17,400.92c.28,1.16.87,4.45,7,4.49s9.62-2.43,10.84-5.53.55-5.39.46-8.1,1.93-4.41,2.39-5.87c.67-2.15-1.11-5.13-1.11-5.13Z" style="fill:#263238"></path><path d="M353.6,380.57a3.67,3.67,0,0,0,.26,2.94,12.71,12.71,0,0,0,9.58,3A23.31,23.31,0,0,0,373.87,383a13.56,13.56,0,0,1,8-1.93c2.91,0,5.07-.52,5.32-1.28.45-1.32.48-2.17-.15-2.15Z" style="fill:#263238"></path><path d="M425,330.41a45.08,45.08,0,0,0-6.21-18.17s-2.66-43.65-5-66.58l-45.17-.32s.93,59.45,1.6,68.17c.5,6.63,4.77,48.4,4.77,48.49l.61,7c3.53,1.8,6.31,1.55,9.34-.59l.69-6.15s3.85-26.42,4.16-32.73a51.17,51.17,0,0,0-1.65-16l5.68-29.59s4.23,21,6.62,32.71c2.74,13.45,18.83,57.56,18.84,57.57l1,3.67c-.27,4,9.36,1.34,9.28-1.81C429.63,376.06,426.75,344.07,425,330.41Z" style="fill:#b16668"></path><path d="M398.71,317.19c-2.39-11.74-4.84-33.27-4.84-33.27L390.21,314c-12.41,5.27-20.9.06-20.9.06-2-22.3-.64-68.71-.64-68.71l45.17.32c2.33,22.93,6.47,66.1,6.47,66.1S416.74,319.14,398.71,317.19Z" style="fill:#37474f"></path><path d="M393.87,283.92l-2.95-14.12s-6.83-1.6-11.68-5.55c0,0,1.76,4.51,9.22,8l3,13.22-1,26.44Z" style="fill:#263238"></path><path d="M420.35,377.87l-.34-1.21c-.4.39-.34.74-.36,1.82,0,.86,0,1.69-.14,2.82a26.06,26.06,0,0,1-.84,4.4c-.81,3.34-1.71,4.67-4.1,8.79a35.78,35.78,0,0,0-2.33,3.65c-.4,1.05-.54,3,.71,3.73,3.55,2.14,9.07,1.6,12.58,0a7.47,7.47,0,0,0,4.43-6.77c0-.85-.16-1.7-.19-2.55a12,12,0,0,1,1.49-5.59,16.28,16.28,0,0,0,1.31-3.11c.48-2-.43-4-1.19-5.76-.66-1.53-1.43-3.58-1.95-3.35,0,.19.2,1.34.2,1.34a7.2,7.2,0,0,1-4.3,2.2C424,378.51,420.49,378.88,420.35,377.87Z" style="fill:#37474f"></path><path d="M375.3,365c-.46,0-.94.36-1.77,1.56a14.73,14.73,0,0,1-4.35,4.11c-3.09,2.14-8,4.28-13,6.12-2.73,1-3.26,2.95-2.38,4.72,1.4,1.42,6.18,4.74,14.08,2.4,4.9-1.46,6.63-4,10.13-4.37,2.47-.3,6.76.41,9.29-1.62.81-1.89.19-3.82,0-6.47s-1.05-6.89-1.89-6.73l-.15,1.4c-.7,3.06-7.75,3.31-9.74,1.29Z" style="fill:#37474f"></path><path d="M339,193.07c-4.48-.88-5.83-1.89-10.38-7.94-2.37-3.15-11-16.59-12-18.18a26,26,0,0,0-3.8-4.12,19.11,19.11,0,0,1-3.92-3.84c-1.65-2.55-2.71-5.84-.93-8.78a5,5,0,0,0,.91-1.63c.13-.68-.22-1.39,0-2.05.28-1,1.6-1.36,2.13-2.26l.06-.1a3.18,3.18,0,0,0-.15-2.43l-1.44-4.32-.72-2.16c-.15-.44-.59-1-.44-1.54a.87.87,0,0,1,.62-.52,2.57,2.57,0,0,1,2.31.91,15.67,15.67,0,0,1,3.05,5.34,53.74,53.74,0,0,0,3,6.28c.3.53,1.35,2.45,2,1.65a4.05,4.05,0,0,0,.68-2.37,5.51,5.51,0,0,1,.73-2.2c.41-.68,1.72-1.77,2.16-.52a2.5,2.5,0,0,1,.1.82c0,1.5.1,3,.09,4.49,0,.75,0,1.49-.09,2.24,0,.39-.06.77-.1,1.16a3.66,3.66,0,0,0-.14,1.07,19,19,0,0,0-.33,3.36,5.87,5.87,0,0,0,2,3.92c.49.53,1,1.06,1.49,1.58l15,17.64,49.07,4.9-9.26,14.42S347,194.63,339,193.07Z" style="fill:#b16668"></path><path d="M384.09,182.05c-6.52-.63-43.31-3.48-43.31-3.48l-9-10.66s-2.8,6.92-9.75,7.33c0,0,6.95,11.24,9.54,14.72s3.4,3.13,11.61,4.55,33.91,3.38,33.91,3.38Z" style="fill:#f0f0f0"></path><path d="M311.93,145a4.76,4.76,0,0,1,3.66,1.48,31.61,31.61,0,0,1,2.32,4.4,1.68,1.68,0,0,1-.59,2.19,2,2,0,0,1-1.06,1.95,2.2,2.2,0,0,1-1.11,2,2.06,2.06,0,0,1-1,1.68,1.9,1.9,0,0,0,1.48-1.48,1.93,1.93,0,0,0,1.08-2,2,2,0,0,0,1.14-1.83,1.93,1.93,0,0,0,.89-2.12,14.93,14.93,0,0,0-2.07-4.35C316,145.73,315.23,144.38,311.93,145Z" style="fill:#9a4a4d"></path><path d="M410.2,184.51c4,.7,4.24,2.67,5.1,6.61.44,1.95,1.4,6.15,1,9.67l-3,23.28,1,26.8c-6.39,6.95-31.94,9.18-45.89-1-.05-21.28.45-34.19.45-49.9,0-13,7.07-17.93,15.29-17.91l14,1.2Z" style="fill:#ADE0F9"></path><path d="M395.35,153.3a12.55,12.55,0,0,1-3,8,8.8,8.8,0,0,1-3,2.57,7.07,7.07,0,0,1-4.74-.5,7.85,7.85,0,0,1-3.76-3.57,12.75,12.75,0,0,1-6.29-.19c-1.62-.55-3.73-1.82-4.1-3.59-.56-2.72.31-3.55,1.33-4.5a2.79,2.79,0,0,1-1.48-2.92,5,5,0,0,1,1.52-3,9.33,9.33,0,0,1,2.62-1.88c.84-.38,1.54-.94,2.35-1.39a12.48,12.48,0,0,1,18.52,11Z" style="fill:#263238"></path><path d="M399.26,155.74c.46-1.25.93-2.49,1.39-3.74a20.79,20.79,0,0,0,.83-2.45c.37-1.46,1-3.11,2.59-3.55a3.05,3.05,0,0,1,3.07,1,3.33,3.33,0,0,1,.35,3.32c1.59-.19,2.62,1.74,2.62,3.2a3.84,3.84,0,0,1-2.2,3.41,4.57,4.57,0,0,1,.48,4.39,11.87,11.87,0,0,1-2.61,3.77c-.95,1-2.38,2.21-2.84,3.56-.53,1.54-.62,3.13-1.4,4.61a4.25,4.25,0,0,1-2.49,2Z" style="fill:#263238"></path><path d="M399.46,162.62c.76.46,1.86-1,2.8-2s4-2.32,5.55.92-1.38,7.63-3.8,8.39c-4.18,1.29-4.8-1.39-4.8-1.39l-.37,15.05s-2.75,6.67-10.15,7.64-5.85-5.11-3.41-8.09l0-4.58a26.35,26.35,0,0,1-5.62.27c-3.06-.48-5-2.91-5.9-6.23-1.48-5.34-2-9.65-.73-20.13,1.43-11.49,14.8-11.56,22-7S399.46,162.62,399.46,162.62Z" style="fill:#b16668"></path><path d="M399.38,163.63c1.21-.34,2.09-2.27,2.88-3,.55-.5.49-1.7.51-2.36a36.22,36.22,0,0,0-.17-4c-.12-1.29-.24-2.58-.43-3.86s.34-1.67,1.07-2.5a6.55,6.55,0,0,0,1.43-2.56,4.85,4.85,0,0,0-.63-4.08,4,4,0,0,0-4.79-1.32,5.46,5.46,0,0,0-9.61-3.38,12.15,12.15,0,0,0-3.46-2.77,6,6,0,0,0-4.74-.31,4.32,4.32,0,0,0-2.19,2.26s-1.94-.76-2.1-.81a7.67,7.67,0,0,0-2.52-.33,5,5,0,0,0-3.36,1.47,4.08,4.08,0,0,0-1.1,2.69,4.16,4.16,0,0,0,1,2.74,2.85,2.85,0,0,0-2.76,1.79,3.49,3.49,0,0,0,.53,3.32,6.91,6.91,0,0,0,2.37,1.53,4.33,4.33,0,0,0,2,.37c.34,0,1.52.11,1.71-.28a3,3,0,0,0,1.11,3.61,4.28,4.28,0,0,0,3.94.3,7.81,7.81,0,0,0,3.18-2.55,4.37,4.37,0,0,0,8.36.61c-.48,1.3,1,2.65,1.95,3.25a5.45,5.45,0,0,0,1.6.75c.59.15,1.15.08,1.47.71a3,3,0,0,1,.24,1.33l.12,4a6.44,6.44,0,0,0,.27,2,2.2,2.2,0,0,0,1.35,1.41A1.31,1.31,0,0,0,399.38,163.63Z" style="fill:#263238"></path><path d="M385.3,178.58s5.55-1,7.95-2.24a10.16,10.16,0,0,0,3.57-4.07,7.46,7.46,0,0,1-2.12,4.48c-3.11,2.81-9.4,3.65-9.4,3.65Z" style="fill:#9a4a4d"></path><path d="M386.27,160.33a1.37,1.37,0,1,0,1.38-1.43A1.4,1.4,0,0,0,386.27,160.33Z" style="fill:#263238"></path><path d="M387.91,156.1l3,2a1.9,1.9,0,0,0-.56-2.57A1.77,1.77,0,0,0,387.91,156.1Z" style="fill:#263238"></path><path d="M388,168.39l-5.64,2.4a3.1,3.1,0,0,0,4.14,1.64A3,3,0,0,0,388,168.39Z" style="fill:#9a4a4d"></path><path d="M386.47,172.43a2.87,2.87,0,0,0,1.7-2,2.62,2.62,0,0,0-1-.21,2.65,2.65,0,0,0-2.63,2.43A3.19,3.19,0,0,0,386.47,172.43Z" style="fill:#f28f8f"></path><path d="M374.55,157.51l2.88-1.75a1.62,1.62,0,0,0-2.27-.62A1.77,1.77,0,0,0,374.55,157.51Z" style="fill:#263238"></path><path d="M375.68,159.81a1.37,1.37,0,1,0,1.38-1.43A1.4,1.4,0,0,0,375.68,159.81Z" style="fill:#263238"></path><polygon points="382.33 158.49 381.75 168.58 377.1 167.06 382.33 158.49" style="fill:#9a4a4d"></polygon><path d="M412.44,270.4a71.44,71.44,0,0,1,3.61-6.34c.79-1.12,1.7-1.45,2.48-3.09,1.22-2.59,1.06-9.27,1.22-11.37l11.33.74c-.09,3.85-.59,14.64-1.52,18.71-2.34,10.31-4.6,14.64-9,15.64-7.07,1.59-8.81-1.45-6.32-6.55a25.39,25.39,0,0,0,2.26-6.73,12.39,12.39,0,0,1-2.64,2.36,2.48,2.48,0,0,1-3.35-.37C410.17,273,411.33,272.28,412.44,270.4Z" style="fill:#b16668"></path><path d="M410.2,184.51s6.11-.09,9.53,3,6.09,11.13,8.31,19.4,4,15.83,4.58,21.58c.49,4.81-1.46,23.17-1.46,23.17a20.71,20.71,0,0,1-12,.42l-.85-22.39-8.77-24.87S406.61,193.49,410.2,184.51Z" style="fill:#f0f0f0"></path></g></g><g id="freepik--character-1--inject-4"><g id="freepik--character--inject-4"><g id="freepik--Bottom--inject-4"><path d="M127.29,363.32c.26-3.33,2.56-36.83,2.56-36.83l-16.16,11.9c2.36,19.2,3.32,24.35,3.38,27.55h0a2.77,2.77,0,0,0-.09.82c0,3.8,4.3,5.85,7.65,8.38a61.79,61.79,0,0,0,9.05,5.91c2.43,1.22,7.36,1.33,8-.23-4.07-3.11-8.78-6.51-12-10.06C128.09,369.07,127,367.3,127.29,363.32Z" style="fill:#ffbda7"></path><path d="M148.59,384.91a3.24,3.24,0,0,1-.61,3.28,14,14,0,0,1-10.22,2.32c-5.08-.66-7.83-2.23-9.86-3.93s-4.88-4.09-7.17-4.6a13.85,13.85,0,0,1-5.13-2.1c-.68-.66-.59-3.59-.59-3.59Z" style="fill:#263238"></path><path d="M117,365a.81.81,0,0,0-.76.69c-.16.81-.33,3.15-.67,4.48a23.84,23.84,0,0,0-.49,7.12c.27,1.5,3.75,2.55,6,3.39a28.38,28.38,0,0,1,7.2,4.55c2.39,2,7.4,4,10.71,4,3.92,0,8.32-1.3,9.33-3.11,1.25-2.25.27-3.55-5.53-6.24-1.1-.51-5-2.79-6.27-3.62-3.56-2.24-7.09-5.36-8.72-9.32a2.21,2.21,0,0,0-.84-1.21,1.89,1.89,0,0,0-1.13-.11,9.79,9.79,0,0,0-2.79.85c-.78.37-1.88.8-1.87,1.8a3.59,3.59,0,0,0,.22,1c.07.2.13.48,0,.6s-.39,0-.54-.16a14.81,14.81,0,0,1-1.57-1.87,5.45,5.45,0,0,0-.92-.94,11.17,11.17,0,0,1-1-.64C117,365.92,117.05,365.48,117,365Z" style="fill:#37474f"></path><path d="M128.28,385.24a39.29,39.29,0,0,0-3.16-2.36h0s6.82,4.15,9.58,2.27c1.78-1.22.93-2.69.89-3.16s4.34-2.49,6.06-2.69h0c.48.27.89.48,1.14.6,5.8,2.69,6.78,4,5.53,6.24-1,1.81-4.2,3.23-9.26,3.23C135.75,389.35,130.67,387.21,128.28,385.24Z" style="fill:#455a64"></path><path d="M135.11,380.61c3.61,1.44,2.07,2.11,1.06,2.26s-7.09-3.41-10.79-6.34c-3.86-3.06-6.3-6.4-7.74-7.52-.53-.42-1.11-.93-1.62-1.41.1-.8.17-1.52.25-1.9A.81.81,0,0,1,117,365c0,.47-.06.91.29,1.26a11.17,11.17,0,0,0,1,.64,5.45,5.45,0,0,1,.92.94,14.81,14.81,0,0,0,1.57,1.87C124,373.72,131.5,379.16,135.11,380.61Z" style="fill:#263238"></path><path d="M135.91,382.34a.35.35,0,0,1-.22-.08.35.35,0,0,1-.05-.51,8.57,8.57,0,0,1,6.61-2.6.34.34,0,0,1,.31.39.35.35,0,0,1-.39.32,7.94,7.94,0,0,0-6,2.35A.37.37,0,0,1,135.91,382.34Z" style="fill:#f0f0f0"></path><path d="M132.76,380.4a.4.4,0,0,1-.22-.08.35.35,0,0,1,0-.5,8.58,8.58,0,0,1,6.61-2.61.36.36,0,0,1,.32.39.36.36,0,0,1-.4.32,8,8,0,0,0-6,2.35A.37.37,0,0,1,132.76,380.4Z" style="fill:#f0f0f0"></path><path d="M129.62,378.56a.34.34,0,0,1-.23-.08.36.36,0,0,1,0-.5,8.59,8.59,0,0,1,6.61-2.61.37.37,0,0,1,.32.4.35.35,0,0,1-.4.31,8,8,0,0,0-6,2.35A.34.34,0,0,1,129.62,378.56Z" style="fill:#f0f0f0"></path><path d="M126.7,376.47a.4.4,0,0,1-.23-.08.37.37,0,0,1,0-.51,8.64,8.64,0,0,1,6.61-2.6.36.36,0,0,1,.32.39.35.35,0,0,1-.39.32,8,8,0,0,0-6,2.35A.35.35,0,0,1,126.7,376.47Z" style="fill:#f0f0f0"></path><path d="M123.84,374.37a.3.3,0,0,1-.22-.08.35.35,0,0,1-.06-.5c1.4-1.77,4.57-2.93,7.22-2.64a.36.36,0,1,1-.08.71c-2.39-.26-5.34.81-6.58,2.38A.34.34,0,0,1,123.84,374.37Z" style="fill:#f0f0f0"></path><path d="M95.88,338.68l-16.12-.29c.24,10.75,1.95,22.69,2.23,32.78.05,1.9,0,14.77.67,18.67,1.08,5.88,8,5.08,8.42,1.57s-.45-18.53-.43-20.08c-.06-6.47,3-17.4,4.56-29C95.29,341.74,95.8,339.23,95.88,338.68Z" style="fill:#ffbda7"></path><path d="M93.7,393.86c.15,3.45-.16,5.78-1.17,7.91a5.07,5.07,0,0,1-5.63,2.64c-2.39-.35-5.53-1.63-6.49-4.52a19,19,0,0,1-.83-8.17Z" style="fill:#263238"></path><path d="M82,369.94c-1,.17-.77,4.81-.86,9.48-.09,5-1.36,7.19-1.49,11.3-.14,4.69.32,6.74,2.22,9.37s7.93,4.81,10.35.52c2-3.51,1.71-7.14,1-11.75a117.27,117.27,0,0,1-1.4-11.75c-.16-3.48-.26-6.87-1.13-7.17,0,.52,0,1.17,0,1.68s.08,2.27-.45,2.34a7,7,0,0,1-.15-1.3,1.54,1.54,0,0,0-.37-1.09,1.81,1.81,0,0,0-1.11-.37,28,28,0,0,0-2.9-.16,13.91,13.91,0,0,0-1.44.09,3.83,3.83,0,0,0-1.2.29.88.88,0,0,0-.47.53,1.58,1.58,0,0,0,0,.53,3.86,3.86,0,0,1,0,1c0,.14-.1.32-.24.3s-.17-.15-.18-.26c-.06-.56,0-1-.07-1.63,0-.3,0-.72,0-1S82,370.24,82,369.94Z" style="fill:#37474f"></path><path d="M79.69,389.38c0,.68-.15,5.16,1.14,5.84s1.75-2.82,1.75-2.82,3-1.25,7.61.25c-.15.74.77,3,1.94,2.42s1.14-5.74,1.14-5.81c.63,4.42.83,7.95-1.1,11.35-2.42,4.29-8.45,2.12-10.35-.52s-2.36-4.68-2.22-9.37C79.62,390.25,79.65,389.81,79.69,389.38Z" style="fill:#455a64"></path><path d="M83,392.66c.15,1.68-1.56,1.28-1.87-1.08s.42-8.1,0-12.16c.09-4.67-.09-9.31.86-9.48,0,.06,0,.11,0,.17l.11,2.36c0,.34,0,.65.05,1,.32,3.41.5,10.06.52,13.21A55.27,55.27,0,0,0,83,392.66Z" style="fill:#263238"></path><path d="M89.67,392.66a54.64,54.64,0,0,0,.33-6c0-3.13.2-9.69.51-13.13a8.49,8.49,0,0,0,.14-1.94c0-.48,0-1.07,0-1.57a.41.41,0,0,1,0-.11c.63.23.85,2.08,1,4.41,0,1.35,0,3-.14,5.07-.42,4.06.32,9.83,0,12.19S89.52,394.34,89.67,392.66Z" style="fill:#263238"></path><path d="M90.3,392.78a.31.31,0,0,1-.13,0,11.43,11.43,0,0,0-7.46,0,.35.35,0,0,1-.46-.21.35.35,0,0,1,.21-.46,11.94,11.94,0,0,1,8,0,.35.35,0,0,1,.19.47A.36.36,0,0,1,90.3,392.78Z" style="fill:#f0f0f0"></path><path d="M90.74,389.07l-.12,0a14.17,14.17,0,0,0-8.36,0,.35.35,0,0,1-.45-.22.36.36,0,0,1,.22-.45,14.58,14.58,0,0,1,8.83,0,.36.36,0,0,1,.21.46A.37.37,0,0,1,90.74,389.07Z" style="fill:#f0f0f0"></path><path d="M82.15,385.55a.36.36,0,0,1-.33-.21.37.37,0,0,1,.18-.48c4.15-1.88,8.62-.13,8.8-.05a.35.35,0,0,1,.2.47.35.35,0,0,1-.46.19s-4.38-1.72-8.24,0A.4.4,0,0,1,82.15,385.55Z" style="fill:#f0f0f0"></path><path d="M82.07,382.27a.36.36,0,0,1-.16-.68,11.05,11.05,0,0,1,9-.1.36.36,0,1,1-.31.64,10.57,10.57,0,0,0-8.36.1A.28.28,0,0,1,82.07,382.27Z" style="fill:#f0f0f0"></path><path d="M82,378.58a.35.35,0,0,1-.32-.2.36.36,0,0,1,.16-.48c4.27-2.1,8.86-.09,9,0a.36.36,0,1,1-.29.65s-4.48-2-8.44,0A.29.29,0,0,1,82,378.58Z" style="fill:#ebebeb"></path><path d="M88.52,225.53c-1.59,3.7-5.76,14.55-6.59,21.58-3.09,26,0,57.25,0,57.25-.21,2.49-2,8.12-2.85,19.09-.8,10.81,1.26,29,1.26,29s6.82,3,13.51.38c0,0,6.32-33.47,7.94-46.34,1.42-11.22,5.38-35.52,5.38-35.52l4.63,35.93s-.43,10.1-.13,16.63c.35,7.6,3.66,28.92,3.66,28.92s8.36,4.24,13.11-.87c0,0,2.75-37.2,2.91-46.34.31-17.93-.52-50.34-3.44-69.14Z" style="fill:#455a64"></path><path d="M107.17,270.94l1.66-11.43s9.65-1.29,14-5.4a15.83,15.83,0,0,1-11.37,7.19l-1.71,10.34,1.47,30.92Z" style="fill:#37474f"></path></g><g id="freepik--Top--inject-4"><path d="M115.23,180.57c6.13.46,11.75.22,17,7.79,4.09,5.86,9.91,21.09,12.58,27,1.71,3.81,1.23,5.86-.37,8.34-2.22,3.43-15.6,19.76-15.6,19.76a8.67,8.67,0,0,1-6.05-9.08l8.85-14.31-9.39-18.7Z" style="fill:#ffbda7"></path><path d="M131.66,220.09c2.17-1.52,8-1.27,9.42-.45,0,0-3.16-3.85-10.11-.92Z" style="fill:#f0997a"></path><path d="M114.87,180.27c9.6,0,13.61,1.77,16.9,5.95,2.3,2.93,10.39,22.18,10.39,22.18s-1.62,4.9-13.06,7.39L123.38,203Z" style="fill:#e0e0e0"></path><path d="M127.19,210.18c-.43,4.7-.51,17.36-.51,17.36,1.7,12,2.87,18.8,2.87,18.8-15.58,13.48-42.38,6.82-48.33,1,2.43-13.68,6.6-22,6.6-22l-.31-4.8-3.28-17s8.16-10,7.46-23.05l10.59-1.09,10.12.28,7.18.51A60.36,60.36,0,0,1,129,191.89C132.46,197.52,132.59,204.52,127.19,210.18Z" style="fill:#f5f5f5"></path><path d="M100.09,173.62a30.84,30.84,0,0,1-5-6.76c-2.31-4.19-4.66-14.49.12-20.81s15.62-10.09,22-7.09,8.16,10.28,8.16,10.28Z"></path><path d="M97,147.32c-3-5-10.85-5.56-15.66-2.69s-7.08,7.25-5.52,13.21,1,9.12-2.65,12.48c-5.46,5.09-1,11.94,3.39,14.76s1.77,6.16,3.87,8.7,9-.22,9.73-6.4c.64-5.75-8.11-9.27-3.71-15.31,3.41-4.7,3.6-8.61,1.85-14s1-10.07,6.33-7.86Z"></path><path d="M92.63,158.41a3.12,3.12,0,0,1,3.44-1,5,5,0,0,1,2.7,2.3,5.24,5.24,0,0,0,.43.77,1,1,0,0,0,.74.45,1.32,1.32,0,0,0,1.06-.75,21,21,0,0,0,1-2.14,3.88,3.88,0,0,1,1.36-1.71A6.79,6.79,0,0,0,105,155a7.54,7.54,0,0,0,1.88-3.64c.29-1.47.16-3.08,1-4.34a6.14,6.14,0,0,1,2.59-2c1.49-.75,3.18-1.69,4.87-1.62,1,.05,1.94-.09,2.91,0a8.3,8.3,0,0,1,2.91.32c2.39,1.23,5.74,3.84,5.22,16-.4,9.52-3.88,13.91-5.52,14.74s-3.63,1-6.81.7v5.42s4.2,3.51,2,8.45a32,32,0,0,1-8.86-2.54c-6.29-3.12-6.91-6-6.91-6L100,166s-2.11,3-5.42.42C91.84,164.35,90.74,160.58,92.63,158.41Z" style="fill:#ffbda7"></path><path d="M125.37,149.07c-6.82-1.65-15.16-.41-22.06,2.86a12.24,12.24,0,0,1,1.57-2.83,14.87,14.87,0,0,1,9.48-5.54,20.27,20.27,0,0,1,6.73.1C122.52,144.39,124.28,145.61,125.37,149.07Z" style="fill:#ffbda7"></path><path d="M112.91,157.68a1.53,1.53,0,0,1-1.34,1.65,1.44,1.44,0,0,1-1.62-1.28,1.54,1.54,0,0,1,1.34-1.65A1.44,1.44,0,0,1,112.91,157.68Z"></path><path d="M121.35,153.3l3.19-1a1.61,1.61,0,0,1-1,2.11A1.78,1.78,0,0,1,121.35,153.3Z"></path><path d="M109.05,152.77l3.28.74a1.62,1.62,0,0,1-2,1.3A1.78,1.78,0,0,1,109.05,152.77Z"></path><path d="M115.72,169.38l-3.66-1.46a2.09,2.09,0,0,1,2.74-1A1.82,1.82,0,0,1,115.72,169.38Z" style="fill:#f0997a"></path><path d="M124.19,156.94a1.53,1.53,0,0,1-1.34,1.64,1.44,1.44,0,0,1-1.62-1.28,1.53,1.53,0,0,1,1.34-1.64A1.44,1.44,0,0,1,124.19,156.94Z"></path><polygon points="116.9 155.65 117 164.39 121.85 163.17 116.9 155.65" style="fill:#f0997a"></polygon><path d="M114,175.13c-3.36-.5-10.47-2.29-11.7-4.93A7.85,7.85,0,0,0,105,174c2.15,1.62,9,3.08,9,3.08Z" style="fill:#f0997a"></path><path d="M125.48,149.1l-.11,0c-6.82-1.65-15.16-.41-22.06,2.86-.23.1-.45.22-.68.33h0a31.43,31.43,0,0,0-7.13,5A3.3,3.3,0,0,0,92.24,159a33.72,33.72,0,0,1-1.39-4.11c-1.15-9.32.25-15.63,14.65-19.4,10-2.63,17.12.88,19.15,8.45C125,145.24,125.18,147.7,125.48,149.1Z" style="fill:#ADE0F9"></path><path d="M102.47,150.92a19.16,19.16,0,0,1,7.38-6.92c3.43-2,10.57-2.25,13.78-2.28,5.61-.07,7,1.09,7.08,1.91,0,.2.12,1.1.15,1.31a.71.71,0,0,1-.1.53c-.8,1.3-5.28,3.63-5.28,3.63-7.06-1.75-15.78-.38-22.84,3.16Z" style="fill:#ADE0F9"></path><path d="M102.47,150.92a19.16,19.16,0,0,1,7.38-6.92c3.43-2,10.57-2.25,13.78-2.28,5.61-.07,7,1.09,7.08,1.91,0,.2.12,1.1.15,1.31a.71.71,0,0,1-.1.53c-.8,1.3-5.28,3.63-5.28,3.63-7.06-1.75-15.78-.38-22.84,3.16Z" style="opacity:0.15"></path><path d="M102.64,152.26c7.06-3.54,15.78-4.91,22.84-3.16,0,0,4.48-2.33,5.28-3.63.43-.71,0-2.5-7-2.42-3.2,0-10.34.32-13.78,2.28A19,19,0,0,0,102.64,152.26Z" style="fill:#ADE0F9"></path><path d="M102.64,152.26c7.06-3.54,15.78-4.91,22.84-3.16,0,0,4.48-2.33,5.28-3.63.43-.71,0-2.5-7-2.42-3.2,0-10.34.32-13.78,2.28A19,19,0,0,0,102.64,152.26Z" style="opacity:0.30000000000000004"></path><path d="M129.93,192.64c-2.16-3.67-6.42-10.13-10.35-12.46a9.07,9.07,0,0,0-5.6-1.73v1.48s3.28.87,7,5a24.83,24.83,0,0,1,5,7.88Z" style="fill:#ADE0F9"></path><path d="M100.18,180.48c-.44.51-.61,2.72-.29,6.11s.91,10.19.91,10.19l-4.4,1.3s-.26-6.38,0-12,1.71-7.09,3.75-7.65Z" style="fill:#ADE0F9"></path><g style="opacity:0.25"><path d="M129.93,192.64c-2.16-3.67-6.42-10.13-10.35-12.46a9.07,9.07,0,0,0-5.6-1.73v1.48s3.28.87,7,5a24.83,24.83,0,0,1,5,7.88Z"></path><path d="M100.18,180.48c-.44.51-.61,2.72-.29,6.11s.91,10.19.91,10.19l-4.4,1.3s-.26-6.38,0-12,1.71-7.09,3.75-7.65Z"></path></g><path d="M95.46,197.23c2-2,33.68-5.81,34.47-4.59,4.77,7.26-.83,25.42-3.25,30.08,0,0-9.05,6.23-29.49,3.26C97.19,226,93.48,199.19,95.46,197.23Z" style="fill:#ADE0F9"></path><path d="M97.08,228.41c-4.41,6.15-11.06,33.93-10.55,50.41,0,0,17.51,4.64,31.22,2.08,14.5-2.7,16.08-7.46,16.08-7.46a317.79,317.79,0,0,0-7.15-45.9Z" style="fill:#ADE0F9"></path><path d="M126.68,222.72c-5.54,3.45-27.65,7-39.17-2.21l.31,4.8s2.53,5.62,18.56,6.1,20.3-3.87,20.3-3.87Z" style="fill:#ADE0F9"></path><path d="M126.68,222.72c-5.54,3.45-27.65,7-39.17-2.21l.31,4.8s2.53,5.62,18.56,6.1,20.3-3.87,20.3-3.87Z" style="opacity:0.2"></path><path d="M35.87,184.9c1.35,1.06,6.68,6.34,9.9,7.27,1.37.39,1.78.23,1.79-.14s-.74-1.41-.89-1.85c-.25-.76-2-4.06-.85-5.43s1.61.21,3.32,2.56,3.68,3.39,5.08,6,1.36,6.43,3.88,9.6L68.56,213s9.87-24.65,12.8-27.25c3.08-2.73,12.68,5.48,8.65,15.15s-12,26.83-16.19,29.64c-2.74,1.82-7.38-1.13-12.66-7.73-4.18-5.21-9.8-13-12.22-15.73S40.77,202,38.32,200a9.72,9.72,0,0,1-3.84-5.8c-.69-2.32.36-5.66,0-7.06S34.52,183.85,35.87,184.9Z" style="fill:#ffbda7"></path><path d="M91.68,180.63c1.77,2.14,1.73,7.16,1.36,11.77a28.87,28.87,0,0,1-3.65,11.81c-2.45,4.69-6,12-6,12s-9.2-2.35-13.55-7.62c0,0,3-7.05,5.89-14.13S80.16,181.74,91.68,180.63Z" style="fill:#e0e0e0"></path><path d="M68.56,213c2.45,2,3.48,5.46,3.76,6.82a9.64,9.64,0,0,0-3.25-8.09Z" style="fill:#f0997a"></path></g><g id="freepik--Angry--inject-4"><path d="M94.52,147.58c0-.06,0-.1,0,0Z" style="fill:#f28f8f"></path><path d="M95.85,148.39a3.26,3.26,0,0,0-1.26-1.51c-.3-.2-.86-.31-1,.11a1,1,0,0,0,.44,1.14l.05,0,.11.1h0a.61.61,0,0,1,.07.1h0l.06.14s0,.08,0,.13,0,.11,0,.17,0,0,0-.05a.43.43,0,0,0,0,.05l0,.31h0a.83.83,0,0,1,0,.15,1.66,1.66,0,0,1-.12.31c0,.06,0,.11-.07.16h0l0,0,0,0c0,.06,0,.06,0,0s-.1.16-.16.23l-.21.23-.12.12h0a1.53,1.53,0,0,1-.27.17l-.16.09-.06,0a3.16,3.16,0,0,0-.61.22.6.6,0,0,0-.28.77,1.13,1.13,0,0,0,.77.73,1.79,1.79,0,0,0,.89,0,3.44,3.44,0,0,0,.71-.3,3.41,3.41,0,0,0,1-.9A3,3,0,0,0,95.85,148.39Z" style="fill:#fff"></path><path d="M94.15,148.54l0,0,0,0Z" style="fill:#f28f8f"></path><path d="M100.2,147.36a5.8,5.8,0,0,0-1.22.33l-.09,0h0l-.25,0h-.32l-.23-.05-.08,0-.16-.08,0,0,0,0-.09-.09,0,0c0-.05,0-.09,0-.13a.93.93,0,0,1,0-.13v0c0-.08,0-.19,0-.28v-.15a.41.41,0,0,0,0-.11v0a.29.29,0,0,1,0-.09,1.55,1.55,0,0,1,0-.21,1,1,0,0,0-.44-1c-.31-.18-.65-.15-.79.21a3.21,3.21,0,0,0-.25,1.5,2.38,2.38,0,0,0,.64,1.42,3.16,3.16,0,0,0,3.29.74,2,2,0,0,0,.43-.23l.11-.08,0-.05.17-.17a.59.59,0,0,0,.11-.32C101,147.87,100.62,147.33,100.2,147.36Z" style="fill:#fff"></path><path d="M97.36,154a7,7,0,0,0,.19-1.3.29.29,0,0,1,0-.09v0c0-.09.05-.17.08-.25a2.44,2.44,0,0,1,.1-.24l0-.1v0h0a2.43,2.43,0,0,1,.14-.2l0-.06.14-.13,0,0,0,0,.13,0h.21l.13,0h0c.08,0,.2.06.28.1l.15.07.09.05,0,0,.08,0,.18.13a1,1,0,0,0,1.13,0c.3-.22.42-.55.13-.84a3.38,3.38,0,0,0-1.33-.87,2.6,2.6,0,0,0-1.63,0,3.11,3.11,0,0,0-1.92,2,3.31,3.31,0,0,0-.16.82,2.19,2.19,0,0,0,0,.51.74.74,0,0,0,0,.14.14.14,0,0,0,0,.06l.09.23a.69.69,0,0,0,.27.24A.84.84,0,0,0,97.36,154Z" style="fill:#fff"></path></g></g></g><g id="freepik--Counter--inject-4"><g id="freepik--counter--inject-4"><g id="freepik--counter--inject-4"><polygon points="248.99 373.78 208.71 350.59 248.99 327.39 248.99 373.78" style="fill:#ADE0F9"></polygon><polygon points="248.99 373.78 208.71 350.59 248.99 327.39 248.99 373.78" style="opacity:0.35000000000000003"></polygon><polygon points="131.87 441.4 131.87 330.31 73.31 296.51 73.31 407.59 131.87 441.4" style="fill:#ADE0F9"></polygon><polygon points="131.87 441.4 131.87 330.31 73.31 296.51 73.31 407.59 131.87 441.4" style="opacity:0.1"></polygon><polygon points="257.35 311 257.35 257.87 131.87 330.31 131.87 383.44 131.87 383.44 131.87 385.86 131.87 388.27 131.87 388.27 131.87 441.4 140.24 436.57 140.24 395.01 248.99 332.22 248.99 373.78 257.35 368.95 257.35 311 257.35 311" style="fill:#ADE0F9"></polygon><polygon points="257.35 311 257.35 257.87 131.87 330.31 131.87 383.44 131.87 383.44 131.87 385.86 131.87 388.27 131.87 388.27 131.87 441.4 140.24 436.57 140.24 395.01 248.99 332.22 248.99 373.78 257.35 368.95 257.35 311 257.35 311" style="opacity:0.2"></polygon><polygon points="127.69 332.73 261.53 255.45 202.98 221.65 156.97 248.21 69.13 298.92 127.69 332.73" style="fill:#ADE0F9"></polygon><polygon points="127.69 332.73 261.53 255.45 202.98 221.65 156.97 248.21 69.13 298.92 127.69 332.73" style="fill:#fff;opacity:0.6000000000000001"></polygon><polygon points="69.13 298.92 69.13 308.58 127.69 342.39 127.69 332.73 69.13 298.92" style="fill:#ADE0F9"></polygon><polygon points="69.13 298.92 69.13 308.58 127.69 342.39 127.69 332.73 69.13 298.92" style="fill:#fff;opacity:0.30000000000000004"></polygon><polygon points="257.35 267.53 131.87 339.97 131.87 342.39 257.35 269.94 257.35 267.53" style="opacity:0.15"></polygon><polygon points="127.69 342.39 261.53 265.11 261.53 255.45 127.69 332.73 127.69 342.39" style="fill:#ADE0F9"></polygon><polygon points="131.87 339.97 129.78 341.18 131.87 342.39 131.87 339.97" style="opacity:0.15"></polygon></g><g id="freepik--Tablecloth--inject-4"><polygon points="115.21 278.32 80.89 298.12 128.94 325.86 163.25 306.05 115.21 278.32" style="opacity:0.15"></polygon><polygon points="115.22 276.92 80.89 296.72 128.94 324.46 163.25 304.65 115.22 276.92" style="fill:#fafafa"></polygon><path d="M128.72,288.54a1.34,1.34,0,1,0,1.53,1.33A1.45,1.45,0,0,0,128.72,288.54Z" style="fill:#ADE0F9"></path><path d="M122.6,309.74a1.34,1.34,0,1,0,1.53,1.33A1.45,1.45,0,0,0,122.6,309.74Z" style="fill:#ADE0F9"></path><path d="M128.72,293.84a1.34,1.34,0,1,0,1.53,1.33A1.45,1.45,0,0,0,128.72,293.84Z" style="fill:#ADE0F9"></path><path d="M128.72,285.9a1.59,1.59,0,0,0,1.17-.51l-2.5-1.44a1.13,1.13,0,0,0-.21.62A1.45,1.45,0,0,0,128.72,285.9Z" style="fill:#ADE0F9"></path><path d="M128.72,299.14a1.34,1.34,0,1,0,1.53,1.33A1.45,1.45,0,0,0,128.72,299.14Z" style="fill:#ADE0F9"></path><path d="M122.6,315a1.34,1.34,0,1,0,1.53,1.33A1.45,1.45,0,0,0,122.6,315Z" style="fill:#ADE0F9"></path><path d="M128.72,315a1.34,1.34,0,1,0,1.53,1.33A1.45,1.45,0,0,0,128.72,315Z" style="fill:#ADE0F9"></path><path d="M128.72,304.44a1.34,1.34,0,1,0,1.53,1.33A1.45,1.45,0,0,0,128.72,304.44Z" style="fill:#ADE0F9"></path><path d="M116.48,309.74a1.34,1.34,0,1,0,1.53,1.33A1.45,1.45,0,0,0,116.48,309.74Z" style="fill:#ADE0F9"></path><ellipse cx="116.48" cy="305.77" rx="1.53" ry="1.33" style="fill:#ADE0F9"></ellipse><path d="M128.72,309.74a1.34,1.34,0,1,0,1.53,1.33A1.45,1.45,0,0,0,128.72,309.74Z" style="fill:#ADE0F9"></path><path d="M122.6,283.24a1.34,1.34,0,1,0,1.53,1.33A1.45,1.45,0,0,0,122.6,283.24Z" style="fill:#ADE0F9"></path><path d="M122.6,299.14a1.34,1.34,0,1,0,1.53,1.33A1.45,1.45,0,0,0,122.6,299.14Z" style="fill:#ADE0F9"></path><path d="M122.6,288.54a1.34,1.34,0,1,0,1.53,1.33A1.45,1.45,0,0,0,122.6,288.54Z" style="fill:#ADE0F9"></path><path d="M122.6,304.44a1.34,1.34,0,1,0,1.53,1.33A1.45,1.45,0,0,0,122.6,304.44Z" style="fill:#ADE0F9"></path><path d="M122.6,293.84a1.34,1.34,0,1,0,1.53,1.33A1.45,1.45,0,0,0,122.6,293.84Z" style="fill:#ADE0F9"></path><path d="M118,316.37a1.55,1.55,0,0,0-3.07,0h0l2.1,1.22A1.35,1.35,0,0,0,118,316.37Z" style="fill:#ADE0F9"></path><path d="M134.84,288.54a1.34,1.34,0,1,0,1.53,1.33A1.45,1.45,0,0,0,134.84,288.54Z" style="fill:#ADE0F9"></path><path d="M147.08,299.14a1.34,1.34,0,1,0,1.53,1.33A1.44,1.44,0,0,0,147.08,299.14Z" style="fill:#ADE0F9"></path><ellipse cx="140.96" cy="305.77" rx="1.53" ry="1.33" style="fill:#ADE0F9"></ellipse><path d="M141,309.74a1.34,1.34,0,1,0,1.53,1.33A1.45,1.45,0,0,0,141,309.74Z" style="fill:#ADE0F9"></path><path d="M159.32,304.44a1.44,1.44,0,0,0-1.53,1.33,1.39,1.39,0,0,0,1.3,1.29l1.69-1a1.08,1.08,0,0,0,.07-.31A1.45,1.45,0,0,0,159.32,304.44Z" style="fill:#ADE0F9"></path><path d="M111.89,279.27a1.18,1.18,0,0,0-.09-.38l-2.4,1.39a1.62,1.62,0,0,0,1,.31A1.44,1.44,0,0,0,111.89,279.27Z" style="fill:#ADE0F9"></path><path d="M116.48,299.14a1.34,1.34,0,1,0,1.53,1.33A1.45,1.45,0,0,0,116.48,299.14Z" style="fill:#ADE0F9"></path><path d="M147.08,309.74a1.34,1.34,0,1,0,1.53,1.33A1.44,1.44,0,0,0,147.08,309.74Z" style="fill:#ADE0F9"></path><ellipse cx="134.84" cy="305.77" rx="1.53" ry="1.33" style="fill:#ADE0F9"></ellipse><path d="M134.84,299.14a1.34,1.34,0,1,0,1.53,1.33A1.45,1.45,0,0,0,134.84,299.14Z" style="fill:#ADE0F9"></path><path d="M134.84,293.84a1.34,1.34,0,1,0,1.53,1.33A1.45,1.45,0,0,0,134.84,293.84Z" style="fill:#ADE0F9"></path><path d="M141,299.14a1.34,1.34,0,1,0,1.53,1.33A1.45,1.45,0,0,0,141,299.14Z" style="fill:#ADE0F9"></path><path d="M134.84,315a1.34,1.34,0,1,0,1.53,1.33A1.45,1.45,0,0,0,134.84,315Z" style="fill:#ADE0F9"></path><path d="M141,293.84a1.34,1.34,0,1,0,1.53,1.33A1.45,1.45,0,0,0,141,293.84Z" style="fill:#ADE0F9"></path><path d="M134.84,309.74a1.34,1.34,0,1,0,1.53,1.33A1.45,1.45,0,0,0,134.84,309.74Z" style="fill:#ADE0F9"></path><path d="M147.08,304.44a1.34,1.34,0,1,0,1.53,1.33A1.44,1.44,0,0,0,147.08,304.44Z" style="fill:#ADE0F9"></path><path d="M124.13,321.67a1.45,1.45,0,0,0-1.53-1.33,1.64,1.64,0,0,0-.6.11l2.13,1.23Z" style="fill:#ADE0F9"></path><path d="M98.11,288.54a1.34,1.34,0,1,0,1.54,1.33A1.45,1.45,0,0,0,98.11,288.54Z" style="fill:#ADE0F9"></path><path d="M104.23,309.74a1.73,1.73,0,0,0-.6.11l2.13,1.23h0A1.45,1.45,0,0,0,104.23,309.74Z" style="fill:#ADE0F9"></path><path d="M85.87,296.5a1.34,1.34,0,1,0,0-2.66l-1.42.82a1.27,1.27,0,0,0-.12.51A1.45,1.45,0,0,0,85.87,296.5Z" style="fill:#ADE0F9"></path><path d="M99.65,305.77a1.55,1.55,0,0,0-3.07,0h0L98.69,307A1.35,1.35,0,0,0,99.65,305.77Z" style="fill:#ADE0F9"></path><path d="M93.53,289.87a1.18,1.18,0,0,0-.09-.38L91,290.87a1.57,1.57,0,0,0,1,.33A1.45,1.45,0,0,0,93.53,289.87Z" style="fill:#ADE0F9"></path><path d="M92,299.14a1.34,1.34,0,1,0,1.54,1.33A1.45,1.45,0,0,0,92,299.14Z" style="fill:#ADE0F9"></path><path d="M92,293.84a1.34,1.34,0,1,0,1.54,1.33A1.45,1.45,0,0,0,92,293.84Z" style="fill:#ADE0F9"></path><path d="M85.87,299.14a1.73,1.73,0,0,0-.6.11l2.13,1.23h0A1.45,1.45,0,0,0,85.87,299.14Z" style="fill:#ADE0F9"></path><path d="M153.2,301.8a1.34,1.34,0,1,0-1.53-1.33A1.45,1.45,0,0,0,153.2,301.8Z" style="fill:#ADE0F9"></path><ellipse cx="153.2" cy="305.77" rx="1.53" ry="1.33" style="fill:#ADE0F9"></ellipse><path d="M145.55,295.17a1.44,1.44,0,0,0,1.53,1.33,1.59,1.59,0,0,0,1.17-.51l-2.5-1.44A1.12,1.12,0,0,0,145.55,295.17Z" style="fill:#ADE0F9"></path><path d="M116.48,293.84a1.34,1.34,0,1,0,1.53,1.33A1.45,1.45,0,0,0,116.48,293.84Z" style="fill:#ADE0F9"></path><path d="M130.25,321.67a1.55,1.55,0,1,0-1.53,1.33A1.45,1.45,0,0,0,130.25,321.67Z" style="fill:#ADE0F9"></path><path d="M141,315a1.45,1.45,0,0,0-1.54,1.33,1.4,1.4,0,0,0,1.31,1.29l1.69-1a1.08,1.08,0,0,0,.07-.31A1.45,1.45,0,0,0,141,315Z" style="fill:#ADE0F9"></path><path d="M151.67,311.07a1,1,0,0,0,.05.24L154,310a1.61,1.61,0,0,0-.82-.24A1.44,1.44,0,0,0,151.67,311.07Z" style="fill:#ADE0F9"></path><path d="M134.84,320.34a1.45,1.45,0,0,0-1.54,1.33.94.94,0,0,0,.06.24l2.3-1.33A1.61,1.61,0,0,0,134.84,320.34Z" style="fill:#ADE0F9"></path><path d="M110.36,299.14a1.34,1.34,0,1,0,1.53,1.33A1.45,1.45,0,0,0,110.36,299.14Z" style="fill:#ADE0F9"></path><path d="M110.36,309.74a1.34,1.34,0,1,0,1.53,1.33A1.45,1.45,0,0,0,110.36,309.74Z" style="fill:#ADE0F9"></path><path d="M110.36,288.54a1.34,1.34,0,1,0,1.53,1.33A1.45,1.45,0,0,0,110.36,288.54Z" style="fill:#ADE0F9"></path><path d="M110.36,293.84a1.34,1.34,0,1,0,1.53,1.33A1.45,1.45,0,0,0,110.36,293.84Z" style="fill:#ADE0F9"></path><path d="M110.36,304.44a1.34,1.34,0,1,0,1.53,1.33A1.45,1.45,0,0,0,110.36,304.44Z" style="fill:#ADE0F9"></path><path d="M116.48,288.54a1.34,1.34,0,1,0,1.53,1.33A1.45,1.45,0,0,0,116.48,288.54Z" style="fill:#ADE0F9"></path><path d="M116.48,277.94a1.34,1.34,0,1,0,1.53,1.33A1.45,1.45,0,0,0,116.48,277.94Z" style="fill:#ADE0F9"></path><path d="M116.48,283.24a1.34,1.34,0,1,0,1.53,1.33A1.45,1.45,0,0,0,116.48,283.24Z" style="fill:#ADE0F9"></path><path d="M104.23,288.54a1.34,1.34,0,1,0,1.54,1.33A1.45,1.45,0,0,0,104.23,288.54Z" style="fill:#ADE0F9"></path><path d="M98.11,299.14a1.34,1.34,0,1,0,1.54,1.33A1.45,1.45,0,0,0,98.11,299.14Z" style="fill:#ADE0F9"></path><path d="M110.36,283.24a1.34,1.34,0,1,0,1.53,1.33A1.45,1.45,0,0,0,110.36,283.24Z" style="fill:#ADE0F9"></path><path d="M104.23,293.84a1.34,1.34,0,1,0,1.54,1.33A1.45,1.45,0,0,0,104.23,293.84Z" style="fill:#ADE0F9"></path><path d="M98.11,293.84a1.34,1.34,0,1,0,1.54,1.33A1.45,1.45,0,0,0,98.11,293.84Z" style="fill:#ADE0F9"></path><path d="M104.23,285.9a1.34,1.34,0,1,0,0-2.66l-1.43.83a1.23,1.23,0,0,0-.12.5A1.45,1.45,0,0,0,104.23,285.9Z" style="fill:#ADE0F9"></path><ellipse cx="104.23" cy="305.77" rx="1.53" ry="1.33" style="fill:#ADE0F9"></ellipse><path d="M104.23,299.14a1.34,1.34,0,1,0,1.54,1.33A1.45,1.45,0,0,0,104.23,299.14Z" style="fill:#ADE0F9"></path><polygon points="122.07 300.67 104.92 310.6 128.94 324.46 146.1 314.56 122.07 300.67" style="opacity:0.05"></polygon><polygon points="115.14 276.92 97.99 286.85 122.02 300.71 139.17 290.81 115.14 276.92" style="opacity:0.05"></polygon><polygon points="146.1 314.56 122.02 300.71 104.92 310.6 122 302.09 146.1 314.56" style="opacity:0.1"></polygon><polygon points="97.99 286.85 122.02 300.71 139.17 290.81 122.07 299.47 97.99 286.85" style="opacity:0.1"></polygon></g><g id="freepik--Burger--inject-4"><ellipse id="freepik--shadow--inject-4" cx="120.72" cy="302.57" rx="17.36" ry="10.02" style="opacity:0.15"></ellipse><g id="freepik--Burguer--inject-4"><path d="M131.51,292.54c-6-3.44-15.62-3.44-21.58,0-3,1.72-4.45,4-4.46,6.22,0,.48,0,2.41,0,2.89,0,2.25,1.48,4.51,4.46,6.23,6,3.44,15.62,3.44,21.58,0,3-1.71,4.45-4,4.46-6.21v-2.9C136,296.51,134.49,294.26,131.51,292.54Z" style="fill:#ffbda7"></path><path d="M109.93,305c6,3.44,15.62,3.44,21.58,0s6-9,0-12.46-15.62-3.44-21.58,0S104,301.56,109.93,305Z" style="fill:#f0997a"></path><path d="M131.51,288.92c-6-3.44-15.62-3.44-21.58,0-3,1.71-4.45,4-4.46,6.21,0,.49,0,2.41,0,2.89,0,2.26,1.48,4.52,4.46,6.24,6,3.44,15.62,3.44,21.58,0,3-1.72,4.45-4,4.46-6.22v-2.9C136,292.89,134.49,290.64,131.51,288.92Z" style="fill:#b16668"></path><path d="M109.93,301.38c6,3.44,15.62,3.44,21.58,0s6-9,0-12.46-15.62-3.44-21.58,0S104,297.94,109.93,301.38Z" style="fill:#9a4a4d"></path><path d="M131.54,291.91H109.9c-2.41,3.52-2.4,9.12-2.41,10.22s.14,1.79,1.93,1.4a57.27,57.27,0,0,1,11.3-1.36,57.27,57.27,0,0,1,11.3,1.36c1.79.39,1.93-.3,1.93-1.4S134,295.43,131.54,291.91Z" style="fill:#f0f0f0"></path><path d="M108,299.76a3.55,3.55,0,0,0,2.12,1.63,25.85,25.85,0,0,0,2.65.27c1.81.27,3,1.51,4.65,2.16a4.88,4.88,0,0,0,2.17.34,7.74,7.74,0,0,0,2.39-.62c1.22-.49,2.4-1.1,3.66-1.48a6.57,6.57,0,0,1,3-.26,4.24,4.24,0,0,0,2.53-.26c1.5-.71,2-2.66,3.37-3.61,1.08-.75,2.66-.88,3.3-2a2.4,2.4,0,0,0-.43-2.62,5.37,5.37,0,0,0-2.38-1.45,21.44,21.44,0,0,0-5.14-1.05c-3.92-.4-7.86-.63-11.8-.74s-7.67-.23-11.44,1a7.06,7.06,0,0,0-2.41,1.19,2.9,2.9,0,0,0-1.09,2.36,3.06,3.06,0,0,0,1.52,2c.46.31,1,.52,1.43.86A9.4,9.4,0,0,1,108,299.76Z" style="fill:#ADE0F9"></path><path d="M108,299.76a3.55,3.55,0,0,0,2.12,1.63,25.85,25.85,0,0,0,2.65.27c1.81.27,3,1.51,4.65,2.16a4.88,4.88,0,0,0,2.17.34,7.74,7.74,0,0,0,2.39-.62c1.22-.49,2.4-1.1,3.66-1.48a6.57,6.57,0,0,1,3-.26,4.24,4.24,0,0,0,2.53-.26c1.5-.71,2-2.66,3.37-3.61,1.08-.75,2.66-.88,3.3-2a2.4,2.4,0,0,0-.43-2.62,5.37,5.37,0,0,0-2.38-1.45,21.44,21.44,0,0,0-5.14-1.05c-3.92-.4-7.86-.63-11.8-.74s-7.67-.23-11.44,1a7.06,7.06,0,0,0-2.41,1.19,2.9,2.9,0,0,0-1.09,2.36,3.06,3.06,0,0,0,1.52,2c.46.31,1,.52,1.43.86A9.4,9.4,0,0,1,108,299.76Z" style="fill:#fff;opacity:0.4"></path><path d="M136.47,290.53l0-.13c-1.39-5.33-7.9-9.34-15.71-9.34s-14.34,4-15.73,9.34l0,.13a5.58,5.58,0,0,0-.24,1.8c.07,2.32,1.63,4.62,4.68,6.37,6.25,3.61,16.39,3.61,22.64,0,3-1.75,4.61-4.05,4.68-6.37A5.33,5.33,0,0,0,136.47,290.53Z" style="fill:#ffbda7"></path><path d="M133.25,296c-4,3-14.19,4.05-20.58.82S106,288.09,108,285.56a10.29,10.29,0,0,0-3,4.84l0,.13a5.58,5.58,0,0,0-.24,1.8c.07,2.32,1.63,4.62,4.68,6.37,6.25,3.61,16.39,3.61,22.64,0,3-1.75,4.61-4.05,4.68-6.37a5.33,5.33,0,0,0-.25-1.8S136.72,293.3,133.25,296Z" style="fill:#f0997a"></path></g></g><g id="freepik--device--inject-4"><path d="M153.94,258.57l15.8,9.15a2.16,2.16,0,0,0,1.95,0l51-29.47a.6.6,0,0,0,0-1.13L206.89,228a2.16,2.16,0,0,0-1.95,0l-51,29.47A.6.6,0,0,0,153.94,258.57Z" style="opacity:0.15"></path><path d="M154.88,256.06v-.34a1.93,1.93,0,0,1,.87-1.51l45.69-26.4a1.91,1.91,0,0,1,1.74,0l14.16,8.2a1.91,1.91,0,0,1,.87,1.5v.35a1.93,1.93,0,0,1-.87,1.51l-45.69,26.4a1.91,1.91,0,0,1-1.74,0l-14.16-8.2A1.91,1.91,0,0,1,154.88,256.06Z" style="fill:#263238"></path><path d="M155.75,255.21l14.16,8.2a1.91,1.91,0,0,0,1.74,0L217.34,237c.48-.28.48-.73,0-1l-14.16-8.2a1.91,1.91,0,0,0-1.74,0l-45.69,26.4C155.27,254.49,155.27,254.94,155.75,255.21Z" style="fill:#455a64"></path><path d="M250.18,254.19l-2.8-1.57a3.42,3.42,0,0,0-3.17,0l-14,8.06-1.84-1.08a3.08,3.08,0,0,0-2.82,0l-16.95,9.84a.87.87,0,0,0,0,1.64l1.79,1-20.16,11.64a1,1,0,0,0,0,1.85l2.81,1.62a3.54,3.54,0,0,0,3.2,0l20.16-11.64a3.14,3.14,0,0,0,2.83,0l16.87-9.81c.77-.44.78-1.14.07-1.6l13.94-8.05A1,1,0,0,0,250.18,254.19Z" style="opacity:0.15"></path><path d="M241.76,242.9l3.68-44.54a4.2,4.2,0,0,0-1.84-3.69,4.66,4.66,0,0,0-4.22.08L190.6,222.91a5.42,5.42,0,0,0-2.39,3.77l-3.67,44.54a4.23,4.23,0,0,0,1.84,3.69,4.69,4.69,0,0,0,4.22-.08l48.78-28.16A5.4,5.4,0,0,0,241.76,242.9Z" style="fill:#263238"></path><path d="M241.76,242.9l3.68-44.54a4.2,4.2,0,0,0-1.84-3.69,4.66,4.66,0,0,0-4.22.08L190.6,222.91a4.93,4.93,0,0,0-1.58,1.6l7.58,4.38v42.48l42.78-24.7A5.4,5.4,0,0,0,241.76,242.9Z" style="fill:#455a64"></path><path d="M188.63,273.58,192.3,229a5.39,5.39,0,0,1,2.39-3.77l48.78-28.16c1.2-.7,2.08-.14,2,1.25l-3.68,44.54a5.4,5.4,0,0,1-2.38,3.77L190.6,274.83C189.4,275.52,188.51,275,188.63,273.58Z" style="fill:#37474f"></path><path d="M213.8,237.84a8.47,8.47,0,0,1,3.57-6c1.79-1,3.08,0,2.89,2.26a8.46,8.46,0,0,1-3.57,6C214.91,241.13,213.62,240.12,213.8,237.84Z" style="fill:#ADE0F9"></path><polygon points="214.95 251.31 226.94 244.34 224.9 243.16 212.91 250.13 214.95 251.31" style="fill:#455a64"></polygon><path d="M232.51,264.79l-14.6,8.43a1.92,1.92,0,0,1-1.73,0h0l-6.43-3.72,0,0a1.86,1.86,0,0,1-.84-1.49v-.34c0-.55.38-.78.87-.5l3.88,2.23.86.51-.19-1-1.36-18.77,2,1.18,12-7,6.24,19A1.53,1.53,0,0,1,232.51,264.79Z" style="fill:#37474f"></path><polygon points="209.13 267.08 214.11 264.2 215.12 270.9 209.13 267.08"></polygon><path d="M215,251.31l-2-1.18,1.36,18.77c.11.54-.2.77-.67.48l-3.88-2.23c-.49-.28-.87,0-.87.5V268a1.86,1.86,0,0,0,.84,1.49l0,0,6.43,3.72h0a1.85,1.85,0,0,0,.79.2Z" style="fill:#263238"></path></g><g id="freepik--Terminal--inject-4"><path d="M167.22,300l-25.74-14.86a1.24,1.24,0,0,1,0-2.35l15.35-8.89a4.48,4.48,0,0,1,4,0l25.75,14.87a1.23,1.23,0,0,1,0,2.34L171.28,300A4.47,4.47,0,0,1,167.22,300Z" style="opacity:0.15"></path><g id="freepik--Device--inject-4"><path d="M169.93,276.55h0a.07.07,0,0,0-.09,0l-.36.21a.29.29,0,0,0-.13.23v4.15l14.9,8.45.59-4.44Z" style="fill:#263238"></path><path d="M184.83,285.15a.1.1,0,0,0-.09,0l-.36.2a.43.43,0,0,0-.09.1l-14.9-8.6a.18.18,0,0,1,.09-.1l.36-.21a.07.07,0,0,1,.09,0h0Z" style="fill:#455a64"></path><path d="M184.74,285.16l-.36.2a.32.32,0,0,0-.13.23v4l.62.36v-4.71C184.87,285.15,184.81,285.12,184.74,285.16Z" style="fill:#37474f"></path><polygon points="184.25 289.59 184.25 289.87 183.32 290.28 168.41 281.68 169.35 281.14 184.25 289.59"></polygon><path d="M183.63,290.82l1.11-.64a.3.3,0,0,0,.13-.23l-.62-.36a.29.29,0,0,1-.13.23l-.36.21c-.07,0-.13,0-.13-.08Z" style="fill:#37474f"></path><path d="M183.59,285.87l-1.47.8a.39.39,0,0,0,0,.18v4.71a.1.1,0,0,0,0,.08l-14.9-8.6h0a.09.09,0,0,1,0-.08v-4.72a.29.29,0,0,1,.13-.22l1.29-.75a.12.12,0,0,1,.1,0Z" style="fill:#263238"></path><path d="M183.59,285.87,170,278l-.62-.36-.66-.38a.1.1,0,0,0-.09,0l-1.29.74-.1.1,14.91,8.56Z" style="fill:#37474f;opacity:0.5"></path><path d="M182.12,286.67a.39.39,0,0,0,0,.18v4.71c0,.09.06.12.13.08l1.42-.82V286s0-.08,0-.09Z" style="fill:#37474f"></path><path d="M182.22,291.63l.05,0,.22-.12a1.49,1.49,0,0,0,.33-.93v-4a1.21,1.21,0,0,0,0-.25l-.12.06a1.54,1.54,0,0,1,0,.19v4A1.73,1.73,0,0,1,182.22,291.63Z" style="fill:#263238"></path><path d="M165.51,272.73a18.43,18.43,0,0,0-2-1.26l-6-3.44a1.48,1.48,0,0,0-1.33,0l-12,7a1.46,1.46,0,0,0-.66,1.15v7.29a1.46,1.46,0,0,0,.66,1.15l24.47,14.13a1.46,1.46,0,0,0,1.32,0l12-7a1.48,1.48,0,0,0,.66-1.15v-4.1a1.28,1.28,0,0,0-.51-1C179.42,283.35,166.31,273.38,165.51,272.73Z" style="fill:#455a64"></path><path d="M182.7,290.59v-4a1,1,0,0,0,0-.24l-13.38,7.71a1.64,1.64,0,0,1,0,.25v4c0,.39-.25.56-.57.43h0l.09,0,.06,0,.1,0h.07l.1,0h.43l.07,0,.1,0,.06,0,.12-.05h0l12-7,.17-.1A1.61,1.61,0,0,0,182.7,290.59Z" style="fill:#37474f"></path><path d="M152.14,280.45c2.26,1.82,14.06,10.75,16.67,12.73a1.27,1.27,0,0,1,.52,1v4.1c0,.42-.3.6-.66.39L144.2,284.57a1.46,1.46,0,0,1-.66-1.15v-7.29c0-.42.29-.59.66-.38l6,3.44A18.43,18.43,0,0,1,152.14,280.45Z" style="fill:#263238"></path><path d="M152.07,278.09a17,17,0,0,1,2,1.26,15,15,0,0,1,1.39,1.3.62.62,0,0,0,.73.1l8.74-5a.35.35,0,0,0,.09-.58,16.61,16.61,0,0,0-1.4-1.3,17.49,17.49,0,0,0-2-1.26l-3.35-1.93a.89.89,0,0,0-.81,0l-8.74,5c-.23.13-.23.34,0,.47Z" style="fill:#e0e0e0"></path><path d="M157.46,271.05a.89.89,0,0,1,.81,0l3.35,1.94a16.2,16.2,0,0,1,2,1.26,13.84,13.84,0,0,1,1.4,1.3l0,.05a.47.47,0,0,1-.13.11l-8.74,5a.62.62,0,0,1-.73-.1,15,15,0,0,0-1.39-1.3,17,17,0,0,0-2-1.26l-3.35-1.94,0,0,0,0Z" style="fill:#fff"></path><path d="M165.35,277.81h0l.08-.32.32,0,1.07-.61a1.26,1.26,0,0,1,1.5.13.63.63,0,0,1,.15.26h.09l-.08.35h0a1,1,0,0,1-.47.57l-1.3.75a.55.55,0,0,1-.66-.1l-.62-.67A.37.37,0,0,1,165.35,277.81Z" style="fill:#ADE0F9"></path><path d="M165.35,277.81h0l.08-.32.32,0,1.07-.61a1.26,1.26,0,0,1,1.5.13.63.63,0,0,1,.15.26h.09l-.08.35h0a1,1,0,0,1-.47.57l-1.3.75a.55.55,0,0,1-.66-.1l-.62-.67A.37.37,0,0,1,165.35,277.81Z" style="opacity:0.30000000000000004"></path><path d="M166.79,278.57l1.3-.75c.5-.3.64-.82.31-1.18a1.25,1.25,0,0,0-1.5-.12l-1.3.74a.34.34,0,0,0-.09.53c.21.24.41.46.62.68A.58.58,0,0,0,166.79,278.57Z" style="fill:#ADE0F9"></path><path d="M158,282.27h0l.08-.33h.09a1.24,1.24,0,0,1,.32-.27l1.29-.75a.54.54,0,0,1,.65.11c.2.23.41.45.61.67l.18,0-.08.34h0a.36.36,0,0,1-.17.2l-1.3.75a1.28,1.28,0,0,1-1.52-.11A.66.66,0,0,1,158,282.27Z" style="fill:#ADE0F9"></path><path d="M158,282.27h0l.08-.33h.09a1.24,1.24,0,0,1,.32-.27l1.29-.75a.54.54,0,0,1,.65.11c.2.23.41.45.61.67l.18,0-.08.34h0a.36.36,0,0,1-.17.2l-1.3.75a1.28,1.28,0,0,1-1.52-.11A.66.66,0,0,1,158,282.27Z" style="opacity:0.30000000000000004"></path><path d="M159.72,282.64l1.3-.75a.33.33,0,0,0,.08-.52c-.21-.22-.41-.44-.62-.68a.55.55,0,0,0-.65-.1l-1.3.75a.78.78,0,0,0-.33,1.19A1.29,1.29,0,0,0,159.72,282.64Z" style="fill:#ADE0F9"></path><path d="M161.41,280h0l.09-.35.28,0,1.72-1a.76.76,0,0,1,.9.15l.53.58,0,.06h.18l-.09.37h0a.45.45,0,0,1-.23.3L163,281.18a.77.77,0,0,1-.91-.14l-.53-.58A.46.46,0,0,1,161.41,280Z" style="fill:#ADE0F9"></path><path d="M161.41,280h0l.09-.35.28,0,1.72-1a.76.76,0,0,1,.9.15l.53.58,0,.06h.18l-.09.37h0a.45.45,0,0,1-.23.3L163,281.18a.77.77,0,0,1-.91-.14l-.53-.58A.46.46,0,0,1,161.41,280Z" style="opacity:0.30000000000000004"></path><path d="M161.61,280.1c.17.2.35.39.53.58a.77.77,0,0,0,.91.14l1.85-1.07A.44.44,0,0,0,165,279l-.53-.58a.76.76,0,0,0-.9-.15l-1.85,1.07A.46.46,0,0,0,161.61,280.1Z" style="fill:#ADE0F9"></path><path d="M164.2,284.13h-.34l-1-.74a.57.57,0,0,0-.58,0l-1.47.84h-.46v.38h0a.26.26,0,0,0,.11.19l1.2.91a.57.57,0,0,0,.58,0l1.79-1a.22.22,0,0,0,.13-.2h0Z" style="fill:#ADE0F9"></path><path d="M164.2,284.13h-.34l-1-.74a.57.57,0,0,0-.58,0l-1.47.84h-.46v.38h0a.26.26,0,0,0,.11.19l1.2.91a.57.57,0,0,0,.58,0l1.79-1a.22.22,0,0,0,.13-.2h0Z" style="opacity:0.30000000000000004"></path><path d="M160.53,284l1.79-1a.55.55,0,0,1,.58,0l1.2.91a.22.22,0,0,1,0,.39l-1.79,1a.55.55,0,0,1-.58,0l-1.2-.91A.21.21,0,0,1,160.53,284Z" style="fill:#ADE0F9"></path><path d="M172,290.06h-.34l-1-.73a.57.57,0,0,0-.58,0l-1.47.85h-.46v.38h0a.24.24,0,0,0,.11.18l1.19.92a.59.59,0,0,0,.59,0l1.79-1a.23.23,0,0,0,.13-.2h0Z" style="fill:#ADE0F9"></path><path d="M172,290.06h-.34l-1-.73a.57.57,0,0,0-.58,0l-1.47.85h-.46v.38h0a.24.24,0,0,0,.11.18l1.19.92a.59.59,0,0,0,.59,0l1.79-1a.23.23,0,0,0,.13-.2h0Z" style="opacity:0.30000000000000004"></path><path d="M168.31,290l1.79-1a.55.55,0,0,1,.58,0l1.2.91a.21.21,0,0,1,0,.38l-1.79,1a.59.59,0,0,1-.59,0l-1.19-.91A.22.22,0,0,1,168.31,290Z" style="fill:#ADE0F9"></path><path d="M166.8,286.11h-.34l-1-.74a.59.59,0,0,0-.59,0l-1.46.84H163v.38h0a.26.26,0,0,0,.1.19l1.2.91a.57.57,0,0,0,.58,0l1.79-1a.23.23,0,0,0,.14-.2h0Z" style="fill:#ADE0F9"></path><path d="M166.8,286.11h-.34l-1-.74a.59.59,0,0,0-.59,0l-1.46.84H163v.38h0a.26.26,0,0,0,.1.19l1.2.91a.57.57,0,0,0,.58,0l1.79-1a.23.23,0,0,0,.14-.2h0Z" style="opacity:0.30000000000000004"></path><path d="M163.12,286l1.79-1a.57.57,0,0,1,.59,0l1.19.91a.22.22,0,0,1,0,.39l-1.79,1a.55.55,0,0,1-.58,0l-1.2-.91A.22.22,0,0,1,163.12,286Z" style="fill:#ADE0F9"></path><path d="M169.39,288.09h-.34l-1-.73a.57.57,0,0,0-.58,0l-1.47.85h-.46v.38h0a.27.27,0,0,0,.11.19l1.19.91a.58.58,0,0,0,.58,0l1.8-1a.22.22,0,0,0,.13-.2h0Z" style="fill:#ADE0F9"></path><path d="M169.39,288.09h-.34l-1-.73a.57.57,0,0,0-.58,0l-1.47.85h-.46v.38h0a.27.27,0,0,0,.11.19l1.19.91a.58.58,0,0,0,.58,0l1.8-1a.22.22,0,0,0,.13-.2h0Z" style="opacity:0.30000000000000004"></path><path d="M165.71,288l1.8-1a.55.55,0,0,1,.58,0l1.19.91a.21.21,0,0,1,0,.38l-1.8,1a.55.55,0,0,1-.58,0l-1.19-.91A.22.22,0,0,1,165.71,288Z" style="fill:#ADE0F9"></path><path d="M168.21,281.82h-.35l-1-.73a.55.55,0,0,0-.58,0l-1.46.85h-.46v.37h0a.23.23,0,0,0,.1.19l1.2.91a.55.55,0,0,0,.58,0l1.79-1a.26.26,0,0,0,.14-.2h0Z" style="fill:#ADE0F9"></path><path d="M168.21,281.82h-.35l-1-.73a.55.55,0,0,0-.58,0l-1.46.85h-.46v.37h0a.23.23,0,0,0,.1.19l1.2.91a.55.55,0,0,0,.58,0l1.79-1a.26.26,0,0,0,.14-.2h0Z" style="opacity:0.30000000000000004"></path><path d="M164.53,281.72l1.79-1a.57.57,0,0,1,.58,0l1.2.91a.22.22,0,0,1,0,.39l-1.79,1a.57.57,0,0,1-.58,0l-1.2-.91A.22.22,0,0,1,164.53,281.72Z" style="fill:#ADE0F9"></path><path d="M176,287.76h-.35l-1-.74a.57.57,0,0,0-.58,0l-1.46.84h-.46v.38h0a.24.24,0,0,0,.1.19l1.2.91a.57.57,0,0,0,.58,0l1.79-1a.23.23,0,0,0,.14-.2h0Z" style="fill:#ADE0F9"></path><path d="M176,287.76h-.35l-1-.74a.57.57,0,0,0-.58,0l-1.46.84h-.46v.38h0a.24.24,0,0,0,.1.19l1.2.91a.57.57,0,0,0,.58,0l1.79-1a.23.23,0,0,0,.14-.2h0Z" style="opacity:0.30000000000000004"></path><path d="M172.31,287.66l1.79-1a.55.55,0,0,1,.58,0l1.2.91a.22.22,0,0,1,0,.39l-1.79,1a.55.55,0,0,1-.58,0l-1.2-.91A.21.21,0,0,1,172.31,287.66Z" style="fill:#ADE0F9"></path><path d="M170.8,283.8h-.34l-1-.73a.55.55,0,0,0-.58,0l-1.47.84-.46,0v.37h0a.23.23,0,0,0,.11.19l1.19.91a.55.55,0,0,0,.58,0l1.8-1a.22.22,0,0,0,.13-.19h0Z" style="fill:#ADE0F9"></path><path d="M170.8,283.8h-.34l-1-.73a.55.55,0,0,0-.58,0l-1.47.84-.46,0v.37h0a.23.23,0,0,0,.11.19l1.19.91a.55.55,0,0,0,.58,0l1.8-1a.22.22,0,0,0,.13-.19h0Z" style="opacity:0.30000000000000004"></path><path d="M167.12,283.7l1.8-1a.58.58,0,0,1,.58,0l1.19.91a.22.22,0,0,1,0,.39l-1.8,1a.57.57,0,0,1-.58,0l-1.19-.92A.21.21,0,0,1,167.12,283.7Z" style="fill:#ADE0F9"></path><path d="M173.39,285.78h-.34l-1-.73a.55.55,0,0,0-.58,0l-1.47.84-.46,0v.37h0a.26.26,0,0,0,.11.19l1.19.91a.59.59,0,0,0,.59,0l1.79-1a.22.22,0,0,0,.13-.2h0Z" style="fill:#ADE0F9"></path><path d="M173.39,285.78h-.34l-1-.73a.55.55,0,0,0-.58,0l-1.47.84-.46,0v.37h0a.26.26,0,0,0,.11.19l1.19.91a.59.59,0,0,0,.59,0l1.79-1a.22.22,0,0,0,.13-.2h0Z" style="opacity:0.30000000000000004"></path><path d="M169.72,285.68l1.79-1a.57.57,0,0,1,.58,0l1.2.91a.22.22,0,0,1,0,.39l-1.79,1a.59.59,0,0,1-.59,0l-1.19-.92A.21.21,0,0,1,169.72,285.68Z" style="fill:#ADE0F9"></path><path d="M172.21,279.51h-.34l-1-.73a.58.58,0,0,0-.58,0l-1.47.85h-.46V280h0a.22.22,0,0,0,.1.18l1.2.91a.55.55,0,0,0,.58,0l1.8-1a.26.26,0,0,0,.13-.2h0Z" style="fill:#ADE0F9"></path><path d="M172.21,279.51h-.34l-1-.73a.58.58,0,0,0-.58,0l-1.47.85h-.46V280h0a.22.22,0,0,0,.1.18l1.2.91a.55.55,0,0,0,.58,0l1.8-1a.26.26,0,0,0,.13-.2h0Z" style="opacity:0.30000000000000004"></path><path d="M168.53,279.41l1.8-1a.58.58,0,0,1,.58,0l1.19.92a.21.21,0,0,1,0,.38l-1.8,1a.57.57,0,0,1-.58,0l-1.2-.91A.22.22,0,0,1,168.53,279.41Z" style="fill:#ADE0F9"></path><path d="M180,285.45h-.34l-1-.73a.57.57,0,0,0-.59,0l-1.46.84-.46,0v.37h0a.23.23,0,0,0,.1.19l1.2.91a.55.55,0,0,0,.58,0l1.79-1a.23.23,0,0,0,.14-.19h0Z" style="fill:#ADE0F9"></path><path d="M180,285.45h-.34l-1-.73a.57.57,0,0,0-.59,0l-1.46.84-.46,0v.37h0a.23.23,0,0,0,.1.19l1.2.91a.55.55,0,0,0,.58,0l1.79-1a.23.23,0,0,0,.14-.19h0Z" style="opacity:0.30000000000000004"></path><path d="M176.31,285.35l1.79-1a.59.59,0,0,1,.59,0l1.19.91a.22.22,0,0,1,0,.39l-1.79,1a.57.57,0,0,1-.58,0l-1.2-.92A.21.21,0,0,1,176.31,285.35Z" style="fill:#ADE0F9"></path><path d="M177.39,283.47h-.34l-1-.73a.55.55,0,0,0-.58,0l-1.47.85h-.46v.37h0a.24.24,0,0,0,.11.19l1.2.91a.55.55,0,0,0,.58,0l1.79-1a.25.25,0,0,0,.13-.2h0Z" style="fill:#ADE0F9"></path><path d="M177.39,283.47h-.34l-1-.73a.55.55,0,0,0-.58,0l-1.47.85h-.46v.37h0a.24.24,0,0,0,.11.19l1.2.91a.55.55,0,0,0,.58,0l1.79-1a.25.25,0,0,0,.13-.2h0Z" style="opacity:0.30000000000000004"></path><path d="M173.72,283.37l1.79-1a.6.6,0,0,1,.58,0l1.2.91a.22.22,0,0,1,0,.39l-1.79,1a.6.6,0,0,1-.58,0l-1.2-.91A.22.22,0,0,1,173.72,283.37Z" style="fill:#ADE0F9"></path><path d="M174.8,281.49h-.34l-1-.73a.55.55,0,0,0-.58,0l-1.47.85H171V282h0a.24.24,0,0,0,.11.19l1.19.91a.55.55,0,0,0,.58,0l1.8-1a.23.23,0,0,0,.13-.2h0Z" style="fill:#ADE0F9"></path><path d="M174.8,281.49h-.34l-1-.73a.55.55,0,0,0-.58,0l-1.47.85H171V282h0a.24.24,0,0,0,.11.19l1.19.91a.55.55,0,0,0,.58,0l1.8-1a.23.23,0,0,0,.13-.2h0Z" style="opacity:0.30000000000000004"></path><path d="M171.12,281.39l1.8-1a.57.57,0,0,1,.58,0l1.19.91a.22.22,0,0,1,0,.39l-1.8,1a.58.58,0,0,1-.58,0l-1.19-.91A.22.22,0,0,1,171.12,281.39Z" style="fill:#ADE0F9"></path></g></g><g id="freepik--Burgers--inject-4"><path d="M166.45,332l56.92-32.87a2,2,0,0,1,2-.2l3.18,1.84a2,2,0,0,1,.85,1.88v21.64a6.42,6.42,0,0,1-2.91,5l-56.91,32.86a2.07,2.07,0,0,1-2.06.21l-3.17-1.84a2.06,2.06,0,0,1-.86-1.89V337A6.4,6.4,0,0,1,166.45,332Z" style="fill:#e0e0e0"></path><path d="M164.39,334.16l3.18,1.84a5.85,5.85,0,0,1,2.05-2.16L226.54,301a2.12,2.12,0,0,1,2-.23l-3.12-1.81a2,2,0,0,0-2,.2L166.45,332A6.15,6.15,0,0,0,164.39,334.16Z" style="fill:#fafafa"></path><path d="M229.45,324.29V302.65a1.77,1.77,0,0,0-2.91-1.67l-56.91,32.86a6.4,6.4,0,0,0-2.91,5V360.5c0,1.86,1.3,2.61,2.91,1.68l56.91-32.86A6.42,6.42,0,0,0,229.45,324.29Z" style="fill:#f0f0f0"></path><path d="M172,355.08a1,1,0,0,1-.14-.63v-14.6a1.89,1.89,0,0,1,.14-.77,1,1,0,0,1,.43-.47l2.73-1.58q3.21-1.84,3.21,2.12a8.1,8.1,0,0,1-1.38,4.67l0,.09a1.17,1.17,0,0,1,1.22.66,4.6,4.6,0,0,1,.44,2.26,8.52,8.52,0,0,1-.88,3.86,6.34,6.34,0,0,1-2.58,2.77l-2.78,1.6C172.27,355.17,172.12,355.18,172,355.08Zm3.18-11.36a1.73,1.73,0,0,0,.72-.9,4.64,4.64,0,0,0,.24-1.65,2.68,2.68,0,0,0-.22-1.32c-.15-.2-.39-.21-.71,0l-1.09.62v3.88Zm.1,6.85a2,2,0,0,0,.84-1,5,5,0,0,0,.26-1.78,2.37,2.37,0,0,0-.26-1.39c-.17-.2-.45-.2-.84,0l-1.16.67v4.11Z" style="fill:#455a64"></path><path d="M181,349c-.66-.5-1-1.54-1-3.13V335a1.47,1.47,0,0,1,.88-1.27l.62-.35c.59-.34.88-.26.88.24v10.69a2.06,2.06,0,0,0,.35,1.36c.24.27.55.29,1,.06a2.44,2.44,0,0,0,.94-1.16,4.3,4.3,0,0,0,.36-1.76V332.07a1.46,1.46,0,0,1,.88-1.26l.6-.34c.59-.35.88-.27.88.24v10.92a9.05,9.05,0,0,1-1,4.25,6.79,6.79,0,0,1-2.69,2.87C182.56,349.42,181.66,349.5,181,349Z" style="fill:#455a64"></path><path d="M189,345.57V330a1.81,1.81,0,0,1,.15-.8,1.13,1.13,0,0,1,.47-.5l2.54-1.47c.94-.54,1.69-.62,2.26-.23s.86,1.4.86,3.06a8.17,8.17,0,0,1-1.45,4.81v.1a1,1,0,0,1,.61.58,4.36,4.36,0,0,1,.41,1.17l.9,4,.05.25c0,.43-.32.82-1,1.18l-.53.31c-.54.31-.85.28-.92-.1l-.81-4a1,1,0,0,0-.31-.55c-.12-.07-.3,0-.56.11l-.36.21v5.31a1.54,1.54,0,0,1-.92,1.29l-.52.29Zm3.21-11.34a1.57,1.57,0,0,0,.57-.85,4.77,4.77,0,0,0,.24-1.64,2.42,2.42,0,0,0-.24-1.31.42.42,0,0,0-.62-.1l-.8.47v3.92Z" style="fill:#455a64"></path><path d="M203.51,327.72a1,1,0,0,1,.13.64v7a2.33,2.33,0,0,1-.46,1.24,7.46,7.46,0,0,1-1.15,1.33,7.17,7.17,0,0,1-1.32,1q-2.13,1.23-3.15-.24t-1-5.82a19.54,19.54,0,0,1,1-6.89,7.38,7.38,0,0,1,3.17-3.9,4.63,4.63,0,0,1,1.33-.52,1.86,1.86,0,0,1,1,0,.57.57,0,0,1,.4.56,4.33,4.33,0,0,1-.16.91,8.31,8.31,0,0,1-.39,1.13,1.4,1.4,0,0,1-.42.63.9.9,0,0,1-.32,0,2,2,0,0,0-.58,0,2.33,2.33,0,0,0-.76.31,3.35,3.35,0,0,0-1.43,2.09,15.21,15.21,0,0,0-.46,4.22,10.67,10.67,0,0,0,.43,3.8.81.81,0,0,0,1.29.44,3.51,3.51,0,0,0,.63-.45v-3.44l-.78.45c-.15.09-.27.06-.34-.08a2.26,2.26,0,0,1-.1-.83v-.76a3.44,3.44,0,0,1,.1-.95.81.81,0,0,1,.34-.48l2.52-1.45C203.27,327.64,203.41,327.63,203.51,327.72Z" style="fill:#455a64"></path><path d="M205.41,335.81a1,1,0,0,1-.13-.64V320.6a2,2,0,0,1,.13-.79,1.09,1.09,0,0,1,.43-.47l4.5-2.6c.16-.09.27-.06.34.09a2.13,2.13,0,0,1,.11.83v.73a3.38,3.38,0,0,1-.11.95.77.77,0,0,1-.34.48l-2.68,1.55v3.41L210,323.4q.22-.13.33.09a2,2,0,0,1,.11.83v.73a3,3,0,0,1-.11.95.8.8,0,0,1-.33.48l-2.38,1.37v3.81l2.7-1.56q.22-.14.33.09a2.53,2.53,0,0,1,.1.84v.73a3.82,3.82,0,0,1-.1.95.81.81,0,0,1-.33.47l-4.52,2.61C205.65,335.9,205.51,335.91,205.41,335.81Z" style="fill:#455a64"></path><path d="M212.21,332.16V316.6a1.85,1.85,0,0,1,.14-.8,1.11,1.11,0,0,1,.47-.49l2.54-1.47a2.09,2.09,0,0,1,2.26-.24c.57.39.86,1.41.86,3.07a8.12,8.12,0,0,1-1.45,4.81v.09a1.1,1.1,0,0,1,.61.59,4.24,4.24,0,0,1,.41,1.17l.9,4,.05.25c0,.42-.32.82-.95,1.18l-.53.31c-.54.31-.85.28-.92-.11l-.81-4a.94.94,0,0,0-.31-.55c-.12-.07-.3,0-.56.11l-.36.21v5.31a1.52,1.52,0,0,1-.92,1.28l-.52.3Zm3.2-11.34A1.61,1.61,0,0,0,216,320a4.81,4.81,0,0,0,.24-1.64A2.39,2.39,0,0,0,216,317a.42.42,0,0,0-.62-.1l-.8.46v3.93Z" style="fill:#455a64"></path><path d="M220.88,327a1.14,1.14,0,0,1-1.07-.32,1.2,1.2,0,0,1-.2-.7,5.3,5.3,0,0,1,.23-1.48,1.71,1.71,0,0,1,.5-1,.58.58,0,0,1,.39,0l.39.11a1.48,1.48,0,0,0,1-.14,2.44,2.44,0,0,0,.83-.83,2.62,2.62,0,0,0,.35-1.4,2.17,2.17,0,0,0-.18-1,1.16,1.16,0,0,0-.46-.47,4.08,4.08,0,0,0-.77-.25,2.81,2.81,0,0,1-1.67-1.17,5.38,5.38,0,0,1-.52-2.74,8.29,8.29,0,0,1,.87-3.82,6.07,6.07,0,0,1,2.33-2.54,3.15,3.15,0,0,1,1.1-.39,1.48,1.48,0,0,1,.9.08.7.7,0,0,1,.28.67,6.31,6.31,0,0,1-.18,1.39c-.12.52-.26.83-.44.93a.9.9,0,0,1-.44.07,1.91,1.91,0,0,0-1.83,1.11,2.65,2.65,0,0,0-.23,1,1.63,1.63,0,0,0,.3,1.16,2.22,2.22,0,0,0,.94.46l.35.1a2.54,2.54,0,0,1,1.52,1.14,5.44,5.44,0,0,1,.46,2.58,10,10,0,0,1-.36,2.64,8.34,8.34,0,0,1-1.12,2.44,5.48,5.48,0,0,1-1.84,1.75A3.93,3.93,0,0,1,220.88,327Z" style="fill:#455a64"></path></g></g></g><g id="freepik--speech-bubbles--inject-4"><g id="freepik--speech-bubble--inject-4"><g id="freepik--speech-bubble--inject-4"><path d="M388,122.6l3.5-8-2.82-8.13v-5l8.62,5v5l-3.71,7.81a.48.48,0,0,1-.25.22h0Z" style="fill:#ADE0F9"></path><path d="M388,122.6l3.5-8-2.82-8.13v-5l8.62,5v5l-3.71,7.81a.48.48,0,0,1-.25.22h0Z" style="opacity:0.2"></path><g id="freepik--speech-bubble--inject-4"><g id="freepik--speech-bubble--inject-4"><path d="M378.61,53.6l34.44,19.92a2.72,2.72,0,0,1,1.23,2.13v42.09a2.65,2.65,0,0,1-1.24,2.11l-4.89,2.78a2.73,2.73,0,0,1-2.46,0L371.25,102.7a2.7,2.7,0,0,1-1.23-2.13V58.49a2.68,2.68,0,0,1,1.24-2.12l4.89-2.78A2.73,2.73,0,0,1,378.61,53.6Z" style="fill:#ADE0F9"></path><path d="M378.61,53.6l34.44,19.92a2.72,2.72,0,0,1,1.23,2.13v42.09a2.65,2.65,0,0,1-1.24,2.11l-4.89,2.78a2.73,2.73,0,0,1-2.46,0L371.25,102.7a2.7,2.7,0,0,1-1.23-2.13V58.49a2.68,2.68,0,0,1,1.24-2.12l4.89-2.78A2.73,2.73,0,0,1,378.61,53.6Z" style="opacity:0.15"></path><path d="M370,58.26c.1-.62.6-.84,1.21-.49L405.69,77.7a2.58,2.58,0,0,1,.87.92l7.34-4.22a2.57,2.57,0,0,0-.85-.88L378.61,53.6a2.73,2.73,0,0,0-2.46,0l-4.89,2.78A2.68,2.68,0,0,0,370,58.26Z" style="fill:#ADE0F9"></path><path d="M370,58.26c.1-.62.6-.84,1.21-.49L405.69,77.7a2.58,2.58,0,0,1,.87.92l7.34-4.22a2.57,2.57,0,0,0-.85-.88L378.61,53.6a2.73,2.73,0,0,0-2.46,0l-4.89,2.78A2.68,2.68,0,0,0,370,58.26Z" style="fill:#fff;opacity:0.4"></path><path d="M405.69,77.7,371.25,57.78c-.68-.4-1.23-.08-1.23.71v42.08a2.7,2.7,0,0,0,1.23,2.13l12.08,7,3.89,12.62a.55.55,0,0,0,1,.09l3.68-7.76,13.79,8c.68.39,1.23.08,1.23-.71V79.83A2.7,2.7,0,0,0,405.69,77.7Z" style="fill:#ADE0F9"></path></g></g></g><path d="M393.11,74.16c-.08-.72-.66-1.24-2.16-.9-13.09,3-16.67,13.45-18.53,19.23a1.24,1.24,0,0,0,.52,1.58,1.13,1.13,0,0,0,1.58-.59c1.76-5.06,4.94-15.22,17.49-17.91a1.18,1.18,0,0,0,1.1-1.41Z" style="fill:#455a64"></path><path d="M377.36,95.62l24.3,13.14a1.71,1.71,0,0,0,2.32-1.82L393.91,78.67c-.44-1.15-1.11-1.68-2.08-1.42a20.76,20.76,0,0,0-9.69,5.84,27.36,27.36,0,0,0-5.67,10.17A1.84,1.84,0,0,0,377.36,95.62Z" style="fill:#455a64"></path><path d="M392.21,83.47c2.64,1.76,1.54,5.09.46,4.37L391,86.74l-.86,1.66a.74.74,0,0,1-1.08.28l-.46-.3a.76.76,0,0,1-.16-1.12l1.2-1.42L388,84.74C386.93,84,389.58,81.72,392.21,83.47Z" style="fill:#ADE0F9"></path><path d="M393.45,93c2.34.19,2.82,2.74,1.86,2.66l-1.46-.12,0,1.38a.55.55,0,0,1-.6.57l-.41,0a.56.56,0,0,1-.5-.66l.26-1.36-1.46-.12C390.23,95.21,391.12,92.77,393.45,93Z" style="fill:#ADE0F9"></path><path d="M381.55,92a2.49,2.49,0,1,0,3.24-1.38A2.49,2.49,0,0,0,381.55,92Z" style="fill:#ADE0F9"></path><path d="M395.91,100.88a1.84,1.84,0,1,0,2.39-1A1.83,1.83,0,0,0,395.91,100.88Z" style="fill:#ADE0F9"></path></g><g id="freepik--speech-bubble--inject-4"><g id="freepik--speech-bubble--inject-4"><path d="M104.64,124.7l-3.14-7.16,2.53-7.3v-4.47l-7.74,4.47v4.47l3.33,7a.49.49,0,0,0,.23.2h0Z" style="fill:#f28f8f"></path><g id="freepik--speech-bubble--inject-4"><g id="freepik--speech-bubble--inject-4"><path d="M113.09,62.77,82.18,80.65a2.42,2.42,0,0,0-1.1,1.91v37.77a2.4,2.4,0,0,0,1.11,1.9l4.39,2.5a2.46,2.46,0,0,0,2.21,0l30.91-17.88a2.43,2.43,0,0,0,1.1-1.91V67.15a2.4,2.4,0,0,0-1.11-1.9l-4.39-2.49A2.46,2.46,0,0,0,113.09,62.77Z" style="fill:#f28f8f"></path><path d="M120.8,67c-.08-.55-.54-.75-1.09-.43L88.81,84.4a2.28,2.28,0,0,0-.78.82l-6.59-3.79a2.19,2.19,0,0,1,.76-.78l30.91-17.88a2.46,2.46,0,0,1,2.21,0l4.39,2.49A2.44,2.44,0,0,1,120.8,67Z" style="fill:#fff;opacity:0.4"></path><path d="M88.79,84.4,119.7,66.52c.61-.36,1.1-.07,1.1.63v37.78a2.43,2.43,0,0,1-1.1,1.91l-10.84,6.27-3.49,11.32a.5.5,0,0,1-.9.09l-3.3-7-12.38,7.16c-.61.35-1.1.07-1.1-.64V86.31A2.42,2.42,0,0,1,88.79,84.4Z" style="fill:#ffa8a7"></path></g></g></g><path id="freepik--X--inject-4" d="M114.15,100.36l-6.64-5,6.91-13.21A2.51,2.51,0,0,0,110,79.81l-6.52,12.46-6-4.52a2.51,2.51,0,0,0-3,4l6.64,5-6.62,12.64a2.51,2.51,0,0,0,1.06,3.38,2.47,2.47,0,0,0,1.17.29,2.51,2.51,0,0,0,2.22-1.34l6.23-11.91,6,4.52a2.51,2.51,0,1,0,3-4Z" style="fill:#fafafa"></path></g></g><g id="freepik--error-400--inject-4"><g id="freepik--Text--inject-4"><path d="M169.19,109.8a.75.75,0,0,1-.73-.74V91.39a.7.7,0,0,1,.22-.52.67.67,0,0,1,.51-.22h8.07a7.17,7.17,0,0,1,2.93.53,5.78,5.78,0,0,1,1.89,1.34,5.21,5.21,0,0,1,1,1.75,5.63,5.63,0,0,1,.32,1.77,4.42,4.42,0,0,1-.76,2.56,5.62,5.62,0,0,1-.62.75,2.72,2.72,0,0,1-.51.41,6,6,0,0,1,1.56,1.63,4.68,4.68,0,0,1,.71,2.66,6,6,0,0,1-.38,2.07A5.79,5.79,0,0,1,182.3,108a5.63,5.63,0,0,1-1.85,1.33,6.06,6.06,0,0,1-2.56.51Zm10.53-13.62a1.91,1.91,0,0,0-.65-1.58,3.33,3.33,0,0,0-2.08-.53h-4.84v4.21H177a3.33,3.33,0,0,0,2.08-.53A1.9,1.9,0,0,0,179.72,96.18Zm-7.57,10.2h5.06a3.16,3.16,0,0,0,2.2-.65,2.19,2.19,0,0,0,.7-1.68,2.15,2.15,0,0,0-.73-1.69,3.13,3.13,0,0,0-2.17-.66h-5.06Z" style="fill:#37474f"></path><path d="M187,99.07a3.88,3.88,0,0,1,.51-1.23,4.89,4.89,0,0,1,1.12-1.23,6.1,6.1,0,0,1,1.78-.94,7.28,7.28,0,0,1,2.44-.37,7.94,7.94,0,0,1,2.52.37,5.59,5.59,0,0,1,1.93,1.08,4.61,4.61,0,0,1,1.24,1.79A6.42,6.42,0,0,1,199,101v8a.7.7,0,0,1-.22.52.73.73,0,0,1-.52.22h-2.08a.74.74,0,0,1-.52-.22.73.73,0,0,1-.21-.52v-.91a4.77,4.77,0,0,1-1.66,1.36,6,6,0,0,1-2.75.56,6.52,6.52,0,0,1-2.1-.32,4.38,4.38,0,0,1-1.56-.88,4,4,0,0,1-1-1.36,4.18,4.18,0,0,1-.34-1.71,3.54,3.54,0,0,1,1.34-3,7.67,7.67,0,0,1,3.58-1.45l4.46-.77a1.73,1.73,0,0,0-.74-1.58,3.42,3.42,0,0,0-1.84-.47,2.51,2.51,0,0,0-1.06.19,3.22,3.22,0,0,0-.74.52,1.35,1.35,0,0,1-.45.3,1.13,1.13,0,0,1-.45.09h-2.55a.69.69,0,0,1-.46-.17A.42.42,0,0,1,187,99.07Zm4.57,7.72a4.93,4.93,0,0,0,1.65-.26,3.79,3.79,0,0,0,1.22-.7,3,3,0,0,0,.74-1,2.81,2.81,0,0,0,.25-1.13v-.27l-3.72.66a3.73,3.73,0,0,0-1.62.56,1.17,1.17,0,0,0-.49,1,.89.89,0,0,0,.59.84A3.12,3.12,0,0,0,191.54,106.79Z" style="fill:#37474f"></path><path d="M208.06,95.3a6,6,0,0,1,2.69.57,4.55,4.55,0,0,1,.86.54,5.31,5.31,0,0,1,.58.53V91.12a.67.67,0,0,1,.22-.52.69.69,0,0,1,.52-.22H215a.73.73,0,0,1,.73.74v17.94a.73.73,0,0,1-.21.52.74.74,0,0,1-.52.22h-2.08a.73.73,0,0,1-.52-.22.7.7,0,0,1-.22-.52v-.63a5.31,5.31,0,0,1-.58.53,4.09,4.09,0,0,1-.86.53,5.18,5.18,0,0,1-1.17.41,6.42,6.42,0,0,1-1.52.17,5.61,5.61,0,0,1-4.36-2,6.7,6.7,0,0,1-1.23-2,7.63,7.63,0,0,1-.51-2.42q0-.4,0-1c0-.36,0-.68,0-1a7.63,7.63,0,0,1,.51-2.42,6.7,6.7,0,0,1,1.23-2,5.61,5.61,0,0,1,4.36-2Zm-2.54,6.62a6.53,6.53,0,0,0,0,1.53,3.58,3.58,0,0,0,1.09,2.56,3.4,3.4,0,0,0,2.27.78,3.36,3.36,0,0,0,2.26-.8,3.25,3.25,0,0,0,1.05-2.27,9.62,9.62,0,0,0,.05-1,9.9,9.9,0,0,0-.05-1,3.19,3.19,0,0,0-3.31-3.06,3.4,3.4,0,0,0-2.27.78A3.58,3.58,0,0,0,205.52,101.92Z" style="fill:#37474f"></path><path d="M233.79,90.65a7.58,7.58,0,0,1,5.2,1.59,5.59,5.59,0,0,1,1.78,4.4,6.14,6.14,0,0,1-.92,3.41,5.49,5.49,0,0,1-2.69,2.09l3.77,6.75a.62.62,0,0,1-.09.73.58.58,0,0,1-.43.18h-2.32a1.11,1.11,0,0,1-.81-.26,2.22,2.22,0,0,1-.37-.48l-3.58-6.38h-3.64v6.38a.7.7,0,0,1-.22.52.73.73,0,0,1-.52.22h-2.21a.73.73,0,0,1-.52-.22.7.7,0,0,1-.22-.52V91.39a.7.7,0,0,1,.22-.52.69.69,0,0,1,.52-.22Zm-4.1,8.62h4a4.94,4.94,0,0,0,2.49-.55,2.21,2.21,0,0,0,.93-2.08,2.14,2.14,0,0,0-.93-2,5.07,5.07,0,0,0-2.49-.52h-4Z" style="fill:#37474f"></path><path d="M243.15,102.68a8.78,8.78,0,0,1,.46-2.88A7,7,0,0,1,245,97.45a6.4,6.4,0,0,1,2.12-1.58,6.61,6.61,0,0,1,2.78-.57,6.72,6.72,0,0,1,2.77.56,6.51,6.51,0,0,1,2.12,1.5,6.61,6.61,0,0,1,1.36,2.22,7.52,7.52,0,0,1,.48,2.67v1.23a.75.75,0,0,1-.74.74H246.7a2.29,2.29,0,0,0,.26,1.1,2.6,2.6,0,0,0,.7.81,3.06,3.06,0,0,0,1,.49,4.26,4.26,0,0,0,1.18.17,4.63,4.63,0,0,0,1.42-.18,3,3,0,0,0,.9-.45,2.24,2.24,0,0,1,.5-.3,1.2,1.2,0,0,1,.51-.09h2.19a.81.81,0,0,1,.54.22.62.62,0,0,1,.2.52,2.3,2.3,0,0,1-.42,1,4.73,4.73,0,0,1-1.19,1.17,7.33,7.33,0,0,1-2,1,8.13,8.13,0,0,1-2.69.41,7.1,7.1,0,0,1-2.78-.53A6.11,6.11,0,0,1,245,108a6.92,6.92,0,0,1-1.34-2.34A9.17,9.17,0,0,1,243.15,102.68Zm6.7-4.1a3.68,3.68,0,0,0-1.36.23,3.11,3.11,0,0,0-.94.61,2.59,2.59,0,0,0-.59.82,3.36,3.36,0,0,0-.26.86h6.18a4.09,4.09,0,0,0-.2-.86,2.3,2.3,0,0,0-.49-.82,2.55,2.55,0,0,0-.91-.61A3.85,3.85,0,0,0,249.85,98.58Z" style="fill:#37474f"></path><path d="M265,110.07a5.74,5.74,0,0,1-2.48-.53,5.84,5.84,0,0,1-1.89-1.43,6.91,6.91,0,0,1-1.23-2,7.36,7.36,0,0,1-.5-2.42q0-.4,0-1c0-.36,0-.68,0-1a7.36,7.36,0,0,1,.5-2.42,6.91,6.91,0,0,1,1.23-2,5.84,5.84,0,0,1,1.89-1.43A5.74,5.74,0,0,1,265,95.3a6.3,6.3,0,0,1,1.51.16,6.24,6.24,0,0,1,1.18.41,4.9,4.9,0,0,1,.86.54,5.31,5.31,0,0,1,.58.53v-.63a.75.75,0,0,1,.73-.74H272a.73.73,0,0,1,.52.22.7.7,0,0,1,.22.52v17.94a.75.75,0,0,1-.74.74h-2.08a.67.67,0,0,1-.51-.22.69.69,0,0,1-.22-.52v-5.82a5.31,5.31,0,0,1-.58.53,4.36,4.36,0,0,1-.86.53,5.1,5.1,0,0,1-1.18.41A6.28,6.28,0,0,1,265,110.07Zm-2.55-6.62a3.63,3.63,0,0,0,1.1,2.56,3.4,3.4,0,0,0,2.27.78,3.28,3.28,0,0,0,2.25-.82,3.33,3.33,0,0,0,1.06-2.25,9.62,9.62,0,0,0,0-1,9.9,9.9,0,0,0,0-1,3.28,3.28,0,0,0-1.06-2.27,3.36,3.36,0,0,0-2.25-.79,3.4,3.4,0,0,0-2.27.78,3.63,3.63,0,0,0-1.1,2.56A7.82,7.82,0,0,0,262.48,103.45Z" style="fill:#37474f"></path><path d="M276.35,96.31a.7.7,0,0,1,.22-.52.73.73,0,0,1,.52-.22h2.08a.74.74,0,0,1,.52.22.73.73,0,0,1,.21.52v7a4.47,4.47,0,0,0,.7,2.62,3.05,3.05,0,0,0,4.5,0,4.15,4.15,0,0,0,.77-2.62v-7a.73.73,0,0,1,.21-.52.75.75,0,0,1,.53-.22h2.07a.73.73,0,0,1,.52.22.7.7,0,0,1,.22.52v12.75a.7.7,0,0,1-.22.52.73.73,0,0,1-.52.22h-2.07a.75.75,0,0,1-.53-.22.73.73,0,0,1-.21-.52v-.63a6.53,6.53,0,0,1-1.56,1.13,4.62,4.62,0,0,1-2.25.51,6.38,6.38,0,0,1-2.76-.52,4.61,4.61,0,0,1-1.75-1.4,5.32,5.32,0,0,1-.93-2,10.82,10.82,0,0,1-.27-2.45Z" style="fill:#37474f"></path><path d="M292.48,102.68A8.78,8.78,0,0,1,293,99.8a7,7,0,0,1,1.34-2.35,6.3,6.3,0,0,1,2.12-1.58,6.58,6.58,0,0,1,2.78-.57,6.72,6.72,0,0,1,2.77.56,6.51,6.51,0,0,1,2.12,1.5,6.59,6.59,0,0,1,1.35,2.22,7.52,7.52,0,0,1,.48,2.67v1.23a.75.75,0,0,1-.74.74H296a2.29,2.29,0,0,0,.26,1.1,2.48,2.48,0,0,0,.7.81,3.06,3.06,0,0,0,1,.49,4.21,4.21,0,0,0,1.18.17,4.67,4.67,0,0,0,1.42-.18,3.15,3.15,0,0,0,.9-.45,2.22,2.22,0,0,1,.49-.3,1.25,1.25,0,0,1,.52-.09h2.19a.77.77,0,0,1,.53.22.6.6,0,0,1,.21.52,2.22,2.22,0,0,1-.43,1,4.57,4.57,0,0,1-1.19,1.17,7.26,7.26,0,0,1-1.95,1,8.18,8.18,0,0,1-2.69.41,7.07,7.07,0,0,1-2.78-.53,6,6,0,0,1-2.12-1.52,6.92,6.92,0,0,1-1.34-2.34A9.17,9.17,0,0,1,292.48,102.68Zm6.71-4.1a3.65,3.65,0,0,0-1.36.23,3,3,0,0,0-.94.61,2.59,2.59,0,0,0-.59.82,3,3,0,0,0-.26.86h6.18a4.83,4.83,0,0,0-.2-.86,2.19,2.19,0,0,0-.5-.82,2.51,2.51,0,0,0-.9-.61A3.85,3.85,0,0,0,299.19,98.58Z" style="fill:#37474f"></path><path d="M316.63,105.72a.66.66,0,0,0-.19-.49,1.77,1.77,0,0,0-.67-.36,10.73,10.73,0,0,0-1.27-.33l-2-.43a8.43,8.43,0,0,1-2-.69,4.26,4.26,0,0,1-1.27-1,3.16,3.16,0,0,1-.67-1.25,5.6,5.6,0,0,1-.19-1.52,3.62,3.62,0,0,1,.38-1.61,4.26,4.26,0,0,1,1.11-1.41,5.87,5.87,0,0,1,1.76-1A7,7,0,0,1,314,95.3a8.73,8.73,0,0,1,2.39.3,6.65,6.65,0,0,1,1.8.79,3.87,3.87,0,0,1,1.14,1.14,2.82,2.82,0,0,1,.47,1.3.6.6,0,0,1-.21.52.77.77,0,0,1-.53.22h-2.1a1,1,0,0,1-.62-.15l-.45-.35a2.69,2.69,0,0,0-.66-.34,3.77,3.77,0,0,0-1.23-.15,3.83,3.83,0,0,0-1.45.25.87.87,0,0,0-.63.87.85.85,0,0,0,.15.51,1.23,1.23,0,0,0,.58.37,9.4,9.4,0,0,0,1.17.34c.5.12,1.16.26,2,.42a6.32,6.32,0,0,1,3.43,1.63,4,4,0,0,1,1,2.75,3.43,3.43,0,0,1-.41,1.6,4.31,4.31,0,0,1-1.19,1.39,6.2,6.2,0,0,1-1.92,1,8,8,0,0,1-2.55.37,9,9,0,0,1-2.56-.34,6.63,6.63,0,0,1-1.87-.89,4.27,4.27,0,0,1-1.18-1.23,2.94,2.94,0,0,1-.44-1.34.62.62,0,0,1,.21-.52.73.73,0,0,1,.53-.22h2.11a.84.84,0,0,1,.61.19l.47.44a2.41,2.41,0,0,0,.72.44,4.08,4.08,0,0,0,1.4.19,6.41,6.41,0,0,0,.85-.06,3.23,3.23,0,0,0,.8-.18,2,2,0,0,0,.62-.32A.65.65,0,0,0,316.63,105.72Z" style="fill:#37474f"></path><path d="M327.9,104.65a2,2,0,0,0,.45,1.36,2.24,2.24,0,0,0,1.69.5h1.66a.73.73,0,0,1,.52.22.7.7,0,0,1,.22.52v1.81a.7.7,0,0,1-.22.52.73.73,0,0,1-.52.22h-2a5.71,5.71,0,0,1-3.95-1.25,4.88,4.88,0,0,1-1.38-3.81V98.86h-1.81a.75.75,0,0,1-.74-.74V96.31a.75.75,0,0,1,.74-.74h1.81V91.12a.75.75,0,0,1,.74-.74h2.07a.69.69,0,0,1,.52.22.67.67,0,0,1,.22.52v4.45h3.53a.74.74,0,0,1,.52.22.7.7,0,0,1,.22.52v1.81a.7.7,0,0,1-.22.52.74.74,0,0,1-.52.22H327.9Z" style="fill:#37474f"></path><path d="M163.73,77.32a1,1,0,0,1,1,1v4a1,1,0,0,1-.3.71,1,1,0,0,1-.71.3H146a1,1,0,0,1-1-1V58.14a1,1,0,0,1,.3-.71,1,1,0,0,1,.71-.3h17.42a1,1,0,0,1,1,1v4a1,1,0,0,1-1,1H151.92v4h10.69a1,1,0,0,1,.71.3,1,1,0,0,1,.3.71v4a1,1,0,0,1-.3.71,1,1,0,0,1-.71.3H151.92v4.19Z" style="fill:#ADE0F9"></path><path d="M180.18,57.13a16.89,16.89,0,0,1,4.41.52,9.33,9.33,0,0,1,3.31,1.57,6.91,6.91,0,0,1,2.1,2.67,9.33,9.33,0,0,1,.72,3.8,8.53,8.53,0,0,1-1.16,4.65,7.34,7.34,0,0,1-3.28,2.83l4.63,8.9a.84.84,0,0,1,.11.41.82.82,0,0,1-.24.58.78.78,0,0,1-.58.24h-5.08a1.4,1.4,0,0,1-1.07-.34,3.24,3.24,0,0,1-.5-.67l-4.15-8H176v8a1,1,0,0,1-1,1h-4.9a1,1,0,0,1-1-1V58.14a1,1,0,0,1,.3-.71,1,1,0,0,1,.71-.3ZM176,68.46h4.22a5.1,5.1,0,0,0,2.6-.6,2.8,2.8,0,0,0,0-4.34,5.1,5.1,0,0,0-2.6-.6H176Z" style="fill:#ADE0F9"></path><path d="M206.16,57.13a17,17,0,0,1,4.42.52,9.28,9.28,0,0,1,3.3,1.57,6.91,6.91,0,0,1,2.1,2.67,9.33,9.33,0,0,1,.73,3.8,8.62,8.62,0,0,1-1.16,4.65,7.37,7.37,0,0,1-3.29,2.83l4.63,8.9a.86.86,0,0,1,.12.41.84.84,0,0,1-.83.82H211.1A1.42,1.42,0,0,1,210,83a3.24,3.24,0,0,1-.5-.67l-4.15-8h-3.44v8a1,1,0,0,1-.3.71,1,1,0,0,1-.71.3H196a1,1,0,0,1-1-1V58.14a1,1,0,0,1,.3-.71,1,1,0,0,1,.71-.3Zm-4.22,11.33h4.22a5.08,5.08,0,0,0,2.6-.6,2.8,2.8,0,0,0,0-4.34,5.08,5.08,0,0,0-2.6-.6h-4.22Z" style="fill:#ADE0F9"></path><path d="M220.15,66.89a11.4,11.4,0,0,1,.91-4,9.6,9.6,0,0,1,2.28-3.21,11,11,0,0,1,3.59-2.17,15,15,0,0,1,9.74,0,10.8,10.8,0,0,1,3.61,2.17,9.46,9.46,0,0,1,2.28,3.21,11.41,11.41,0,0,1,.92,4c.05,1.07.07,2.19.07,3.36s0,2.27-.07,3.29a11.41,11.41,0,0,1-.92,3.95,9.64,9.64,0,0,1-2.28,3.23,10.64,10.64,0,0,1-3.61,2.17,15.59,15.59,0,0,1-9.74,0,10.84,10.84,0,0,1-3.59-2.17,9.78,9.78,0,0,1-2.28-3.23,11.4,11.4,0,0,1-.91-3.95c-.05-1-.08-2.12-.08-3.29S220.1,68,220.15,66.89Zm16.41,6.46c0-.44.05-.94.07-1.49s0-1.11,0-1.68,0-1.13,0-1.67,0-1-.07-1.44a5.92,5.92,0,0,0-.39-1.72,4,4,0,0,0-.9-1.36,4.24,4.24,0,0,0-1.44-.92,6.35,6.35,0,0,0-4,0,4.24,4.24,0,0,0-1.44.92,4.17,4.17,0,0,0-.89,1.36,5.62,5.62,0,0,0-.4,1.72q-.08.65-.09,1.44c0,.54,0,1.09,0,1.67s0,1.13,0,1.68,0,1,.09,1.49a5,5,0,0,0,1.29,3.11,4.51,4.51,0,0,0,3.46,1.23,4.43,4.43,0,0,0,3.44-1.23A5.27,5.27,0,0,0,236.56,73.35Z" style="fill:#ADE0F9"></path><path d="M259,57.13a16.89,16.89,0,0,1,4.41.52,9.33,9.33,0,0,1,3.31,1.57,6.91,6.91,0,0,1,2.1,2.67,9.33,9.33,0,0,1,.72,3.8,8.62,8.62,0,0,1-1.15,4.65,7.42,7.42,0,0,1-3.29,2.83l4.63,8.9a.84.84,0,0,1,.11.41.82.82,0,0,1-.24.58.78.78,0,0,1-.58.24h-5.08a1.4,1.4,0,0,1-1.07-.34,3.24,3.24,0,0,1-.5-.67l-4.15-8h-3.44v8a1,1,0,0,1-1,1h-4.9a1,1,0,0,1-1-1V58.14a1,1,0,0,1,.3-.71,1,1,0,0,1,.71-.3Zm-4.22,11.33H259a5.1,5.1,0,0,0,2.6-.6,2.8,2.8,0,0,0,0-4.34,5.1,5.1,0,0,0-2.6-.6h-4.22Z" style="fill:#ADE0F9"></path><path d="M294.1,83.3a1,1,0,0,1-.71-.3,1,1,0,0,1-.3-.71V78.48H281.31a1,1,0,0,1-1-1v-4a2.52,2.52,0,0,1,.49-1.6L292,57.8a2,2,0,0,1,.61-.54,1.84,1.84,0,0,1,.77-.13H299a1,1,0,0,1,1,1V72.49h3.22a1,1,0,0,1,1,1v4a1,1,0,0,1-1,1H300v3.81a1,1,0,0,1-.29.71,1,1,0,0,1-.72.3Zm-.83-10.81V65.62l-5.45,6.87Z" style="fill:#ADE0F9"></path><path d="M318.29,56.75a12.72,12.72,0,0,1,4.82.83,9.63,9.63,0,0,1,3.35,2.2,9,9,0,0,1,2,3.24,13.85,13.85,0,0,1,.76,3.87c.05,1.07.08,2.19.08,3.36s0,2.27-.08,3.29a13.85,13.85,0,0,1-.76,3.87,9,9,0,0,1-2,3.23,9.51,9.51,0,0,1-3.35,2.21,14.61,14.61,0,0,1-9.65,0,9.47,9.47,0,0,1-3.34-2.21,8.74,8.74,0,0,1-2-3.23,13.51,13.51,0,0,1-.77-3.87c-.05-1-.07-2.12-.07-3.29s0-2.29.07-3.36a13.51,13.51,0,0,1,.77-3.87,8.78,8.78,0,0,1,2-3.24,9.58,9.58,0,0,1,3.34-2.2A12.77,12.77,0,0,1,318.29,56.75Zm4,16.6c.1-2.11.1-4.21,0-6.28a10.84,10.84,0,0,0-.28-1.72,3.83,3.83,0,0,0-.66-1.36,3.15,3.15,0,0,0-1.19-.92,5.46,5.46,0,0,0-3.74,0,3.11,3.11,0,0,0-1.2.92,4,4,0,0,0-.67,1.36,7.12,7.12,0,0,0-.26,1.72,50.61,50.61,0,0,0,0,6.28,7.51,7.51,0,0,0,.24,1.72,3.66,3.66,0,0,0,.67,1.37,3.14,3.14,0,0,0,1.22.91,5.31,5.31,0,0,0,3.74,0,3.18,3.18,0,0,0,1.21-.91,3.51,3.51,0,0,0,.67-1.37A8.09,8.09,0,0,0,322.29,73.35Z" style="fill:#ADE0F9"></path><path d="M344,56.75a12.68,12.68,0,0,1,4.82.83,9.63,9.63,0,0,1,3.35,2.2,9,9,0,0,1,2,3.24,13.85,13.85,0,0,1,.77,3.87c.05,1.07.07,2.19.07,3.36s0,2.27-.07,3.29a13.85,13.85,0,0,1-.77,3.87,9,9,0,0,1-2,3.23,9.51,9.51,0,0,1-3.35,2.21,14.58,14.58,0,0,1-9.64,0,9.42,9.42,0,0,1-3.35-2.21,8.87,8.87,0,0,1-2-3.23,13.85,13.85,0,0,1-.77-3.87c0-1-.07-2.12-.07-3.29s0-2.29.07-3.36a13.85,13.85,0,0,1,.77-3.87,8.91,8.91,0,0,1,2-3.24,9.53,9.53,0,0,1,3.35-2.2A12.68,12.68,0,0,1,344,56.75Zm4,16.6c.1-2.11.1-4.21,0-6.28a9.81,9.81,0,0,0-.28-1.72,4,4,0,0,0-.65-1.36,3.11,3.11,0,0,0-1.2-.92,5.46,5.46,0,0,0-3.74,0,3.11,3.11,0,0,0-1.2.92,4,4,0,0,0-.67,1.36,7.12,7.12,0,0,0-.26,1.72,50.61,50.61,0,0,0,0,6.28,7.51,7.51,0,0,0,.24,1.72,3.66,3.66,0,0,0,.67,1.37,3.21,3.21,0,0,0,1.22.91,5.31,5.31,0,0,0,3.74,0,3.1,3.1,0,0,0,1.21-.91,3.53,3.53,0,0,0,.68-1.37A8.81,8.81,0,0,0,348,73.35Z" style="fill:#ADE0F9"></path></g></g></svg>