<svg xmlns="http://www.w3.org/2000/svg" viewBox="0 0 500 500"><g id="freepik--Floor--inject-12"><ellipse id="freepik--floor--inject-12" cx="248.23" cy="373.96" rx="205.09" ry="110.56" style="fill:#f5f5f5"></ellipse></g><g id="freepik--Shadows--inject-12"><ellipse id="freepik--Shadow--inject-12" cx="342.86" cy="398.94" rx="63.94" ry="36.92" style="fill:#e6e6e6"></ellipse><ellipse id="freepik--shadow--inject-12" cx="262.23" cy="377.34" rx="63.94" ry="36.92" style="fill:#e6e6e6"></ellipse><ellipse id="freepik--shadow--inject-12" cx="87.45" cy="370.9" rx="24.13" ry="13.93" style="fill:#e6e6e6"></ellipse><path id="freepik--shadow--inject-12" d="M205.88,337.87l-45.66-26.26a4,4,0,0,0-3.67,0l-62.4,36a1.12,1.12,0,0,0,0,2.12L139.81,376a4.09,4.09,0,0,0,3.67,0l5.09-2.94,33.92-19.59L205.88,340A1.12,1.12,0,0,0,205.88,337.87Z" style="fill:#e6e6e6"></path></g><g id="freepik--Mirrow--inject-12"><g id="freepik--mirrow--inject-12"><polygon points="114.68 100.47 114.68 213.6 194.28 167.64 194.28 54.51 114.68 100.47" style="fill:#37474f"></polygon><polygon points="117.46 102.07 189.99 60.19 189.99 165.16 117.46 207.19 117.46 102.07" style="fill:#CC8B7F"></polygon><polygon points="117.46 102.07 189.99 60.19 189.99 165.16 117.46 207.19 117.46 102.07" style="fill:#fff;opacity:0.75"></polygon><g style="opacity:0.8"><polygon points="189.99 89.18 189.99 84.58 117.46 157.11 117.46 161.72 189.99 89.18" style="fill:#fff;opacity:0.7000000000000001"></polygon><polygon points="189.99 81.16 189.99 62.34 188.63 60.98 182.39 64.58 117.46 129.51 117.46 153.69 189.99 81.16" style="fill:#fff;opacity:0.5"></polygon><polygon points="117.46 111.21 117.46 124.06 169.48 72.03 139.08 89.58 117.46 111.21" style="fill:#fff;opacity:0.65"></polygon><polygon points="189.99 126.97 189.99 102.79 117.46 175.32 117.46 199.5 189.99 126.97" style="fill:#fff;opacity:0.65"></polygon><polygon points="189.99 152.49 189.99 139.64 129.32 200.31 159.86 182.62 189.99 152.49" style="fill:#fff;opacity:0.5"></polygon></g><polygon points="114.68 100.47 111.9 98.86 111.9 212 114.68 213.6 114.68 100.47" style="fill:#263238"></polygon><polygon points="194.28 54.51 191.5 52.9 111.9 98.86 114.68 100.47 194.28 54.51" style="fill:#455a64"></polygon><polygon points="191.5 59.32 189.99 60.19 189.99 165.16 191.51 166.04 191.5 59.32" style="fill:#263238"></polygon><polygon points="191.51 166.04 189.99 165.16 117.46 207.19 117.46 208.79 191.51 166.04" style="fill:#455a64"></polygon></g></g><g id="freepik--Furniture--inject-12"><g id="freepik--Table--inject-12"><g id="freepik--Drawers--inject-12"><polygon points="193.26 341 183.37 335.29 193.26 332.43 193.26 341" style="fill:#e0e0e0"></polygon><polygon points="193.26 341 183.37 335.29 193.26 332.43 193.26 341" style="fill:#263238"></polygon><polygon points="143.67 361.06 143.67 370.18 100.89 345.78 100.89 336.67 143.67 361.06" style="fill:#e0e0e0"></polygon><polygon points="143.67 361.06 143.67 370.18 100.89 345.78 100.89 336.67 143.67 361.06" style="fill:#263238"></polygon><polygon points="95.93 237.78 138.72 262.17 138.72 363.92 95.93 339.52 95.93 237.78" style="fill:#37474f"></polygon><polygon points="138.72 262.17 203.17 224.96 203.17 326.71 138.72 363.92 138.72 262.17" style="fill:#455a64"></polygon><polygon points="203.17 224.96 160.38 200.56 95.93 237.78 138.72 262.17 203.17 224.96" style="fill:#f5f5f5"></polygon><polygon points="143.67 265.03 198.22 233.53 198.22 254.38 143.67 285.88 143.67 265.03" style="fill:#263238"></polygon><polygon points="143.67 315.33 198.22 283.83 198.22 323.85 143.67 355.35 143.67 315.33" style="fill:#37474f"></polygon><polygon points="143.67 370.18 148.62 367.32 148.62 358.21 143.67 361.06 143.67 370.18" style="fill:#37474f"></polygon><polygon points="193.26 341 198.22 338.14 198.22 329.57 193.26 332.43 193.26 341" style="fill:#37474f"></polygon><path d="M160.57,258.88c0,.79,2.37.07,5.28-1.62l9.25-5.34c2.91-1.68,5.28-3.68,5.28-4.47V246l-19.81,11.43Z" style="fill:#37474f"></path><polygon points="143.67 290.22 198.22 258.73 198.22 279.58 143.67 311.07 143.67 290.22" style="fill:#263238"></polygon><path d="M160.57,284.07c0,.79,2.37.07,5.28-1.61l9.25-5.34c2.91-1.68,5.28-3.69,5.28-4.48v-1.43l-19.81,11.44Z" style="fill:#37474f"></path><polygon points="198.22 323.85 163.79 303.71 143.67 315.33 143.67 355.35 198.22 323.85" style="fill:#263238"></polygon></g><g id="freepik--Shelf--inject-12"><g id="freepik--shelf--inject-12"><polygon points="93.62 236.83 134.93 260.41 273.72 180.28 232.41 156.7 93.62 236.83" style="fill:#CC8B7F"></polygon><polygon points="93.62 236.83 134.93 260.41 273.72 180.28 232.41 156.7 93.62 236.83" style="fill:#fff;opacity:0.85"></polygon><polygon points="93.62 236.83 93.62 241 134.93 264.58 134.93 260.41 93.62 236.83" style="fill:#CC8B7F"></polygon><polygon points="93.62 236.83 93.62 241 134.93 264.58 134.93 260.41 93.62 236.83" style="fill:#fff;opacity:0.5"></polygon><polygon points="93.62 236.83 93.62 241 134.93 264.58 134.93 260.41 93.62 236.83" style="opacity:0.05"></polygon><polygon points="273.72 184.46 134.93 264.58 134.93 260.41 273.72 180.28 273.72 184.46" style="fill:#CC8B7F"></polygon><polygon points="273.72 184.46 134.93 264.58 134.93 260.41 273.72 180.28 273.72 184.46" style="fill:#fff;opacity:0.65"></polygon></g><g id="freepik--hair-comb--inject-12"><path d="M132.81,222.56c-.38.22.48,1.07,1.92,1.91l4.05,2.33c1.44.84,2.3,1.69,1.92,1.91s-1.85-.28-3.29-1.11l-4-2.33c-1.45-.84-2.93-1.33-3.31-1.11s.48,1.07,1.92,1.9L136,228.4c1.44.83,2.3,1.68,1.92,1.9s-1.87-.28-3.31-1.11l-4-2.33c-1.44-.83-2.92-1.33-3.31-1.1s.48,1.07,1.92,1.9l4,2.33c1.45.83,2.31,1.68,1.93,1.9s-1.86-.27-3.3-1.11l-4-2.32c-1.44-.83-2.92-1.33-3.31-1.11s.48,1.08,1.92,1.91l4,2.32c1.44.83,2.3,1.69,1.92,1.91s-1.85-.28-3.29-1.11l-4-2.33c-1.44-.84-2.92-1.33-3.3-1.11s.47,1.08,1.91,1.92l4,2.32c1.44.83,2.3,1.69,1.92,1.91s-1.85-.28-3.29-1.11l-4-2.34c-1.44-.83-2.92-1.33-3.3-1.11s.47,1.08,1.91,1.91l4,2.34c1.44.83,2.3,1.68,1.92,1.9s-1.85-.29-3.29-1.12l-4-2.32c-1.44-.83-2.92-1.33-3.31-1.11s.48,1.08,1.92,1.91l4,2.33c1.44.84,2.3,1.69,1.93,1.9s-1.86-.28-3.3-1.11l-4-2.32c-1.44-.83-2.92-1.33-3.31-1.11s.48,1.07,1.92,1.91l4,2.32c1.44.83,2.31,1.68,1.93,1.91s-1.86-.28-3.3-1.11l-4-2.32c-1.44-.84-2.92-1.33-3.3-1.11s.47,1.07,1.91,1.9l4,2.33c1.44.83,2.31,1.68,1.93,1.9s-1.86-.29-3.3-1.12l-4-2.31c-1.44-.83-2.92-1.32-3.3-1.1s.47,1.07,1.91,1.9l4,2.32c1.45.84,2.31,1.69,1.93,1.9s-1.86-.28-3.3-1.11l-7-4.06c-1.44-.83-1.44-2.18,0-3l23.78-13.74a5.78,5.78,0,0,1,5.22,0l7,4.06c1.44.83,2.29,1.69,1.91,1.91s-1.87-.26-3.32-1.1l-4-2.33C134.67,222.83,133.19,222.34,132.81,222.56Z" style="opacity:0.1"></path><path d="M132.81,221.49c-.38.22.48,1.08,1.92,1.91l4.05,2.34c1.44.83,2.3,1.68,1.92,1.9s-1.85-.27-3.29-1.11l-4-2.33c-1.45-.84-2.93-1.33-3.31-1.11s.48,1.07,1.92,1.91l4.05,2.33c1.44.84,2.3,1.69,1.92,1.9s-1.87-.28-3.31-1.11l-4-2.33c-1.44-.83-2.92-1.32-3.31-1.1s.48,1.07,1.92,1.9l4,2.33c1.45.83,2.31,1.68,1.93,1.9s-1.86-.27-3.3-1.1l-4-2.33c-1.44-.83-2.92-1.33-3.31-1.1s.48,1.07,1.92,1.9l4,2.33c1.44.83,2.3,1.68,1.92,1.9s-1.85-.28-3.29-1.11l-4-2.33c-1.44-.84-2.92-1.33-3.3-1.1s.47,1.08,1.91,1.91l4,2.32c1.44.83,2.3,1.69,1.92,1.91s-1.85-.28-3.29-1.11l-4-2.33c-1.44-.84-2.92-1.33-3.3-1.11s.47,1.07,1.91,1.9l4,2.34c1.44.83,2.3,1.68,1.92,1.9s-1.85-.28-3.29-1.12l-4-2.32c-1.44-.83-2.92-1.33-3.31-1.11s.48,1.08,1.92,1.91l4,2.33c1.44.84,2.3,1.69,1.93,1.91s-1.86-.29-3.3-1.12l-4-2.32c-1.44-.83-2.92-1.33-3.31-1.11s.48,1.08,1.92,1.91l4,2.32c1.44.83,2.31,1.69,1.93,1.91s-1.86-.28-3.3-1.11l-4-2.32c-1.44-.83-2.92-1.33-3.3-1.11s.47,1.07,1.91,1.91l4,2.32c1.44.83,2.31,1.68,1.93,1.9s-1.86-.28-3.3-1.11l-4-2.32c-1.44-.83-2.92-1.32-3.3-1.1s.47,1.07,1.91,1.91l4,2.32c1.45.83,2.31,1.68,1.93,1.9s-1.86-.29-3.3-1.12l-7-4.06c-1.44-.83-1.44-2.18,0-3l23.78-13.73a5.72,5.72,0,0,1,5.22,0l7,4.05c1.44.83,2.29,1.69,1.91,1.92s-1.87-.27-3.32-1.1l-4-2.34C134.67,221.77,133.19,221.27,132.81,221.49Z" style="fill:#455a64"></path></g><g id="freepik--Scissors--inject-12"><path d="M161.46,240.79a6.77,6.77,0,0,1-1.74-.25c-1.7-.48-2.23-1.37-2.38-2a3.1,3.1,0,0,1,1.16-2.82c.26-.22.57-.46.89-.7a7.39,7.39,0,0,0,2.09-2l1.15-3-.87-.51L162,229l-.91.2-.41-.55c-.91.44-3.13,1.52-6.12,3-.69.34-1.27.64-1.77.9a16.63,16.63,0,0,1-4,1.68,6.79,6.79,0,0,1-1.59.2,3.23,3.23,0,0,1-2.48-.9,2.48,2.48,0,0,1-.55-2c.31-2.8,5.77-5.24,8.61-5.5.93-.09,1.81-.13,2.76-.13l1.25,0,.82,0c.25,0,.48,0,.68,0,1.08-.1,4.42-.72,4.45-.72l.37-.07.22.3.83-.16c1.11-.79,9.55-6.77,11.54-8.14,1.25-.85,3.47-2.21,4.15-2.21h.36l.23.34.17.32-.23.38a16.74,16.74,0,0,1-3.19,3.66c-.71.55-2.76,2.3-4.8,4l15.42-3-.68,1.15c-.19.32-1.19,1.24-6.39,2.77-3.13.93-8.85,2.25-13.16,3.21l-.7.61c-.05.77-.2,3.11-.31,4.33a4.5,4.5,0,0,0,.23,1.46,4.26,4.26,0,0,1-.26,3.62A6,6,0,0,1,161.46,240.79Zm1.09-4.45a2.78,2.78,0,0,0-2,.8.67.67,0,0,0-.21.59.92.92,0,0,0,.68.5,2.38,2.38,0,0,0,.68.09,2.8,2.8,0,0,0,2-.79.67.67,0,0,0,.21-.59.93.93,0,0,0-.67-.51A2.5,2.5,0,0,0,162.55,236.34Zm-7.9-8.19a11.14,11.14,0,0,0-3.33.57c-3,1-3.89,2.19-4.18,2.82,0,.09-.12.29,0,.39a.59.59,0,0,0,.49.18,1,1,0,0,0,.3,0,4.49,4.49,0,0,0,1.53-.74,21.36,21.36,0,0,1,1.86-1.06,36.25,36.25,0,0,1,4.79-1.93l.05,0A5.74,5.74,0,0,0,154.65,228.15Z" style="opacity:0.1"></path><path d="M162.81,225.79l23.7-5.24.05.64s-.51.86-6,2.5-19.23,4.53-19.23,4.53l-.57-.76Z" style="fill:#263238"></path><path d="M179.83,215.29a16.6,16.6,0,0,1-3.06,3.51c-1.66,1.3-10.53,9-10.53,9l-2.86,1.59-.86-.5,1.29-3s10-7.1,12.18-8.59S180.11,214.87,179.83,215.29Z" style="fill:#37474f"></path><polygon points="162.53 228.18 163.38 228.68 163.16 229.25 162.53 228.88 162.53 228.18" style="fill:#263238"></polygon><polygon points="179.85 214.52 179.85 215.23 179.14 216.27 179.14 215.17 179.85 214.52" style="fill:#37474f"></polygon><path d="M166,237.17c1.1-1.71-.18-3.34-.06-4.81s.32-4.57.32-4.57l-2.86,1.59s-.95,2.43-1.34,3.45-2.11,2.1-3.15,3-1.93,3,1,3.81A5.26,5.26,0,0,0,166,237.17Zm-5.15,1.31c-1.13-.32-1.47-1.25-.75-2.07a3.48,3.48,0,0,1,3.32-.88c1.13.32,1.47,1.25.76,2.07A3.47,3.47,0,0,1,160.83,238.48Z" style="fill:#CC8B7F"></path><path d="M166,237.17c1.1-1.71-.18-3.34-.06-4.81s.32-4.57.32-4.57l-2.86,1.59s-.95,2.43-1.34,3.45-2.11,2.1-3.15,3-1.93,3,1,3.81A5.26,5.26,0,0,0,166,237.17Zm-5.15,1.31c-1.13-.32-1.47-1.25-.75-2.07a3.48,3.48,0,0,1,3.32-.88c1.13.32,1.47,1.25.76,2.07A3.47,3.47,0,0,1,160.83,238.48Z" style="opacity:0.2"></path><path d="M166.09,226.72a1.24,1.24,0,0,1-1.17.23c-.44-.13-.61-.43-.39-.68a1.21,1.21,0,0,1,1.17-.23C166.14,226.17,166.31,226.47,166.09,226.72Z" style="fill:#263238"></path><path d="M162.8,225.45s-3.39.63-4.5.73-2.73-.13-5.52.12-7.81,2.65-8.06,5,2.15,2.5,3.87,2.08,2.69-1.06,5.65-2.54c3.95-2,6.57-3.22,6.57-3.22l2.22-1.84Zm-6.56,3.13a37.14,37.14,0,0,0-4.7,1.91c-1.89.93-2.34,1.56-3.52,1.84-1,.23-1.91-.31-1.43-1.36s1.93-2.29,4.54-3.15,4.76-.7,5.71-.19C157.21,227.82,157.39,228.21,156.24,228.58Z" style="fill:#CC8B7F"></path><path d="M162.8,225.45s-3.39.63-4.5.73-2.73-.13-5.52.12-7.81,2.65-8.06,5,2.15,2.5,3.87,2.08,2.69-1.06,5.65-2.54c3.95-2,6.57-3.22,6.57-3.22l2.22-1.84Zm-6.56,3.13a37.14,37.14,0,0,0-4.7,1.91c-1.89.93-2.34,1.56-3.52,1.84-1,.23-1.91-.31-1.43-1.36s1.93-2.29,4.54-3.15,4.76-.7,5.71-.19C157.21,227.82,157.39,228.21,156.24,228.58Z" style="opacity:0.2"></path><polygon points="161.29 228.22 161.29 227.52 160.81 226.89 160.81 227.59 161.29 228.22" style="fill:#263238"></polygon><path d="M162.81,225.1l23.75-4.61s-.51.86-6,2.5-19.23,4.53-19.23,4.53l-.57-.76Z" style="fill:#37474f"></path><path d="M179.83,214.59a16.8,16.8,0,0,1-3.06,3.52c-1.66,1.3-10.53,9-10.53,9l-2.86,1.59-.86-.5,1.29-3s10-7.1,12.18-8.59S180.11,214.18,179.83,214.59Z" style="fill:#455a64"></path><path d="M166,236.47c1.1-1.71-.18-3.34-.06-4.81s.32-4.57.32-4.57l-2.86,1.59s-.95,2.43-1.34,3.45-2.11,2.1-3.15,3-1.93,3,1,3.81A5.26,5.26,0,0,0,166,236.47Zm-5.15,1.32c-1.13-.33-1.47-1.26-.75-2.07a3.46,3.46,0,0,1,3.32-.89c1.13.33,1.47,1.25.76,2.07A3.5,3.5,0,0,1,160.83,237.79Z" style="fill:#CC8B7F"></path><path d="M166.09,226a1.24,1.24,0,0,1-1.17.23c-.44-.13-.61-.43-.39-.68a1.24,1.24,0,0,1,1.17-.23C166.14,225.47,166.31,225.77,166.09,226Z" style="fill:#263238"></path><path d="M162.8,224.76s-3.39.62-4.5.72-2.73-.13-5.52.12-7.81,2.65-8.06,5,2.15,2.5,3.87,2.08,2.69-1.05,5.65-2.53c3.95-2,6.57-3.23,6.57-3.23l2.22-1.83Zm-6.56,3.13a35.38,35.38,0,0,0-4.7,1.9c-1.89.93-2.34,1.56-3.52,1.84-1,.23-1.91-.31-1.43-1.36s1.93-2.29,4.54-3.14,4.76-.7,5.71-.2C157.21,227.12,157.39,227.51,156.24,227.89Z" style="fill:#CC8B7F"></path></g><g id="freepik--Brush--inject-12"><ellipse cx="155.55" cy="215.52" rx="8.29" ry="4.79" style="opacity:0.1"></ellipse><path d="M161.74,214.82h0l-2-9.65h0a2.2,2.2,0,0,0-1.22-1.58,6.72,6.72,0,0,0-6.08,0,2.21,2.21,0,0,0-1.23,1.58h0l-2,9.65h0c-.22,1.07.35,2.18,1.77,3a9.85,9.85,0,0,0,8.88,0C161.39,217,162,215.89,161.74,214.82Z" style="fill:#455a64"></path><path d="M161.8,194.73H149.26l2,10.78h0a2.21,2.21,0,0,0,1.23,1.58,6.72,6.72,0,0,0,6.08,0,2.2,2.2,0,0,0,1.22-1.58h0Z" style="fill:#CC8B7F"></path><path d="M160,191.9c2.46,1.42,2.46,3.72,0,5.13a9.79,9.79,0,0,1-8.88,0c-2.46-1.41-2.46-3.71,0-5.13A9.85,9.85,0,0,1,160,191.9Z" style="fill:#CC8B7F"></path><path d="M160,191.9c2.46,1.42,2.46,3.72,0,5.13a9.79,9.79,0,0,1-8.88,0c-2.46-1.41-2.46-3.71,0-5.13A9.85,9.85,0,0,1,160,191.9Z" style="fill:#fff;opacity:0.5"></path><path d="M151.56,191.9a8.77,8.77,0,0,1,8,0c2.2,1.27,2.2,3.33,0,4.6a8.83,8.83,0,0,1-8,0C149.35,195.23,149.35,193.17,151.56,191.9Z" style="opacity:0.1"></path><path d="M156.92,188.56a8.8,8.8,0,0,1,3,1.74,3.23,3.23,0,0,1,.73,3.72,3.31,3.31,0,0,1-2.9,1.79,8.51,8.51,0,0,0-.07-3.54C157.23,190.47,156.92,188.56,156.92,188.56Z" style="fill:#f0f0f0"></path><path d="M154.63,188.46c-.43.6-1.92.93-2.91,1.58A3.42,3.42,0,0,0,150,192a2.16,2.16,0,0,0,1,2.64c1.11.53,3.37-1.28,3.62-1.94A24.33,24.33,0,0,0,154.63,188.46Z" style="fill:#e0e0e0"></path><path d="M155.32,187.35a2.11,2.11,0,0,0-.75,1.9,3.35,3.35,0,0,1-2,3.39c-1.78,1-2,1.9-1,2.74a3,3,0,0,0,2.18.63s2.66-.61,3.2-2.6S156.43,188.23,155.32,187.35Z" style="fill:#f0f0f0"></path><path d="M155.55,196.59c-1.73,0-2.43-.75-1.63-1.74.4-.49,1.12-.69,1.57-1.19a3.12,3.12,0,0,0,.93-1.88c.15-1.77-2-3.61-.74-5.15.13.84.48,1.32,1.73,2.33a4.93,4.93,0,0,1,1.53,5.47A4.08,4.08,0,0,1,155.55,196.59Z" style="fill:#fafafa"></path><path d="M159.13,194.81a3.93,3.93,0,0,0,.1-2,3.29,3.29,0,0,1-2.63,2.56,4.64,4.64,0,0,1-1.76.19c-.68-.06-1.07-.32-1-.57l.09-.13a1.42,1.42,0,0,1,.12-.13l.06-.06.05,0,.15-.13.07-.05,0,0,.32-.2c.2-.13.39-.24.51-.33l.07-.06.14-.12h0l.12-.12.16-.2a.39.39,0,0,0,.08-.1s0,0,0,0a1.67,1.67,0,0,0,.12-.16,1.51,1.51,0,0,0,.12-.2,3.76,3.76,0,0,0,.25-.53.81.81,0,0,1,0-.11h0a3.62,3.62,0,0,1-2,1.74,4.07,4.07,0,0,1-2.35.26c-.74-.11-.77-.51-.77-.57l0,0a4,4,0,0,1,1.34-1,4.87,4.87,0,0,0,.82-.55,4.32,4.32,0,0,1-1,.46,4.5,4.5,0,0,1-1.75.17c-.65-.13-.75-.44-.65-.91a.75.75,0,0,0-.05.16,2.16,2.16,0,0,0,1,2.64h0a1.52,1.52,0,0,0,.53.77,3,3,0,0,0,2.18.63h0a2.25,2.25,0,0,0,1.83.58,4.32,4.32,0,0,0,2.2-.78h0a3.31,3.31,0,0,0,2.9-1.79,2.93,2.93,0,0,0,.3-1.56h0A2.51,2.51,0,0,1,159.13,194.81Z" style="opacity:0.05"></path></g><g id="freepik--hair-comb--inject-12"><path d="M210.51,178.46a3.65,3.65,0,0,0-3.27,0l-14.17,8.19S176.86,196,176.86,196l.31.2a8.57,8.57,0,0,0,3-1.18l10.09-5.22a3.85,3.85,0,0,1,3.71.09l2.79,1.62c.9.52,1.83.84,2.06.7s-.3-.67-1.2-1.19l-2.52-1.45c-.9-.52-1.44-1.06-1.2-1.2a3.54,3.54,0,0,1,2.07.7l2.52,1.44c.9.52,1.82.84,2.06.7s-.3-.67-1.2-1.19l-2.52-1.45c-.9-.52-1.44-1.06-1.2-1.2s1.16.17,2.07.7l2.51,1.45c.91.52,1.83.83,2.07.69s-.3-.67-1.21-1.19l-2.51-1.45c-.91-.53-1.44-1.06-1.2-1.2s1.16.17,2.06.7l2.52,1.45a3.7,3.7,0,0,0,2.07.7c.23-.14-.31-.67-1.21-1.19l-2.52-1.46c-.9-.53-1.44-1.06-1.2-1.2a3.54,3.54,0,0,1,2.07.7l2.52,1.45a3.7,3.7,0,0,0,2.06.7c.24-.14-.3-.67-1.2-1.19L202,185.55c-.9-.53-1.44-1.06-1.2-1.2a3.54,3.54,0,0,1,2.07.7l2.53,1.46c.9.52,1.82.83,2.06.69s-.3-.67-1.21-1.19l-2.52-1.46c-.9-.52-1.44-1.05-1.2-1.2s1.16.17,2.07.69l2.52,1.47c.91.52,1.83.83,2.07.69s-.3-.67-1.21-1.19l-2.52-1.46c-.91-.52-1.44-1.05-1.2-1.19s1.16.17,2.07.69l2.52,1.46a3.58,3.58,0,0,0,2.07.69c.23-.14-.31-.67-1.21-1.19l-2.52-1.46c-.91-.52-1.45-1.05-1.21-1.19a3.58,3.58,0,0,1,2.07.69l2.53,1.46a3.58,3.58,0,0,0,2.07.69c.24-.13-.3-.66-1.2-1.19l-2.54-1.46c-.9-.52-1.44-1.05-1.2-1.19a3.58,3.58,0,0,1,2.07.69l2.54,1.46c.9.53,1.82.84,2.06.7s-.3-.67-1.21-1.2l-2.53-1.46c-.9-.52-1.44-1.06-1.2-1.19a3.58,3.58,0,0,1,2.07.69l2.53,1.46a3.62,3.62,0,0,0,2.08.69c.24-.14-.3-.67-1.2-1.2Z" style="opacity:0.1"></path><path d="M210.51,177.45a3.65,3.65,0,0,0-3.27,0l-14.17,8.18S176.86,195,176.86,195l.31.2a8.57,8.57,0,0,0,3-1.18l10.09-5.22a3.85,3.85,0,0,1,3.71.09l2.79,1.62c.9.52,1.83.84,2.06.7s-.3-.67-1.2-1.19l-2.52-1.45c-.9-.52-1.44-1.06-1.2-1.2a3.7,3.7,0,0,1,2.07.7l2.52,1.44c.9.52,1.82.84,2.06.7s-.3-.67-1.2-1.19l-2.52-1.45c-.9-.52-1.44-1.06-1.2-1.2a3.72,3.72,0,0,1,2.07.7l2.51,1.45a3.72,3.72,0,0,0,2.07.7c.24-.14-.3-.68-1.21-1.2l-2.51-1.45c-.91-.52-1.44-1.06-1.2-1.2s1.16.18,2.06.7l2.52,1.45a3.7,3.7,0,0,0,2.07.7c.23-.14-.31-.67-1.21-1.19l-2.52-1.46c-.9-.52-1.44-1.06-1.2-1.2a3.54,3.54,0,0,1,2.07.7l2.52,1.45a3.7,3.7,0,0,0,2.06.7c.24-.14-.3-.67-1.2-1.19L202,184.54c-.9-.53-1.44-1.06-1.2-1.2a3.54,3.54,0,0,1,2.07.7l2.53,1.46c.9.52,1.82.83,2.06.69s-.3-.67-1.21-1.19l-2.52-1.46c-.9-.52-1.44-1-1.2-1.19s1.16.16,2.07.69l2.52,1.46c.91.52,1.83.83,2.07.69s-.3-.67-1.21-1.19l-2.52-1.46c-.91-.52-1.44-1-1.2-1.19s1.16.17,2.07.69l2.52,1.46a3.58,3.58,0,0,0,2.07.69c.23-.14-.31-.67-1.21-1.19l-2.52-1.46c-.91-.52-1.45-1-1.21-1.19A3.58,3.58,0,0,1,208,181l2.53,1.46a3.7,3.7,0,0,0,2.07.7c.24-.14-.3-.67-1.2-1.19l-2.54-1.47c-.9-.52-1.44-1-1.2-1.19a3.58,3.58,0,0,1,2.07.69l2.54,1.47c.9.52,1.82.83,2.06.69s-.3-.67-1.21-1.19l-2.53-1.47c-.9-.52-1.44-1-1.2-1.19a3.58,3.58,0,0,1,2.07.69L214,180.5a3.54,3.54,0,0,0,2.08.69c.24-.14-.3-.67-1.2-1.19Z" style="fill:#455a64"></path></g><g id="freepik--Bowl--inject-12"><path d="M195.35,217.12a18.24,18.24,0,0,1-9-2.14c-2.26-1.3-3.5-3-3.5-4.74s1.24-3.45,3.5-4.75a19.93,19.93,0,0,1,18,0c2.26,1.3,3.5,3,3.5,4.75s-1.24,3.44-3.5,4.74A18.25,18.25,0,0,1,195.35,217.12Z" style="opacity:0.1"></path><path d="M207.39,203a12,12,0,0,1-24.07,0C183.32,196.39,207.39,196.39,207.39,203Z" style="fill:#CC8B7F"></path><path d="M207.39,203a12,12,0,0,1-24.07,0C183.32,196.39,207.39,196.39,207.39,203Z" style="opacity:0.30000000000000004"></path><path d="M186.88,198.14c4.68-2.7,12.27-2.7,17,0s4.68,7.09,0,9.79-12.27,2.7-17,0S182.2,200.84,186.88,198.14Z" style="fill:#CC8B7F"></path><path d="M195.35,209.26a16.58,16.58,0,0,1-8.12-1.93c-2-1.18-3.16-2.71-3.16-4.29s1.12-3.12,3.16-4.3a18.07,18.07,0,0,1,16.25,0c2,1.18,3.16,2.71,3.17,4.29s-1.13,3.12-3.17,4.3A16.59,16.59,0,0,1,195.35,209.26Z" style="fill:#CC8B7F"></path><path d="M195.35,209.26a16.58,16.58,0,0,1-8.12-1.93c-2-1.18-3.16-2.71-3.16-4.29s1.12-3.12,3.16-4.3a18.07,18.07,0,0,1,16.25,0c2,1.18,3.16,2.71,3.17,4.29s-1.13,3.12-3.17,4.3A16.59,16.59,0,0,1,195.35,209.26Z" style="opacity:0.30000000000000004"></path><path d="M205.55,205a4.64,4.64,0,0,1,0,.64.06.06,0,0,1,0,0l-.24.26a8.54,8.54,0,0,1-1.78,1.34,8.73,8.73,0,0,1-1.06.53,5.79,5.79,0,0,1-.57.25,13.75,13.75,0,0,1-1.37.46c-.21.07-.43.13-.64.18a15.18,15.18,0,0,0-.39-4.48c-.84-3.35-1.4-6.91-1.4-6.91a16.85,16.85,0,0,1,5.56,3.26,6,6,0,0,1,1.9,4v0s0,0,0,0A1.31,1.31,0,0,1,205.55,205Z" style="fill:#f0f0f0"></path><path d="M193.78,205a9,9,0,0,1-3.57,3.11c-.19.09-.37.18-.56.25a7.19,7.19,0,0,1-1.25-.48h0a4,4,0,0,1-.47-.21s0,0,0,0q-.31-.15-.63-.33a0,0,0,0,1,0,0,7.41,7.41,0,0,1-2.29-1.91,4.26,4.26,0,0,1,.18-1.69c0-.1.08-.18.11-.27v0c.51-1.4,1.43-2.17,3.16-3.3s4.58-1.81,5.4-2.91C193.81,197.57,194.22,203.82,193.78,205Z" style="fill:#e0e0e0"></path><path d="M198.06,206.38a5.58,5.58,0,0,1-2,2.87h-.74a19.06,19.06,0,0,1-2.86-.21h0a15,15,0,0,1-2.83-.68,7.19,7.19,0,0,1-1.25-.48h0a4,4,0,0,1-.47-.21s0,0,0,0q-.31-.15-.63-.33a0,0,0,0,1,0,0,2.24,2.24,0,0,1,.21-.36s0,0,0-.06a5.53,5.53,0,0,1,.42-.48,8,8,0,0,1,1.23-1L190,205a3.83,3.83,0,0,0,.44-.25,3,3,0,0,0,.37-.25l.36-.25c.13-.09.23-.18.34-.27a6,6,0,0,0,2.18-5.28,6.33,6.33,0,0,1,.11-1.45,1.76,1.76,0,0,1,.07-.33,3.94,3.94,0,0,1,1.21-1.75l0,0a5.6,5.6,0,0,1,1.33,1.69C197.86,199.34,198.83,203.52,198.06,206.38Z" style="fill:#f0f0f0"></path><path d="M202.34,205.34v0h0a8.87,8.87,0,0,1-.47,2.74,13.75,13.75,0,0,1-1.37.46c-.21.07-.43.13-.64.18a19.38,19.38,0,0,1-3.75.51h-.74a19.06,19.06,0,0,1-2.86-.21.1.1,0,0,1,0,0l.12-.12.11-.12a.28.28,0,0,1,.09-.07,1.89,1.89,0,0,1,.28-.23l.08-.06.05,0,.07,0,.57-.37h0c.38-.24.72-.45.95-.62a1.42,1.42,0,0,1,.13-.12,2.52,2.52,0,0,0,.25-.21l0,0a2.08,2.08,0,0,0,.21-.21l.3-.38a1.3,1.3,0,0,0,.15-.18.09.09,0,0,0,0-.05l.23-.31a4.18,4.18,0,0,0,.23-.36,5.71,5.71,0,0,0,.45-1c0-.1,0-.17.06-.22v0a4.41,4.41,0,0,0,.18-.92c.2-2.2-1.51-4.44-2-6.54a3.73,3.73,0,0,1,0-1.66,2.88,2.88,0,0,1,.65-1.37,5,5,0,0,0,1.84,3.15h0c.15.14.3.29.47.42s.56.49.89.76A9.25,9.25,0,0,1,202.34,205.34Z" style="fill:#fafafa"></path><path d="M187.22,207.3a7.41,7.41,0,0,1-2.29-1.91,4.26,4.26,0,0,1,.18-1.69c0-.1.08-.18.11-.27-.2.84,0,1.43,1.2,1.67a8.43,8.43,0,0,0,3.26-.31,7.6,7.6,0,0,0,1.81-.86c-.11.09-.21.18-.34.27l-.36.25a3,3,0,0,1-.37.25,3.83,3.83,0,0,1-.44.25l-.85.48a8,8,0,0,0-1.23,1,5.53,5.53,0,0,0-.42.48s0,.05,0,.06a.88.88,0,0,0,.44.71q-.31-.15-.63-.33A0,0,0,0,1,187.22,207.3Z" style="opacity:0.05"></path><path d="M196.93,204.27v0s0,.12-.06.22a5.71,5.71,0,0,1-.45,1,4.18,4.18,0,0,1-.23.36l-.23.31a.09.09,0,0,1,0,.05,1.3,1.3,0,0,1-.15.18l-.3.38a2.08,2.08,0,0,1-.21.21l0,0a2.52,2.52,0,0,1-.25.21,1.42,1.42,0,0,0-.13.12c-.23.17-.57.38-.95.62h0l-.57.37-.07,0-.05,0-.08.06a1.89,1.89,0,0,0-.28.23.28.28,0,0,0-.09.07l-.11.12-.12.12a.1.1,0,0,0,0,0h0a15,15,0,0,1-2.83-.68,7.19,7.19,0,0,1-1.25-.48,2.11,2.11,0,0,0,.45.11c.47.06.92.1,1.36.12a6.93,6.93,0,0,0,3-.59A6.77,6.77,0,0,0,196.93,204.27Z" style="opacity:0.05"></path><path d="M202.34,205.36a7.67,7.67,0,0,1,.09,2.49,5.79,5.79,0,0,1-.57.25,13.75,13.75,0,0,1-1.37.46,5.41,5.41,0,0,0,1.84-3.2Z" style="opacity:0.05"></path><path d="M205.55,205a4.64,4.64,0,0,1,0,.64v0h0l-.24.26a4.84,4.84,0,0,0,.25-1.28s0,0,0,0v0s0,0,0,0C205.55,204.76,205.55,204.91,205.55,205Z" style="opacity:0.05"></path><path d="M205.42,205.82l.09-.12v0a4.64,4.64,0,0,0,0-.64,1.05,1.05,0,0,0,0-.31,7.88,7.88,0,0,1-2,1.64,18.07,18.07,0,0,1-16.25,0,7.67,7.67,0,0,1-2.28-1.93,5,5,0,0,0,0,.95l.17.19a2.51,2.51,0,0,0,.26.31c.11.11.23.23.36.34l.16.15c.13.11.27.21.41.31a7.12,7.12,0,0,0,.93.61,0,0,0,0,0,0,0l.06,0a12.58,12.58,0,0,0,1.28.61,9,9,0,0,0,.86.34q.52.18,1.08.33l.49.14a17.52,17.52,0,0,0,1.81.32l.59.06a17.41,17.41,0,0,0,1.93.11h0c.56,0,1.11,0,1.65-.09l.81-.07c.5-.06,1-.15,1.46-.25l.54-.11a13.36,13.36,0,0,0,1.59-.49l.37-.12a14,14,0,0,0,1.7-.81l.2-.13a7.4,7.4,0,0,0,.62-.41l.34-.25c.18-.15.35-.3.5-.45l.19-.17Z" style="opacity:0.05"></path></g></g></g></g><g id="freepik--Plant--inject-12"><g id="freepik--Pot--inject-12"><path d="M73.62,373.43c-7.33-7.57-11.64-38.36-4.48-44.36h36.39c7.15,6,2.85,36.78-4.48,44.35l-.2.21-.25.25c-.21.2-.43.4-.67.6l-.17.13c-.18.15-.36.29-.56.43a10.74,10.74,0,0,1-.94.61c-6,3.52-15.82,3.52-21.85,0h0a9.07,9.07,0,0,1-1-.62c-.19-.13-.35-.26-.52-.39l-.22-.17c-.22-.19-.43-.38-.63-.58l-.3-.29Z" style="fill:#CC8B7F"></path><g style="opacity:0.5"><path d="M73.62,373.43c-7.33-7.57-11.64-38.36-4.48-44.36h36.39c7.15,6,2.85,36.78-4.48,44.35l-.2.21-.25.25c-.21.2-.43.4-.67.6l-.17.13c-.18.15-.36.29-.56.43a10.74,10.74,0,0,1-.94.61c-6,3.52-15.82,3.52-21.85,0h0a9.07,9.07,0,0,1-1-.62c-.19-.13-.35-.26-.52-.39l-.22-.17c-.22-.19-.43-.38-.63-.58l-.3-.29Z" style="fill:#fff"></path></g><path d="M102.37,326.65c8.3,4.85,8.3,12.71,0,17.55s-21.77,4.85-30.07,0-8.31-12.7,0-17.55S94.07,321.8,102.37,326.65Z" style="fill:#CC8B7F"></path><g style="opacity:0.7000000000000001"><path d="M102.37,326.65c8.3,4.85,8.3,12.71,0,17.55s-21.77,4.85-30.07,0-8.31-12.7,0-17.55S94.07,321.8,102.37,326.65Z" style="fill:#fff"></path></g><path d="M98.38,329c6.09,3.56,6.09,9.33,0,12.89s-16,3.56-22.09,0-6.1-9.33,0-12.89S92.28,325.42,98.38,329Z" style="fill:#CC8B7F"></path><g style="opacity:0.30000000000000004"><path d="M98.38,329c6.09,3.56,6.09,9.33,0,12.89s-16,3.56-22.09,0-6.1-9.33,0-12.89S92.28,325.42,98.38,329Z"></path></g><path d="M76.29,335.1c6.1-3.56,16-3.56,22.09,0a10.15,10.15,0,0,1,3.65,3.39,10.22,10.22,0,0,1-3.65,3.38c-6.1,3.56-16,3.56-22.09,0a10.22,10.22,0,0,1-3.65-3.38A10.15,10.15,0,0,1,76.29,335.1Z" style="fill:#f5f5f5"></path><g id="freepik--Plants--inject-12"><path d="M84.35,319.56a10.47,10.47,0,0,1-.93-2.66,6.31,6.31,0,0,1,1.94-6.12c.72-.54,1.65-.95,2-1.79a2.89,2.89,0,0,0,0-1.46c-.33-1.9-1-3.85-.45-5.69a6.43,6.43,0,0,1,3.53-3.79,19.25,19.25,0,0,1,5.15-1.34,8.13,8.13,0,0,0,2.71-.78c1-.57,1.34-1.57,2-2.46a17,17,0,0,1,2.5-2.66,9.76,9.76,0,0,1,6.74-2.91c5.35.24,5.2,4.85,3.65,8.34s-1.95,4.63,1.39,8.26,3.36,8.13-.63,10.64-6.59,2.84-5,7.67c1.41,4.32,2.28,8-1.71,12.62a13,13,0,0,1-10.51,4.92,17.53,17.53,0,0,1-5.16-1.2c-1.21-.6-.39-1.55-.8-2.74l-2.64-7.72A59.94,59.94,0,0,0,86,322.6C85.45,321.54,84.85,320.57,84.35,319.56Z" style="fill:#CC8B7F"></path><g style="opacity:0.15"><path d="M84.35,319.56a10.47,10.47,0,0,1-.93-2.66,6.31,6.31,0,0,1,1.94-6.12c.72-.54,1.65-.95,2-1.79a2.89,2.89,0,0,0,0-1.46c-.33-1.9-1-3.85-.45-5.69a6.43,6.43,0,0,1,3.53-3.79,19.25,19.25,0,0,1,5.15-1.34,8.13,8.13,0,0,0,2.71-.78c1-.57,1.34-1.57,2-2.46a17,17,0,0,1,2.5-2.66,9.76,9.76,0,0,1,6.74-2.91c5.35.24,5.2,4.85,3.65,8.34s-1.95,4.63,1.39,8.26,3.36,8.13-.63,10.64-6.59,2.84-5,7.67c1.41,4.32,2.28,8-1.71,12.62a13,13,0,0,1-10.51,4.92,17.53,17.53,0,0,1-5.16-1.2c-1.21-.6-.39-1.55-.8-2.74l-2.64-7.72A59.94,59.94,0,0,0,86,322.6C85.45,321.54,84.85,320.57,84.35,319.56Z"></path></g><path d="M91.63,339.13a.39.39,0,0,0,.27-.38c-.23-26.44,14.34-42.23,14.49-42.38a.4.4,0,0,0,0-.56.38.38,0,0,0-.55,0c-.15.16-14.94,16.16-14.71,42.94a.39.39,0,0,0,.39.39Z" style="fill:#fff"></path><path d="M95.87,314.54l.08,0c4.74-3,13.21-5.21,13.29-5.24a.39.39,0,0,0,.28-.48.4.4,0,0,0-.48-.29c-.35.09-8.66,2.28-13.5,5.33a.4.4,0,0,0,.33.72Z" style="fill:#fff"></path><path d="M97.34,310.91h0a.39.39,0,0,0,.21-.52A30.4,30.4,0,0,0,93.2,303a.4.4,0,0,0-.56,0,.41.41,0,0,0,0,.56,30.69,30.69,0,0,1,4.24,7.14A.4.4,0,0,0,97.34,310.91Z" style="fill:#fff"></path><path d="M88.93,341.05a22.3,22.3,0,0,1-11.61.43c-6.66-1.45-10.73-7.67-10.73-7.67s7.2-2.88,11.4-3.16a37.13,37.13,0,0,0-12.61.27s-3.86-1.44-3.13-7.95c0,0,3.63-2.67,12-1.63a26.79,26.79,0,0,0-11.52-3.87c-.58,0,.2-8.47.9-12.25s2.09-3.2,5.09-2.87,11.88,2.34,13,4.52,0,7.73,0,7.73a12.72,12.72,0,0,0,2.45-7.27,19.71,19.71,0,0,1,5.13,2.8,11.73,11.73,0,0,1,3.19,4c-.41,3-1.81,7.52-3.78,10.05a13.54,13.54,0,0,0,5.44-8.11,18.33,18.33,0,0,1,3.5,10.35C97.62,333.07,94.66,338,88.93,341.05Z" style="fill:#CC8B7F"></path><path d="M88.8,341.4a.36.36,0,0,1-.24-.32c-1-12.62-15.13-32.33-21.37-36.29a.39.39,0,0,1-.12-.53.38.38,0,0,1,.52-.12c6.35,4,20.7,24.06,21.72,36.87a.38.38,0,0,1-.35.42A.41.41,0,0,1,88.8,341.4Z" style="fill:#fff"></path></g></g></g><g id="freepik--speech-bubble--inject-12"><g id="freepik--speech-bubble--inject-12"><g id="freepik--speech-bubble--inject-12"><path d="M365.45,99.63,361,91.21l3.6-10.41V74.43l-11,6.37v6.37l4.74,8.21a.71.71,0,0,0,.33.29h0Z" style="fill:#CC8B7F"></path><path d="M365.45,99.63,361,91.21l3.6-10.41V74.43l-11,6.37v6.37l4.74,8.21a.71.71,0,0,0,.33.29h0Z" style="opacity:0.2"></path><path d="M391.79,34.13a7.31,7.31,0,0,0-3.31-5.73l-2.69-1.55a7.29,7.29,0,0,0-6.62,0L337.88,50.73a7.3,7.3,0,0,0-3.31,5.73V91.57a7.3,7.3,0,0,0,3.31,5.73l2.69,1.56a7.35,7.35,0,0,0,6.62,0l13.28-7.68,4.73,8.2a.71.71,0,0,0,1.28-.12l5-14.44,17-9.85a7.3,7.3,0,0,0,3.31-5.73Z" style="fill:#CC8B7F"></path><path d="M334.57,91.57a7.3,7.3,0,0,0,3.31,5.73l2.69,1.56a7.4,7.4,0,0,0,6.05.26c-1.55.59-2.74-.29-2.74-2.17V61.83a6.77,6.77,0,0,1,1-3.26l-9.31-5.37a6.71,6.71,0,0,0-1,3.26Z" style="opacity:0.2"></path><path d="M391.68,33.19c-.39-1.41-1.67-1.85-3.19-1L347.18,56.11a6.49,6.49,0,0,0-2.32,2.46l-9.31-5.36a6.62,6.62,0,0,1,2.33-2.47l41.29-23.89a7.35,7.35,0,0,1,6.62,0l2.7,1.56A7.29,7.29,0,0,1,391.68,33.19Z" style="fill:#fff;opacity:0.5"></path></g><path d="M368.2,61.37a3.63,3.63,0,0,1,1-3.17c4.9-4.3,6.79-2.33,9.6.73s6.11-3,5.1-5.71-3.11.39-3.11.39c0-.77,2-4.1,3.83-3.46,2.74,1,2.71,5.85,2.1,8.42-1.2,5-3.2,8.4-9,10a7.37,7.37,0,0,1-7-1.73,9,9,0,0,1-2.52-5.47Z" style="fill:#455a64"></path><path d="M365.11,60.26c-4.8,1.69-5.68,5.18-8.48,11.47-2.71,6.08-6.12,4.09-5.11.2s3.11-3.21,3.11-3.21c0-.8-2-1.76-3.83,1-2.74,4.13-2.05,8.38-1.27,9.71,1.72,2.89,5.61,2.78,10.51-.43a17.25,17.25,0,0,0,6.6-7.77,19.32,19.32,0,0,0,1.18-9.25A2,2,0,0,0,365.11,60.26Z" style="fill:#455a64"></path></g></g><g id="freepik--character-1--inject-12"><g id="freepik--Barber--inject-12"><path d="M360.55,179.08c-.93.21-1.88.41-2.82.58-1.27.23-3.64.38-4.9.61a7.93,7.93,0,0,0-2,.28,20.18,20.18,0,0,0,3.51-3.38,2.93,2.93,0,0,0-.12-4c-.5-.4-1.4.9-3.72,2-2.95,1.44-5.6,1.49-8.31,3.79a6.3,6.3,0,0,1-4.64,1.12L306,171.58S294.26,153.17,288.81,144c-5.3-8.95-9.32-17.57-23.53-16l7.43,32.66s9.59,11.94,18.65,24.06c2.84,3.8,4.94,4.33,12.92,5.26,8.26,1,12.6,1.08,28,1.92,8.84.49,12.87.91,16.78,1.18,4.37.3,9.66.33,13.46-2.2a8.88,8.88,0,0,0,4-6.05,9.13,9.13,0,0,1,.52-3.1,16.81,16.81,0,0,1,1.07-1.48,1.93,1.93,0,0,0,.36-1.72,1.7,1.7,0,0,0-1.47-.94,5.24,5.24,0,0,0-1.79.32C363.69,178.32,362.13,178.73,360.55,179.08Z" style="fill:#ffa8a7"></path><path d="M265.6,127.77c3.11-.25,9.3-1.23,14,1.83s6.77,4.83,12.22,15.59,9.53,18.4,9.53,18.4a28.52,28.52,0,0,1-16.85,13.06l-17.76-22.13Z" style="fill:#CC8B7F"></path><path d="M265.6,127.77c3.11-.25,9.3-1.23,14,1.83s6.77,4.83,12.22,15.59,9.53,18.4,9.53,18.4a28.52,28.52,0,0,1-16.85,13.06l-17.76-22.13Z" style="opacity:0.30000000000000004"></path><g id="freepik--Botom--inject-12"><path d="M220.24,368.75c3.43,2,7.29,1.93,11.48.34l2.78-22.52-14.26-2.52Z" style="fill:#ffa8a7"></path><path d="M269.93,356.12c3.34,6.16,7.78,3.58,13.5-.86V333.05l-16.12,1Z" style="fill:#ffa8a7"></path><path d="M245,390.87c.38.37.19,2.83-.25,3.48s-3.15,2.85-7.86,3c-4.51.19-8.51-.54-11.1-2.29s-3.81-3.64-4-6.21.19-5-1-7-2.81-4-3.17-5c-.79-2.18.12-5.22.12-5.22Z" style="fill:#263238"></path><path d="M233.36,368.14a12.62,12.62,0,0,0,.46,2.87,26.44,26.44,0,0,0,2.59,5.71,22.23,22.23,0,0,0,1.8,2.7c1.31,1.66,3,3,4.35,4.64a9.15,9.15,0,0,1,2.62,5.6c.08,3.54-3.78,4.62-6.74,5.06a21.68,21.68,0,0,1-9.57-.77,8.78,8.78,0,0,1-6.24-7.22c-.14-1,0-2-.13-3a13.9,13.9,0,0,0-2.56-6.26,18.69,18.69,0,0,1-2-3.42c-.85-2.21,0-4.64.61-6.8.57-1.86,1.05-4.08,1.7-3.88v1.46c.21.42.65.42.77.9a9.39,9.39,0,0,0,.49,1.47A3.87,3.87,0,0,0,223,369c.09-1.33.17-2.66.26-4a1.82,1.82,0,0,1,.34-1.17,1.84,1.84,0,0,1,1.14-.45,25,25,0,0,1,7.56-.4,1.38,1.38,0,0,1,1,.47,1.54,1.54,0,0,1,.14.91A34,34,0,0,0,233.36,368.14Z" style="fill:#455a64"></path><path d="M236.86,377.48c-1.28-1-4.22-1.13-5.84-1A9.65,9.65,0,0,0,226.4,378a1,1,0,0,1-1.34-.15h0a1,1,0,0,1,.14-1.5,10,10,0,0,1,5.2-1.75c4-.16,5.12.55,5.12.55S237.29,376.32,236.86,377.48Z" style="fill:#f5f5f5"></path><path d="M239.78,381.18c-1.63-1-4.87-1-6.48-.86a9.29,9.29,0,0,0-4.5,1.56,1,1,0,0,1-1.34-.14h0a1,1,0,0,1,.14-1.5,10.37,10.37,0,0,1,5.32-1.9c4-.16,5,.68,5,.68A3.26,3.26,0,0,1,239.78,381.18Z" style="fill:#f5f5f5"></path><path d="M228.94,370.71a9.79,9.79,0,0,1,5,.57c.68.41,1.11,1.53.65,1.79a9.19,9.19,0,0,0-4.39-.73,12.85,12.85,0,0,0-4.32,1c-.34.14-.75.34-1.11.53a.94.94,0,0,1-1.29-.45h0a.88.88,0,0,1,.38-1.12A12.78,12.78,0,0,1,228.94,370.71Z" style="fill:#f5f5f5"></path><path d="M308.66,368.23a4.27,4.27,0,0,1,0,3.15c-.38.94-5,3.95-11.49,3.92a27.05,27.05,0,0,1-13.66-3.83c-2.57-1.48-5.15-1.62-8.36-1.61s-7.52-1.31-8.31-2.76-.16-4.08-.16-4.08Z" style="fill:#263238"></path><path d="M281.44,350l1.63-.72a1.41,1.41,0,0,1,.95-.17c.43.13.62.61.75,1a15.61,15.61,0,0,0,.89,2.76,6.74,6.74,0,0,0,1.93,1.79,29.26,29.26,0,0,0,5.38,3c2.18,1,4.31,1.75,6.55,2.6s5.28,1.28,7.09,2.35c2.64,1.55,3.24,5.82.46,7.7-2.4,1.62-8.86,3.61-15.86,2.1-3.82-.83-8.23-4.57-13.17-4.64-3.14-.05-9.11-.56-11.28-2.81-.81-1,0-4.41.61-7.34.69-3.2.72-8.14,1.78-7.93.14,1,1.09,1.59,1.69,2.43a17.55,17.55,0,0,1,1.28,2.43,4.6,4.6,0,0,0,1.77,2.05,2.1,2.1,0,0,0,2.52-.3c.86-1,.21-2.65.81-3.83a4,4,0,0,1,2.12-1.59Z" style="fill:#455a64"></path><path d="M289.94,356.17a2.89,2.89,0,0,0-2.4-1.4c-1.44-.17-3.89,1-5.37,2.42a1.17,1.17,0,0,0,.29,1.92h0a1.18,1.18,0,0,0,1.32-.23A9,9,0,0,1,289.94,356.17Z" style="fill:#f5f5f5"></path><path d="M294.51,358.37a3.36,3.36,0,0,0-2.83-1.24s-3.71.34-5.87,2.63a1.14,1.14,0,0,0,.27,1.85h0a1.11,1.11,0,0,0,1.28-.23A9,9,0,0,1,294.51,358.37Z" style="fill:#f5f5f5"></path><path d="M299.52,360.29a3.76,3.76,0,0,0-2.92-1.1,10,10,0,0,0-5.62,2.64,1.14,1.14,0,0,0,.27,1.85h0a1.12,1.12,0,0,0,1.28-.23A8.53,8.53,0,0,1,299.52,360.29Z" style="fill:#f5f5f5"></path><path d="M229.2,203.68c-1.55,24.68-3.37,80.44-3.37,80.44-.35,3.06-4.2,10.93-4.76,22-.81,16.05-1.16,50-1.16,50s6.58,3.81,13.7,1.09c0,0,13.73-53.79,16.24-65.34,3-13.76,6-38,6-38l6.26,32.38a95.15,95.15,0,0,0,.32,19.93c.92,7.32,5.46,37.24,5.46,37.24s8.15,2.11,15.87-.24c0,0,1.42-51.85,1.75-58.6.37-7.68-1.4-81-1.4-81Z" style="fill:#CC8B7F"></path><path d="M229.2,203.68c-1.55,24.68-3.37,80.44-3.37,80.44-.35,3.06-4.2,10.93-4.76,22-.81,16.05-1.16,50-1.16,50s6.58,3.81,13.7,1.09c0,0,13.73-53.79,16.24-65.34,3-13.76,6-38,6-38l6.26,32.38a95.15,95.15,0,0,0,.32,19.93c.92,7.32,5.46,37.24,5.46,37.24s8.15,2.11,15.87-.24c0,0,1.42-51.85,1.75-58.6.37-7.68-1.4-81-1.4-81Z" style="fill:#fff;opacity:0.6000000000000001"></path><path d="M255.88,253.86l3.28-23.18s8.47-.4,14.23-5.88c0,0-.68,5.43-11.25,8.79l-3.85,19.55L262,285.56Z" style="fill:#CC8B7F"></path><path d="M255.88,253.86l3.28-23.18s8.47-.4,14.23-5.88c0,0-.68,5.43-11.25,8.79l-3.85,19.55L262,285.56Z" style="opacity:0.05"></path></g><path d="M225.63,133.1s-4.54,3.69-5.61,8.51c-.52,2.39-1.16,10.26,1.72,21.53,2.6,10.21,5.6,15.66,6.32,22.89L228,212.7c7.81,8.5,39.44,7,56.49-5.46,0,0,2.16-44.11-1.59-58.46-3.84-14.66-8.61-21.17-18.65-21.13L244.78,129Z" style="fill:#CC8B7F"></path><path d="M232.05,131.73c3.9,3.36,9.58,17.05,10.28,29.9.56,10.44.12,27.09.12,27.09S231,187.65,228.06,186v3.64a37,37,0,0,0,9.43,2.66L237.14,258a101,101,0,0,0,29.36.92c15.79-1.92,19.87-5.78,19.87-5.78s0-57.36-.81-73.86-3.28-46.55-18.6-51.63a14,14,0,0,0-4.16.1,25.58,25.58,0,0,1,9.27,8.68,43.81,43.81,0,0,1,4.58,10.14c-8.65,3-18.79,4.61-30,5.1,0,0-4.31-14.54-10.06-20.91Z" style="fill:#455a64"></path><path d="M239.91,85a6.09,6.09,0,0,0-6.14,3.15c-2.15,3.43-.21,10,1.65,16.94a52.32,52.32,0,0,0,4.89,12.54,5.33,5.33,0,0,0,3.13,2.4l-.37-8.25-.42-5.73s3.58-5.12,3.9-9.25c.41-5.33-.75-7.48-.75-7.48Z" style="fill:#455a64"></path><path d="M245.53,94.17a15.4,15.4,0,1,0,15-15.76A15.41,15.41,0,0,0,245.53,94.17Z" style="fill:#455a64"></path><path d="M242.85,105.07c-1.36,1.23-2.56-1.85-3.75-3s-5-2.76-6.82,1.27,1.07,9.23,3.74,10.86a3.87,3.87,0,0,0,5.2-1l2,17.67h0c7.15,10.06,27.23,10.68,18.53-1.53l-.27-5.22a31.22,31.22,0,0,0,6-.15c3.77-.68,6.08-3.72,7.13-7.85,1.68-6.62,1-16.49-1.76-29.23-4.31-3.19-18.23-3.41-27,2.41.59,7.52-1.43,10.91-1.37,13.65A6.92,6.92,0,0,1,242.85,105.07Z" style="fill:#ffa8a7"></path><path d="M275.49,76.69a.7.7,0,0,0-.56-.41.87.87,0,0,0-.51.24,24.63,24.63,0,0,1-3.32,2.33,12.27,12.27,0,0,0,0-4.6c-.19-.93-.5-3.08-1.66-3.29-.69-.12-1.27.47-1.77,1-4.54,4.42-10.62,2.54-16.19,2.84-4.66.24-10.25,2.26-12.26,6.83-.92,2.1-1,4.29.89,5.68a13.11,13.11,0,0,0,5.73,2c9.32,1.43,21.89,4.35,28.57-4.45a8.09,8.09,0,0,0,1.79-4.32,6.76,6.76,0,0,0-.64-3.75Z" style="fill:#263238"></path><path d="M260.49,123.75s-8.49-1.5-11.48-3a9.67,9.67,0,0,1-4.18-3.94,13.31,13.31,0,0,0,2.43,4.71c2.23,2.71,13.28,4.48,13.28,4.48Z" style="fill:#f28f8f"></path><path d="M257.86,102.73a1.7,1.7,0,1,1-1.74-1.73A1.72,1.72,0,0,1,257.86,102.73Z" style="fill:#263238"></path><path d="M255.91,96.38l-3.57,2.08a2.16,2.16,0,0,1,.77-2.9A2,2,0,0,1,255.91,96.38Z" style="fill:#263238"></path><path d="M272.84,97.38l-3.36-2.46a2,2,0,0,1,2.86-.51A2.19,2.19,0,0,1,272.84,97.38Z" style="fill:#263238"></path><path d="M271.93,101.91a1.72,1.72,0,0,1-1.65,1.79,1.76,1.76,0,1,1,1.65-1.79Z" style="fill:#263238"></path><polygon points="262.81 99.56 264.03 109.59 269.34 108.15 262.81 99.56" style="fill:#f28f8f"></polygon><path d="M239.91,111.34a1.95,1.95,0,1,1-2.13-1.75A2,2,0,0,1,239.91,111.34Z" style="fill:#263238"></path><path d="M244.3,101.94c1,8,3.77,10.27,6.6,11,4.52,1.09,8-1.31,13.15-2.53,3.42-.81,5.29-.27,7.76.31.48.11,1,.21,1.55.29a1.79,1.79,0,0,0,2.06-1.73A64.73,64.73,0,0,0,275,100l.64-2.6s1.1,11.17,1,15,0,7.45-2.9,9.9-11.14,4.49-18.85,3.36-9.81-4.25-10.39-7.24c-1.61-8.42-2.71-12.69-3.82-14.26S244.3,101.94,244.3,101.94Z" style="fill:#455a64"></path><path d="M260.44,113.9l4.74.49a2.34,2.34,0,0,1-2.56,2.2A2.49,2.49,0,0,1,260.44,113.9Z" style="fill:#b16668"></path><path d="M261.08,114.6a2.12,2.12,0,0,0-.57.07,2.46,2.46,0,0,0,2.11,1.92,2.12,2.12,0,0,0,.76-.06A2.18,2.18,0,0,0,261.08,114.6Z" style="fill:#f28f8f"></path><path d="M274,162.12a7.59,7.59,0,0,1-2,4.06c-1.76,1.75-12.92,9-19.93,12.41L238,152.45s-4.12-18.33-12.34-19.35c-8.81,3.17-13.2,16.17-7.69,27.37,7.19,14.63,13.32,21.89,20.15,30.19,4.71,5.72,9.76,9.52,15.82,6.33s9.37-5.75,26.58-21.34a28,28,0,0,0,4.69-5.23Z" style="fill:#ffa8a7"></path><path d="M252.09,178.59a31.55,31.55,0,0,0-7.91,5.44,15.53,15.53,0,0,1,7.11-6.91Z" style="fill:#f28f8f"></path><path d="M283.06,173.08c3.29-3.29,6.21-4.49,8.93-8.73,2.51-3.9,3.63-5.87,5.24-8.65s3.6-3.74,1.15-4.4a5.17,5.17,0,0,0-4.54,1.25c.1,0-15.45-.54-17.52,0s-2.31,1.26-2.34,3.92.4,7.68-.78,9.73Z" style="fill:#ffa8a7"></path><path d="M298.38,151.3a5.17,5.17,0,0,0-4.54,1.25l-.64,0-.13.19s2.14,7.25,1.75,5.52a9.78,9.78,0,0,1,.49-4.88c.27-.35,1.89-.76,4.19-1.06C299.61,151.86,299.34,151.55,298.38,151.3Z" style="fill:#f28f8f"></path><path d="M293.37,149.44c3.54-.84,10.79-2.24,13.57-1.6,6,1.37,6.46,4.37,6.46,4.37s-3.39-1.17-10-.81a50.86,50.86,0,0,0-10,1.32Z" style="fill:#CC8B7F"></path><path d="M293.37,149.44c3.54-.84,10.79-2.24,13.57-1.6,6,1.37,6.46,4.37,6.46,4.37s-3.39-1.17-10-.81a50.86,50.86,0,0,0-10,1.32Z" style="fill:#fff;opacity:0.7000000000000001"></path><path d="M306.94,147.84c-2.78-.64-10,.76-13.57,1.6v1.16c2.65-.77,9-2.52,12.57-2.25s6.33,1.39,7.46,3.86C313.4,152.21,312.94,149.21,306.94,147.84Z" style="fill:#fff;opacity:0.5"></path><path d="M276.81,153.36a3.89,3.89,0,0,0,1,2,8,8,0,0,0,1.44,1.32,9.8,9.8,0,0,0-.5,2.85,2.26,2.26,0,0,0,1.15,2.14c.61.24,2.25-3.23,2.25-3.23l.5-.32a2.2,2.2,0,0,0,1,2c1.15.86,1.55.63,1.95.39s.81-2.14.81-2.14.65,2.2,2.15,2.75,2.17-.29,2.08-.88a17.24,17.24,0,0,1,0-2.23,3.88,3.88,0,0,0,1.87,2.44c1.4.59,2,.29,1.76-.85s-.74-4.78-.74-4.78Z" style="fill:#f28f8f"></path><path d="M280.16,155.13c.73-1.21-.86-2.11-.86-2.11l-5.27,2.2c0,.37,0,.77,0,1.25s0,.95,0,1.48C276.87,157.38,279.53,156.19,280.16,155.13Z" style="fill:#f28f8f"></path><path d="M287.64,159.81a8,8,0,0,0-6.23,6.3,7.8,7.8,0,0,1,5.7-8.33Z" style="fill:#f28f8f"></path><path d="M281.6,161.23c-.32.67-1.14.4-1.59-.12a2.89,2.89,0,0,1-.61-1.9,8.77,8.77,0,0,1,.19-1.52l.29-1.6a15.29,15.29,0,0,1-2-1.57,6.52,6.52,0,0,1-1.06-1.16L274,156.69c-.11-3-.46-6.24,1.21-7.6a13.15,13.15,0,0,1,4.12-1.62c.4-.08.93.43.93.43a8.54,8.54,0,0,1,3.5-1.31,2,2,0,0,1,1.51.48s2.65-.67,3.6,0a4.9,4.9,0,0,1,1.52,1.6,4.6,4.6,0,0,1,1.78-.07c1.27.22,2.56,2.72,2.52,3.72a35.45,35.45,0,0,0,.13,5.75c.05.45.29,1.61-.06,1.88a2.51,2.51,0,0,1-1.93-.11,4,4,0,0,1-1.66-2.13c0,.94.29,1.95-.08,2.51s-1.29.47-1.86.27a4.31,4.31,0,0,1-2.1-2.71c-.17,1.24-.22,2.34-1.16,2.39-1.27.08-2.44-1.5-2.53-2.44C283,158.78,282.3,159.74,281.6,161.23Z" style="fill:#ffa8a7"></path><path d="M283.49,158.13a3.37,3.37,0,0,0,1.76,1.92,2,2,0,0,1-.82-1.42,5.88,5.88,0,0,1,.43-2.63c.24-.91-.63-1.94-1.48-3.05s-2.21-2.73-2.21-2.73c.09.42,2,3.57,2.55,4.7s0,1.86-.32,2.81Z" style="fill:#f28f8f"></path><path d="M287.11,157.78a4.31,4.31,0,0,0,2.1,2.71,2.77,2.77,0,0,0,.6.12A3.43,3.43,0,0,1,288.4,159a5.3,5.3,0,0,1-.13-3.36c.3-1.72.34-3.09-.38-4.29s-2.43-3.88-2.43-3.88.25.41,1.17,2.24a7.22,7.22,0,0,1,1,3.87C287.54,154.42,287.16,156.37,287.11,157.78Z" style="fill:#f28f8f"></path><path d="M291.15,157.71a4,4,0,0,0,1.66,2.13,2.71,2.71,0,0,0,.87.23c-1.55-.77-1.79-2.25-1.84-4.09s.22-3.27.09-4.21a9.69,9.69,0,0,0-1.56-2.81,7.68,7.68,0,0,1,.78,3.5A22.42,22.42,0,0,0,291.15,157.71Z" style="fill:#f28f8f"></path><path d="M276.81,153.36a64.28,64.28,0,0,1-17.57,1.22c-4.14-.36-3.12,2.81-.23,3.29,5,.84,14.19-.23,19.56-2.74A11.31,11.31,0,0,1,276.81,153.36Z" style="fill:#CC8B7F"></path><path d="M276.81,153.36a64.28,64.28,0,0,1-17.57,1.22c-4.14-.36-3.12,2.81-.23,3.29,5,.84,14.19-.23,19.56-2.74A11.31,11.31,0,0,1,276.81,153.36Z" style="fill:#fff;opacity:0.7000000000000001"></path><path d="M228.56,132.48c-5.05.59-10.6,2.89-13.06,8.4s-1.07,12.71,1.87,19.91,13.47,21.31,13.47,21.31,6.84-11,15.8-13.6l-9-17.38S235,137.75,228.56,132.48Z" style="fill:#CC8B7F"></path><path d="M228.56,132.48c-5.05.59-10.6,2.89-13.06,8.4s-1.07,12.71,1.87,19.91,13.47,21.31,13.47,21.31,6.84-11,15.8-13.6l-9-17.38S235,137.75,228.56,132.48Z" style="opacity:0.30000000000000004"></path></g></g><g id="freepik--character-2--inject-12"><g id="freepik--Character--inject-12"><path d="M311,322.22l-.27,0a1.13,1.13,0,0,1-.83-1.37l18.85-76.19a1.15,1.15,0,0,1,1.37-.83,1.13,1.13,0,0,1,.83,1.37L312.1,321.36A1.13,1.13,0,0,1,311,322.22Z" style="fill:#e0e0e0"></path><path d="M316.45,322.68a1.37,1.37,0,0,0-.81-1.13l-14.45-8.34a4.3,4.3,0,0,0-3.92,0l-40.9,23.6a1.37,1.37,0,0,0-.81,1.13v2.8a1.37,1.37,0,0,0,.81,1.13l14.45,8.35a4.36,4.36,0,0,0,3.92,0l40.9-23.6a1.37,1.37,0,0,0,.81-1.13Z" style="fill:#37474f"></path><path d="M270.82,347.41l-14.45-8.34c-1.09-.63-1.09-1.64,0-2.26l40.9-23.6a4.3,4.3,0,0,1,3.92,0l14.45,8.34a1.19,1.19,0,0,1,0,2.26l-40.9,23.6A4.3,4.3,0,0,1,270.82,347.41Z" style="fill:#455a64"></path><path d="M311.6,308.34c0-.2.61-14.38.61-14.38a9.28,9.28,0,0,1-8.87,5.34c-3.36-.11-8.49-3.65-8.49-3.65l1,11.63c-.68,2.66-6.71,2.29-12.89,3-1,.11-2.11.18-3.19.25h-.07c-3.29.57-6.1,3.27-2.09,5.27s9.84,1.76,15.19,1.5C299.27,317,311.91,314.72,311.6,308.34Z" style="fill:#f28f8f"></path><path d="M266.79,316.9a14.57,14.57,0,0,0,.6,4.43c.39,1.18,3.87,5,9.68,6.29s12.18-.35,15.41-.18S299.18,329,303,329s8.44-.81,11.07-4.11a7.53,7.53,0,0,0,.13-2.07Z" style="fill:#263238"></path><path d="M295.14,307.59c-1.94,2.12-6.85,2.08-12.14,2.68-5,.56-10.84.11-13.88,2s-3.81,6.52,1.8,10.48a22.72,22.72,0,0,0,5.64,2.55c5.74,1.89,11.58.41,15.36.47,4.9.07,8.27,1.57,10.92,1.56a15.26,15.26,0,0,0,8.65-2.08,7.34,7.34,0,0,0,2.67-2.45,10.54,10.54,0,0,0,.1-3.51c-.27-1.9-.82-2.94-1-4.86-.12-1.18,0-2.37-.12-3.55-.06-.78-.28-3.7-1.49-3.47l0,1.24c-.88,1.31-4,4.21-11.48,2.95-2.16-.36-4.61-2.33-4.62-3.6a2,2,0,0,0,.38-.74C295.78,307.18,295.64,307.06,295.14,307.59Z" style="fill:#CC8B7F"></path><path d="M295.14,307.59c-1.94,2.12-6.85,2.08-12.14,2.68-5,.56-10.84.11-13.88,2s-3.81,6.52,1.8,10.48a22.72,22.72,0,0,0,5.64,2.55c5.74,1.89,11.58.41,15.36.47,4.9.07,8.27,1.57,10.92,1.56a15.26,15.26,0,0,0,8.65-2.08,7.34,7.34,0,0,0,2.67-2.45,10.54,10.54,0,0,0,.1-3.51c-.27-1.9-.82-2.94-1-4.86-.12-1.18,0-2.37-.12-3.55-.06-.78-.28-3.7-1.49-3.47l0,1.24c-.88,1.31-4,4.21-11.48,2.95-2.16-.36-4.61-2.33-4.62-3.6a2,2,0,0,0,.38-.74C295.78,307.18,295.64,307.06,295.14,307.59Z" style="opacity:0.4"></path><path d="M281.32,317.52a9.89,9.89,0,0,1,1.22-7.2s1.57-.9,2.61-.27c0,0-2.27,1.2-2,7.39,0,0-.09.43-.88.46C282,317.92,281.38,318,281.32,317.52Z" style="fill:#37474f"></path><path d="M289.89,309.61s0-.17-.95-.13a1.59,1.59,0,0,0-1,.34s-2.51,1.85-1.81,7.25a1,1,0,0,0,1,.62.79.79,0,0,0,.88-.75S287.34,311.25,289.89,309.61Z" style="fill:#37474f"></path><path d="M292.51,309s-.22-.28-.88-.13c-.82.2-.94.56-.94.56s-1.52,2.49-.52,6.91c0,0,.09.76,1.14.6s.72-1,.72-1S291.09,310.29,292.51,309Z" style="fill:#37474f"></path><path d="M289.57,240.88c0,23.18,5.33,62.09,5.33,62.09s8.84,4.32,17.43-.42L313.88,247Z" style="fill:#37474f"></path><path d="M287.38,322.35V308.93s-1.43,4.55-8,4.17c-3.35-.2-8.39-3.88-8.39-3.88l.73,11.66c-.75,2.64-6.77,2.11-13,2.65-1,.09-2.12.13-3.2.16h-.07c-3.3.48-6.18,3.11-2.22,5.21s9.78,2,15.14,1.9C274.83,330.68,287.52,328.74,287.38,322.35Z" style="fill:#f28f8f"></path><path d="M242.36,329.74a14.74,14.74,0,0,0,.48,4.44c.36,1.18,3.74,5.1,9.51,6.54s12.19,0,15.41.23,6.67,1.68,10.44,1.83,8.46-.59,11.17-3.82a7.5,7.5,0,0,0,.19-2.06Z" style="fill:#263238"></path><path d="M270.94,321.17c-2,2.07-6.9,1.9-12.2,2.36-5,.43-10.84-.17-13.93,1.65s-4,6.43,1.52,10.53a22.34,22.34,0,0,0,5.57,2.7c5.69,2,11.57.71,15.34.87,4.9.2,8.24,1.79,10.89,1.85a15.32,15.32,0,0,0,8.69-1.85,7.47,7.47,0,0,0,2.74-2.38,10.75,10.75,0,0,0,.19-3.5c-.22-1.92-.75-3-.88-4.9-.09-1.18,0-2.36,0-3.54,0-.79-.23-3.6-1.46-3.4v1.12c-.91,1.29-4.09,4.11-11.55,2.65-2.15-.42-4.55-2.45-4.53-3.72a1.89,1.89,0,0,0,.4-.73C271.6,320.78,271.46,320.66,270.94,321.17Z" style="fill:#CC8B7F"></path><path d="M270.94,321.17c-2,2.07-6.9,1.9-12.2,2.36-5,.43-10.84-.17-13.93,1.65s-4,6.43,1.52,10.53a22.34,22.34,0,0,0,5.57,2.7c5.69,2,11.57.71,15.34.87,4.9.2,8.24,1.79,10.89,1.85a15.32,15.32,0,0,0,8.69-1.85,7.47,7.47,0,0,0,2.74-2.38,10.75,10.75,0,0,0,.19-3.5c-.22-1.92-.75-3-.88-4.9-.09-1.18,0-2.36,0-3.54,0-.79-.23-3.6-1.46-3.4v1.12c-.91,1.29-4.09,4.11-11.55,2.65-2.15-.42-4.55-2.45-4.53-3.72a1.89,1.89,0,0,0,.4-.73C271.6,320.78,271.46,320.66,270.94,321.17Z" style="opacity:0.30000000000000004"></path><path d="M256.87,330.74a9.91,9.91,0,0,1,1.41-7.17s1.59-.86,2.61-.2c0,0-2.3,1.14-2.23,7.33,0,0-.1.43-.89.44C257.5,331.15,256.92,331.16,256.87,330.74Z" style="fill:#37474f"></path><path d="M265.25,323s0-.17-.94-.16a1.63,1.63,0,0,0-1,.33s-2.56,1.78-2,7.19a1,1,0,0,0,1,.65.8.8,0,0,0,.9-.73S262.66,324.62,265.25,323Z" style="fill:#37474f"></path><path d="M268.28,322.54s-.22-.29-.88-.15c-.83.17-.95.53-.95.53s-1.58,2.45-.71,6.89c0,0,.07.77,1.13.64s.74-1,.74-1S266.83,323.76,268.28,322.54Z" style="fill:#37474f"></path><path d="M264,255.29c-.59,5.22,1,16,2.34,25.85,1.73,12.51,2.91,24.39,3.83,34.11,0,0,9.6,5.12,17.21-1l1.89-52.08Z" style="fill:#CC8B7F"></path><g style="opacity:0.4"><path d="M264,255.29c-.59,5.22,1,16,2.34,25.85,1.73,12.51,2.91,24.39,3.83,34.11,0,0,9.6,5.12,17.21-1l1.89-52.08Z"></path></g><path d="M266.18,348.08l-.27,0a1.13,1.13,0,0,1-.83-1.37l18.85-76.19a1.13,1.13,0,1,1,2.19.54l-18.84,76.19A1.13,1.13,0,0,1,266.18,348.08Z" style="fill:#e0e0e0"></path><path d="M389.47,394.93c-1.08-6.08-5.64-12-13.7-16.63-18.6-10.74-48.75-10.74-67.35,0-8.06,4.65-12.62,10.55-13.7,16.63h-.25v2.81h0c0,7,4.65,14.08,13.95,19.45,18.6,10.73,48.75,10.73,67.35,0,9.3-5.37,14-12.41,14-19.45h0v-2.81Z" style="fill:#CC8B7F"></path><path d="M389.47,394.93c-1.08-6.08-5.64-12-13.7-16.63-18.6-10.74-48.75-10.74-67.35,0-8.06,4.65-12.62,10.55-13.7,16.63h-.25v2.81h0c0,7,4.65,14.08,13.95,19.45,18.6,10.73,48.75,10.73,67.35,0,9.3-5.37,14-12.41,14-19.45h0v-2.81Z" style="fill:#fff;opacity:0.5"></path><path d="M389.47,394.93c-1.08-6.08-5.64-12-13.7-16.63-18.6-10.74-48.75-10.74-67.35,0-8.06,4.65-12.62,10.55-13.7,16.63h-.25v2.81h0c0,7,4.65,14.08,13.95,19.45,18.6,10.73,48.75,10.73,67.35,0,9.3-5.37,14-12.41,14-19.45h0v-2.81Z" style="opacity:0.05"></path><path d="M308.42,414.37c18.6,10.74,48.75,10.74,67.35,0s18.6-28.15,0-38.89-48.75-10.74-67.35,0S289.82,403.63,308.42,414.37Z" style="fill:#CC8B7F"></path><path d="M308.42,414.37c18.6,10.74,48.75,10.74,67.35,0s18.6-28.15,0-38.89-48.75-10.74-67.35,0S289.82,403.63,308.42,414.37Z" style="fill:#fff;opacity:0.85"></path><path d="M332.09,301.29v89.85h0c0,1.47,1,2.95,2.93,4.08a15.68,15.68,0,0,0,14.15,0c1.95-1.13,2.93-2.61,2.93-4.08h0V301.29Z" style="fill:#CC8B7F"></path><path d="M332.09,301.29v89.85h0c0,1.47,1,2.95,2.93,4.08a15.68,15.68,0,0,0,14.15,0c1.95-1.13,2.93-2.61,2.93-4.08h0V301.29Z" style="fill:#fff;opacity:0.75"></path><path d="M332.09,301.29v89.85h0c0,1.47,1,2.95,2.93,4.08a15.68,15.68,0,0,0,14.15,0c1.95-1.13,2.93-2.61,2.93-4.08h0V301.29Z" style="opacity:0.05"></path><path d="M332.09,334.06a81.69,81.69,0,0,0,20,0V301.29h-20Z" style="opacity:0.05"></path><path d="M310.13,259.6l-22.06,12.74a23.68,23.68,0,0,1-7.66,2.71s-.46,7.35-.46,8.6c0,4.09,2.71,8.18,8.12,11.31l52,30a4,4,0,0,0,4,0l57.56-33.23a3.34,3.34,0,0,0,1.66-2.88v-1.54l.27-5.21L349.3,259.6C338.49,253.36,321,253.36,310.13,259.6Z" style="fill:#455a64"></path><path d="M349.75,247.55c-10.81-6.24-28.35-6.24-39.16,0L288.52,260.3c-5.41,3.12-8.11,7.2-8.11,11.29h0s-.46,7.35-.46,8.6c0,4.09,2.71,8.19,8.12,11.31l54,31.18,61.23-35.35.45-8.59Z" style="fill:#CC8B7F"></path><path d="M349.75,247.55c-10.81-6.24-28.35-6.24-39.16,0L288.52,260.3c-5.41,3.12-8.11,7.2-8.11,11.29h0s-.46,7.35-.46,8.6c0,4.09,2.71,8.19,8.12,11.31l54,31.18,61.23-35.35.45-8.59Z" style="opacity:0.2"></path><path d="M310.59,247.55,288.52,260.3c-10.82,6.24-10.82,16.36,0,22.61l54,31.18,61.23-35.35-54-31.19C338.94,241.31,321.4,241.31,310.59,247.55Z" style="fill:#CC8B7F"></path><path d="M378.29,264.43s-43.5-23.42-51.11-27.26-22.31-10.7-27.24-9.6-7.7,3-9.44,9.42c-.33,1.2-1.46,7.18-1.46,7.18s21.53,14.33,39.88,18.06S378.29,264.43,378.29,264.43Z" style="fill:#CC8B7F"></path><g style="opacity:0.45"><path d="M378.29,264.43s-43.5-23.42-51.11-27.26-22.31-10.7-27.24-9.6-7.7,3-9.44,9.42c-.33,1.2-1.46,7.18-1.46,7.18s21.53,14.33,39.88,18.06S378.29,264.43,378.29,264.43Z"></path></g><path d="M380.39,254.13c1.94,10.38,1.86,20.32-5.93,26.88-5.66,4.77-28.84,21.47-46.9,13.87-20.19-8.49-45.29-29.43-45.29-29.43l-13.68-5.53s-4.82-3.1-4.64-4.35c2.06-13.79,12-18.62,25.62-14.69,14.32,4.12,46,16.72,46,16.72Z" style="fill:#CC8B7F"></path><path d="M380.39,254.13c1.94,10.38,1.86,20.32-5.93,26.88-5.66,4.77-28.84,21.47-46.9,13.87-20.19-8.49-45.29-29.43-45.29-29.43l-13.68-5.53s-4.82-3.1-4.64-4.35c2.06-13.79,12-18.62,25.62-14.69,14.32,4.12,46,16.72,46,16.72Z" style="opacity:0.4"></path><path d="M352.87,293.72c4.8-12.44,10.64-28.27,10.64-28.27l-19.84,4.12c-5.24,12.16-7.94,18.79-17.7,16.16s-43.7-20.28-43.7-20.28,25.1,20.94,45.29,29.43C335.65,298.29,344.76,296.81,352.87,293.72Z" style="opacity:0.1"></path><g id="freepik--character--inject-12"><path d="M386,177.54c-5.71-9.12-18.66-6.73-18.66-6.73l.19,2.17c-.8,3.25-9.34,4.38-17.84,2.38l-7.35,2.53s-3.52,1.12-8.61,2.9c-6.08,2.13-5.77,5.35-8.65,30.7-2.19,19.25-2.78,37.76-3.6,52.37,8.65,11,36.42,9.39,44.71,5.63,17-7.7,21.15-13.39,21.15-13.39s3.88-33.39,3.66-47.83C390.81,196,389.61,183.3,386,177.54Z" style="fill:#CC8B7F"></path><path d="M386,177.54c-5.71-9.12-18.66-6.73-18.66-6.73l.19,2.17c-.8,3.25-9.34,4.38-17.84,2.38l-7.35,2.53s-3.52,1.12-8.61,2.9c-6.08,2.13-5.77,5.35-8.65,30.7-2.19,19.25-2.78,37.76-3.6,52.37,8.65,11,36.42,9.39,44.71,5.63,17-7.7,21.15-13.39,21.15-13.39s3.88-33.39,3.66-47.83C390.81,196,389.61,183.3,386,177.54Z" style="fill:#fff;opacity:0.5"></path><path d="M345.36,135.33s-7.31,3.85-7.19,4.69,2.77,3,2.77,3Z" style="fill:#b16668"></path><path d="M365.64,124.71c-9-2.75-13.28-.49-21.1,11.9-8.17,12.94-9.12,17.9-8.36,20.67.52,1.87,7,5.73,10.83,6.64,4.79,1.15,16,3,24.15-1.3,9.55-5.06,16.83-15,13.71-22.5C380.47,129.62,369.3,125.82,365.64,124.71Z" style="fill:#f28f8f"></path><path d="M342.07,161.93c2.43,1.82,4.45,3.27,5.26,8.62s-2.49,6.15-5,7.34c0,0,5.33,2.59,15.4,1.4,7.47-.88,10.12-5,10.12-5l-.41-10.15Z" style="fill:#f28f8f"></path><path d="M336.18,157.28c.43,1.55,4.94,4.46,8.66,5.93l.8-1.84s-4.27-1.27-6.35-2.11a8.28,8.28,0,0,1-3.11-2Z" style="fill:#f28f8f"></path><path d="M349.73,123.1a16.47,16.47,0,0,0,3.31,4.55,8,8,0,0,1,2,2.35c.58,1.31.2,2.82.22,4.24a7.62,7.62,0,0,0,5,6.88,41,41,0,0,0-3.06,8.21,4.26,4.26,0,0,0,0,2.86c.66,1.44,2.1.95,3.27.71,1.53-.32,3.21-.33,4.37.9,1.55,1.65.91,4.45-.53,6.2a7,7,0,0,1-4.93,2.7,3.07,3.07,0,0,1-1.72-.35,1.92,1.92,0,0,1-.94-1.64c-.34-.05-.75,1.91-.8,3a5.51,5.51,0,0,0,.67,3.09,5.64,5.64,0,0,0,3,2.28,11.32,11.32,0,0,0,6.11.24c4.36-.93,8.42-3.19,12.25-5.4,12.86-7.43,18.7-16.89,13.17-23.9,2.09-5.63-.72-10.21-4.79-13.86-5.65-5-14.55-4.49-19.44-10.48-1-1.26-1.83-2.7-2.93-3.9a3,3,0,0,0-2.35-1.21,3.19,3.19,0,0,0-1.93,1.27,5.68,5.68,0,0,0-1.72,3.89,12,12,0,0,0-2.39-2.64,4.2,4.2,0,0,0-3.34-.89,4.37,4.37,0,0,0-2.56,2C347.85,116.87,348.32,120.21,349.73,123.1Z" style="fill:#263238"></path><path d="M350.46,171.1c.05-2.62-.51-5.83-2.18-7.89a6.1,6.1,0,0,0-2.64-1.84l-3.57.56c.61.45,1.19.88,1.73,1.36a9.11,9.11,0,0,1,2.71,3.91,16.75,16.75,0,0,1,.82,3.35h0c.79,5.33-2.5,6.14-5,7.33C348,178.46,350.39,174.8,350.46,171.1Z" style="fill:#b16668"></path><path d="M357.87,150.93c-1-.3-1.48-1.14-2.63-1.14a17.9,17.9,0,0,1-2.31.08c-1.5-.23-2.74-1.62-4.25-1.45-.75.08-1.46.56-2.21.44s-1.25-.75-1.83-1.23a6.5,6.5,0,0,0-2.67-1.18c-.55-.12-2.16-.08-2.47-.66s1.09-2.23,1.44-2.77a5.59,5.59,0,0,0-1.18-.45,2.27,2.27,0,0,0-1.73.7,5.73,5.73,0,0,0-1.64,1.89,7,7,0,0,1-.81,1.75c-.67.86-2,1.29-2.17,2.37-.15.89.62,1.74.52,2.64s-1.28,1.72-1.33,2.75.86,1.67,1.08,2.59-.19,1.86.34,2.56,1.46.63,2.12,1.09.95,1.36,1.63,1.83a2.79,2.79,0,0,0,2.2.22,9.54,9.54,0,0,1,2.23-.42,8.35,8.35,0,0,1,2.23.54,3.14,3.14,0,0,0,2.26,0c1-.47,1.43-1.74,2.46-2.05s1.92.28,2.76-.11,1.06-1.67,1.83-2.29a9,9,0,0,1,1.53-.74,4.59,4.59,0,0,0,1.83-2.26,7,7,0,0,1,1.43-2.08C359.71,152.29,359.65,151.47,357.87,150.93Z" style="fill:#fafafa"></path><path d="M357.1,155.63a7,7,0,0,1,1.43-2.08,3.12,3.12,0,0,0,.67-.94c-.48.41-1.35.18-1.93.53-.87.55-.52,2.07-1.33,2.71s-1.85.05-2.62.54-.81,1.62-1.58,2-1.89-.37-2.8-.09-1.36,1.85-2.42,2-1.71-1.21-2.75-1.36c-1.42-.19-2.56,1.93-3.9,1.43s-.94-2.41-2-3.16c-.52-.38-1.28-.35-1.77-.78a2.16,2.16,0,0,1-.36-2.23,4.67,4.67,0,0,0,.34-2.34,4.79,4.79,0,0,0-1.3-1.79,2.21,2.21,0,0,1-.69-1.85,1.87,1.87,0,0,0-.7,1.09c-.15.89.62,1.74.52,2.64s-1.28,1.72-1.33,2.75.86,1.67,1.08,2.59-.19,1.86.34,2.56,1.46.63,2.12,1.09.95,1.36,1.63,1.83a2.79,2.79,0,0,0,2.2.22,9.54,9.54,0,0,1,2.23-.42,8.35,8.35,0,0,1,2.23.54,3.14,3.14,0,0,0,2.26,0c1-.47,1.43-1.74,2.46-2.05s1.92.28,2.76-.11,1.06-1.67,1.83-2.29a9,9,0,0,1,1.53-.74A4.59,4.59,0,0,0,357.1,155.63Z" style="fill:#e6e6e6"></path></g><path d="M402.06,179.82l-7.48-4.31c-3.31-1.93-8-1.58-13.32,1.48l-22.07,12.75c-10.81,6.24-20.11,21.41-20.77,33.88l-4.93,94.09,7.34,4.25,61.35-35.3S403.77,182.21,402.06,179.82Z" style="fill:#CC8B7F"></path><path d="M355.31,313.63l5.16-86.4L340,215.39a34.4,34.4,0,0,0-1.55,8.23l-4.93,94.09,7.34,4.25Z" style="opacity:0.2"></path><path d="M402.06,179.82c-3.4-2-8.07-1.69-13.45,1.42L366.54,194c-10.81,6.25-20.11,21.42-20.77,33.89L340.83,322l1.27.72,61.23-35.35,4.94-94.09c.33-6.41-1.68-10.87-5.19-12.83Z" style="fill:#455a64"></path><path d="M389.87,182,367.8,194.71C357,201,347.69,216.12,347,228.6l-4.93,94.08.11-.06-.11.06v2.84a4,4,0,0,0,2-.52l57.61-33.26a3.33,3.33,0,0,0,1.66-2.88v-1.48l4.94-94.14C408.92,180.77,400.69,175.72,389.87,182Z" style="fill:#37474f"></path><path d="M297.55,303.34a1,1,0,0,1-1,0,1,1,0,0,1-.48-.91l2.19-50.73-2.26-.12-2.19,50.73a3.28,3.28,0,0,0,4.9,3l3.7-2.13-2.26-1.3ZM324.61,316,322,317.48a1,1,0,0,1-1.51-.93l2.18-50.73-2.26-.12-2.18,50.73a3.26,3.26,0,0,0,1.55,3,3.31,3.31,0,0,0,1.71.49,3.24,3.24,0,0,0,1.63-.44l3.71-2.13Z" style="fill:#e0e0e0"></path><g style="opacity:0.1"><polygon points="302.37 303.17 300.11 301.87 298.33 302.89 300.6 304.19 302.37 303.17"></polygon><polygon points="326.87 317.31 324.61 316.01 322.83 317.03 325.09 318.33 326.87 317.31"></polygon></g><g style="opacity:0.1"><polygon points="320.25 269.61 322.44 270.88 322.71 265.82 320.45 265.7 320.25 269.61"></polygon><polygon points="295.96 251.56 295.75 255.47 297.95 256.74 298.22 251.68 295.96 251.56"></polygon></g><path d="M345.1,264.91l-62.35-36.14a10.15,10.15,0,0,0-9.14,0l-1.32.76a3.21,3.21,0,0,0-1.89,2.66c0,.8,0,3.71,0,4.51a3.18,3.18,0,0,0,1.89,2.62l62.12,36,10.46-6Z" style="fill:#37474f"></path><path d="M272.29,234.81c-2.52-1.46-2.52-3.82,0-5.28l1.32-.76a10.15,10.15,0,0,1,9.14,0l62.35,36.14-10.69,5.9Z" style="fill:#455a64"></path><polygon points="345.1 264.91 344.87 269.29 334.41 275.32 334.41 270.81 345.1 264.91" style="fill:#263238"></polygon><path d="M391.65,155.55a3.09,3.09,0,0,0-3.11.33l-27.6,15.94a10.85,10.85,0,0,0-4.85,7.91l-.23,4.05a3,3,0,0,0,1.18,3c.57.33,2.73,1.57,3.31,1.89a3.12,3.12,0,0,0,3-.37L391,172.34a10.86,10.86,0,0,0,4.86-7.91l.22-4.05a3,3,0,0,0-1.18-3C394.33,157.08,392.2,155.88,391.65,155.55Z" style="fill:#CC8B7F"></path><path d="M371.24,182.92l-13.53-7.81a10.05,10.05,0,0,0-1.62,4.62l-.23,4.05a3,3,0,0,0,1.18,3c.57.33,2.73,1.57,3.31,1.89a3.12,3.12,0,0,0,3-.37l7.75-4.47Z" style="opacity:0.2"></path><path d="M396.54,158.34l-1.64-.94a3.1,3.1,0,0,0-3.11.35l-27.6,15.94a10.85,10.85,0,0,0-4.86,7.9l-.22,4a3,3,0,0,0,1.18,3l1.68,1a3.07,3.07,0,0,0,3.06-.34l27.61-15.94a10.88,10.88,0,0,0,4.85-7.91l.22-4.05A3,3,0,0,0,396.54,158.34Z" style="fill:#455a64"></path><path d="M360.75,186.59l.22-4.06a10.86,10.86,0,0,1,4.86-7.9l27.6-15.94c2.53-1.45,4.44-.28,4.28,2.63l-.22,4.05a10.88,10.88,0,0,1-4.85,7.91L365,189.22C362.51,190.67,360.59,189.5,360.75,186.59Z" style="fill:#37474f"></path><path d="M334,181.25c-13.48,2-15.47,10.06-21.09,34.71-1.71,7.48-3.25,14.72-4.11,18.82a134.37,134.37,0,0,1-14.53-6.12c-4.46-2.23-7.57-6.29-11.57-9.16-.42-.3-.86-.59-1.31-.87a3.39,3.39,0,0,0-3.09-.61c-.62.29-1,.92-1.67,1.19s-1.47.11-2.14.39-.94.73-1.5.87-1.23-.14-1.75.14a2.58,2.58,0,0,0-.73.81,3.47,3.47,0,0,1-2,1.32,4.17,4.17,0,0,0-1.92.9,3.21,3.21,0,0,0-.68,2.38c0,.82,0,1.68.06,2.49s.25,1.78.36,2.65a11.71,11.71,0,0,0,.48,2.44,5.69,5.69,0,0,0,3.58,3.19c0-.67,0-1.37,0-2a5.25,5.25,0,0,1,.3-2.44.84.84,0,0,1,.45-.34,1,1,0,0,1,.86.18,3.47,3.47,0,0,1,.64.63,11.81,11.81,0,0,0,7.34,4.06,29.77,29.77,0,0,1,3.14.28,16.12,16.12,0,0,1,4.94,2.43c1.57,1.08,17,10.4,22.62,13.85s12.2,4.31,15.27-5.81c2.72-8,6.18-25.8,8.7-35.34C338.05,199.39,338.82,186.42,334,181.25Z" style="fill:#f28f8f"></path><path d="M308.78,234.78l-1.37-.48c-2.41,7.95,1.1,12.41,1.1,12.41C307.24,242.2,308.78,234.78,308.78,234.78Z" style="fill:#b16668"></path><path d="M334.29,180.6c-6.41,1-15,3.69-17.91,15.11-3.67,14.21-6.13,30.54-6.13,30.54,1.95,5.14,14.92,9.65,20.47,6.87,0,0,3-14,4.61-21.49C337.44,201.62,340.25,186.69,334.29,180.6Z" style="fill:#455a64"></path></g></g></svg>