<svg xmlns="http://www.w3.org/2000/svg" viewBox="0 0 500 500"><g id="freepik--Floor--inject-3"><path d="M96.53,390.78c85,44.4,222.75,44.4,307.73,0s85-116.36,0-160.76-222.75-44.39-307.73,0S11.56,346.39,96.53,390.78Z" style="fill:#f5f5f5"></path></g><g id="freepik--Plants--inject-3"><path d="M71.32,320H74.9a83.8,83.8,0,0,0,3.21-16.81c.78-10.55-4.33-26.7-13.69-32.11s-14.43,1.28-11.29,7S66.86,300.07,67,314.07Z" style="fill:#ADE0F9"></path><path d="M70.46,320h1a74.38,74.38,0,0,0,0-20.83c-1.62-13.69-6.12-20.05-10.3-24.47a.5.5,0,0,0-.73.69c4.07,4.29,8.45,10.49,10,23.89A73.33,73.33,0,0,1,70.46,320Z" style="fill:#fff"></path><path d="M71.61,320c-1.84-8.68-10.2-19-18.09-20.78-9.15-2-13.6,2.83-12.29,7s8.54,6.11,15.56,9.38A23,23,0,0,1,63.18,320Z" style="fill:#ADE0F9"></path><path d="M68.28,320h1.07c-3.87-9.73-12.67-16.67-19.87-17.31a.49.49,0,0,0-.54.45.48.48,0,0,0,.45.54C56.19,304.29,64.5,310.81,68.28,320Z" style="fill:#fff"></path><path d="M394.42,228.51l7.49,3.93.63-4.69c-3.71-10.46-.66-22.32,3.35-27.26s3.24-8.57,1.79-10.19-6.95-2.85-12.39,3.51-6.69,14.08-5.78,21.87C390.09,220.55,392.65,225.55,394.42,228.51Z" style="fill:#ADE0F9"></path><path d="M394.42,228.51l7.49,3.93.63-4.69c-3.71-10.46-.66-22.32,3.35-27.26s3.24-8.57,1.79-10.19-6.95-2.85-12.39,3.51-6.69,14.08-5.78,21.87C390.09,220.55,392.65,225.55,394.42,228.51Z" style="opacity:0.2"></path><path d="M397.51,230.13l1.48.78a.56.56,0,0,0-.05-.08c-2.12-2.52-4.86-14.86-3.71-22.09,1.42-8.93,6-14.76,9.92-17.23a.42.42,0,0,0,.13-.59.44.44,0,0,0-.6-.13c-4,2.57-8.84,8.6-10.31,17.82C393.31,215.34,395.43,226,397.51,230.13Z" style="fill:#fff"></path><path d="M402.06,210.66c2.19,5.37,2.18,8-1.39,8.55-3.22.48-7.13,4.39-3.5,10.74l21.24,11.14a8.8,8.8,0,0,1,3-6.23c3.49-3.49,6.71-6.12,6.21-10s-3.87-7.62-4.43-11,1.16-5.31,4.83-9.1,7-9.67,2.1-12.35-10.51,1.91-12.85,5-4.48,4.45-9.09,4.19S399.87,205.29,402.06,210.66Z" style="fill:#ADE0F9"></path><path d="M408.07,235.67c-.1-16.48,11.71-35.78,18.28-39.68a.45.45,0,0,0,.15-.6.44.44,0,0,0-.59-.15c-6.66,4-18.57,23.31-18.7,40Z" style="fill:#fff"></path><path d="M411.23,218.54a.41.41,0,0,1-.46-.22,72.15,72.15,0,0,1-4.8-11.1.43.43,0,0,1,.82-.26,72.08,72.08,0,0,0,4.74,10.95.44.44,0,0,1-.18.59Z" style="fill:#fff"></path><path d="M408.39,228.64a.45.45,0,0,1-.44-.17.44.44,0,0,1,.11-.61,22.54,22.54,0,0,1,14.77-4,.43.43,0,0,1-.11.86,22.06,22.06,0,0,0-14.16,3.81A.51.51,0,0,1,408.39,228.64Z" style="fill:#fff"></path></g><g id="freepik--Boxes--inject-3"><polygon points="282.89 127.97 258.52 113.9 234.16 127.97 258.52 142.04 282.89 127.97" style="fill:#f5f5f5"></polygon><polygon points="258.52 170.19 282.89 156.12 282.89 127.97 258.52 142.04 258.52 170.19" style="fill:#ebebeb"></polygon><path d="M263.22,160.85a.75.75,0,0,1-.37-.09,1.13,1.13,0,0,1-.46-1v-3h0v-.22l.15,0,2.34-1.37v3.33a2.68,2.68,0,0,1-1.15,2.18A1,1,0,0,1,263.22,160.85Zm-.45-3.87v2.76a.77.77,0,0,0,.27.69.49.49,0,0,0,.5-.06,2.34,2.34,0,0,0,1-1.85v-.24h-.87l-.17-1.17Zm1.2.92h.54v-2.05l-1.4.81.69.13Z" style="fill:#fff"></path><path d="M263.64,163.23a.19.19,0,0,1-.19-.19v-2.5a.18.18,0,0,1,.19-.19.19.19,0,0,1,.19.19V163A.2.2,0,0,1,263.64,163.23Z" style="fill:#fff"></path><path d="M262.55,163.86a.18.18,0,0,1-.16-.1.17.17,0,0,1,.07-.25l2.17-1.26a.19.19,0,0,1,.26.07.2.2,0,0,1-.07.26l-2.18,1.25Z" style="fill:#fff"></path><path d="M270.31,159.54a.36.36,0,0,1-.21,0,.5.5,0,0,1-.22-.45v-.51a.18.18,0,0,1,.18-.19.18.18,0,0,1,.19.19V159c0,.08,0,.12,0,.12s.06,0,.12,0a1.07,1.07,0,0,0,.35-.84V155a.18.18,0,0,1,.19-.18.18.18,0,0,1,.18.18v3.34a1.45,1.45,0,0,1-.53,1.17A.67.67,0,0,1,270.31,159.54Z" style="fill:#fff"></path><path d="M268.33,156.63v-.32a5.33,5.33,0,0,1,2.4-4.16,1.59,1.59,0,0,1,2.59,1.49v.11Zm3.52-4.44a1.82,1.82,0,0,0-.93.29,5,5,0,0,0-2.2,3.49l4.22-2.43a1.38,1.38,0,0,0-.58-1.22A1,1,0,0,0,271.85,152.19Z" style="fill:#fff"></path><path d="M277,155.7a.19.19,0,0,1-.19-.18v-6.38a.19.19,0,1,1,.38,0v6.38A.19.19,0,0,1,277,155.7Z" style="fill:#fff"></path><path d="M276.49,150.59h-.07a.19.19,0,0,1-.1-.25l.67-1.54.74.86a.18.18,0,1,1-.28.24l-.36-.4-.43,1A.18.18,0,0,1,276.49,150.59Z" style="fill:#fff"></path><path d="M278.77,154.72a.19.19,0,0,1-.18-.19v-6.38a.19.19,0,1,1,.37,0v6.38A.19.19,0,0,1,278.77,154.72Z" style="fill:#fff"></path><path d="M278.22,149.6h-.07a.19.19,0,0,1-.1-.25l.67-1.54.74.86a.19.19,0,0,1,0,.26.2.2,0,0,1-.27,0l-.35-.41-.43,1A.19.19,0,0,1,278.22,149.6Z" style="fill:#fff"></path><polygon points="258.52 170.19 234.15 156.12 234.16 127.97 258.52 142.04 258.52 170.19" style="fill:#e0e0e0"></polygon><polygon points="247.66 135.77 272.01 121.69 269.26 120.1 244.9 134.18 247.66 135.77" style="fill:#fff"></polygon><path d="M237.85,144.11l8.73,5a3.86,3.86,0,0,1,1.73,3v5.38c0,1.11-.78,1.56-1.73,1l-8.73-5a3.85,3.85,0,0,1-1.73-3v-5.38C236.12,144,236.9,143.56,237.85,144.11Z" style="fill:#ADE0F9"></path><polygon points="237.18 145.45 237.51 145.65 237.51 151.62 237.18 151.43 237.18 145.45" style="fill:#ADE0F9"></polygon><polygon points="238.53 146.23 239.1 146.57 239.1 152.54 238.53 152.21 238.53 146.23" style="fill:#ADE0F9"></polygon><polygon points="239.88 147.01 240.21 147.2 240.21 153.18 239.88 152.99 239.88 147.01" style="fill:#ADE0F9"></polygon><polygon points="240.89 147.59 241.56 147.98 241.56 153.96 240.89 153.56 240.89 147.59" style="fill:#ADE0F9"></polygon><polygon points="242.57 148.57 242.91 148.76 242.91 154.74 242.57 154.54 242.57 148.57" style="fill:#ADE0F9"></polygon><polygon points="243.55 149.12 244.25 149.54 244.25 155.51 243.54 155.09 243.55 149.12" style="fill:#ADE0F9"></polygon><polygon points="245.27 150.13 245.6 150.32 245.6 156.29 245.27 156.1 245.27 150.13" style="fill:#ADE0F9"></polygon><polygon points="246.04 150.56 246.21 150.66 246.21 156.63 246.04 156.54 246.04 150.56" style="fill:#ADE0F9"></polygon><polygon points="244.66 149.8 244.82 149.9 244.82 155.87 244.66 155.78 244.66 149.8" style="fill:#ADE0F9"></polygon><polygon points="241.94 148.21 242.1 148.3 242.1 154.28 241.94 154.18 241.94 148.21" style="fill:#ADE0F9"></polygon><polygon points="240.45 147.35 240.62 147.45 240.62 153.43 240.45 153.33 240.45 147.35" style="fill:#ADE0F9"></polygon><polygon points="239.38 146.76 239.55 146.86 239.55 152.84 239.38 152.74 239.38 146.76" style="fill:#ADE0F9"></polygon><polygon points="237.93 145.88 238.1 145.98 238.1 151.96 237.93 151.86 237.93 145.88" style="fill:#ADE0F9"></polygon><polygon points="246.62 150.9 246.95 151.09 246.95 157.07 246.62 156.88 246.62 150.9" style="fill:#ADE0F9"></polygon><polygon points="250.4 123.28 221.96 106.87 193.53 123.28 221.96 139.7 250.4 123.28" style="fill:#f5f5f5"></polygon><polygon points="209.77 132.66 238.21 116.25 235.45 114.66 207.02 131.07 209.77 132.66" style="fill:#fff"></polygon><polygon points="221.96 191.29 250.4 174.88 250.4 123.28 221.96 139.7 221.96 191.29" style="fill:#ebebeb"></polygon><path d="M226.66,182a.69.69,0,0,1-.37-.1,1.1,1.1,0,0,1-.46-1v-3h0v-.22l.16,0,2.33-1.37v3.33a2.7,2.7,0,0,1-1.15,2.18A1,1,0,0,1,226.66,182Zm-.45-3.87v2.76a.77.77,0,0,0,.27.69.49.49,0,0,0,.5-.06,2.34,2.34,0,0,0,1-1.85v-.24h-.87l-.17-1.17Zm1.2.92H228V177l-1.4.82.69.12Z" style="fill:#fff"></path><path d="M227.08,184.34a.19.19,0,0,1-.19-.19v-2.51a.18.18,0,0,1,.19-.18.19.19,0,0,1,.19.18v2.51A.2.2,0,0,1,227.08,184.34Z" style="fill:#fff"></path><path d="M226,185a.18.18,0,0,1-.16-.09.2.2,0,0,1,.07-.26l2.17-1.25a.19.19,0,0,1,.26.07.18.18,0,0,1-.07.25l-2.18,1.26A.15.15,0,0,1,226,185Z" style="fill:#fff"></path><path d="M233.75,180.65a.46.46,0,0,1-.21-.05.5.5,0,0,1-.22-.45v-.52a.18.18,0,0,1,.19-.18.18.18,0,0,1,.18.18v.52c0,.07,0,.11,0,.12s.06,0,.12,0a1.09,1.09,0,0,0,.35-.85v-3.33a.19.19,0,0,1,.19-.19.2.2,0,0,1,.19.19v3.33a1.41,1.41,0,0,1-.54,1.17A.57.57,0,0,1,233.75,180.65Z" style="fill:#fff"></path><path d="M231.77,177.74v-.33a5.32,5.32,0,0,1,2.4-4.15,1.59,1.59,0,0,1,2.59,1.49v.11Zm3.52-4.45a1.92,1.92,0,0,0-.93.29,5,5,0,0,0-2.2,3.5l4.22-2.43a1.41,1.41,0,0,0-.58-1.23A1.07,1.07,0,0,0,235.29,173.29Z" style="fill:#fff"></path><path d="M240.48,176.81a.19.19,0,0,1-.19-.19v-6.38a.19.19,0,0,1,.38,0v6.38A.19.19,0,0,1,240.48,176.81Z" style="fill:#fff"></path><path d="M239.93,171.7l-.07,0a.18.18,0,0,1-.1-.24l.67-1.54.74.86a.18.18,0,0,1-.28.24l-.36-.41-.43,1A.18.18,0,0,1,239.93,171.7Z" style="fill:#fff"></path><path d="M242.21,175.82a.18.18,0,0,1-.18-.18v-6.38a.18.18,0,0,1,.18-.19.18.18,0,0,1,.19.19v6.38A.18.18,0,0,1,242.21,175.82Z" style="fill:#fff"></path><path d="M241.67,170.71h-.08a.2.2,0,0,1-.1-.25l.67-1.54.75.86a.2.2,0,0,1,0,.26.19.19,0,0,1-.27,0l-.35-.41-.43,1A.18.18,0,0,1,241.67,170.71Z" style="fill:#fff"></path><polygon points="221.96 191.29 193.53 174.88 193.53 123.28 221.96 139.7 221.96 191.29" style="fill:#e0e0e0"></polygon><path d="M199.31,164.15l8.72,5a3.85,3.85,0,0,1,1.74,3v5.39c0,1.1-.78,1.55-1.74,1l-8.72-5a3.82,3.82,0,0,1-1.73-3v-5.38C197.58,164,198.36,163.6,199.31,164.15Z" style="fill:#f5f5f5"></path><polygon points="198.64 165.49 198.97 165.69 198.97 171.66 198.64 171.47 198.64 165.49" style="fill:#e0e0e0"></polygon><polygon points="199.99 166.27 200.56 166.61 200.56 172.59 199.99 172.25 199.99 166.27" style="fill:#e0e0e0"></polygon><polygon points="201.33 167.05 201.67 167.24 201.66 173.22 201.33 173.03 201.33 167.05" style="fill:#e0e0e0"></polygon><polygon points="202.35 167.63 203.01 168.02 203.01 174 202.35 173.6 202.35 167.63" style="fill:#e0e0e0"></polygon><polygon points="204.03 168.61 204.36 168.8 204.36 174.78 204.03 174.58 204.03 168.61" style="fill:#e0e0e0"></polygon><polygon points="205 169.16 205.71 169.58 205.71 175.55 205 175.13 205 169.16" style="fill:#e0e0e0"></polygon><polygon points="206.73 170.16 207.06 170.36 207.06 176.33 206.73 176.14 206.73 170.16" style="fill:#e0e0e0"></polygon><polygon points="207.5 170.6 207.67 170.7 207.67 176.68 207.5 176.58 207.5 170.6" style="fill:#e0e0e0"></polygon><polygon points="206.12 169.84 206.28 169.94 206.28 175.91 206.12 175.82 206.12 169.84" style="fill:#e0e0e0"></polygon><polygon points="203.4 168.25 203.56 168.34 203.56 174.32 203.4 174.22 203.4 168.25" style="fill:#e0e0e0"></polygon><polygon points="201.91 167.39 202.07 167.49 202.07 173.47 201.91 173.37 201.91 167.39" style="fill:#e0e0e0"></polygon><polygon points="200.84 166.8 201.01 166.9 201.01 172.88 200.84 172.78 200.84 166.8" style="fill:#e0e0e0"></polygon><polygon points="199.39 165.92 199.56 166.02 199.56 172 199.39 171.9 199.39 165.92" style="fill:#e0e0e0"></polygon><polygon points="208.08 170.94 208.41 171.13 208.41 177.11 208.08 176.92 208.08 170.94" style="fill:#e0e0e0"></polygon><polygon points="207.02 137.73 209.77 139.32 209.77 132.66 207.02 131.07 207.02 137.73" style="fill:#f0f0f0"></polygon><polygon points="165.09 177.22 144.78 165.5 116.35 181.91 136.66 193.64 165.09 177.22" style="fill:#f5f5f5"></polygon><polygon points="136.66 240.54 165.09 224.13 165.09 177.22 136.66 193.64 136.66 240.54" style="fill:#ebebeb"></polygon><path d="M141.35,231.21a.65.65,0,0,1-.36-.1,1.11,1.11,0,0,1-.46-1v-3h0v-.22l.15,0,2.34-1.37v3.33a2.7,2.7,0,0,1-1.15,2.18A1.06,1.06,0,0,1,141.35,231.21Zm-.44-3.87v2.76a.75.75,0,0,0,.27.69.53.53,0,0,0,.5-.06,2.34,2.34,0,0,0,1-1.85v-.24h-.87l-.17-1.17Zm1.2.92h.54V226.2l-1.4.82.69.12Z" style="fill:#fff"></path><path d="M141.78,233.59a.19.19,0,0,1-.19-.19v-2.51a.18.18,0,0,1,.19-.18.18.18,0,0,1,.18.18v2.51A.19.19,0,0,1,141.78,233.59Z" style="fill:#fff"></path><path d="M140.69,234.21a.17.17,0,0,1-.16-.09.18.18,0,0,1,.06-.26l2.18-1.25a.19.19,0,0,1,.26.07.18.18,0,0,1-.07.25l-2.18,1.26A.15.15,0,0,1,140.69,234.21Z" style="fill:#fff"></path><path d="M148.45,229.9a.46.46,0,0,1-.21-.05.5.5,0,0,1-.22-.45v-.52a.18.18,0,0,1,.18-.18.18.18,0,0,1,.19.18v.52c0,.07,0,.11,0,.12s.06,0,.12,0a1.13,1.13,0,0,0,.35-.85v-3.33a.19.19,0,1,1,.37,0v3.33a1.44,1.44,0,0,1-.53,1.17A.57.57,0,0,1,148.45,229.9Z" style="fill:#fff"></path><path d="M146.47,227v-.33a5.32,5.32,0,0,1,2.4-4.15,1.58,1.58,0,0,1,2.58,1.49v.11Zm3.52-4.45a1.92,1.92,0,0,0-.93.29,5,5,0,0,0-2.2,3.5l4.22-2.44a1.4,1.4,0,0,0-.58-1.22A1.07,1.07,0,0,0,150,222.54Z" style="fill:#fff"></path><path d="M155.18,226.06a.19.19,0,0,1-.19-.19v-6.38a.19.19,0,0,1,.38,0v6.38A.19.19,0,0,1,155.18,226.06Z" style="fill:#fff"></path><path d="M154.63,221l-.07,0a.18.18,0,0,1-.1-.24l.67-1.54.74.86a.18.18,0,1,1-.28.24l-.36-.41-.43,1A.18.18,0,0,1,154.63,221Z" style="fill:#fff"></path><path d="M156.91,225.07a.19.19,0,0,1-.19-.18v-6.38a.19.19,0,0,1,.19-.19.18.18,0,0,1,.19.19v6.38A.18.18,0,0,1,156.91,225.07Z" style="fill:#fff"></path><path d="M156.36,220a.1.1,0,0,1-.07,0,.18.18,0,0,1-.1-.24l.67-1.54.74.86a.19.19,0,0,1,0,.26.19.19,0,0,1-.27,0l-.35-.41-.43,1A.19.19,0,0,1,156.36,220Z" style="fill:#fff"></path><polygon points="136.66 240.54 116.35 228.82 116.35 181.91 136.66 193.64 136.66 240.54" style="fill:#e0e0e0"></polygon><polygon points="125.78 194.02 128.53 195.61 128.53 188.95 125.78 187.36 125.78 194.02" style="fill:#f5f5f5"></polygon><polygon points="128.53 188.95 156.97 172.53 154.21 170.94 125.78 187.36 128.53 188.95" style="fill:#fff"></polygon><polygon points="128.53 217.09 91.98 195.99 55.42 217.09 91.98 238.2 128.53 217.09" style="fill:#f5f5f5"></polygon><polygon points="91.98 266.34 128.53 245.24 128.53 217.09 91.98 238.2 91.98 266.34" style="fill:#ebebeb"></polygon><path d="M96.67,257a.75.75,0,0,1-.36-.1,1.12,1.12,0,0,1-.46-1v-3h0v-.22l.15,0,2.34-1.38v3.34a2.7,2.7,0,0,1-1.15,2.17A1.08,1.08,0,0,1,96.67,257Zm-.45-3.87v2.76a.74.74,0,0,0,.27.68.51.51,0,0,0,.51-.05,2.36,2.36,0,0,0,1-1.85v-.25H97.1l-.17-1.17Zm1.2.92H98V252l-1.39.82.69.12Z" style="fill:#fff"></path><path d="M97.09,259.38a.18.18,0,0,1-.18-.18v-2.51a.19.19,0,1,1,.37,0v2.51A.18.18,0,0,1,97.09,259.38Z" style="fill:#fff"></path><path d="M96,260a.19.19,0,0,1-.09-.35l2.18-1.25a.17.17,0,0,1,.25.06.18.18,0,0,1-.06.26L96.1,260Z" style="fill:#fff"></path><path d="M103.76,255.7a.46.46,0,0,1-.2,0,.5.5,0,0,1-.23-.46v-.51a.19.19,0,0,1,.38,0v.51a.21.21,0,0,0,0,.13s.06,0,.13,0a1.13,1.13,0,0,0,.34-.85v-3.33a.2.2,0,0,1,.19-.19.19.19,0,0,1,.19.19v3.33a1.44,1.44,0,0,1-.53,1.17A.58.58,0,0,1,103.76,255.7Z" style="fill:#fff"></path><path d="M101.79,252.79v-.33a5.27,5.27,0,0,1,2.4-4.15,1.58,1.58,0,0,1,2.58,1.49v.11Zm3.52-4.45a2,2,0,0,0-.94.29,5,5,0,0,0-2.19,3.5l4.21-2.44a1.39,1.39,0,0,0-.57-1.22A1,1,0,0,0,105.31,248.34Z" style="fill:#fff"></path><path d="M110.5,251.86a.18.18,0,0,1-.19-.19v-6.38a.19.19,0,1,1,.37,0v6.38A.18.18,0,0,1,110.5,251.86Z" style="fill:#fff"></path><path d="M110,246.75l-.08,0a.18.18,0,0,1-.09-.25l.66-1.54.75.86a.19.19,0,1,1-.29.25l-.35-.41-.43,1A.19.19,0,0,1,110,246.75Z" style="fill:#fff"></path><path d="M112.23,250.87a.19.19,0,0,1-.19-.19V244.3a.19.19,0,0,1,.38,0v6.38A.19.19,0,0,1,112.23,250.87Z" style="fill:#fff"></path><path d="M111.68,245.76l-.07,0a.18.18,0,0,1-.1-.24l.67-1.55.74.86a.19.19,0,0,1,0,.27.18.18,0,0,1-.26,0l-.36-.41-.43,1A.18.18,0,0,1,111.68,245.76Z" style="fill:#fff"></path><polygon points="91.98 266.34 55.42 245.24 55.42 217.09 91.98 238.2 91.98 266.34" style="fill:#e0e0e0"></polygon><polygon points="72.32 233.51 75.07 235.1 75.07 228.44 72.32 226.85 72.32 233.51" style="fill:#f5f5f5"></polygon><polygon points="75.07 228.44 111.63 207.34 108.88 205.74 72.32 226.85 75.07 228.44" style="fill:#fff"></polygon><path d="M61.21,234.51l8.72,5a3.85,3.85,0,0,1,1.74,3v5.39c0,1.1-.78,1.55-1.74,1l-8.72-5a3.82,3.82,0,0,1-1.73-3v-5.38C59.48,234.4,60.26,234,61.21,234.51Z" style="fill:#f5f5f5"></path><polygon points="60.54 235.85 60.87 236.04 60.87 242.02 60.54 241.83 60.54 235.85" style="fill:#e0e0e0"></polygon><polygon points="61.88 236.63 62.46 236.97 62.46 242.94 61.88 242.61 61.88 236.63" style="fill:#e0e0e0"></polygon><polygon points="63.23 237.41 63.57 237.6 63.56 243.58 63.23 243.39 63.23 237.41" style="fill:#e0e0e0"></polygon><polygon points="64.25 237.99 64.92 238.38 64.91 244.36 64.25 243.96 64.25 237.99" style="fill:#e0e0e0"></polygon><polygon points="65.93 238.97 66.26 239.16 66.26 245.14 65.93 244.94 65.93 238.97" style="fill:#e0e0e0"></polygon><polygon points="66.9 239.52 67.61 239.94 67.61 245.91 66.9 245.49 66.9 239.52" style="fill:#e0e0e0"></polygon><polygon points="68.63 240.53 68.96 240.72 68.96 246.69 68.63 246.5 68.63 240.53" style="fill:#e0e0e0"></polygon><polygon points="69.4 240.96 69.57 241.06 69.57 247.03 69.4 246.94 69.4 240.96" style="fill:#e0e0e0"></polygon><polygon points="68.02 240.2 68.18 240.29 68.18 246.27 68.02 246.18 68.02 240.2" style="fill:#e0e0e0"></polygon><polygon points="65.3 238.61 65.46 238.7 65.46 244.68 65.3 244.58 65.3 238.61" style="fill:#e0e0e0"></polygon><polygon points="63.81 237.75 63.98 237.85 63.98 243.82 63.81 243.73 63.81 237.75" style="fill:#e0e0e0"></polygon><polygon points="62.74 237.16 62.91 237.26 62.91 243.24 62.74 243.14 62.74 237.16" style="fill:#e0e0e0"></polygon><polygon points="61.29 236.28 61.46 236.38 61.46 242.35 61.29 242.26 61.29 236.28" style="fill:#e0e0e0"></polygon><polygon points="69.98 241.3 70.31 241.5 70.31 247.47 69.98 247.28 69.98 241.3" style="fill:#e0e0e0"></polygon><polygon points="120.41 160.81 91.98 144.39 63.54 160.81 91.98 177.22 120.41 160.81" style="fill:#f5f5f5"></polygon><polygon points="91.98 233.51 120.41 217.09 120.41 160.81 91.98 177.22 91.98 233.51" style="fill:#ebebeb"></polygon><path d="M96.67,224.17a.74.74,0,0,1-.36-.09,1.12,1.12,0,0,1-.46-1v-3h0v-.22l.15,0,2.34-1.37v3.33A2.71,2.71,0,0,1,97.19,224,1.06,1.06,0,0,1,96.67,224.17Zm-.45-3.87v2.77a.76.76,0,0,0,.27.68.51.51,0,0,0,.51-.05,2.38,2.38,0,0,0,1-1.86v-.24H97.1l-.17-1.17Zm1.2.92H98v-2.05l-1.39.82.69.12Z" style="fill:#fff"></path><path d="M97.09,226.55a.18.18,0,0,1-.18-.19v-2.5a.18.18,0,0,1,.18-.19.18.18,0,0,1,.19.19v2.5A.18.18,0,0,1,97.09,226.55Z" style="fill:#fff"></path><path d="M96,227.18a.19.19,0,0,1-.09-.35l2.18-1.26a.19.19,0,0,1,.19.33l-2.18,1.25A.17.17,0,0,1,96,227.18Z" style="fill:#fff"></path><path d="M103.76,222.87a.36.36,0,0,1-.2-.06.48.48,0,0,1-.23-.45v-.51a.19.19,0,0,1,.38,0v.51a.21.21,0,0,0,0,.13.24.24,0,0,0,.13,0,1.08,1.08,0,0,0,.34-.84v-3.33a.19.19,0,0,1,.19-.19.18.18,0,0,1,.19.19v3.33a1.44,1.44,0,0,1-.53,1.17A.58.58,0,0,1,103.76,222.87Z" style="fill:#fff"></path><path d="M101.79,220v-.32a5.31,5.31,0,0,1,2.4-4.16,1.59,1.59,0,0,1,2.58,1.5v.1Zm3.52-4.44a2,2,0,0,0-.94.29,5,5,0,0,0-2.19,3.49l4.21-2.43a1.37,1.37,0,0,0-.57-1.22A1,1,0,0,0,105.31,215.51Z" style="fill:#fff"></path><path d="M110.5,219a.19.19,0,0,1-.19-.19v-6.38a.19.19,0,1,1,.37,0v6.38A.19.19,0,0,1,110.5,219Z" style="fill:#fff"></path><path d="M110,213.91h-.08a.18.18,0,0,1-.09-.25l.66-1.54.75.86a.19.19,0,0,1,0,.26.2.2,0,0,1-.27,0l-.35-.41-.43,1A.18.18,0,0,1,110,213.91Z" style="fill:#fff"></path><path d="M112.23,218a.2.2,0,0,1-.19-.19v-6.38a.19.19,0,0,1,.38,0v6.38A.2.2,0,0,1,112.23,218Z" style="fill:#fff"></path><path d="M111.68,212.93l-.07,0a.19.19,0,0,1-.1-.25l.67-1.54.74.86a.19.19,0,0,1,0,.27.2.2,0,0,1-.26,0l-.36-.41-.43,1A.19.19,0,0,1,111.68,212.93Z" style="fill:#fff"></path><polygon points="91.98 233.51 63.54 217.09 63.54 160.81 91.98 177.22 91.98 233.51" style="fill:#e0e0e0"></polygon><polygon points="77.03 175.25 79.79 176.84 79.79 170.19 77.03 168.59 77.03 175.25" style="fill:#f5f5f5"></polygon><polygon points="79.79 170.19 108.22 153.77 105.47 152.18 77.03 168.59 79.79 170.19" style="fill:#fff"></polygon><path d="M69.33,206.36l8.72,5a3.81,3.81,0,0,1,1.73,3v5.38c0,1.1-.77,1.55-1.73,1l-8.72-5a3.82,3.82,0,0,1-1.74-3v-5.38C67.6,206.26,68.37,205.81,69.33,206.36Z" style="fill:#f5f5f5"></path><polygon points="68.65 207.71 68.98 207.9 68.98 213.88 68.65 213.68 68.65 207.71" style="fill:#e0e0e0"></polygon><polygon points="70 208.49 70.57 208.82 70.57 214.8 70 214.46 70 208.49" style="fill:#e0e0e0"></polygon><polygon points="71.35 209.26 71.68 209.46 71.68 215.43 71.35 215.24 71.35 209.26" style="fill:#e0e0e0"></polygon><polygon points="72.37 209.84 73.03 210.24 73.03 216.21 72.37 215.82 72.37 209.84" style="fill:#e0e0e0"></polygon><polygon points="74.05 210.82 74.38 211.01 74.38 216.99 74.05 216.8 74.05 210.82" style="fill:#e0e0e0"></polygon><polygon points="75.02 211.37 75.73 211.79 75.73 217.77 75.02 217.35 75.02 211.37" style="fill:#e0e0e0"></polygon><polygon points="76.75 212.38 77.08 212.57 77.08 218.55 76.75 218.35 76.75 212.38" style="fill:#e0e0e0"></polygon><polygon points="77.52 212.82 77.68 212.91 77.68 218.89 77.52 218.79 77.52 212.82" style="fill:#e0e0e0"></polygon><polygon points="76.13 212.05 76.3 212.15 76.3 218.13 76.13 218.03 76.13 212.05" style="fill:#e0e0e0"></polygon><polygon points="73.41 210.46 73.58 210.56 73.58 216.53 73.41 216.44 73.41 210.46" style="fill:#e0e0e0"></polygon><polygon points="71.92 209.61 72.09 209.7 72.09 215.68 71.92 215.58 71.92 209.61" style="fill:#e0e0e0"></polygon><polygon points="70.86 209.02 71.02 209.11 71.02 215.09 70.86 214.99 70.86 209.02" style="fill:#e0e0e0"></polygon><polygon points="69.41 208.14 69.57 208.23 69.57 214.21 69.41 214.11 69.41 208.14" style="fill:#e0e0e0"></polygon><polygon points="78.09 213.16 78.43 213.35 78.43 219.32 78.09 219.13 78.09 213.16" style="fill:#e0e0e0"></polygon></g><g id="freepik--Device--inject-3"><path d="M63.81,315.75l109.14,63a9.57,9.57,0,0,0,8.66,0l239.13-138c2.39-1.38,2.39-3.62,0-5l-109.14-63a9.51,9.51,0,0,0-8.66,0L63.81,310.75C61.42,312.13,61.42,314.37,63.81,315.75Z" style="fill:#455a64"></path><path d="M122.8,345a13.32,13.32,0,0,0,12,0c3.33-1.92,3.33-5,0-6.95a13.26,13.26,0,0,0-12,0C119.47,340,119.47,343.1,122.8,345Z" style="fill:#263238"></path><path d="M175,378.75l-109.14-63c-2.14-1.24-2.36-3.16-.67-4.54a9.69,9.69,0,0,0-3.66,7v4.07a9.58,9.58,0,0,0,4.33,7.5l109.14,63a8.83,8.83,0,0,0,4.33,1V379.79A8.83,8.83,0,0,1,175,378.75Z" style="fill:#37474f"></path><path d="M420.73,254.77a9.56,9.56,0,0,0,4.34-7.5V243.2a9.62,9.62,0,0,0-3.67-7c1.7,1.38,1.48,3.3-.66,4.53L181.61,378.75a8.89,8.89,0,0,1-4.33,1v14.07a8.89,8.89,0,0,0,4.33-1Z" style="fill:#263238"></path><path d="M190.93,365.7,86.47,305.36c-1.44-.83-1.44-2.18,0-3L288.39,185.75a5.74,5.74,0,0,1,5.2,0l104.5,60.33c1.43.83,1.43,2.17,0,3l-202,116.62A5.74,5.74,0,0,1,190.93,365.7Z" style="fill:#fff"></path><polygon points="148.84 332.01 161.03 324.97 156.97 322.63 144.78 329.66 148.84 332.01" style="fill:#ADE0F9"></polygon><polygon points="295.08 247.58 307.27 240.54 303.2 238.2 291.02 245.24 295.08 247.58" style="fill:#ADE0F9"></polygon><polygon points="319.45 233.51 331.64 226.47 327.58 224.13 315.39 231.16 319.45 233.51" style="fill:#ADE0F9"></polygon><path d="M358.57,208.86a3.41,3.41,0,0,0,3.05,0,.93.93,0,0,0,0-1.76,3.35,3.35,0,0,0-3.05,0A.93.93,0,0,0,358.57,208.86Z" style="fill:#263238"></path><path d="M363.44,222.67a6.74,6.74,0,0,0,6.09,0c1.68-1,1.68-2.55,0-3.52a6.74,6.74,0,0,0-6.09,0C361.76,220.12,361.76,221.7,363.44,222.67Z" style="fill:#263238"></path><path d="M359.14,216.55c1.12-.65,1.06-1.73-.13-2.42l-20-11.57a4.61,4.61,0,0,0-4.2-.08c-1.12.65-1.06,1.73.13,2.42L355,216.47A4.62,4.62,0,0,0,359.14,216.55Z" style="fill:#263238"></path></g><g id="freepik--Locator--inject-3"><path d="M325,169.63l.68-.4a19,19,0,0,0-.68,5.24v2.44c0,8.76,10.51,31.14,14.38,39.06.4.83-4.91,6.48-4.91,6.48l6.31-3.64s15.77-13,15.77-23.68v-2.44c0-10.73-7.06-23.5-15.77-28.53-4.4-2.53-8.37-2.62-11.23-.7h0l-6,3.44Zm7.89,8.19c0-5,3.53-7.07,7.89-4.55-.36,3.23,5.54,13.29,7.88,13.66,0,5-3.53,7.07-7.88,4.55A17.42,17.42,0,0,1,332.93,177.82Z" style="fill:#ADE0F9"></path><path d="M318.51,180.82c.18,10.72,16.46,41.63,16.46,41.63s15.56-13.22,15.39-23.94l0-2.44c-.18-10.72-7.45-23.38-16.25-28.26s-15.78-.16-15.6,10.57Zm7.9.78c-.08-5,3.42-7.13,7.81-4.69a17.43,17.43,0,0,1,8.11,13.53c.09,5-3.41,7.13-7.81,4.69A17.48,17.48,0,0,1,326.41,181.6Z" style="fill:#ADE0F9"></path><path d="M318.51,180.82c.18,10.72,16.46,41.63,16.46,41.63s15.56-13.22,15.39-23.94l0-2.44c-.18-10.72-7.45-23.38-16.25-28.26s-15.78-.16-15.6,10.57Zm7.9.78c-.08-5,3.42-7.13,7.81-4.69a17.43,17.43,0,0,1,8.11,13.53c.09,5-3.41,7.13-7.81,4.69A17.48,17.48,0,0,1,326.41,181.6Z" style="opacity:0.1"></path></g><g id="freepik--Shadow--inject-3"><path d="M166,323.79c10.11,5.82,33.81,1.59,52.94-9.46L271.49,284c19.13-11.05,26.43-24.71,16.3-30.52s-33.85-1.56-53,9.48l-52.45,30.29C163.22,304.29,155.9,318,166,323.79Z" style="fill:#f0f0f0"></path></g><g id="freepik--Chronometer--inject-3"><g id="freepik--Clock--inject-3"><path d="M319,69.52h0l.05,0h0l8.65-5h0l.07,0h0c5.45-2.76,12.73-2,20.57,3.1,15.76,10.14,27.79,33.54,26.88,52.25-.46,9.33-4,15.73-9.47,18.55h0l-.05,0h0l-8.66,5h0l-.06,0h0c-5.45,2.77-12.74,2-20.59-3.09-15.75-10.15-27.78-33.54-26.87-52.25C310,78.74,313.59,72.34,319,69.52Z" style="fill:#37474f"></path><path d="M357.48,143.16l8.25-4.8h0l.06,0c5.42-2.83,9-9.23,9.46-18.55.4-8.34-1.77-17.61-5.69-26.22l-8.66,5c3.93,8.61,6.1,17.88,5.69,26.23C366.16,133.92,362.72,140.25,357.48,143.16Z" style="fill:#263238"></path><path d="M336.43,140.32c-15.75-10.15-27.78-33.54-26.87-52.25S324,62.41,339.72,72.55s27.79,33.54,26.88,52.25S352.18,150.46,336.43,140.32Z" style="fill:#455a64"></path><path d="M349.63,139c9.29.45,10.8-10,11-14.5.8-16.5-10.26-38-24.15-46.95a21,21,0,0,0-10-3.7c-9.28-.45-10.79,10-11,14.5-.8,16.5,10.25,38,24.15,47a21,21,0,0,0,10,3.7Z" style="fill:#fafafa"></path><path d="M336.26,109.53a.87.87,0,0,0,.32-.06,1,1,0,0,0,.69-1V84.64a1,1,0,0,0-2,0v20.93l-11.13-14.3a1,1,0,0,0-1.6,1.24l12.95,16.63A1,1,0,0,0,336.26,109.53Z" style="fill:#37474f"></path><path d="M342,127.16a.36.36,0,0,0,.14,0,.43.43,0,0,0,.29-.52l-5.61-18.89a.42.42,0,1,0-.81.24l5.6,18.89A.42.42,0,0,0,342,127.16Z" style="fill:#ADE0F9"></path><path d="M336.58,103.74c-1.86-1.19-3.45-.37-3.55,1.83a7.62,7.62,0,0,0,3.16,6.14c1.85,1.2,3.44.38,3.55-1.82A7.67,7.67,0,0,0,336.58,103.74Z" style="fill:#ADE0F9"></path></g></g><g id="freepik--Character--inject-3"><polygon points="173.22 317.94 185.4 310.9 181.34 308.56 169.16 315.59 173.22 317.94" style="fill:#ADE0F9"></polygon><polygon points="197.59 303.87 209.78 296.83 205.71 294.49 193.53 301.52 197.59 303.87" style="fill:#ADE0F9"></polygon><path d="M192.58,301c0,5.88-4.12,13-9.21,16-2.71,1.57-5.15,1.62-6.83.44h0a6.07,6.07,0,0,1-2.31-4.43,11.22,11.22,0,0,0,1-.53c5.09-2.93,9.21-10.08,9.21-16a9.13,9.13,0,0,0-.08-1.31,6.22,6.22,0,0,1,5-.36C191.36,295.65,192.58,297.82,192.58,301Z" style="fill:#263238"></path><path d="M193.41,288.92l-.17-.1c-2.56-1.36-6-1.11-9.87,1.11-7.85,4.53-14.22,15.55-14.22,24.62,0,4.56,1.61,7.75,4.21,9.23s6.11,1.23,10-1c7.85-4.53,14.21-15.56,14.21-24.63C197.58,293.59,196,290.4,193.41,288.92Zm-10,28.06c-2.72,1.57-5.16,1.62-6.84.43-1.48-1-2.38-3-2.38-5.75,0-5.87,4.13-13,9.22-16,2.32-1.34,4.43-1.57,6-.88,1.94.83,3.16,3,3.16,6.2C192.58,306.9,188.46,314.05,183.37,317Z" style="fill:#37474f"></path><path d="M189.88,295.05l-.11-.06c-1.66-.89-3.91-.72-6.4.71-5.09,2.94-9.22,10.09-9.22,16,0,3,1,5,2.73,6s4,.8,6.49-.66c5.09-2.94,9.21-10.09,9.21-16C192.58,298.08,191.55,296,189.88,295.05Zm-6.51,19.85c-2.18,1.26-4.14,1.3-5.5.34-1.18-.83-1.91-2.42-1.91-4.62a16.38,16.38,0,0,1,7.41-12.83,5.49,5.49,0,0,1,4.87-.71c1.56.67,2.54,2.41,2.54,5A16.35,16.35,0,0,1,183.37,314.9Z" style="fill:#ADE0F9"></path><polygon points="221.96 289.79 234.15 282.76 230.09 280.41 217.9 287.45 221.96 289.79" style="fill:#ADE0F9"></polygon><polygon points="246.34 275.72 258.52 268.69 254.46 266.34 242.27 273.38 246.34 275.72" style="fill:#ADE0F9"></polygon><polygon points="270.71 261.65 282.89 254.62 278.83 252.27 266.64 259.31 270.71 261.65" style="fill:#ADE0F9"></polygon><path d="M210.06,196.22a1,1,0,0,1,1.8.63,3.63,3.63,0,0,1-1.09,3.12c-.8.69-1.61.41-1.8-.63A3.64,3.64,0,0,1,210.06,196.22Z" style="fill:#ADE0F9"></path><polygon points="219.44 200.64 211.29 195.93 209.5 200.24 217.68 204.96 219.44 200.64" style="fill:#ADE0F9"></polygon><path d="M218.19,200.91c.8-.68,1.6-.4,1.8.64a3.65,3.65,0,0,1-1.1,3.11c-.8.69-1.61.41-1.8-.63A3.68,3.68,0,0,1,218.19,200.91Z" style="fill:#ADE0F9"></path><path d="M280.83,240.35c0,.2,0,.38,0,.58,0,.4,0,.81,0,1.22-1.62-.69-3.73-.46-6.05.88-5.09,2.94-9.22,10.09-9.22,16,0,2.74.9,4.72,2.38,5.75a14.73,14.73,0,0,1-1.29.82l-.47.24-1.41,5.31-8.16-4.55c-2.58-1.49-4.17-4.67-4.17-9.21,0-9.07,6.36-20.09,14.21-24.63,3.88-2.24,7.39-2.47,10-1h0l8,4.48.17.1Z" style="fill:#455a64"></path><path d="M284.81,236.25l-.17-.1c-2.56-1.36-6-1.11-9.87,1.11-7.85,4.53-14.22,15.55-14.22,24.62,0,4.56,1.61,7.75,4.21,9.23s6.11,1.23,10-1c7.85-4.53,14.21-15.56,14.21-24.63C289,240.92,287.39,237.73,284.81,236.25Zm-10,28.06c-2.72,1.57-5.16,1.62-6.84.43-1.48-1-2.38-3-2.38-5.75,0-5.87,4.13-13,9.22-16,2.32-1.34,4.43-1.57,6.05-.88,1.94.83,3.16,3,3.16,6.2C284,254.23,279.86,261.38,274.77,264.31Z" style="fill:#37474f"></path><path d="M284,248.35c0,5.88-4.12,13-9.21,16-2.71,1.57-5.15,1.62-6.83.44h0a6.07,6.07,0,0,1-2.31-4.43,11.22,11.22,0,0,0,1-.53c5.09-2.93,9.21-10.08,9.21-16a9.13,9.13,0,0,0-.08-1.31,6.22,6.22,0,0,1,5-.36C282.76,243,284,245.15,284,248.35Z" style="fill:#263238"></path><path d="M281.28,242.38l-.11-.07c-1.66-.88-3.92-.72-6.4.72-5.09,2.94-9.22,10.08-9.22,16,0,3,1,5,2.73,6s4,.79,6.49-.67c5.09-2.93,9.21-10.08,9.21-16C284,245.41,283,243.34,281.28,242.38Zm-6.51,19.84c-2.19,1.27-4.15,1.31-5.5.35-1.19-.83-1.91-2.42-1.91-4.62a16.38,16.38,0,0,1,7.41-12.83c1.86-1.08,3.56-1.27,4.86-.71,1.56.67,2.54,2.41,2.54,5A16.34,16.34,0,0,1,274.77,262.22Z" style="fill:#ADE0F9"></path><path d="M266.64,251.34l23-13.28c2.67-1.55-6-10.6-12.45-11.21a24.9,24.9,0,0,0-10.56,1s4.91,6.29,4.07,9.86S266.64,251.34,266.64,251.34Z" style="fill:#ADE0F9"></path><path d="M234.15,213.81s33.34,16.82,34.78,17.83,0,12.74-2.29,19.7S260.83,269,259.42,272s-3.25,4.12-6.63,6.07l-24,13.87L196.3,295.9l-12.9-7,3.36-21.11s34.53-18.37,39.26-21.1S244.74,231.15,234.15,213.81Z" style="fill:#ADE0F9"></path><path d="M234.15,213.81s33.34,16.82,34.78,17.83,0,12.74-2.29,19.7S260.83,269,259.42,272s-3.25,4.12-6.63,6.07l-24,13.87L196.3,295.9l-12.9-7,3.36-21.11s34.53-18.37,39.26-21.1S244.74,231.15,234.15,213.81Z" style="opacity:0.2"></path><path d="M269.57,247.33c3-8.06,5.24-14.74,4.86-19.25-.46-5.35-2.46-9.72-11.28-11.92S242,214,242,214l-3.75,2.17s25.36,14.7,28.24,16.3c1.76,1,3.64,5.41.19,18.88l.59.34C267.56,251.87,268.61,249.92,269.57,247.33Z" style="fill:#ADE0F9"></path><path d="M269.57,247.33c3-8.06,5.24-14.74,4.86-19.25-.46-5.35-2.46-9.72-11.28-11.92S242,214,242,214l-3.75,2.17s25.36,14.7,28.24,16.3c1.76,1,3.64,5.41.19,18.88l.59.34C267.56,251.87,268.61,249.92,269.57,247.33Z" style="fill:#fff;opacity:0.30000000000000004"></path><path d="M250.36,223.19l4.1-2.34s-.24-14.21-6.22-17.66-26.28-1.1-26.28-1.1l-4.06,2.34Z" style="fill:#ADE0F9"></path><path d="M237.06,206.44c-1.95,1.13-1.95,2.95,0,4.07a7.78,7.78,0,0,0,7.06,0c1.94-1.12,1.94-2.95,0-4.07A7.84,7.84,0,0,0,237.06,206.44Z" style="fill:#f0f0f0"></path><path d="M243.3,213.23c-1.37.8-1.37,2.09,0,2.88a5.49,5.49,0,0,0,5,0c1.38-.79,1.38-2.08,0-2.88A5.55,5.55,0,0,0,243.3,213.23Z" style="fill:#f0f0f0"></path><path d="M227.59,204.63c-1.38.79-1.38,2.08,0,2.88a5.55,5.55,0,0,0,5,0c1.38-.8,1.38-2.09,0-2.88A5.49,5.49,0,0,0,227.59,204.63Z" style="fill:#f0f0f0"></path><path d="M251,219.07c.8-.69,1.6-.41,1.8.63a3.67,3.67,0,0,1-1.1,3.12,1,1,0,0,1-1.8-.63A3.63,3.63,0,0,1,251,219.07Z" style="fill:#ADE0F9"></path><polygon points="260.33 223.49 252.17 218.78 250.39 223.09 258.56 227.8 260.33 223.49" style="fill:#ADE0F9"></polygon><path d="M259.07,223.76a1,1,0,0,1,1.8.63,3.64,3.64,0,0,1-1.1,3.12c-.8.69-1.6.4-1.8-.63A3.66,3.66,0,0,1,259.07,223.76Z" style="fill:#ADE0F9"></path><path d="M259.07,223.76a1,1,0,0,1,1.8.63,3.64,3.64,0,0,1-1.1,3.12c-.8.69-1.6.4-1.8-.63A3.66,3.66,0,0,1,259.07,223.76Z"></path><path d="M189.43,293c0,.2,0,.38,0,.58,0,.4,0,.81,0,1.22-1.62-.69-3.73-.46-6,.88-5.09,2.94-9.22,10.09-9.22,16,0,2.74.9,4.72,2.38,5.75a14.73,14.73,0,0,1-1.29.82l-.47.24-1.41,5.31-8.16-4.55c-2.58-1.49-4.17-4.67-4.17-9.21,0-9.07,6.36-20.09,14.21-24.63,3.88-2.24,7.39-2.47,10-1h0l8,4.48.17.1Z" style="fill:#455a64"></path><polygon points="165.09 277.13 159 298.24 171.19 305.28 177.5 284.3 165.09 277.13" style="fill:#ADE0F9"></polygon><polygon points="165.09 277.13 159 298.24 171.19 305.28 177.5 284.3 165.09 277.13" style="opacity:0.2"></polygon><path d="M165.09,277.13S172,283,177.5,284.3c7.22,1.75,18.7,1.94,22.77,2.22,6.22.43,10.92.42,13.12-.37,2.85-1,10.51-5.45,12.63-6.67,4.06-2.34,5.79-11.55-5.4-14.07a113,113,0,0,0-23-2.35Z" style="fill:#ADE0F9"></path><path d="M234,274.43a11,11,0,0,0-.7,2.71,6.11,6.11,0,0,0-.22,3,6,6,0,0,0,3.37,2.63,7.57,7.57,0,0,0,5.93-1.15c2.07-1.24,3.63-2.74,6.57-3.58a14.78,14.78,0,0,0,5.8-2.63c1.63-1.31,3.81-4.93.69-5.77s-9.9,2.12-16.08,2.39Z" style="fill:#37474f"></path><path d="M234,270.57v4.62a3,3,0,0,0,2.45,1.95,3,3,0,0,0,1.49-.16,4.11,4.11,0,0,0,2.64-3.66l.18-2.75Z" style="fill:#ffa8a7"></path><path d="M242.8,242c0,5.75-1.62,30.61-1.62,30.61s-2.35,3-7.46,0L232,244.83Z" style="fill:#37474f"></path><path d="M216,266.5l16-9.22a4.06,4.06,0,0,0,0-7.19l-11.92-6.88a4.79,4.79,0,0,0-4.33,0l-16,9.22a4.07,4.07,0,0,0,0,7.19l11.92,6.88A4.79,4.79,0,0,0,216,266.5Z" style="fill:#ADE0F9"></path><path d="M216,266.5l16-9.22a4.06,4.06,0,0,0,0-7.19l-11.92-6.88a4.79,4.79,0,0,0-4.33,0l-16,9.22a4.07,4.07,0,0,0,0,7.19l11.92,6.88A4.79,4.79,0,0,0,216,266.5Z" style="fill:#fff"></path><path d="M199.75,254.93l11.92,6.88a4.79,4.79,0,0,0,4.33,0l16-9.22a1.32,1.32,0,0,0,0-2.5l-11.92-6.88a4.79,4.79,0,0,0-4.33,0l-16,9.22A1.32,1.32,0,0,0,199.75,254.93Z" style="fill:#ADE0F9"></path><polygon points="209.5 193.73 207.47 202.1 198.75 202.63 200.63 191.03 209.5 193.73" style="fill:#ffa8a7"></polygon><path d="M218,187.43s1,3.54.59,3.74a6.3,6.3,0,0,1-1.9,0Z" style="fill:#f28f8f"></path><path d="M216.33,176.13c1.4,1.65,2.68,4.36,1.69,11-1.08,7.26-2.42,8.1-3.5,8.8-1.41.92-7.05.43-8.64-.73-1.91-1.39-4.86-5.8-5.56-10.15-.82-5.11.89-10.78,4.65-11.75C210.26,171.93,215.14,174.73,216.33,176.13Z" style="fill:#ffa8a7"></path><path d="M199.75,193.38c1.35,1.4,4.12,1.78,5.86,2.1s7.09.67,8.67-3.14.5-6.55,2.44-7.47,3.88-1.52,4.39-2,.52-6.75-4.69-10-13.19-4-18.44,2.59C194,180.55,195.63,189.08,199.75,193.38Z" style="fill:#455a64"></path><path d="M205,195.53c1.35.12,5.62-.55,6.91-2.31s1.81-4.91,2-6.56a2.86,2.86,0,0,1,2.31-2.73c1.29-.41,4.14-1.81,4.14-1.81l0-.78a22,22,0,0,1,2.76,0c.6.11.27,1-1.25,1.77s-5.69,2.26-6.33,2.77-.94,2.66-1.45,4.95S212,196.54,205,195.53Z" style="fill:#37474f"></path><path d="M217,205l5-2.87c.48-1.45-.29-2.18-1.65-2.09s-.94-1.23-1.77-1.6c-1.09-.5-1.71-.22-2.2-.45s-.7-.81-1.34-.88c-2.86-.27-4.81,3.81-4.81,3.81Z" style="fill:#f28f8f"></path><path d="M183.06,241.72S205.15,230.77,209,229s9.89-4.34,13.1-4.34a5.23,5.23,0,0,1,4.79,4.9,36.77,36.77,0,0,1-.33,5.77A135.87,135.87,0,0,1,208,240C198.81,241.6,183.06,241.72,183.06,241.72Z" style="fill:#37474f"></path><path d="M185.46,235.39c0,4.54-.43,9.26,1.46,12.58s12.13,11,21.77,9.39c6.3-1.06,25-9.67,25-9.67s9.07-3.33,9.11-5.7c.06-3.49-.18-8.41-8.09-8.2-7.21.19-28.48,4.63-28.48,4.63Z" style="fill:#455a64"></path><path d="M191.63,199.42c3.42-3.57,5.73-3.87,7.37-3.43a57.56,57.56,0,0,1,10.89,4.36h0s-1.32,12.78,4.93,16.46v19.92s-.19,2.16-2.91,4.31c-2.4,1.89-7.83,3.8-14.31,3.26-7.7-.64-12.14-8.91-12.14-8.91s-.2-16.29.89-22.76C187.63,205.08,190.45,200.66,191.63,199.42Z" style="fill:#455a64"></path><path d="M214.82,217.78s-3.78-3-4.93-6.9c0,0,.45,6.12,4.93,9.22Z" style="fill:#37474f"></path><path d="M249.81,227.18a7.81,7.81,0,0,0,5-1.55s1.74-3.38,3.88-3.09c0,0,.38-1.44-.5-1.91s-1.26-.34-1.62-.84-.4-1.43-2-1.43c-.66,0-.57-.47-2.17-.66s-3.18,3.5-4.35,3.5Z" style="fill:#ffa8a7"></path><path d="M209.89,200.35c5.49.85,7.48,2.48,9.48,4.33s14.24,14.13,14.24,14.13l14.82,2.13a5,5,0,0,1,1.64,2.44c.6,1.74.06,3.64-.51,4.09,0,0-14.7.88-17.59.33s-17.2-10.05-17.2-10.05a12.82,12.82,0,0,1-5-8.63C208.84,203.09,209.89,200.35,209.89,200.35Z" style="fill:#455a64"></path><path d="M196.71,253.17,174,280.89a6.33,6.33,0,0,1-.76.05,5.44,5.44,0,0,1-2.59-.61l-19.18-11.08-1.3-.75c-.71-.41-1.3-2.09-1.3-3.75v-4.67a27.33,27.33,0,0,1,13.66-23.67l22.9-13.22,24.37,14.07Z" style="fill:#ADE0F9"></path><g style="opacity:0.1"><path d="M196.71,253.17,174,280.89a6.33,6.33,0,0,1-.76.05,5.44,5.44,0,0,1-2.59-.61l-19.18-11.08-1.3-.75c-.71-.41-1.3-2.09-1.3-3.75v-4.67a27.33,27.33,0,0,1,13.66-23.67l22.9-13.22,24.37,14.07Z"></path></g><path d="M188.88,262.73l20.89-25.46L185.4,223.2l-22.89,13.21a27.28,27.28,0,0,0-7.7,6.65Z" style="fill:#ADE0F9"></path><path d="M209.77,257.71c0,1.66-.58,3.34-1.3,3.75l-1.3.75-31.36,18.11a5,5,0,0,1-1.84.57,6.33,6.33,0,0,1-.76.05v-6.79a27.32,27.32,0,0,1,13.67-23.67l2.59-1.49,20.3-11.73Z" style="fill:#ADE0F9"></path><g style="opacity:0.2"><path d="M209.77,257.71c0,1.66-.58,3.34-1.3,3.75l-1.3.75-31.36,18.11a5,5,0,0,1-1.84.57,6.33,6.33,0,0,1-.76.05v-6.79a27.32,27.32,0,0,1,13.67-23.67l2.59-1.49,20.3-11.73Z"></path></g><polygon points="216.5 292.01 228.77 291.97 246.33 281.83 246.33 281.83 229.13 294.26 216.18 294.44 216.5 292.01" style="fill:#e0e0e0"></polygon><path d="M186.71,309.47s22.12-8.34,24-9.32a48,48,0,0,0,6.26-4.57,2.66,2.66,0,0,0-.33-3.57s-9-.41-11.31.3c-1.29.39-22.11,7.07-22.11,7.07Z" style="fill:#e0e0e0"></path><path d="M185.72,300.15c-1.83-1.57-3.67-.92-4.12,1.44a8.35,8.35,0,0,0,2.51,7.13c1.83,1.57,3.67.93,4.12-1.44A8.36,8.36,0,0,0,185.72,300.15Z" style="fill:#455a64"></path></g></svg>