<svg xmlns="http://www.w3.org/2000/svg" viewBox="0 0 500 500"><g id="freepik--Floor--inject-3"><ellipse id="freepik--floor--inject-3" cx="250.76" cy="322.02" rx="242.11" ry="139.78" style="fill:#f5f5f5"></ellipse></g><g id="freepik--Shadows--inject-3"><path id="freepik--Shadow--inject-3" d="M252.77,368.5l-99.49,57.44a10.76,10.76,0,0,1-9.7,0L35,363.26c-2.68-1.55-2.68-4.05,0-5.6l99.51-57.45a10.7,10.7,0,0,1,9.7,0L252.77,362.9C255.44,364.45,255.44,367,252.77,368.5Z" style="fill:#e0e0e0"></path><path id="freepik--shadow--inject-3" d="M240.58,158.45,150.09,210.7c-1.92,1.1-1.92,2.89,0,4L360,336a11,11,0,0,0,7.32,1c39.85-10.91,71-29.5,91-52.18a3.2,3.2,0,0,0-.87-5L247.51,158.45A7.69,7.69,0,0,0,240.58,158.45Z" style="fill:#e0e0e0"></path></g><g id="freepik--Clouds--inject-3"><g id="freepik--clouds--inject-3"><path d="M81.71,74.57l-3.08,1.18V69c0-5.37-4.28-6.66-8.93-4h0c-4.65,2.68-8.43,9.22-8.43,14.59v1a4.5,4.5,0,0,0-3.9.6h0a13.42,13.42,0,0,0-6.07,10.5v.45L47,94.6a8.8,8.8,0,0,0-4,6.91c0,2.55,1.79,3.58,4,2.3l34.69-20a8.79,8.79,0,0,0,4-6.91C85.7,74.32,83.92,73.29,81.71,74.57Z" style="fill:#f0f0f0"></path><path d="M118.73,92.49l-5.57,3.22c0-.25,0-.5,0-.74V93.35c0-2.87-2-4-4.5-2.6A8.66,8.66,0,0,0,106,93.33c-.41-3.61-3.25-5-6.69-3A14.91,14.91,0,0,0,92.58,102v2.42a6.31,6.31,0,0,0,.57,2.8l-4.63,2.67A5.52,5.52,0,0,0,86,114.26c0,1.6,1.12,2.24,2.51,1.45l30.21-17.45a5.54,5.54,0,0,0,2.5-4.33C121.23,92.34,120.11,91.69,118.73,92.49Z" style="fill:#f0f0f0"></path></g></g><g id="freepik--food-truck--inject-3"><path d="M436.41,185.94v14.12c0,1.41.93,2.21,2.12,2.81s-1-16.26-1-16.26Z" style="fill:#e0e0e0"></path><path d="M437.53,186.61v13.54c0,2.63,1.52,3.88,3.79,2.56l1.75-1a9.07,9.07,0,0,0,4.12-7.13V181Z" style="fill:#ebebeb"></path><polygon points="447.19 181.04 446.06 180.36 436.4 185.94 437.53 186.61 447.19 181.04" style="fill:#fafafa"></polygon><path d="M431.53,215.24a.78.78,0,0,1-.68-.38.8.8,0,0,1,.26-1.1l8.95-5.57a3.2,3.2,0,0,0,1.5-2.72V191.39a.8.8,0,0,1,1.6,0v14.08a4.75,4.75,0,0,1-2.26,4.07L432,215.12A.79.79,0,0,1,431.53,215.24Z" style="fill:#ADE0F9"></path><path d="M431.53,215.24a.78.78,0,0,1-.68-.38.8.8,0,0,1,.26-1.1l8.95-5.57a3.2,3.2,0,0,0,1.5-2.72V191.39a.8.8,0,0,1,1.6,0v14.08a4.75,4.75,0,0,1-2.26,4.07L432,215.12A.79.79,0,0,1,431.53,215.24Z" style="opacity:0.5"></path><path d="M180.08,205.76l16.26-7.5s-1.62-10.63-10.85-8.11S180.08,205.76,180.08,205.76Z" style="fill:#ADE0F9"></path><path d="M180.08,205.76l16.26-7.5s-1.62-10.63-10.85-8.11S180.08,205.76,180.08,205.76Z" style="opacity:0.5"></path><path d="M315.46,284l16.24-7.5s-1.27-15.28-12-11.63S315.46,284,315.46,284Z" style="fill:#ADE0F9"></path><path d="M315.46,284l16.24-7.5s-1.27-15.28-12-11.63S315.46,284,315.46,284Z" style="opacity:0.5"></path><path d="M189,203.92,185.53,197l8.31-4.82h0c2.65-1.52,6.17-1.34,10,.89,8.22,4.74,14.87,17,14.87,27.31,0,5.42-1.82,9.25-4.74,11h0l-.12.07h0l-8.53,4.92L201.66,229C194.68,223.68,189.29,213.14,189,203.92Z" style="fill:#263238"></path><path d="M180.35,208.19c0,8.92,5,19.24,11.58,24.95l0,0a22,22,0,0,0,3.26,2.33c8.22,4.75,14.88.2,14.87-10.14,0-7.82-3.8-16.71-9.2-22.64l0,0a24.17,24.17,0,0,0-5.63-4.64C187,193.3,180.35,197.84,180.35,208.19Z" style="fill:#37474f"></path><path d="M195.22,204.29c-5.22-3-9.46.12-9.46,7s4.24,14.93,9.46,17.95,9.46-.13,9.46-7S200.45,207.3,195.22,204.29Z" style="fill:#455a64"></path><path d="M180.35,208.19c0,8.92,5,19.24,11.58,24.95a42.26,42.26,0,0,1-9.43-18.25c-1.26-6-.78-14.52,4.34-16.69s11.87,2.4,14,4.48a24.17,24.17,0,0,0-5.63-4.64C187,193.3,180.35,197.84,180.35,208.19Z" style="fill:#455a64"></path><path d="M195.22,210.29c-2.71-1.56-4.91.07-4.91,3.65s2.2,7.75,4.91,9.31,4.91-.06,4.91-3.64S197.93,211.86,195.22,210.29Z" style="fill:#e0e0e0"></path><path d="M193.66,210.23a4,4,0,0,0-1.08-.44c-1.37.37-2.27,1.86-2.27,4.15a12.42,12.42,0,0,0,2.76,7.41,5.46,5.46,0,0,0,.59.39c2.4,1.4,4.36-.05,4.36-3.23S196.06,211.62,193.66,210.23Z" style="fill:#f5f5f5"></path><path d="M324.39,282l-3.49-6.94,8.31-4.81h0c2.64-1.52,6.17-1.35,10,.88,8.22,4.74,14.87,17,14.87,27.32,0,5.42-1.82,9.24-4.74,11h0l-.12.06h0l-8.53,4.93L337,307.14C330.05,301.8,324.66,291.27,324.39,282Z" style="fill:#263238"></path><path d="M315.72,286.31c0,8.92,4.95,19.24,11.58,24.95l0,0a22,22,0,0,0,3.27,2.35c8.21,4.74,14.88.2,14.87-10.15,0-7.81-3.8-16.71-9.2-22.63l0-.05a23.87,23.87,0,0,0-5.63-4.63C322.38,271.43,315.72,276,315.72,286.31Z" style="fill:#37474f"></path><path d="M330.59,282.41c-5.22-3-9.46.13-9.46,7s4.24,14.94,9.46,18,9.46-.13,9.46-7S335.82,285.43,330.59,282.41Z" style="fill:#455a64"></path><path d="M330.59,288.42c-2.71-1.57-4.91.06-4.91,3.64s2.2,7.75,4.91,9.32,4.91-.07,4.91-3.65S333.3,290,330.59,288.42Z" style="fill:#e0e0e0"></path><path d="M329,288.35a4.26,4.26,0,0,0-1.08-.43c-1.37.36-2.27,1.85-2.27,4.14a12.4,12.4,0,0,0,2.76,7.41,5.57,5.57,0,0,0,.59.4c2.4,1.39,4.36-.06,4.36-3.24S331.43,289.75,329,288.35Z" style="fill:#f5f5f5"></path><path d="M315.72,286.31c0,8.92,4.95,19.24,11.58,24.95A42.2,42.2,0,0,1,317.87,293c-1.26-6-.78-14.52,4.33-16.68s11.88,2.39,14,4.47a23.87,23.87,0,0,0-5.63-4.63C322.38,271.43,315.72,276,315.72,286.31Z" style="fill:#455a64"></path><path d="M378.69,313.76a3.69,3.69,0,0,1-5.55,3.47l-16.64-9.61L351,304.44a1.34,1.34,0,0,0,.07-.52,2.56,2.56,0,0,0,.08-.81c0-11.39-8-25.22-17.9-30.92s-17.82-1.11-17.82,10.28V284l-99.8-57.63a3.17,3.17,0,0,0,.07-.81c0-11.39-8-25.22-17.82-30.91s-17.83-1.11-17.83,10.28v.88l-14-8.06V86.25l155.28,89.64,26.53,19.54L360,253.93l15.53,22.81,1.84,22.74Z" style="fill:#ADE0F9"></path><path d="M378.69,313.76a3.69,3.69,0,0,1-5.55,3.47l-16.64-9.61L351,304.44a1.34,1.34,0,0,0,.07-.52,2.56,2.56,0,0,0,.08-.81c0-11.39-8-25.22-17.9-30.92s-17.82-1.11-17.82,10.28V284l-99.8-57.63a3.17,3.17,0,0,0,.07-.81c0-11.39-8-25.22-17.82-30.91s-17.83-1.11-17.83,10.28v.88l-14-8.06V86.25l155.28,89.64,26.53,19.54L360,253.93l15.53,22.81,1.84,22.74Z" style="opacity:0.15"></path><path d="M333.31,197.27v36c0,1.33-.93,1.87-2.07,1.2l-29.91-17.26a4.58,4.58,0,0,1-2.08-3.59V175.73c0-1.33.93-1.86,2.08-1.2l18,10.38c1.15.67,2.94,1.84,4,2.62l8.06,5.93A5.3,5.3,0,0,1,333.31,197.27Z" style="fill:#455a64"></path><path d="M342.92,241.25a7.65,7.65,0,0,1-3.46-6V203.36c0-2.2.82-3.38,1.83-2.62l1.82,1.37a8.25,8.25,0,0,1,2.75,4.39l7.38,38.28c.29,1.51-.55,2.11-1.88,1.34Z" style="fill:#455a64"></path><g style="opacity:0.15"><path d="M312.58,278.7a2,2,0,0,1-1-.29l-14.06-8.12A4.2,4.2,0,0,1,295.6,267V169.7a1.45,1.45,0,0,1,2.33-1.34l21.43,12.37c1,.56,2.49,1.55,3.39,2.2l12.08,8.81a4.77,4.77,0,0,1,1.78,3.49v73.6a1.52,1.52,0,0,1-.66,1.41,1.58,1.58,0,0,1-1.62-.14c-2.82-1.62-8.31-4-13.29-2-4.82,1.94-6.37,6.53-6.87,9.1a1.88,1.88,0,0,1-1,1.41A1.42,1.42,0,0,1,312.58,278.7ZM297,168.87a.51.51,0,0,0-.25.06.85.85,0,0,0-.31.77V267a3.44,3.44,0,0,0,1.53,2.65L312,277.72a1,1,0,0,0,.86.12,1.06,1.06,0,0,0,.53-.83c.53-2.73,2.19-7.62,7.37-9.69s11,.4,14,2.09c.34.19.64.25.82.14a.81.81,0,0,0,.27-.72v-73.6a4,4,0,0,0-1.46-2.85l-12.08-8.8c-.89-.64-2.37-1.61-3.32-2.16l-21.43-12.37A1.17,1.17,0,0,0,297,168.87Z"></path></g><path d="M284.53,164.83,180.83,105c-1-.55-1.73-.1-1.73,1v58.9a3.8,3.8,0,0,0,1.73,3l103.7,59.88c1,.55,1.73.1,1.73-1v-58.9A3.82,3.82,0,0,0,284.53,164.83Z" style="fill:#37474f"></path><polygon points="286.26 224.98 179.1 163.11 169.36 168.73 276.52 230.6 286.26 224.98" style="fill:#f5f5f5"></polygon><polygon points="169.36 168.73 169.36 172.48 276.52 234.35 276.52 230.6 169.36 168.73" style="fill:#ebebeb"></polygon><polygon points="276.52 234.35 286.26 228.73 286.26 224.98 276.52 230.6 276.52 234.35" style="fill:#e0e0e0"></polygon><polygon points="286.26 177.08 286.26 165.83 263.53 190.2 286.26 177.08" style="fill:#e0e0e0"></polygon><path d="M156.36,134a10.73,10.73,0,0,0,4.85,8.4l0,0c2.68,1.54,4.85.29,4.85-2.8V134l-9.75-5.63Z" style="fill:#e6e6e6"></path><path d="M175.85,145.23a10.74,10.74,0,0,0,4.84,8.4l.05,0c2.68,1.54,4.85.29,4.85-2.8v-5.65l-9.74-5.63Z" style="fill:#e6e6e6"></path><path d="M195.33,156.48a10.73,10.73,0,0,0,4.85,8.4l0,0c2.67,1.54,4.84.29,4.84-2.8v-5.66l-9.74-5.62Z" style="fill:#e6e6e6"></path><path d="M214.81,167.73a10.73,10.73,0,0,0,4.85,8.4l.05,0c2.68,1.55,4.85.3,4.85-2.79V167.7l-9.75-5.62Z" style="fill:#e6e6e6"></path><path d="M234.3,179a10.74,10.74,0,0,0,4.84,8.4l.05,0c2.68,1.55,4.85.3,4.85-2.79V179l-9.74-5.62Z" style="fill:#e6e6e6"></path><path d="M253.78,190.23a10.69,10.69,0,0,0,4.85,8.39l.05,0c2.68,1.55,4.85.3,4.85-2.8V190.2l-9.75-5.62Z" style="fill:#e6e6e6"></path><path d="M166.11,139.61A10.68,10.68,0,0,0,171,148l.05,0c2.68,1.55,4.85.29,4.85-2.8v-5.65L166.1,134Z" style="fill:#ADE0F9"></path><path d="M185.59,150.86a10.69,10.69,0,0,0,4.85,8.39l0,0c2.68,1.55,4.85.29,4.85-2.8v-5.65l-9.74-5.63Z" style="fill:#ADE0F9"></path><path d="M205.07,162.11a10.69,10.69,0,0,0,4.85,8.39l.05,0c2.68,1.55,4.84.29,4.84-2.8v-5.65l-9.74-5.63Z" style="fill:#ADE0F9"></path><path d="M224.56,173.36a10.71,10.71,0,0,0,4.84,8.39l0,0c2.68,1.54,4.85.29,4.85-2.8v-5.65l-9.74-5.63Z" style="fill:#ADE0F9"></path><path d="M244,184.61a10.71,10.71,0,0,0,4.85,8.39l.05,0c2.67,1.54,4.84.29,4.84-2.8v-5.65L244,179Z" style="fill:#ADE0F9"></path><g style="opacity:0.30000000000000004"><path d="M166.11,139.61A10.68,10.68,0,0,0,171,148l.05,0c2.68,1.55,4.85.29,4.85-2.8v-5.65L166.1,134Z"></path><path d="M185.59,150.86a10.69,10.69,0,0,0,4.85,8.39l0,0c2.68,1.55,4.85.29,4.85-2.8v-5.65l-9.74-5.63Z"></path><path d="M205.07,162.11a10.69,10.69,0,0,0,4.85,8.39l.05,0c2.68,1.55,4.84.29,4.84-2.8v-5.65l-9.74-5.63Z"></path><path d="M224.56,173.36a10.71,10.71,0,0,0,4.84,8.39l0,0c2.68,1.54,4.85.29,4.85-2.8v-5.65l-9.74-5.63Z"></path><path d="M244,184.61a10.71,10.71,0,0,0,4.85,8.39l.05,0c2.67,1.54,4.84.29,4.84-2.8v-5.65L244,179Z"></path></g><polygon points="263.53 190.2 156.36 128.33 179.1 103.96 286.26 165.83 263.53 190.2" style="fill:#fafafa"></polygon><polygon points="253.78 184.58 276.52 160.21 266.78 154.58 244.04 178.95 253.78 184.58" style="fill:#ADE0F9"></polygon><polygon points="234.3 173.33 257.04 148.96 247.29 143.33 224.56 167.7 234.3 173.33" style="fill:#ADE0F9"></polygon><polygon points="214.82 162.08 237.55 137.71 227.81 132.08 205.07 156.45 214.82 162.08" style="fill:#ADE0F9"></polygon><polygon points="195.34 150.83 218.07 126.46 208.33 120.84 185.59 145.21 195.34 150.83" style="fill:#ADE0F9"></polygon><polygon points="175.85 139.58 198.59 115.21 188.84 109.59 166.11 133.96 175.85 139.58" style="fill:#ADE0F9"></polygon><path d="M338.22,234.06v14.12c0,1.41.93,2.21,2.12,2.81s-1-16.26-1-16.26Z" style="fill:#e0e0e0"></path><path d="M339.34,234.73v13.54c0,2.63,1.52,3.88,3.8,2.56l1.75-1a9.09,9.09,0,0,0,4.11-7.13V229.16Z" style="fill:#ebebeb"></path><polygon points="349 229.16 347.87 228.48 338.22 234.06 339.34 234.73 349 229.16" style="fill:#fafafa"></polygon><path d="M346.37,255a3,3,0,0,1-1.5-.41,3,3,0,0,1-1.5-2.6V239.51a.8.8,0,0,1,1.6,0V252a1.41,1.41,0,0,0,2.1,1.22l6.35-3.67a.8.8,0,1,1,.8,1.39l-6.35,3.66A3,3,0,0,1,346.37,255Z" style="fill:#ADE0F9"></path><path d="M346.37,255a3,3,0,0,1-1.5-.41,3,3,0,0,1-1.5-2.6V239.51a.8.8,0,0,1,1.6,0V252a1.41,1.41,0,0,0,2.1,1.22l6.35-3.67a.8.8,0,1,1,.8,1.39l-6.35,3.66A3,3,0,0,1,346.37,255Z" style="opacity:0.5"></path><path d="M455.57,266.85s-11.09,15.34-35.27,29.79c-20.08,12-42,14.81-42,14.81l-2.86-34.71,77.24-44.6Z" style="fill:#ADE0F9"></path><path d="M455.57,266.85s-11.09,15.34-35.27,29.79c-20.08,12-42,14.81-42,14.81l-2.86-34.71,77.24-44.6Z" style="opacity:0.30000000000000004"></path><path d="M452.72,232.14s-11.1,15.34-35.28,29.79c-20.07,12-42,14.81-42,14.81L360,253.93l77.23-44.59Z" style="fill:#ADE0F9"></path><path d="M457,261.74c-.14-.14-.27-.12-.41.13,0,0-11.09,15.32-35.28,29.78-20.07,12-41.95,14.81-41.95,14.81-9.39.86-20.88-9-20.88-9l1.58-1.16s10.9,8.26,16.44,8.26c4.77,0,21.84-2.17,45-15.25s33.63-29,33.63-29A2.43,2.43,0,0,1,457,261.74Z" style="fill:#37474f"></path><path d="M456.54,261.86s-11.09,15.34-35.28,29.79c-20.07,12-41.95,14.81-41.95,14.81-9.39.85-20.88-9-20.88-9h0v13.24s11.49,9.9,20.88,9.05c0,0,21.88-2.81,41.95-14.81,24.19-14.45,35.28-29.79,35.28-29.79C458.45,271.83,457.66,259.9,456.54,261.86Z" style="fill:#455a64"></path><path d="M385.71,283.68a5.65,5.65,0,0,1,7,5.22,7.67,7.67,0,0,1-5.65,8.18,5.63,5.63,0,0,1-7-5.22A7.84,7.84,0,0,1,385.71,283.68Z" style="fill:#fff"></path><path d="M447.16,248.51c-2.1,2.09-3.44,6.58-3,10s2.4,4.53,4.39,2.43,3.33-6.6,3-10S449.26,246.42,447.16,248.51Z" style="fill:#fff"></path><path d="M398.59,279.15a90.17,90.17,0,0,0,19.1-8.56c.95-.55,1.71-.12,1.71,1V273a3.86,3.86,0,0,1-1.71,3,90.63,90.63,0,0,1-19.1,8.55,1.42,1.42,0,0,1-1.92-1.45v-1.4A2.81,2.81,0,0,1,398.59,279.15Z" style="fill:#37474f"></path><path d="M440.17,256.46v1.39a4.83,4.83,0,0,1-1.53,3.29,161.69,161.69,0,0,1-14.32,10.72c-.92.61-1.67.19-1.67-.91v-1.4a4.14,4.14,0,0,1,1.67-3.09,163.67,163.67,0,0,0,14.32-10.71C439.49,255,440.17,255.35,440.17,256.46Z" style="fill:#37474f"></path><path d="M398.59,289a90.17,90.17,0,0,0,19.1-8.56c.95-.55,1.71-.12,1.71,1v1.4a3.85,3.85,0,0,1-1.71,3,91.19,91.19,0,0,1-19.1,8.56,1.43,1.43,0,0,1-1.92-1.46v-1.4A2.81,2.81,0,0,1,398.59,289Z" style="fill:#37474f"></path><path d="M440.17,266.26v1.4a4.82,4.82,0,0,1-1.53,3.28,161.69,161.69,0,0,1-14.32,10.72c-.92.61-1.67.19-1.67-.91v-1.4a4.14,4.14,0,0,1,1.67-3.09,163.67,163.67,0,0,0,14.32-10.71C439.49,264.84,440.17,265.15,440.17,266.26Z" style="fill:#37474f"></path><path d="M401.47,239.87a258.72,258.72,0,0,1-31.84,14.5,1.51,1.51,0,0,0-.76,2.36l.06.08a3.17,3.17,0,0,0,3.07,1.27c4.7-1,17.38-4.32,33.14-12.79a1.79,1.79,0,0,0,.63-2.62l-1.43-2.12A2.23,2.23,0,0,0,401.47,239.87Z" style="opacity:0.15"></path><path d="M434.45,217a191.55,191.55,0,0,1-26.27,19,1.86,1.86,0,0,0-.6,2.67l1.45,2.14a2.15,2.15,0,0,0,2.84.63c14.3-8.61,21.94-16.19,25.44-20.31a2.83,2.83,0,0,0,.14-3.21l-.39-.59A1.71,1.71,0,0,0,434.45,217Z" style="opacity:0.15"></path><path d="M437.25,209.33s-12.76,12.84-33.8,25.08A253.34,253.34,0,0,1,360,253.92l-12.08-58.51,48.27-27.86,22.2-12.81,6.77-3.92Z" style="fill:#455a64"></path><path d="M425.17,150.82l-6.77,3.92-22.2,12.81-48.27,27.86L360,253.92a253.34,253.34,0,0,0,43.44-19.51c21-12.24,33.8-25.08,33.8-25.08ZM397.58,235A257.81,257.81,0,0,1,364,250a2,2,0,0,1-2.71-1.52l-7.42-37a3.51,3.51,0,0,1,1.57-3.52l31.32-18.09A1.69,1.69,0,0,1,389.4,191l9.7,40.52A3.27,3.27,0,0,1,397.58,235Zm6.21-3.45a1.66,1.66,0,0,1-2.6-1.12l-9.64-40.51a3.41,3.41,0,0,1,1.52-3.52L399,183l24.17-14,1.07-.62a1.62,1.62,0,0,1,2.54,1.14l7.38,36.71a4.62,4.62,0,0,1-1.28,3.92A194.07,194.07,0,0,1,403.79,231.53Z" style="fill:#ADE0F9"></path><path d="M425.17,150.82l-6.77,3.92-22.2,12.81-48.27,27.86L360,253.92a253.34,253.34,0,0,0,43.44-19.51c21-12.24,33.8-25.08,33.8-25.08ZM397.58,235A257.81,257.81,0,0,1,364,250a2,2,0,0,1-2.71-1.52l-7.42-37a3.51,3.51,0,0,1,1.57-3.52l31.32-18.09A1.69,1.69,0,0,1,389.4,191l9.7,40.52A3.27,3.27,0,0,1,397.58,235Zm6.21-3.45a1.66,1.66,0,0,1-2.6-1.12l-9.64-40.51a3.41,3.41,0,0,1,1.52-3.52L399,183l24.17-14,1.07-.62a1.62,1.62,0,0,1,2.54,1.14l7.38,36.71a4.62,4.62,0,0,1-1.28,3.92A194.07,194.07,0,0,1,403.79,231.53Z" style="opacity:0.30000000000000004"></path><path d="M354.34,204.87,424,164.62a2.74,2.74,0,0,0,1.23-2.73L424,155.6a1.24,1.24,0,0,0-2-.88L352.34,195a2.74,2.74,0,0,0-1.23,2.73l1.26,6.28A1.25,1.25,0,0,0,354.34,204.87Z" style="fill:#455a64"></path><path d="M399.11,231.53a3.27,3.27,0,0,1-1.53,3.44A256.79,256.79,0,0,1,364,250a2,2,0,0,1-2.71-1.52l-.49-2.44c6.77-4.93,23.22-16.67,35.84-24l.15-.09Z" style="fill:#37474f"></path><path d="M433.48,209.45a3.27,3.27,0,0,1-.58.69,193.06,193.06,0,0,1-29.12,21.39,1.65,1.65,0,0,1-2.59-1.12l-2.28-9.6a219,219,0,0,1,30.62-13.95Z" style="fill:#37474f"></path><path d="M428.61,201.51l-8.44-4.87a7.65,7.65,0,0,1-3.46-6V172.73l6.48-3.74,1.07-.62.09-.05,6.14,31.86C430.78,201.68,429.94,202.28,428.61,201.51Z" style="fill:#fff;opacity:0.1"></path><path d="M410.56,176.29V188.7c0,1.32-.92,1.86-2.08,1.19l-10.73-6.19L399,183Z" style="fill:#fff;opacity:0.1"></path><polygon points="398.63 131.31 398.62 131.31 243.35 41.67 166.11 86.25 321.39 175.89 347.93 195.4 425.17 150.81 398.63 131.31" style="fill:#ADE0F9"></polygon><path d="M383.45,123.62c-15.34-8.86-40.22-8.86-55.57,0-7.66,4.42-11.47,10.21-11.47,16,0,1.26,0,6.21,0,7.45,0,5.81,3.79,11.62,11.47,16.06,15.35,8.86,40.23,8.86,55.57,0,7.66-4.43,11.47-10.22,11.48-16v-7.46C394.93,133.85,391.12,128.05,383.45,123.62Z" style="fill:#ffbda7"></path><ellipse cx="355.67" cy="139.66" rx="39.3" ry="22.69" style="fill:#f0997a"></ellipse><path d="M383.45,114.29c-15.34-8.86-40.22-8.86-55.57,0-7.66,4.42-11.47,10.21-11.47,16,0,1.26,0,6.21,0,7.44,0,5.82,3.79,11.63,11.47,16.06,15.35,8.86,40.23,8.86,55.57,0,7.66-4.42,11.47-10.21,11.48-16v-7.47C394.93,124.52,391.12,118.72,383.45,114.29Z" style="fill:#b16668"></path><ellipse cx="355.67" cy="130.33" rx="39.3" ry="22.69" style="fill:#9a4a4d"></ellipse><path d="M383.52,122H327.81c-6.2,9.06-6.19,23.49-6.2,26.32s.34,4.62,5,3.61,17.08-3.5,29.1-3.5,24.47,2.48,29.09,3.5,5-.78,5-3.61S389.72,131.05,383.52,122Z" style="fill:#f0f0f0"></path><path d="M323,142.22a9.13,9.13,0,0,0,5.46,4.19c2.22.56,4.55.35,6.82.69,4.66.7,7.8,3.88,12,5.57a12.67,12.67,0,0,0,5.58.88,20.25,20.25,0,0,0,6.15-1.61c3.15-1.26,6.18-2.84,9.42-3.81a17.25,17.25,0,0,1,7.87-.68,10.55,10.55,0,0,0,6.5-.66c3.87-1.83,5.19-6.84,8.7-9.29,2.77-1.94,6.85-2.28,8.48-5.24,1.17-2.12.48-4.9-1.1-6.74a14.09,14.09,0,0,0-6.13-3.74,56.24,56.24,0,0,0-13.22-2.69c-10.11-1-20.26-1.64-30.41-1.9s-19.75-.59-29.46,2.52a17.85,17.85,0,0,0-6.19,3.06,7.42,7.42,0,0,0-2.81,6.07c.21,2.17,2.2,3.91,3.92,5.08,1.18.81,2.55,1.34,3.69,2.22C320.4,137.8,321.56,140.15,323,142.22Z" style="fill:#ADE0F9"></path><path d="M323,142.22a9.13,9.13,0,0,0,5.46,4.19c2.22.56,4.55.35,6.82.69,4.66.7,7.8,3.88,12,5.57a12.67,12.67,0,0,0,5.58.88,20.25,20.25,0,0,0,6.15-1.61c3.15-1.26,6.18-2.84,9.42-3.81a17.25,17.25,0,0,1,7.87-.68,10.55,10.55,0,0,0,6.5-.66c3.87-1.83,5.19-6.84,8.7-9.29,2.77-1.94,6.85-2.28,8.48-5.24,1.17-2.12.48-4.9-1.1-6.74a14.09,14.09,0,0,0-6.13-3.74,56.24,56.24,0,0,0-13.22-2.69c-10.11-1-20.26-1.64-30.41-1.9s-19.75-.59-29.46,2.52a17.85,17.85,0,0,0-6.19,3.06,7.42,7.42,0,0,0-2.81,6.07c.21,2.17,2.2,3.91,3.92,5.08,1.18.81,2.55,1.34,3.69,2.22C320.4,137.8,321.56,140.15,323,142.22Z" style="fill:#fff;opacity:0.4"></path><path d="M396.24,118.43l-.09-.32c-3.59-13.72-20.35-24-40.47-24s-36.91,10.33-40.5,24l-.08.32a13.83,13.83,0,0,0-.64,4.65c.18,6,4.19,11.88,12.06,16.39,16.1,9.3,42.19,9.3,58.29,0,7.84-4.51,11.89-10.42,12.06-16.39A13.57,13.57,0,0,0,396.24,118.43Z" style="fill:#ffbda7"></path><path d="M387.93,132.41c-10.27,7.83-36.54,10.41-53,2.11S317.76,112.17,323,105.64a26.45,26.45,0,0,0-7.81,12.47l-.08.32a13.83,13.83,0,0,0-.64,4.65c.18,6,4.19,11.88,12.06,16.39,16.1,9.3,42.19,9.3,58.29,0,7.84-4.51,11.89-10.42,12.06-16.39a13.57,13.57,0,0,0-.63-4.65S396.88,125.59,387.93,132.41Z" style="fill:#f0997a"></path><g style="opacity:0.7000000000000001"><path d="M387.76,127.22a1.58,1.58,0,1,1,2.55,1.86,1.58,1.58,0,1,1-2.55-1.86Z" style="fill:#fff"></path><path d="M390.12,113a1.58,1.58,0,1,1,.35,2.2A1.57,1.57,0,0,1,390.12,113Z" style="fill:#fff"></path><path d="M375,133.86a1.58,1.58,0,1,1,.35,2.21A1.59,1.59,0,0,1,375,133.86Z" style="fill:#fff"></path><path d="M377.32,119.64a1.58,1.58,0,1,1,.35,2.21A1.58,1.58,0,0,1,377.32,119.64Z" style="fill:#fff"></path><path d="M366.89,112.06a1.58,1.58,0,1,1,.35,2.21A1.58,1.58,0,0,1,366.89,112.06Z" style="fill:#fff"></path><path d="M379.69,105.42a1.58,1.58,0,1,1,.35,2.2A1.56,1.56,0,0,1,379.69,105.42Z" style="fill:#fff"></path><path d="M369.25,97.84a1.58,1.58,0,1,1,.35,2.2A1.57,1.57,0,0,1,369.25,97.84Z" style="fill:#fff"></path><path d="M362.16,140.5a1.58,1.58,0,1,1,.35,2.21A1.59,1.59,0,0,1,362.16,140.5Z" style="fill:#fff"></path><path d="M351.73,132.92a1.58,1.58,0,0,1,2.56,1.86,1.58,1.58,0,1,1-2.56-1.86Z" style="fill:#fff"></path><path d="M364.53,126.28a1.58,1.58,0,1,1,.35,2.21A1.58,1.58,0,0,1,364.53,126.28Z" style="fill:#fff"></path><path d="M354.09,118.7a1.58,1.58,0,1,1,.35,2.21A1.59,1.59,0,0,1,354.09,118.7Z" style="fill:#fff"></path><path d="M338.93,139.57a1.58,1.58,0,1,1,.35,2.2A1.57,1.57,0,0,1,338.93,139.57Z" style="fill:#fff"></path><path d="M356.46,104.48a1.58,1.58,0,1,1,.35,2.21A1.57,1.57,0,0,1,356.46,104.48Z" style="fill:#fff"></path><path d="M346,96.9a1.58,1.58,0,1,1,.35,2.21A1.58,1.58,0,0,1,346,96.9Z" style="fill:#fff"></path><path d="M341.3,125.34a1.58,1.58,0,1,1,2.55,1.86,1.58,1.58,0,1,1-2.55-1.86Z" style="fill:#fff"></path><path d="M330.86,117.76a1.58,1.58,0,1,1,.35,2.21A1.58,1.58,0,0,1,330.86,117.76Z" style="fill:#fff"></path><path d="M343.66,111.12a1.58,1.58,0,1,1,.35,2.21A1.59,1.59,0,0,1,343.66,111.12Z" style="fill:#fff"></path><path d="M333.23,103.54a1.58,1.58,0,1,1,2.55,1.86,1.58,1.58,0,1,1-2.55-1.86Z" style="fill:#fff"></path><path d="M328.5,132a1.57,1.57,0,0,1,2.21-.35,1.58,1.58,0,1,1-1.86,2.55A1.57,1.57,0,0,1,328.5,132Z" style="fill:#fff"></path><path d="M318.07,124.41a1.57,1.57,0,0,1,2.21-.35,1.58,1.58,0,1,1-2.21.35Z" style="fill:#fff"></path><path d="M320.43,110.18a1.58,1.58,0,1,1,.35,2.21A1.58,1.58,0,0,1,320.43,110.18Z" style="fill:#fff"></path></g><path d="M310.1,95.25,237.22,53.17a2.62,2.62,0,0,0-2.63-.26c-.68.39-6.31,3.65-7,4a2.64,2.64,0,0,0-1.09,2.42V87.05a8.24,8.24,0,0,0,3.73,6.45l72.87,42.07a2.59,2.59,0,0,0,2.63.26l7-4a2.62,2.62,0,0,0,1.1-2.42V101.7A8.24,8.24,0,0,0,310.1,95.25Z" style="fill:#e0e0e0"></path><path d="M312.73,98l-7,4a7.51,7.51,0,0,0-2.63-2.78L230.24,57.2a2.72,2.72,0,0,0-2.55-.3l6.9-4a2.64,2.64,0,0,1,2.63.26L310.1,95.25A7.64,7.64,0,0,1,312.73,98Z" style="fill:#fafafa"></path><path d="M226.51,87.05V59.36a2.27,2.27,0,0,1,3.73-2.15l72.87,42.07a8.22,8.22,0,0,1,3.73,6.45v27.69c0,2.38-1.67,3.34-3.73,2.15L230.24,93.5A8.24,8.24,0,0,1,226.51,87.05Z" style="fill:#f0f0f0"></path><path d="M232.72,86.58a2.45,2.45,0,0,1-.18-1V66.87a1.16,1.16,0,0,1,.18-.78c.12-.12.3-.11.55,0l3.49,2a8,8,0,0,1,4.11,7.45c0,2.25-.59,3.57-1.76,4l0,.13a7.11,7.11,0,0,1,1.56,2.65,10.66,10.66,0,0,1,.57,3.55c0,1.78-.38,3-1.12,3.65s-1.86.56-3.32-.28l-3.55-2.06A1.28,1.28,0,0,1,232.72,86.58Zm4.06-9.85q.63.36.93-.09a3.43,3.43,0,0,0,.31-1.76,5.73,5.73,0,0,0-.29-2,2.07,2.07,0,0,0-.91-1.08l-1.38-.8v5Zm.14,8.92c.48.28.84.27,1.07,0a3.44,3.44,0,0,0,.34-1.87,5.71,5.71,0,0,0-.33-2.17,2.47,2.47,0,0,0-1.08-1.2l-1.48-.86v5.26Z" style="fill:#455a64"></path><path d="M244.21,92.06A11.7,11.7,0,0,1,243,86.61v-14c0-.64.38-.75,1.13-.31l.78.45A1.9,1.9,0,0,1,246,74.38V88.07a5.6,5.6,0,0,0,.45,2.26,3.06,3.06,0,0,0,1.21,1.47.88.88,0,0,0,1.2-.09,2.57,2.57,0,0,0,.46-1.72V76.3c0-.65.38-.75,1.13-.31l.77.44a1.88,1.88,0,0,1,1.13,1.62V92c0,2-.41,3.36-1.24,4s-2,.55-3.45-.3A8.86,8.86,0,0,1,244.21,92.06Z" style="fill:#455a64"></path><path d="M254.41,99.45V79.53a1.16,1.16,0,0,1,.19-.81c.12-.12.32-.1.59.06l3.27,1.88a7.65,7.65,0,0,1,2.89,3,10.8,10.8,0,0,1,1.1,5.19q0,3.52-1.86,4V93a6.37,6.37,0,0,1,.78,1.65,14.48,14.48,0,0,1,.53,2.11l1.15,6.44.06.4c0,.54-.4.58-1.21.11l-.69-.39a2.13,2.13,0,0,1-1.17-1.49l-1-6.32a4.27,4.27,0,0,0-.4-1.16,1.73,1.73,0,0,0-.71-.68l-.47-.27v6.8c0,.64-.39.73-1.17.28l-.67-.38Zm4.11-9.79c.28.17.53.09.73-.23a3.64,3.64,0,0,0,.3-1.76,5.62,5.62,0,0,0-.3-2,2,2,0,0,0-.79-1.05l-1-.59v5Z" style="fill:#455a64"></path><path d="M273,98.08a2.64,2.64,0,0,1,.17,1v9a.85.85,0,0,1-.59.9,2.63,2.63,0,0,1-1.48,0,6.09,6.09,0,0,1-1.68-.67,9.33,9.33,0,0,1-4-5,25.42,25.42,0,0,1-1.3-9q0-5.42,1.3-7.3c.88-1.26,2.23-1.36,4.07-.3a8.67,8.67,0,0,1,1.7,1.29,9.22,9.22,0,0,1,1.33,1.58A2.61,2.61,0,0,1,273,91a2.64,2.64,0,0,1-.21.93,2.77,2.77,0,0,1-.5.87c-.19.22-.37.28-.52.19a2.37,2.37,0,0,1-.41-.46,9.44,9.44,0,0,0-.75-.82,4.92,4.92,0,0,0-1-.73,1.14,1.14,0,0,0-1.84.56,12.86,12.86,0,0,0-.59,4.72,20.32,20.32,0,0,0,.56,5.51,4.07,4.07,0,0,0,1.65,2.48,3,3,0,0,0,.8.34v-4.4l-1-.57a1,1,0,0,1-.43-.61,4,4,0,0,1-.14-1.22v-1a2.6,2.6,0,0,1,.14-1.07c.09-.19.23-.22.43-.11l3.22,1.86A1.28,1.28,0,0,1,273,98.08Z" style="fill:#455a64"></path><path d="M275.46,111.26a2.45,2.45,0,0,1-.18-1V91.58a1.22,1.22,0,0,1,.18-.81c.12-.13.3-.12.55,0l5.76,3.32a1,1,0,0,1,.43.61,4.37,4.37,0,0,1,.14,1.23v.93A2.73,2.73,0,0,1,282.2,98c-.09.19-.23.23-.43.12l-3.44-2v4.36l3.05,1.76a1,1,0,0,1,.43.61A4.34,4.34,0,0,1,282,104V105a2.76,2.76,0,0,1-.14,1.06c-.09.19-.23.23-.43.11l-3.05-1.76v4.88l3.46,2a.92.92,0,0,1,.42.6,4.35,4.35,0,0,1,.13,1.22V114a2.88,2.88,0,0,1-.13,1.07q-.12.28-.42.12L276,111.86A1.28,1.28,0,0,1,275.46,111.26Z" style="fill:#455a64"></path><path d="M284.16,116.62V96.7a1.22,1.22,0,0,1,.18-.81c.13-.12.32-.1.6.06l3.26,1.89a7.51,7.51,0,0,1,2.89,3,10.74,10.74,0,0,1,1.1,5.19c0,2.34-.62,3.68-1.86,4v.12a6.21,6.21,0,0,1,.78,1.65,13.58,13.58,0,0,1,.53,2.11l1.15,6.45.06.39c0,.54-.4.58-1.21.12l-.68-.4a2.17,2.17,0,0,1-1.18-1.49l-1-6.31a4.74,4.74,0,0,0-.4-1.17,1.87,1.87,0,0,0-.71-.68l-.47-.27v6.8c0,.64-.39.74-1.18.28l-.66-.38Zm4.1-9.78c.29.16.53.08.73-.24a3.48,3.48,0,0,0,.31-1.75,5.45,5.45,0,0,0-.31-2,2,2,0,0,0-.79-1l-1-.6v5Z" style="fill:#455a64"></path><path d="M295.26,122.78a6.68,6.68,0,0,1-1.37-2,3.52,3.52,0,0,1-.25-1.2,3.93,3.93,0,0,1,.29-1.55c.19-.47.41-.63.64-.5a2.24,2.24,0,0,1,.5.59l.5.71a5,5,0,0,0,1.35,1.38,1.16,1.16,0,0,0,1.05.16c.3-.13.45-.55.45-1.28a4.74,4.74,0,0,0-.23-1.52,6.1,6.1,0,0,0-.58-1.26c-.23-.37-.55-.86-1-1.47a18.29,18.29,0,0,1-2.14-4,12.31,12.31,0,0,1-.67-4.27c0-1.8.38-3,1.13-3.59s1.74-.53,3,.18a7.3,7.3,0,0,1,1.4,1.13,7.78,7.78,0,0,1,1.16,1.44,2.43,2.43,0,0,1,.35,1.25,5.3,5.3,0,0,1-.23,1.53c-.15.49-.33.67-.55.55a2.84,2.84,0,0,1-.57-.57,5.61,5.61,0,0,0-1.27-1.19c-.52-.3-.88-.33-1.08-.1a1.51,1.51,0,0,0-.29,1,4.53,4.53,0,0,0,.38,1.92,15.34,15.34,0,0,0,1.2,2l.45.65a16.1,16.1,0,0,1,1.95,3.71,12.46,12.46,0,0,1,.59,4,7.65,7.65,0,0,1-.46,2.84,2.36,2.36,0,0,1-1.43,1.48,3,3,0,0,1-2.37-.49A8.58,8.58,0,0,1,295.26,122.78Z" style="fill:#455a64"></path></g><g id="freepik--Characters--inject-3"><g id="freepik--characters--inject-3"><g id="freepik--Bench--inject-3"><path d="M238.32,365.92V344.86h6.33v21.06a1.56,1.56,0,0,1-.93,1.29,4.92,4.92,0,0,1-4.48,0A1.57,1.57,0,0,1,238.32,365.92Z" style="fill:#37474f"></path><path d="M243.72,343.57a5,5,0,0,0-4.48,0,1.37,1.37,0,0,0,0,2.59,5,5,0,0,0,4.48,0C245,345.44,245,344.28,243.72,343.57Z" style="fill:#455a64"></path><path d="M130.87,303.9V282.84h6.33V303.9a1.57,1.57,0,0,1-.92,1.3,5,5,0,0,1-4.48,0A1.58,1.58,0,0,1,130.87,303.9Z" style="fill:#263238"></path><path d="M136.28,281.55a5,5,0,0,0-4.48,0c-1.24.72-1.24,1.87,0,2.59a5,5,0,0,0,4.48,0A1.37,1.37,0,0,0,136.28,281.55Z" style="fill:#455a64"></path><path d="M252.67,337.86v1.86a3.18,3.18,0,0,1-1.43,2.48l-19.52,11.27a3.14,3.14,0,0,1-2.86,0l-109-63a3.14,3.14,0,0,1-1.43-2.48v-1.86a3.18,3.18,0,0,1,1.43-2.48l19.52-11.27a3.2,3.2,0,0,1,2.86,0l109.05,63A3.14,3.14,0,0,1,252.67,337.86Z" style="fill:#37474f"></path><path d="M230.29,348.64v5.18a2.79,2.79,0,0,0,1.43-.36l19.52-11.26a3.16,3.16,0,0,0,1.43-2.48v-1.86a3.14,3.14,0,0,0-1.17-2.29c.52.44.43,1.06-.26,1.46L231.72,348.3A2.88,2.88,0,0,1,230.29,348.64Z" style="fill:#263238"></path><path d="M251.24,337,231.72,348.3a3.14,3.14,0,0,1-2.86,0l-109-63a.87.87,0,0,1,0-1.65l19.52-11.27a3.2,3.2,0,0,1,2.86,0l109.05,63A.87.87,0,0,1,251.24,337Z" style="fill:#37474f"></path><polygon points="241.8 342.48 129.89 277.87 129.14 278.3 241.05 342.91 241.8 342.48" style="fill:#263238"></polygon></g><g id="freepik--Character--inject-3"><g id="freepik--Personaje--inject-3"><path d="M161.38,245.38c-1.33.1-4.24-.06-6.26,2.44s-10.24,14.1-10.24,14.1l-7.74-11.77-7.5-4.52c.31,3.83,10,20.27,11.51,22.27s3.14,3.73,6.34,1.09S158,256.23,158,256.23,162.7,245.28,161.38,245.38Z" style="fill:#b16668"></path><path d="M162.2,245.18s-3.92-1.18-6,1.11c-1.83,2-11,14-11,14s.55,4.19,5.95,5.53L160.94,253Z" style="fill:#455a64"></path><path d="M132.75,247.23a10.44,10.44,0,0,1,9.46,0,3.3,3.3,0,0,1,1.95,2.72v1.27a3.28,3.28,0,0,1-1.95,2.73,10.44,10.44,0,0,1-9.46,0,3.31,3.31,0,0,1-1.95-2.72V250A3.3,3.3,0,0,1,132.75,247.23Z" style="fill:#ffbda7"></path><path d="M142.21,252.69a10.44,10.44,0,0,1-9.46,0c-2.61-1.51-2.61-3.95,0-5.46a10.44,10.44,0,0,1,9.46,0C144.82,248.73,144.82,251.18,142.21,252.69Z" style="fill:#f0997a"></path><path d="M132.75,245.64a10.44,10.44,0,0,1,9.46,0,3.31,3.31,0,0,1,1.95,2.72v1.27a3.28,3.28,0,0,1-1.95,2.73,10.44,10.44,0,0,1-9.46,0,3.31,3.31,0,0,1-1.95-2.72v-1.27A3.3,3.3,0,0,1,132.75,245.64Z" style="fill:#b16668"></path><path d="M142.21,251.1a10.44,10.44,0,0,1-9.46,0c-2.61-1.51-2.61-3.95,0-5.46a10.44,10.44,0,0,1,9.46,0C144.82,247.15,144.82,249.59,142.21,251.1Z" style="fill:#9a4a4d"></path><path d="M132.74,247h9.48a8.74,8.74,0,0,1,1.06,4.48c0,.48-.06.79-.85.61a21.06,21.06,0,0,0-9.9,0c-.79.18-.85-.13-.85-.61A8.74,8.74,0,0,1,132.74,247Z" style="fill:#f0f0f0"></path><path d="M143,250.39a1.57,1.57,0,0,1-.93.72,10.86,10.86,0,0,1-1.16.11,9,9,0,0,0-2,.95,2.18,2.18,0,0,1-.95.15,3.4,3.4,0,0,1-1-.27,16.93,16.93,0,0,0-1.61-.65,2.9,2.9,0,0,0-1.34-.12,1.74,1.74,0,0,1-1.1-.11c-.66-.31-.89-1.16-1.48-1.58s-1.17-.39-1.45-.89a1,1,0,0,1,.19-1.15,2.43,2.43,0,0,1,1-.64,9.17,9.17,0,0,1,2.25-.45c1.72-.18,3.45-.28,5.18-.33a14.82,14.82,0,0,1,5,.43,3.09,3.09,0,0,1,1.06.52,1.29,1.29,0,0,1,.48,1,1.4,1.4,0,0,1-.67.86c-.2.14-.43.23-.63.38A4.18,4.18,0,0,0,143,250.39Z" style="fill:#ADE0F9"></path><path d="M130.57,246.34s0,0,0-.05c.61-2.34,3.46-4.1,6.89-4.1s6.28,1.76,6.89,4.1c0,0,0,0,0,.05a2.42,2.42,0,0,1,.1.79,3.47,3.47,0,0,1-2.05,2.79,10.91,10.91,0,0,1-9.92,0,3.49,3.49,0,0,1-2.05-2.79A2.42,2.42,0,0,1,130.57,246.34Z" style="fill:#ffbda7"></path><path d="M132.05,244l4.19-.73s2.79,1,2.82,1,1.5,1,1.5,1c.25.22-.1.77-.6.81a7.45,7.45,0,0,1-.9,0,4.66,4.66,0,0,1-2.87,1.06,8.54,8.54,0,0,1-4.12-.93,2.44,2.44,0,0,0-1.38-.25A4.81,4.81,0,0,1,132.05,244Z" style="fill:#f0997a"></path><path d="M132,248.72c1.75,1.34,6.22,1.78,9,.36s2.92-3.8,2-4.91a4.39,4.39,0,0,1,1.33,2.12s0,0,0,.05a2.42,2.42,0,0,1,.1.79,3.47,3.47,0,0,1-2.05,2.79,10.91,10.91,0,0,1-9.92,0,3.49,3.49,0,0,1-2.05-2.79,2.42,2.42,0,0,1,.1-.79A2.94,2.94,0,0,0,132,248.72Z" style="fill:#f0997a"></path><path d="M130.48,246.78c-.84.25-.9-1.57-.87-1.78a2.38,2.38,0,0,1,.59-1.26c.94-1.06,1.9-1.15,3-1.9a3.58,3.58,0,0,1,1.26-.64,3.13,3.13,0,0,1,1.34.31,32.39,32.39,0,0,1,4.4,3,4.3,4.3,0,0,1,.4.38c.17.23-.06.5-.22.61a1.76,1.76,0,0,1-1.47.21,5.82,5.82,0,0,1-2.46.9,6.12,6.12,0,0,1-3.09-.24C131.43,245.57,130.81,245.25,130.48,246.78Z" style="fill:#b16668"></path><polygon points="148.84 338.62 143.57 338.07 144.66 330.04 150.36 330.57 148.84 338.62" style="fill:#ffa8a7"></polygon><path d="M144,334.82l.09-.71c-.51.19-3.42,5.48-5.2,7.68s-4.78,4.19-5.43,5.84,3.75,2.82,5.31,2.62c1.82-.23,5-1.36,5.83-2.49s1.29-2.86,2-3.69,3.29-2.58,3.7-4a13.82,13.82,0,0,0-.2-3.84c-.2-.94-.11-2-.43-1.89l-.15.76a4.92,4.92,0,0,1-2.85.57C145.88,335.65,144,335.4,144,334.82Z" style="fill:#263238"></path><polygon points="131.03 328.21 125.47 327.65 128.34 319 134.24 318.84 131.03 328.21" style="fill:#ffa8a7"></polygon><path d="M126.09,325.8c-.27,0-.68.28-1.37.89a57.51,57.51,0,0,1-5.89,3.61c-1.89.94-5.54,2.39-7.2,3.13-1,.47-1,1.72.08,2.43a9.07,9.07,0,0,0,6.82,1.53c1.69-.38,7-3.28,8.42-3.19s4,.06,5-.65.55-3.21.26-4.51,0-2.93-.51-2.83l-.33,1c-.61.92-5.63.21-5.55-.62Z" style="fill:#263238"></path><path d="M177.14,281.05c.38,8.25,1.07,11.24-6.92,17.35-4.48,3.43-13.2,8.91-13.2,8.91a23.08,23.08,0,0,1-.86,9.74c-1.79,5.87-6.25,16.22-6.25,16.22a7.52,7.52,0,0,1-5.89-.22s1.34-8.64,2-14.81c1-9.75,1.83-13,2.26-14.85.38-1.59,8.86-10.44,10.6-13.1l-17.15,8.61s-.09,5.3-1.12,8.15c-2.68,7.36-8.35,18.55-8.35,18.55s-4.32.44-6.13-1c0,0,5.49-27,6.18-29.25,1.2-4,15.73-14.44,18.71-17,1.7-1.43,3.6-3,3.6-3Z" style="fill:#ADE0F9"></path><path d="M158.84,290.29a11.5,11.5,0,0,1-3.65-5.21,25.14,25.14,0,0,0,.57,4c.43,1.73-14.07,9.86-14.07,9.86Z" style="opacity:0.1"></path><path d="M175.75,249.51s1.77,1.44,1.77,6v9.85l-.25,16.56c-3.53,3.83-19.38,2.38-23.29-6,0,0,.57-17.69,1.1-21.57.71-5.27,2-9.07,7.12-9.18L170,247Z" style="fill:#f0f0f0"></path><path d="M180.36,297.35a6.4,6.4,0,0,1-2.19,1.82,7.48,7.48,0,0,1-3.57.61,4,4,0,0,1-1.57-.29c-.37-.17-.88-.55-.95-1s.39-.84.7-1.1a11.58,11.58,0,0,0,1.47-1.5c.22-.26.45-.52.65-.8s.45-.71.68-1.05.45-.73.14-.89a.55.55,0,0,0-.4,0c-.41.09-.8.24-1.21.32a2.14,2.14,0,0,1-1.23-.05.72.72,0,0,1-.42-.38.64.64,0,0,1,.1-.55,2.16,2.16,0,0,1,.42-.38l1.41-1c.93-.69,2-1.1,2.7-2.1a6.41,6.41,0,0,0,.77-2.43c.54-2.78,1.11-13.73,1.11-13.73l-3.58-12.73s-3.3-6.82.36-10.57c1.7.79,3.68.61,5.85,8.11,1.56,5.38,4.27,12.64,4.27,15a15.67,15.67,0,0,1-.29,3c-1,5.3-2,9.84-2.89,15.13-.08.45-.07.91-.15,1.35A10.17,10.17,0,0,1,180.36,297.35Z" style="fill:#b16668"></path><path d="M175.75,249.51a6.13,6.13,0,0,1,3.38,1.75,20.33,20.33,0,0,1,3.23,6.86c.88,3.25,3.51,12.44,3.51,12.44a9.1,9.1,0,0,1-7.3,2.36l-4.21-13.42S171.84,251.78,175.75,249.51Z" style="fill:#455a64"></path><path d="M167.84,230.53a6.6,6.6,0,1,1-6.6-6.6A6.61,6.61,0,0,1,167.84,230.53Z" style="fill:#263238"></path><path d="M173.17,235.5a58.28,58.28,0,0,1-1.53,6,2.34,2.34,0,0,1-1.35,1.08l.08-3.62Z" style="fill:#263238"></path><path d="M171.8,228.13a2.52,2.52,0,0,1,2.09.74c.9.92.4,3.81-.72,6.63l-2.06.24Z" style="fill:#263238"></path><path d="M170.49,235.74c.41.25,1-.55,1.51-1.08a1.8,1.8,0,0,1,3,.49c.84,1.78-.74,4.13-2,4.54-2.25.71-2.59-.74-2.59-.74l-.17,8.15c-1.95,2.17-8.61,1.65-7.35-.22V244.4a13.83,13.83,0,0,1-3.05.16c-1.66-.26-2.7-1.57-3.21-3.36-.81-2.89-1.11-5.22-.43-10.9.76-6.22,8-6.29,11.9-3.83S170.49,235.74,170.49,235.74Z" style="fill:#b16668"></path><path d="M170.49,236.43c.21,0,1-1.3,1.51-1.77.72-.65-.2-6.53-.2-6.53a2.79,2.79,0,0,0-.69-3c-1.48-1.63-4-1.37-6-1.31a16.32,16.32,0,0,1-7.66-1.31,5.38,5.38,0,0,0-1.47-.61.42.42,0,0,0-.31,0c-.14.07-.18.26-.2.42a3.37,3.37,0,0,0,.71,2.37,5.79,5.79,0,0,1-1.23-.29.14.14,0,0,0-.09,0,.15.15,0,0,0-.08.15,4.68,4.68,0,0,0,1.77,3.51,7.23,7.23,0,0,0,2.92,1.45,17.25,17.25,0,0,0,6.55-.37c.7-.13,2.08-.57,2.52.17a7.6,7.6,0,0,1,.58,2.26C169.49,233.4,169.79,236.42,170.49,236.43Z" style="fill:#263238"></path><path d="M171.79,228.59l2.5-1.34a1.37,1.37,0,0,0-1.89-.63A1.5,1.5,0,0,0,171.79,228.59Z" style="fill:#263238"></path><path d="M162.86,244.4a28.26,28.26,0,0,0,5-1.43,4.25,4.25,0,0,0,1.79-1.77,5.76,5.76,0,0,1-1,2.09c-.95,1.21-5.77,2.1-5.77,2.1Z" style="fill:#9a4a4d"></path><path d="M163.75,234.81a.74.74,0,1,0,.74-.77A.75.75,0,0,0,163.75,234.81Z" style="fill:#263238"></path><path d="M164.94,231.74l1.59.87a1,1,0,0,0-.37-1.26A.89.89,0,0,0,164.94,231.74Z" style="fill:#263238"></path><path d="M163.19,239.94l-1.69.64a.88.88,0,0,0,1.15.56A.94.94,0,0,0,163.19,239.94Z" style="fill:#9a4a4d"></path><path d="M156.93,232.39l1.45-1.12a.88.88,0,0,0-1.26-.19A1,1,0,0,0,156.93,232.39Z" style="fill:#263238"></path><path d="M157.57,234.6a.74.74,0,1,0,.74-.77A.75.75,0,0,0,157.57,234.6Z" style="fill:#263238"></path><polygon points="161.24 234 161.15 238.51 158.49 237.92 161.24 234" style="fill:#9a4a4d"></polygon></g></g><g id="freepik--character--inject-3"><path d="M211.69,291.68l23.12.11V269h0a11.56,11.56,0,0,0-11.24-11.87h0a11.56,11.56,0,0,0-11.87,11.24h0Z" style="fill:#263238"></path><path d="M218,281.83c-.71,0-3.08-.75-6.41,4.41-1.9,2.94-7.23,10.1-7.23,10.1s-8.28-7.84-8.74-9c-.52-1.35-.86-2.79-1.26-4.18a1.22,1.22,0,0,0-.18-.42,1.13,1.13,0,0,0-.4-.32,13.45,13.45,0,0,0-5.81-1.55,1.11,1.11,0,0,0-.51.06c-.47.22-.18,1.52-.11,1.93a10.09,10.09,0,0,0,.87,2.62c1.16,2.44,2.91,3.2,3.6,4.22s6.61,9.46,9.66,12.24c1.92,1.74,3.13,2.47,5.24.63S217,291.12,217,291.12Z" style="fill:#ffa8a7"></path><path d="M193.19,278.18h-9.46l.72,12h0c0,.4.42.8,1.15,1.11a8.37,8.37,0,0,0,5.67,0c.75-.31,1.14-.71,1.19-1.11h0Z" style="fill:#f0f0f0"></path><path d="M191.47,279.33a9.63,9.63,0,0,1-6.05,0c-1.64-.64-1.64-1.67,0-2.31a9.77,9.77,0,0,1,6.05,0C193.17,277.66,193.17,278.69,191.47,279.33Z" style="fill:#e0e0e0"></path><path d="M191.47,279.33a9.63,9.63,0,0,1-6.05,0c-1.64-.64-1.64-1.67,0-2.31a9.77,9.77,0,0,1,6.05,0C193.17,277.66,193.17,278.69,191.47,279.33Z" style="fill:#e0e0e0"></path><path d="M191.78,279.54a4.63,4.63,0,0,0,.63-.31,3.33,3.33,0,0,0-.78-.41,9.69,9.69,0,0,0-6.38,0,3.71,3.71,0,0,0-.75.42,6.43,6.43,0,0,0,.59.3A10.23,10.23,0,0,0,191.78,279.54Z" style="fill:#ADE0F9"></path><path d="M192.09,279a8.55,8.55,0,0,1-4,.44c-1.51-.19-2.24-.6-1.23-1.08a7,7,0,0,0-1.58.42,3.71,3.71,0,0,0-.75.42,6.43,6.43,0,0,0,.59.3,10.23,10.23,0,0,0,6.69,0,4.63,4.63,0,0,0,.63-.31C192.31,279.17,192.21,279.1,192.09,279Z" style="opacity:0.1"></path><path d="M191.78,276.81a10.23,10.23,0,0,0-6.69,0c-1.81.76-1.81,2,0,2.73a10.23,10.23,0,0,0,6.69,0C193.66,278.79,193.66,277.57,191.78,276.81Zm-.31,2.52a9.63,9.63,0,0,1-6.05,0c-1.64-.64-1.64-1.67,0-2.31a9.77,9.77,0,0,1,6.05,0C193.17,277.66,193.17,278.69,191.47,279.33Z" style="fill:#fafafa"></path><path d="M186.34,286.7c-1.33-.41-1.68-2-1.68-2.8a1.93,1.93,0,0,1,.55-1.57,1.2,1.2,0,0,1,1.08-.17,2.91,2.91,0,0,1,1.85,2.71,2.07,2.07,0,0,1-.63,1.7,1.08,1.08,0,0,1-.66.21A1.92,1.92,0,0,1,186.34,286.7Zm-.9-4.06a1.58,1.58,0,0,0-.4,1.26c0,.69.3,2.09,1.42,2.43a.9.9,0,0,0,.82-.07,1.73,1.73,0,0,0,.47-1.39,2.52,2.52,0,0,0-1.55-2.33,1.25,1.25,0,0,0-.31,0A.67.67,0,0,0,185.44,282.64Z" style="fill:#ADE0F9"></path><path d="M193.05,287.74l-.2-3.81c0,.62-1.3,1.05-2.75.43s-2.22-.51-2.67,0,1,.87,2.07,2.16,1.65,3.17,2.85,4c.26.29.42.28.53.1C193.32,290.31,193.05,288.61,193.05,287.74Z" style="fill:#ffa8a7"></path><path d="M202.62,345.15c.4.43.86.92.81,1.45a5.36,5.36,0,0,1-1.44,3,10.51,10.51,0,0,0-2.05,5.07c-.21,1.57-.35,5.55-2.33,7.12s-6.79,2.35-6.79-.55,5.74-14.09,5.74-14.09Z" style="fill:#263238"></path><path d="M200,347a42.4,42.4,0,0,0-1.94,6.25c-.49,2.33-1.18,4-2.37,4.6s-3,.51-2.3-1.07,3.21-9.63,3.21-9.63Z" style="fill:#f28f8f"></path><path d="M215.37,307.74s-9.5,3.9-14.1,6.37-9,4.88-9.87,6.87-.72,7.11-.22,11.92,1.56,13.47,1.56,13.47L206.2,326.2l13.52-8.93Z" style="fill:#ADE0F9"></path><path d="M197.86,328.53c1.33-3.09,4.23-5.14,6.94-6.82,2.23-1.38,7.75-4.59,9.65-5.69a9.79,9.79,0,0,1-.71-3.32,28.74,28.74,0,0,0,2,3.82L201.9,326.86l-9.49,17S196.53,331.62,197.86,328.53Z" style="opacity:0.1"></path><path d="M191.59,361.47c.39.26.34,1.22.3,1.93s.47,1.63-.56,2.72-2.75,1.18-4.14,2.67-3.54,4.22-7.39,4.42-6.48-1.48-7-2.7.28-2.16,2.87-3.14c2.75-1,3.53-1.36,3.53-1.36Z" style="fill:#263238"></path><path d="M188.81,353.2s-2.59,4.68-4.05,6.78a26.4,26.4,0,0,1-5.75,5.71c-.49.37-1.56,1-1.95,1.33a.72.72,0,0,0-.15,1.11c.64.93,4,1.82,6.2.78s4.63-3.36,6-4.27l1.81-1.23a1.57,1.57,0,0,0,.68-1.38c0-.16,0-.34,0-.56,0-1.15,2.35-5.35,2.35-5.35Z" style="fill:#ffa8a7"></path><path d="M234.47,312.86c0,3.85.12,7.05-2.13,10.42s-5.48,4.3-11.28,6.24c-4.8,1.62-11.67,4.21-13.07,4.52s-1.69,1-2,3.53-2,6.3-5.75,10.75a119.69,119.69,0,0,0-7.62,10.32s-3.91,0-5.41-2.61c0,0,10.9-25.73,12.65-28.7s15.9-10.81,15.9-10.81-.24-5.33-.43-9.2Z" style="fill:#ADE0F9"></path><path d="M227.51,282.53l4.06.91s-2,2.84-.6,8.5c1,4,2,4.23,4.19,5.1a88,88,0,0,1-1.19,9.65l.5,6.17s-4.5,3.27-13.68,2c-8.06-1.14-7.94-6-7.94-6l3-3-.08-6.18a9.42,9.42,0,0,1-3-7.78c.5-4.86,5.17-10,5.17-10h2.32Z" style="fill:#ADE0F9"></path><path d="M227.51,282.53l4.06.91s-2,2.84-.6,8.5c1,4,2,4.23,4.19,5.1a88,88,0,0,1-1.19,9.65l.5,6.17s-4.5,3.27-13.68,2c-8.06-1.14-7.94-6-7.94-6l3-3-.08-6.18a9.42,9.42,0,0,1-3-7.78c.5-4.86,5.17-10,5.17-10h2.32Z" style="opacity:0.30000000000000004"></path><path d="M214.6,312.28c4.15.94,10.16.36,12.34-1.67s3.58-7,2.77-10a28.54,28.54,0,0,1,0-11.57l.76-.32a16.54,16.54,0,0,0,.47,3.24c1,4,2,4.23,4.19,5.1a72.63,72.63,0,0,1-1.19,9.65l.5,6.18s-4.5,3.26-13.68,1.95a11.2,11.2,0,0,1-6.19-2.54Z" style="opacity:0.1"></path><path d="M216.3,262.15c-1.24.69-2.83,3.72-2.86,10.16,0,5.46,1.71,6.85,2.59,7.27s2.6.22,4.27,0l0,2.26s-3,3.28-2.9,4.79,3.84,2.28,6,.87a17.31,17.31,0,0,0,4.09-4.18l.17-7.56s1,1,2.65-.43c1.4-1.16,1.92-3.17.88-4.29a2.39,2.39,0,0,0-3.82.66,13.19,13.19,0,0,1-6.14-2A9.94,9.94,0,0,1,216.3,262.15Z" style="fill:#ffa8a7"></path><path d="M219.57,271.1a.7.7,0,0,0,.63.77.71.71,0,0,0,.74-.66.7.7,0,0,0-.63-.77A.71.71,0,0,0,219.57,271.1Z" style="fill:#263238"></path><path d="M219.26,275.72l-1.6.47a.82.82,0,0,0,1,.6A.88.88,0,0,0,219.26,275.72Z" style="fill:#f28f8f"></path><path d="M214,268.85l1.41-.93a.82.82,0,0,0-1.15-.27A.89.89,0,0,0,214,268.85Z" style="fill:#263238"></path><path d="M214.28,270.46a.7.7,0,0,0,.63.77.71.71,0,0,0,.74-.66.7.7,0,0,0-.63-.77A.71.71,0,0,0,214.28,270.46Z" style="fill:#263238"></path><polygon points="217.39 269.81 217.31 274.29 215.15 273.55 217.39 269.81" style="fill:#f28f8f"></polygon><path d="M220.3,279.57c1.76-.19,5.4-1.12,6-2.54a3.65,3.65,0,0,1-1.32,1.79c-1.1.89-4.7,1.84-4.7,1.84Z" style="fill:#f28f8f"></path><path d="M223.72,318.46c3-.87,12.23-3.83,15.46-4.87,2.25-.73,3.46-1.25,3.52-3.19s-4.08-17.58-5-21.23c-.85-3.2-3-5.39-6.1-5.73-2.13,1.68-1.64,9.62.47,12.79.95,3.76,3.37,11.25,3.37,11.25s-4.35,2.44-8.67,4.52c-2.16,1-5.08,2.53-6.8,2.71a17.63,17.63,0,0,0-5.79,1.27,11.56,11.56,0,0,0-4.37,3.69,1.15,1.15,0,0,0-.26.6,1,1,0,0,0,.43.72c1.72,1.47,4.16.84,6,0,1.64-.77,3.7-.15,5.3-1.06Z" style="fill:#ffa8a7"></path></g><g id="freepik--Table--inject-3"><path d="M172.1,356.88l28.12,20.28,7.69,5.56,3.65,2.1h0a1.66,1.66,0,0,0,.37.16l-3.55-2.56-8-5.74-23.88-17.24Z" style="fill:#263238"></path><path d="M186.16,400.43a1.4,1.4,0,0,0,.17-.09l2.72-1.57a4.18,4.18,0,0,0,1.44-1.54l30.85-63.62-4.48,2.58-29.37,60.58-1.84,3.77A1.87,1.87,0,0,0,186.16,400.43Z" style="fill:#37474f"></path><path d="M182,398.77l2.71,1.56a1.59,1.59,0,0,0,.94.21l1.84-3.77,29.37-60.58-4.47-2.58-30.86,63.62A1.19,1.19,0,0,0,182,398.77Z" style="fill:#263238"></path><polygon points="198.06 374.96 193.58 372.38 172.1 356.87 176.58 359.46 198.06 374.96"></polygon><path d="M200.45,376.69l8,5.74L212,385a1.59,1.59,0,0,0,1.22-.16s1.64-.94,2.73-1.56a.67.67,0,0,0,.06-1.2l-35-25.16-4.42,2.54Z" style="fill:#37474f"></path><path d="M207,382.07c.49.36,1.32.89,1.85,1.2l2.69,1.55a2.06,2.06,0,0,0,.4.17l-3.55-2.56-8-5.74-.23.47Z"></path><path d="M69.15,297.43l28.12,20.29,7.69,5.56,3.65,2.1h0a2.3,2.3,0,0,0,.37.16L105.46,323l-8-5.74L73.62,300Z" style="fill:#263238"></path><path d="M83.21,341l.16-.08,2.73-1.57a4.18,4.18,0,0,0,1.44-1.54l30.85-63.62-4.48,2.58L84.54,337.33,82.7,341.1A1.89,1.89,0,0,0,83.21,341Z" style="fill:#37474f"></path><path d="M79.05,339.33l2.7,1.56a1.63,1.63,0,0,0,1,.21l1.84-3.77,29.37-60.58-4.47-2.58L78.58,337.79A1.19,1.19,0,0,0,79.05,339.33Z" style="fill:#263238"></path><polygon points="95.11 315.52 90.63 312.94 69.15 297.43 73.63 300.01 95.11 315.52"></polygon><path d="M97.5,317.25l8,5.74,3.55,2.56a1.59,1.59,0,0,0,1.22-.16l2.73-1.56a.67.67,0,0,0,.06-1.2L78,297.47,73.62,300Z" style="fill:#37474f"></path><path d="M104.07,322.63c.49.36,1.32.89,1.85,1.2l2.69,1.55a3,3,0,0,0,.4.17L105.46,323l-8-5.74-.23.47Z"></path><path d="M61.36,296.79a1.74,1.74,0,0,1,.26-.19l50.85-29.36a3.2,3.2,0,0,1,2.86,0l101.54,58.61,7.52,4.35a.67.67,0,0,1,.19.14.5.5,0,0,1,.13.12l0,0a.45.45,0,0,1,.09.1,3.13,3.13,0,0,1,1,2.1v1.86a3.18,3.18,0,0,1-1.42,2.48l-50.86,29.36a3.1,3.1,0,0,1-2.86,0l-109-63a3.14,3.14,0,0,1-1.43-2.48v-1.86A3.2,3.2,0,0,1,61.36,296.79Z" style="fill:#455a64"></path><path d="M60.19,299.08v1.86a3.14,3.14,0,0,0,1.43,2.48l109,63a2.88,2.88,0,0,0,1.43.35v-5.18a2.88,2.88,0,0,1-1.43-.34l-109-62.95c-.69-.4-.78-1-.26-1.47A3.2,3.2,0,0,0,60.19,299.08Z" style="fill:#37474f"></path><path d="M172.1,361.55v5.18a2.88,2.88,0,0,0,1.43-.35L224.39,337a3.18,3.18,0,0,0,1.42-2.48v-1.86a3.13,3.13,0,0,0-1-2.1c.3.43.14.93-.44,1.27l-50.86,29.36A2.88,2.88,0,0,1,172.1,361.55Z" style="fill:#263238"></path><polygon points="212.38 338.78 100.47 274.17 99.73 274.6 211.64 339.21 212.38 338.78" style="fill:#263238"></polygon><polygon points="198.96 346.53 87.04 281.92 86.3 282.36 198.22 346.97 198.96 346.53" style="fill:#263238"></polygon><polygon points="185.53 354.29 73.61 289.67 72.87 290.11 184.79 354.72 185.53 354.29" style="fill:#263238"></polygon></g><g id="freepik--Tablecloth--inject-3"><polygon points="136.84 287 117.82 297.98 144.45 313.35 163.46 302.37 136.84 287" style="opacity:0.2"></polygon><polygon points="136.85 286.23 117.83 297.2 144.45 312.58 163.47 301.6 136.85 286.23" style="fill:#fafafa"></polygon><path d="M144.33,292.67a.74.74,0,1,0,.85.73A.8.8,0,0,0,144.33,292.67Z" style="fill:#ADE0F9"></path><path d="M140.94,304.42a.74.74,0,1,0,.84.73A.8.8,0,0,0,140.94,304.42Z" style="fill:#ADE0F9"></path><ellipse cx="144.33" cy="296.34" rx="0.85" ry="0.74" style="fill:#ADE0F9"></ellipse><path d="M144.33,291.2a.89.89,0,0,0,.65-.28l-1.39-.8a.72.72,0,0,0-.11.35A.8.8,0,0,0,144.33,291.2Z" style="fill:#ADE0F9"></path><path d="M144.33,298.54a.74.74,0,1,0,.85.74A.8.8,0,0,0,144.33,298.54Z" style="fill:#ADE0F9"></path><path d="M140.94,307.36a.74.74,0,1,0,.84.73A.8.8,0,0,0,140.94,307.36Z" style="fill:#ADE0F9"></path><path d="M144.33,307.36a.74.74,0,1,0,.85.73A.8.8,0,0,0,144.33,307.36Z" style="fill:#ADE0F9"></path><path d="M144.33,301.48a.74.74,0,1,0,.85.74A.8.8,0,0,0,144.33,301.48Z" style="fill:#ADE0F9"></path><path d="M137.54,304.42a.74.74,0,1,0,.85.73A.8.8,0,0,0,137.54,304.42Z" style="fill:#ADE0F9"></path><path d="M137.54,301.48a.74.74,0,1,0,.85.74A.8.8,0,0,0,137.54,301.48Z" style="fill:#ADE0F9"></path><path d="M144.33,304.42a.74.74,0,1,0,.85.73A.8.8,0,0,0,144.33,304.42Z" style="fill:#ADE0F9"></path><ellipse cx="140.94" cy="290.47" rx="0.85" ry="0.74" style="fill:#ADE0F9"></ellipse><path d="M140.94,298.54a.74.74,0,1,0,0,1.47.74.74,0,1,0,0-1.47Z" style="fill:#ADE0F9"></path><path d="M140.94,292.67a.74.74,0,1,0,.84.73A.8.8,0,0,0,140.94,292.67Z" style="fill:#ADE0F9"></path><path d="M140.94,301.48a.74.74,0,1,0,.84.74A.8.8,0,0,0,140.94,301.48Z" style="fill:#ADE0F9"></path><ellipse cx="140.94" cy="296.34" rx="0.85" ry="0.74" style="fill:#ADE0F9"></ellipse><path d="M138.39,308.09a.86.86,0,0,0-1.7,0h0l1.16.67A.74.74,0,0,0,138.39,308.09Z" style="fill:#ADE0F9"></path><path d="M147.72,292.67a.74.74,0,1,0,.85.73A.8.8,0,0,0,147.72,292.67Z" style="fill:#ADE0F9"></path><path d="M154.5,298.54a.74.74,0,1,0,.85.74A.8.8,0,0,0,154.5,298.54Z" style="fill:#ADE0F9"></path><path d="M151.11,301.48a.74.74,0,1,0,.85.74A.8.8,0,0,0,151.11,301.48Z" style="fill:#ADE0F9"></path><path d="M151.11,304.42a.74.74,0,1,0,.85.73A.8.8,0,0,0,151.11,304.42Z" style="fill:#ADE0F9"></path><path d="M161.29,301.48a.8.8,0,0,0-.85.74.77.77,0,0,0,.72.71l.94-.54a1,1,0,0,0,0-.17A.8.8,0,0,0,161.29,301.48Z" style="fill:#ADE0F9"></path><path d="M135,287.53a.54.54,0,0,0-.05-.21l-1.33.77a1,1,0,0,0,.53.17A.79.79,0,0,0,135,287.53Z" style="fill:#ADE0F9"></path><path d="M137.54,298.54a.74.74,0,1,0,.85.74A.8.8,0,0,0,137.54,298.54Z" style="fill:#ADE0F9"></path><path d="M154.5,304.42a.74.74,0,1,0,.85.73A.8.8,0,0,0,154.5,304.42Z" style="fill:#ADE0F9"></path><path d="M147.72,301.48a.74.74,0,1,0,.85.74A.8.8,0,0,0,147.72,301.48Z" style="fill:#ADE0F9"></path><path d="M147.72,298.54a.74.74,0,1,0,.85.74A.8.8,0,0,0,147.72,298.54Z" style="fill:#ADE0F9"></path><ellipse cx="147.72" cy="296.34" rx="0.85" ry="0.74" style="fill:#ADE0F9"></ellipse><path d="M151.11,298.54a.74.74,0,1,0,.85.74A.8.8,0,0,0,151.11,298.54Z" style="fill:#ADE0F9"></path><path d="M147.72,307.36a.74.74,0,1,0,.85.73A.8.8,0,0,0,147.72,307.36Z" style="fill:#ADE0F9"></path><path d="M151.11,295.61a.74.74,0,1,0,.85.73A.8.8,0,0,0,151.11,295.61Z" style="fill:#ADE0F9"></path><path d="M147.72,304.42a.74.74,0,1,0,.85.73A.8.8,0,0,0,147.72,304.42Z" style="fill:#ADE0F9"></path><path d="M154.5,301.48a.74.74,0,1,0,.85.74A.8.8,0,0,0,154.5,301.48Z" style="fill:#ADE0F9"></path><path d="M141.78,311a.8.8,0,0,0-.84-.74.93.93,0,0,0-.34.06l1.18.68Z" style="fill:#ADE0F9"></path><path d="M127.37,292.67a.74.74,0,1,0,.85.73A.8.8,0,0,0,127.37,292.67Z" style="fill:#ADE0F9"></path><path d="M130.76,304.42a.88.88,0,0,0-.33.06l1.18.68h0A.8.8,0,0,0,130.76,304.42Z" style="fill:#ADE0F9"></path><path d="M120.58,297.08a.8.8,0,0,0,.85-.74.79.79,0,0,0-.84-.73l-.79.45a.68.68,0,0,0-.07.28A.8.8,0,0,0,120.58,297.08Z" style="fill:#ADE0F9"></path><path d="M128.22,302.22a.86.86,0,0,0-1.7,0h0l1.17.68A.75.75,0,0,0,128.22,302.22Z" style="fill:#ADE0F9"></path><path d="M124.82,293.4a.78.78,0,0,0,0-.21l-1.34.77a.9.9,0,0,0,.54.18A.8.8,0,0,0,124.82,293.4Z" style="fill:#ADE0F9"></path><path d="M124,298.54a.74.74,0,1,0,0,1.47.74.74,0,1,0,0-1.47Z" style="fill:#ADE0F9"></path><path d="M124,295.61a.74.74,0,1,0,.84.73A.8.8,0,0,0,124,295.61Z" style="fill:#ADE0F9"></path><path d="M120.58,298.54a1.2,1.2,0,0,0-.33.06l1.18.68h0A.8.8,0,0,0,120.58,298.54Z" style="fill:#ADE0F9"></path><path d="M157.89,300a.74.74,0,1,0-.84-.73A.79.79,0,0,0,157.89,300Z" style="fill:#ADE0F9"></path><path d="M157.89,303a.74.74,0,1,0-.84-.73A.8.8,0,0,0,157.89,303Z" style="fill:#ADE0F9"></path><path d="M153.65,296.34a.8.8,0,0,0,.85.74.89.89,0,0,0,.65-.28l-1.38-.8A.58.58,0,0,0,153.65,296.34Z" style="fill:#ADE0F9"></path><ellipse cx="137.54" cy="296.34" rx="0.85" ry="0.74" style="fill:#ADE0F9"></ellipse><path d="M145.18,311a.86.86,0,1,0-.85.73A.8.8,0,0,0,145.18,311Z" style="fill:#ADE0F9"></path><path d="M151.11,307.36a.8.8,0,0,0-.85.73.76.76,0,0,0,.72.71l.94-.54a.47.47,0,0,0,0-.17A.8.8,0,0,0,151.11,307.36Z" style="fill:#ADE0F9"></path><path d="M157.05,305.15a.7.7,0,0,0,0,.14l1.27-.74a.86.86,0,0,0-.46-.13A.8.8,0,0,0,157.05,305.15Z" style="fill:#ADE0F9"></path><path d="M147.72,310.29a.8.8,0,0,0-.85.74.5.5,0,0,0,0,.13l1.28-.73A.92.92,0,0,0,147.72,310.29Z" style="fill:#ADE0F9"></path><path d="M134.15,298.54a.74.74,0,1,0,.85.74A.8.8,0,0,0,134.15,298.54Z" style="fill:#ADE0F9"></path><path d="M134.15,304.42a.74.74,0,1,0,.85.73A.8.8,0,0,0,134.15,304.42Z" style="fill:#ADE0F9"></path><path d="M134.15,292.67a.74.74,0,1,0,.85.73A.8.8,0,0,0,134.15,292.67Z" style="fill:#ADE0F9"></path><path d="M134.15,295.61a.74.74,0,1,0,.85.73A.8.8,0,0,0,134.15,295.61Z" style="fill:#ADE0F9"></path><path d="M134.15,301.48a.74.74,0,1,0,.85.74A.8.8,0,0,0,134.15,301.48Z" style="fill:#ADE0F9"></path><path d="M137.54,292.67a.74.74,0,1,0,.85.73A.8.8,0,0,0,137.54,292.67Z" style="fill:#ADE0F9"></path><path d="M137.54,286.79a.74.74,0,1,0,.85.74A.8.8,0,0,0,137.54,286.79Z" style="fill:#ADE0F9"></path><ellipse cx="137.54" cy="290.47" rx="0.85" ry="0.74" style="fill:#ADE0F9"></ellipse><path d="M130.76,292.67a.74.74,0,1,0,.85.73A.8.8,0,0,0,130.76,292.67Z" style="fill:#ADE0F9"></path><path d="M127.37,298.54a.74.74,0,1,0,.85.74A.8.8,0,0,0,127.37,298.54Z" style="fill:#ADE0F9"></path><path d="M134.15,289.73a.74.74,0,1,0,.85.74A.8.8,0,0,0,134.15,289.73Z" style="fill:#ADE0F9"></path><path d="M130.76,295.61a.74.74,0,1,0,.85.73A.8.8,0,0,0,130.76,295.61Z" style="fill:#ADE0F9"></path><path d="M127.37,295.61a.74.74,0,1,0,.85.73A.8.8,0,0,0,127.37,295.61Z" style="fill:#ADE0F9"></path><path d="M130.76,291.2a.74.74,0,1,0,0-1.47l-.8.46a.67.67,0,0,0-.06.28A.8.8,0,0,0,130.76,291.2Z" style="fill:#ADE0F9"></path><path d="M130.76,301.48a.74.74,0,1,0,.85.74A.8.8,0,0,0,130.76,301.48Z" style="fill:#ADE0F9"></path><path d="M130.76,298.54a.74.74,0,1,0,.85.74A.8.8,0,0,0,130.76,298.54Z" style="fill:#ADE0F9"></path><polygon points="140.64 299.39 131.14 304.89 144.45 312.58 153.96 307.09 140.64 299.39" style="opacity:0.05"></polygon><polygon points="136.81 286.23 127.3 291.73 140.61 299.42 150.12 293.93 136.81 286.23" style="opacity:0.05"></polygon><polygon points="153.96 307.09 140.61 299.42 131.14 304.89 140.6 300.18 153.96 307.09" style="opacity:0.1"></polygon><polygon points="127.3 291.73 140.61 299.42 150.12 293.93 140.64 298.73 127.3 291.73" style="opacity:0.1"></polygon></g><g id="freepik--tablecloth--inject-3"><polygon points="182.07 311.81 163.05 322.78 189.68 338.15 208.69 327.17 182.07 311.81" style="opacity:0.2"></polygon><polygon points="182.08 311.03 163.06 322 189.68 337.38 208.7 326.4 182.08 311.03" style="fill:#fafafa"></polygon><path d="M189.56,317.47a.74.74,0,1,0,.85.74A.8.8,0,0,0,189.56,317.47Z" style="fill:#ADE0F9"></path><path d="M186.17,329.22a.74.74,0,1,0,.84.73A.8.8,0,0,0,186.17,329.22Z" style="fill:#ADE0F9"></path><path d="M189.56,320.41a.74.74,0,1,0,.85.73A.8.8,0,0,0,189.56,320.41Z" style="fill:#ADE0F9"></path><path d="M189.56,316a.89.89,0,0,0,.65-.28l-1.39-.8a.72.72,0,0,0-.11.35A.8.8,0,0,0,189.56,316Z" style="fill:#ADE0F9"></path><path d="M189.56,323.34a.75.75,0,1,0,.85.74A.8.8,0,0,0,189.56,323.34Z" style="fill:#ADE0F9"></path><path d="M186.17,332.16a.74.74,0,1,0,.84.73A.8.8,0,0,0,186.17,332.16Z" style="fill:#ADE0F9"></path><path d="M189.56,332.16a.74.74,0,1,0,.85.73A.8.8,0,0,0,189.56,332.16Z" style="fill:#ADE0F9"></path><path d="M189.56,326.28a.74.74,0,1,0,.85.74A.8.8,0,0,0,189.56,326.28Z" style="fill:#ADE0F9"></path><path d="M182.77,329.22a.74.74,0,1,0,.85.73A.8.8,0,0,0,182.77,329.22Z" style="fill:#ADE0F9"></path><ellipse cx="182.77" cy="327.02" rx="0.85" ry="0.74" style="fill:#ADE0F9"></ellipse><path d="M189.56,329.22a.74.74,0,1,0,.85.73A.8.8,0,0,0,189.56,329.22Z" style="fill:#ADE0F9"></path><path d="M186.17,314.53a.74.74,0,1,0,.84.74A.8.8,0,0,0,186.17,314.53Z" style="fill:#ADE0F9"></path><path d="M186.17,323.34a.75.75,0,1,0,.84.74A.8.8,0,0,0,186.17,323.34Z" style="fill:#ADE0F9"></path><path d="M186.17,317.47a.74.74,0,1,0,.84.74A.8.8,0,0,0,186.17,317.47Z" style="fill:#ADE0F9"></path><path d="M186.17,326.28a.74.74,0,1,0,.84.74A.8.8,0,0,0,186.17,326.28Z" style="fill:#ADE0F9"></path><path d="M186.17,320.41a.74.74,0,1,0,.84.73A.8.8,0,0,0,186.17,320.41Z" style="fill:#ADE0F9"></path><path d="M183.62,332.89a.86.86,0,0,0-1.7,0h0l1.16.67A.74.74,0,0,0,183.62,332.89Z" style="fill:#ADE0F9"></path><path d="M193,317.47a.74.74,0,1,0,.85.74A.8.8,0,0,0,193,317.47Z" style="fill:#ADE0F9"></path><path d="M199.73,323.34a.75.75,0,1,0,.85.74A.8.8,0,0,0,199.73,323.34Z" style="fill:#ADE0F9"></path><ellipse cx="196.34" cy="327.02" rx="0.85" ry="0.74" style="fill:#ADE0F9"></ellipse><path d="M196.34,329.22a.74.74,0,1,0,.85.73A.8.8,0,0,0,196.34,329.22Z" style="fill:#ADE0F9"></path><path d="M206.52,326.28a.8.8,0,0,0-.85.74.76.76,0,0,0,.72.71l.94-.54a1,1,0,0,0,0-.17A.8.8,0,0,0,206.52,326.28Z" style="fill:#ADE0F9"></path><path d="M180.23,312.33a.54.54,0,0,0,0-.21l-1.33.77a1,1,0,0,0,.53.18A.8.8,0,0,0,180.23,312.33Z" style="fill:#ADE0F9"></path><path d="M182.77,323.34a.75.75,0,1,0,.85.74A.8.8,0,0,0,182.77,323.34Z" style="fill:#ADE0F9"></path><path d="M199.73,329.22a.74.74,0,1,0,.85.73A.8.8,0,0,0,199.73,329.22Z" style="fill:#ADE0F9"></path><ellipse cx="192.95" cy="327.02" rx="0.85" ry="0.74" style="fill:#ADE0F9"></ellipse><path d="M193,323.34a.75.75,0,1,0,.85.74A.8.8,0,0,0,193,323.34Z" style="fill:#ADE0F9"></path><path d="M193,320.41a.74.74,0,1,0,.85.73A.8.8,0,0,0,193,320.41Z" style="fill:#ADE0F9"></path><path d="M196.34,323.34a.75.75,0,1,0,.85.74A.8.8,0,0,0,196.34,323.34Z" style="fill:#ADE0F9"></path><path d="M193,332.16a.74.74,0,1,0,.85.73A.8.8,0,0,0,193,332.16Z" style="fill:#ADE0F9"></path><path d="M196.34,320.41a.74.74,0,1,0,.85.73A.8.8,0,0,0,196.34,320.41Z" style="fill:#ADE0F9"></path><path d="M193,329.22a.74.74,0,1,0,.85.73A.8.8,0,0,0,193,329.22Z" style="fill:#ADE0F9"></path><path d="M199.73,326.28a.74.74,0,1,0,.85.74A.8.8,0,0,0,199.73,326.28Z" style="fill:#ADE0F9"></path><path d="M187,335.83a.8.8,0,0,0-.84-.74,1.21,1.21,0,0,0-.34.06l1.18.68Z" style="fill:#ADE0F9"></path><path d="M172.6,317.47a.74.74,0,1,0,.85.74A.8.8,0,0,0,172.6,317.47Z" style="fill:#ADE0F9"></path><path d="M176,329.22a.88.88,0,0,0-.33.06l1.18.68h0A.8.8,0,0,0,176,329.22Z" style="fill:#ADE0F9"></path><path d="M165.81,321.88a.8.8,0,0,0,.85-.74.79.79,0,0,0-.84-.73l-.79.45a.67.67,0,0,0-.06.28A.8.8,0,0,0,165.81,321.88Z" style="fill:#ADE0F9"></path><path d="M173.45,327a.86.86,0,0,0-1.7,0h0l1.17.68A.74.74,0,0,0,173.45,327Z" style="fill:#ADE0F9"></path><path d="M170.05,318.21a.78.78,0,0,0,0-.22l-1.34.77a.9.9,0,0,0,.54.18A.8.8,0,0,0,170.05,318.21Z" style="fill:#ADE0F9"></path><path d="M169.21,323.34a.75.75,0,1,0,.84.74A.8.8,0,0,0,169.21,323.34Z" style="fill:#ADE0F9"></path><path d="M169.21,320.41a.74.74,0,1,0,.84.73A.8.8,0,0,0,169.21,320.41Z" style="fill:#ADE0F9"></path><path d="M165.81,323.34a1.2,1.2,0,0,0-.33.06l1.18.69h0A.8.8,0,0,0,165.81,323.34Z" style="fill:#ADE0F9"></path><path d="M203.12,324.82a.75.75,0,1,0-.84-.74A.8.8,0,0,0,203.12,324.82Z" style="fill:#ADE0F9"></path><ellipse cx="203.12" cy="327.02" rx="0.85" ry="0.74" style="fill:#ADE0F9"></ellipse><path d="M198.88,321.14a.8.8,0,0,0,.85.74.89.89,0,0,0,.65-.28l-1.38-.8A.61.61,0,0,0,198.88,321.14Z" style="fill:#ADE0F9"></path><path d="M182.77,320.41a.74.74,0,1,0,.85.73A.8.8,0,0,0,182.77,320.41Z" style="fill:#ADE0F9"></path><path d="M190.41,335.83a.86.86,0,1,0-.85.73A.8.8,0,0,0,190.41,335.83Z" style="fill:#ADE0F9"></path><path d="M196.34,332.16a.8.8,0,0,0-.85.73.78.78,0,0,0,.73.72l.93-.54a.58.58,0,0,0,0-.18A.8.8,0,0,0,196.34,332.16Z" style="fill:#ADE0F9"></path><path d="M202.28,330a.7.7,0,0,0,0,.14l1.27-.74a1,1,0,0,0-.46-.13A.8.8,0,0,0,202.28,330Z" style="fill:#ADE0F9"></path><path d="M193,335.09a.8.8,0,0,0-.85.74.5.5,0,0,0,0,.13l1.28-.73A.92.92,0,0,0,193,335.09Z" style="fill:#ADE0F9"></path><path d="M179.38,323.34a.75.75,0,1,0,.85.74A.8.8,0,0,0,179.38,323.34Z" style="fill:#ADE0F9"></path><path d="M179.38,329.22a.74.74,0,1,0,.85.73A.8.8,0,0,0,179.38,329.22Z" style="fill:#ADE0F9"></path><path d="M179.38,317.47a.74.74,0,1,0,.85.74A.8.8,0,0,0,179.38,317.47Z" style="fill:#ADE0F9"></path><path d="M179.38,320.41a.74.74,0,1,0,.85.73A.8.8,0,0,0,179.38,320.41Z" style="fill:#ADE0F9"></path><ellipse cx="179.38" cy="327.02" rx="0.85" ry="0.74" style="fill:#ADE0F9"></ellipse><path d="M182.77,317.47a.74.74,0,1,0,.85.74A.8.8,0,0,0,182.77,317.47Z" style="fill:#ADE0F9"></path><path d="M182.77,311.59a.75.75,0,1,0,.85.74A.8.8,0,0,0,182.77,311.59Z" style="fill:#ADE0F9"></path><path d="M182.77,314.53a.74.74,0,1,0,.85.74A.8.8,0,0,0,182.77,314.53Z" style="fill:#ADE0F9"></path><path d="M176,317.47a.74.74,0,1,0,.85.74A.8.8,0,0,0,176,317.47Z" style="fill:#ADE0F9"></path><path d="M172.6,323.34a.75.75,0,1,0,.85.74A.8.8,0,0,0,172.6,323.34Z" style="fill:#ADE0F9"></path><path d="M179.38,314.53a.74.74,0,1,0,.85.74A.8.8,0,0,0,179.38,314.53Z" style="fill:#ADE0F9"></path><path d="M176,320.41a.74.74,0,1,0,.85.73A.8.8,0,0,0,176,320.41Z" style="fill:#ADE0F9"></path><path d="M172.6,320.41a.74.74,0,1,0,.85.73A.8.8,0,0,0,172.6,320.41Z" style="fill:#ADE0F9"></path><path d="M176,316a.74.74,0,1,0,0-1.47l-.8.46a.67.67,0,0,0-.06.28A.8.8,0,0,0,176,316Z" style="fill:#ADE0F9"></path><ellipse cx="175.99" cy="327.02" rx="0.85" ry="0.74" style="fill:#ADE0F9"></ellipse><path d="M176,323.34a.75.75,0,1,0,.85.74A.8.8,0,0,0,176,323.34Z" style="fill:#ADE0F9"></path><polygon points="185.87 324.19 176.37 329.69 189.68 337.38 199.19 331.89 185.87 324.19" style="opacity:0.05"></polygon><polygon points="182.03 311.03 172.53 316.53 185.84 324.22 195.35 318.73 182.03 311.03" style="opacity:0.05"></polygon><polygon points="199.19 331.89 185.84 324.22 176.37 329.69 185.83 324.98 199.19 331.89" style="opacity:0.1"></polygon><polygon points="172.53 316.53 185.84 324.22 195.35 318.73 185.87 323.52 172.53 316.53" style="opacity:0.1"></polygon></g><g id="freepik--tablecloth--inject-3"><polygon points="134.91 314.51 115.89 325.48 142.52 340.86 161.53 329.88 134.91 314.51" style="opacity:0.2"></polygon><polygon points="134.91 313.73 115.89 324.71 142.52 340.08 161.53 329.1 134.91 313.73" style="fill:#fafafa"></polygon><path d="M142.39,320.17a.75.75,0,1,0,.85.74A.8.8,0,0,0,142.39,320.17Z" style="fill:#ADE0F9"></path><ellipse cx="139" cy="332.66" rx="0.85" ry="0.74" style="fill:#ADE0F9"></ellipse><ellipse cx="142.39" cy="323.85" rx="0.85" ry="0.74" style="fill:#ADE0F9"></ellipse><path d="M142.39,318.71a.89.89,0,0,0,.65-.28l-1.38-.8a.61.61,0,0,0-.12.34A.8.8,0,0,0,142.39,318.71Z" style="fill:#ADE0F9"></path><path d="M142.39,326.05a.74.74,0,1,0,.85.73A.8.8,0,0,0,142.39,326.05Z" style="fill:#ADE0F9"></path><path d="M139,334.86a.74.74,0,1,0,.85.74A.8.8,0,0,0,139,334.86Z" style="fill:#ADE0F9"></path><path d="M142.39,334.86a.74.74,0,1,0,.85.74A.8.8,0,0,0,142.39,334.86Z" style="fill:#ADE0F9"></path><path d="M142.39,329a.74.74,0,1,0,.85.73A.8.8,0,0,0,142.39,329Z" style="fill:#ADE0F9"></path><ellipse cx="135.61" cy="332.66" rx="0.85" ry="0.74" style="fill:#ADE0F9"></ellipse><path d="M135.61,329a.74.74,0,1,0,.85.73A.8.8,0,0,0,135.61,329Z" style="fill:#ADE0F9"></path><ellipse cx="142.39" cy="332.66" rx="0.85" ry="0.74" style="fill:#ADE0F9"></ellipse><path d="M139,317.24a.74.74,0,1,0,.85.73A.8.8,0,0,0,139,317.24Z" style="fill:#ADE0F9"></path><path d="M139,326.05a.74.74,0,1,0,.85.73A.8.8,0,0,0,139,326.05Z" style="fill:#ADE0F9"></path><path d="M139,320.17a.75.75,0,1,0,.85.74A.8.8,0,0,0,139,320.17Z" style="fill:#ADE0F9"></path><path d="M139,329a.74.74,0,1,0,.85.73A.8.8,0,0,0,139,329Z" style="fill:#ADE0F9"></path><ellipse cx="139" cy="323.85" rx="0.85" ry="0.74" style="fill:#ADE0F9"></ellipse><path d="M136.46,335.6a.86.86,0,0,0-1.7,0h0l1.17.68A.75.75,0,0,0,136.46,335.6Z" style="fill:#ADE0F9"></path><path d="M145.79,320.17a.75.75,0,1,0,.84.74A.8.8,0,0,0,145.79,320.17Z" style="fill:#ADE0F9"></path><path d="M152.57,326.05a.74.74,0,1,0,.85.73A.8.8,0,0,0,152.57,326.05Z" style="fill:#ADE0F9"></path><path d="M149.18,329a.74.74,0,1,0,.85.73A.8.8,0,0,0,149.18,329Z" style="fill:#ADE0F9"></path><path d="M149.18,331.92a.74.74,0,1,0,.85.74A.8.8,0,0,0,149.18,331.92Z" style="fill:#ADE0F9"></path><path d="M159.35,329a.8.8,0,0,0-.85.73.78.78,0,0,0,.73.72l.93-.55a.47.47,0,0,0,0-.17A.8.8,0,0,0,159.35,329Z" style="fill:#ADE0F9"></path><path d="M133.07,315a.65.65,0,0,0,0-.2l-1.33.76a.85.85,0,0,0,.53.18A.8.8,0,0,0,133.07,315Z" style="fill:#ADE0F9"></path><path d="M135.61,326.05a.74.74,0,1,0,.85.73A.8.8,0,0,0,135.61,326.05Z" style="fill:#ADE0F9"></path><path d="M152.57,331.92a.74.74,0,1,0,.85.74A.8.8,0,0,0,152.57,331.92Z" style="fill:#ADE0F9"></path><path d="M145.79,329a.74.74,0,1,0,.84.73A.8.8,0,0,0,145.79,329Z" style="fill:#ADE0F9"></path><path d="M145.79,326.05a.74.74,0,1,0,.84.73A.8.8,0,0,0,145.79,326.05Z" style="fill:#ADE0F9"></path><ellipse cx="145.79" cy="323.85" rx="0.85" ry="0.74" style="fill:#ADE0F9"></ellipse><path d="M149.18,326.05a.74.74,0,1,0,.85.73A.8.8,0,0,0,149.18,326.05Z" style="fill:#ADE0F9"></path><path d="M145.79,334.86a.74.74,0,1,0,.84.74A.8.8,0,0,0,145.79,334.86Z" style="fill:#ADE0F9"></path><path d="M149.18,323.11a.74.74,0,1,0,.85.74A.8.8,0,0,0,149.18,323.11Z" style="fill:#ADE0F9"></path><ellipse cx="145.79" cy="332.66" rx="0.85" ry="0.74" style="fill:#ADE0F9"></ellipse><path d="M152.57,329a.74.74,0,1,0,.85.73A.8.8,0,0,0,152.57,329Z" style="fill:#ADE0F9"></path><path d="M139.85,338.53a.8.8,0,0,0-.85-.73.88.88,0,0,0-.33.06l1.18.68Z" style="fill:#ADE0F9"></path><path d="M125.43,320.17a.75.75,0,1,0,.85.74A.8.8,0,0,0,125.43,320.17Z" style="fill:#ADE0F9"></path><path d="M128.83,331.92a1.28,1.28,0,0,0-.34.06l1.18.68h0A.81.81,0,0,0,128.83,331.92Z" style="fill:#ADE0F9"></path><path d="M118.65,324.58a.74.74,0,1,0,0-1.47l-.79.46a.64.64,0,0,0-.07.28A.8.8,0,0,0,118.65,324.58Z" style="fill:#ADE0F9"></path><path d="M126.28,329.72a.85.85,0,0,0-1.69,0h0l1.16.67A.74.74,0,0,0,126.28,329.72Z" style="fill:#ADE0F9"></path><path d="M122.89,320.91a.5.5,0,0,0,0-.21l-1.33.77a.94.94,0,0,0,.53.18A.8.8,0,0,0,122.89,320.91Z" style="fill:#ADE0F9"></path><path d="M122,326.05a.74.74,0,1,0,.85.73A.8.8,0,0,0,122,326.05Z" style="fill:#ADE0F9"></path><path d="M122,323.11a.74.74,0,1,0,.85.74A.8.8,0,0,0,122,323.11Z" style="fill:#ADE0F9"></path><path d="M118.65,326.05a.88.88,0,0,0-.33.06l1.18.68h0A.8.8,0,0,0,118.65,326.05Z" style="fill:#ADE0F9"></path><path d="M156,327.52a.74.74,0,1,0-.85-.74A.8.8,0,0,0,156,327.52Z" style="fill:#ADE0F9"></path><path d="M156,330.46a.74.74,0,1,0-.85-.74A.8.8,0,0,0,156,330.46Z" style="fill:#ADE0F9"></path><path d="M151.72,323.85a.8.8,0,0,0,.85.73.87.87,0,0,0,.65-.28l-1.39-.8A.72.72,0,0,0,151.72,323.85Z" style="fill:#ADE0F9"></path><ellipse cx="135.61" cy="323.85" rx="0.85" ry="0.74" style="fill:#ADE0F9"></ellipse><ellipse cx="142.39" cy="338.53" rx="0.85" ry="0.74" style="fill:#ADE0F9"></ellipse><path d="M149.18,334.86a.8.8,0,0,0-.85.74.76.76,0,0,0,.72.71l.94-.54a1,1,0,0,0,0-.17A.8.8,0,0,0,149.18,334.86Z" style="fill:#ADE0F9"></path><path d="M155.11,332.66a.5.5,0,0,0,0,.13l1.28-.73a.92.92,0,0,0-.46-.14A.8.8,0,0,0,155.11,332.66Z" style="fill:#ADE0F9"></path><path d="M145.79,337.8a.8.8,0,0,0-.85.73.7.7,0,0,0,0,.14l1.27-.74A.85.85,0,0,0,145.79,337.8Z" style="fill:#ADE0F9"></path><path d="M132.22,326.05a.74.74,0,1,0,.85.73A.8.8,0,0,0,132.22,326.05Z" style="fill:#ADE0F9"></path><path d="M132.22,331.92a.74.74,0,1,0,.85.74A.8.8,0,0,0,132.22,331.92Z" style="fill:#ADE0F9"></path><path d="M132.22,320.17a.75.75,0,1,0,.85.74A.8.8,0,0,0,132.22,320.17Z" style="fill:#ADE0F9"></path><path d="M132.22,323.11a.74.74,0,1,0,.85.74A.8.8,0,0,0,132.22,323.11Z" style="fill:#ADE0F9"></path><path d="M132.22,329a.74.74,0,1,0,.85.73A.8.8,0,0,0,132.22,329Z" style="fill:#ADE0F9"></path><path d="M135.61,320.17a.75.75,0,1,0,.85.74A.8.8,0,0,0,135.61,320.17Z" style="fill:#ADE0F9"></path><path d="M135.61,314.3a.74.74,0,1,0,.85.73A.8.8,0,0,0,135.61,314.3Z" style="fill:#ADE0F9"></path><path d="M135.61,317.24a.74.74,0,1,0,.85.73A.8.8,0,0,0,135.61,317.24Z" style="fill:#ADE0F9"></path><path d="M128.83,320.17a.75.75,0,1,0,.85.74A.8.8,0,0,0,128.83,320.17Z" style="fill:#ADE0F9"></path><path d="M125.43,326.05a.74.74,0,1,0,.85.73A.8.8,0,0,0,125.43,326.05Z" style="fill:#ADE0F9"></path><path d="M132.22,317.24a.74.74,0,1,0,.85.73A.8.8,0,0,0,132.22,317.24Z" style="fill:#ADE0F9"></path><path d="M128.83,323.11a.74.74,0,1,0,.85.74A.8.8,0,0,0,128.83,323.11Z" style="fill:#ADE0F9"></path><ellipse cx="125.43" cy="323.85" rx="0.85" ry="0.74" style="fill:#ADE0F9"></ellipse><path d="M128.83,318.71a.81.81,0,0,0,.85-.74.8.8,0,0,0-.84-.73l-.8.46a.63.63,0,0,0-.06.27A.8.8,0,0,0,128.83,318.71Z" style="fill:#ADE0F9"></path><path d="M128.83,329a.74.74,0,1,0,.85.73A.8.8,0,0,0,128.83,329Z" style="fill:#ADE0F9"></path><path d="M128.83,326.05a.74.74,0,1,0,.85.73A.8.8,0,0,0,128.83,326.05Z" style="fill:#ADE0F9"></path><polygon points="138.71 326.89 129.21 332.4 142.52 340.08 152.03 334.59 138.71 326.89" style="opacity:0.05"></polygon><polygon points="134.87 313.73 125.37 319.24 138.68 326.92 148.19 321.43 134.87 313.73" style="opacity:0.05"></polygon><polygon points="152.03 334.59 138.68 326.92 129.21 332.4 138.67 327.68 152.03 334.59" style="opacity:0.1"></polygon><polygon points="125.37 319.24 138.68 326.92 148.19 321.43 138.71 326.23 125.37 319.24" style="opacity:0.1"></polygon></g><g id="freepik--Legs--inject-3"><path d="M136.29,387.28a9.74,9.74,0,0,0-.61,2.38,5.27,5.27,0,0,0-.19,2.61,4.4,4.4,0,0,0,2.95,2.3,5.83,5.83,0,0,0,4.12-.89c1.81-1.08,2.52-1.91,6.64-2.21a9.64,9.64,0,0,0,5.77-2.39c1.59-1.42,1.21-3.92-1.54-3.91-3.31,0-8,.6-12.44,0Z" style="fill:#263238"></path><path d="M120,378a9.74,9.74,0,0,0-.61,2.38,5.27,5.27,0,0,0-.19,2.61,4.4,4.4,0,0,0,3,2.3,5.81,5.81,0,0,0,4.11-.89c1.81-1.08,2.52-1.91,6.65-2.21a9.64,9.64,0,0,0,5.76-2.39c1.6-1.42,1.22-3.92-1.54-3.91-3.31,0-8,.6-12.43,0Z" style="fill:#263238"></path><path d="M120,374.51v4.05s.56,1.34,2.86,1.43a3.49,3.49,0,0,0,3.07-1.47v-4Z" style="fill:#ffc4c3"></path><path d="M127.71,348c0,5-1.41,28.27-1.41,28.27s-2.06,2.61-6.54,0l-1.52-25.78Z" style="fill:#ADE0F9"></path><g style="opacity:0.1"><path d="M127.71,348c0,5-1.41,28.27-1.41,28.27s-2.06,2.61-6.54,0l-1.52-25.78Z"></path></g><path d="M135.48,383.9l.81,4.05s.56,1.35,2.87,1.44a3.5,3.5,0,0,0,3.06-1.47l-.33-4.66Z" style="fill:#ffc4c3"></path><path d="M139.77,355c.43,2.33,2.48,29.73,2.48,29.73s-2.29,3.19-6.77.58l-5.08-26.86Z" style="fill:#ADE0F9"></path></g><g id="freepik--bench--inject-3"><path d="M153.27,415V394h6.33V415a1.56,1.56,0,0,1-.93,1.29,4.9,4.9,0,0,1-4.47,0A1.56,1.56,0,0,1,153.27,415Z" style="fill:#37474f"></path><path d="M158.67,392.68a5,5,0,0,0-4.47,0,1.36,1.36,0,0,0,0,2.58,4.9,4.9,0,0,0,4.47,0A1.36,1.36,0,0,0,158.67,392.68Z" style="fill:#455a64"></path><path d="M45.82,353V332h6.33V353a1.57,1.57,0,0,1-.92,1.3,5,5,0,0,1-4.48,0A1.58,1.58,0,0,1,45.82,353Z" style="fill:#263238"></path><path d="M51.23,330.66a5,5,0,0,0-4.48,0,1.37,1.37,0,0,0,0,2.59,5,5,0,0,0,4.48,0A1.37,1.37,0,0,0,51.23,330.66Z" style="fill:#455a64"></path><path d="M167.62,387v1.86a3.18,3.18,0,0,1-1.43,2.48l-19.52,11.27a3.2,3.2,0,0,1-2.86,0l-109-63a3.14,3.14,0,0,1-1.43-2.48v-1.86a3.18,3.18,0,0,1,1.43-2.48l19.52-11.27a3.14,3.14,0,0,1,2.86,0l109.05,63A3.14,3.14,0,0,1,167.62,387Z" style="fill:#37474f"></path><path d="M145.24,397.75v5.18a2.89,2.89,0,0,0,1.43-.36l19.52-11.26a3.16,3.16,0,0,0,1.43-2.48V387a3.11,3.11,0,0,0-1.17-2.29c.52.44.43,1.05-.26,1.46L146.67,397.4A2.78,2.78,0,0,1,145.24,397.75Z" style="fill:#263238"></path><path d="M166.19,386.14l-19.52,11.27a3.14,3.14,0,0,1-2.86,0l-109-63a.87.87,0,0,1,0-1.65l19.52-11.27a3.14,3.14,0,0,1,2.86,0l109.05,63A.87.87,0,0,1,166.19,386.14Z" style="fill:#455a64"></path><polygon points="156.75 391.59 44.84 326.98 44.09 327.41 156 392.02 156.75 391.59" style="fill:#263238"></polygon></g><g id="freepik--character--inject-3"><g id="freepik--character--inject-3"><path d="M90.16,354.14s19.84-6.26,23.47-7.25,10.6-2.67,12.63-1.76,3.07,2,3.26,4.91c0,.55,0,3.23,0,3.23s-10.1,3.13-18.37,3.13S90.16,354.14,90.16,354.14Z" style="fill:#ADE0F9"></path><g style="opacity:0.1"><path d="M90.16,354.14c-1.42.45,19.74-6.23,23.47-7.25s10.6-2.67,12.63-1.76,3.07,2,3.26,4.91c0,.55,0,3.23,0,3.23s-10.1,3.13-18.37,3.13S90.16,354.14,90.16,354.14Z"></path></g><path d="M89.5,350.63c-1,3.88-1,6.69.66,9.63s11.44,9.68,21.39,8.33c5.61-.76,20.29-6,20.29-6s8-2.95,8-5.05c0-.51.05-1.05,0-1.6-.17-2.79-1.3-5.8-7.13-5.64-6.38.16-25.28,3.26-25.28,3.26Z" style="fill:#ADE0F9"></path></g><path d="M97.4,315.52c-2,0-4.51,1.25-6.41,5.88s-5.62,15.88-6.4,19c-.36,1.39,8.41,13.78,8,13.6-.11-.06,3.43-6,3.43-6l-4.31-8.23,3.07-7.49Z" style="fill:#ffc4c3"></path><path d="M98.53,315.39s-3-.55-5,1.12-2.32,2.79-3.68,6.23-3.6,10.57-3.6,10.57.64,3.85,6.9,4.6l5.36-12.08S100.33,318.53,98.53,315.39Z" style="fill:#f5f5f5"></path><polygon points="109.56 312.12 108.44 321.29 100.38 320.56 101.3 310.38 109.56 312.12" style="fill:#ffc4c3"></polygon><path d="M92.52,319.75c.89-2.41,2.92-4.94,6-4.36.81.15,1.52.26,2.28.42.07,2.11,4,3.2,8,1.92,1.19.34,2.28.69,3.27,1,2.84,1,4,5.73,4,13.61s-.32,23.08-.32,23.08-4.43,3.56-15.64,1.78c-7.7-1.23-11.1-5.66-11.1-5.66A37.68,37.68,0,0,1,94.25,340C91.12,328.46,91.21,323.33,92.52,319.75Z" style="fill:#37474f"></path><g id="freepik--head--inject-3"><path d="M115.55,300.48a7.11,7.11,0,0,0-.61-6.82c-2.71-4.25-7.92-5-14.11-3.32a11,11,0,0,0-7.73,10c-.29,4.53,12.35,7.88,12.06,11Z" style="fill:#ADE0F9"></path><g style="opacity:0.30000000000000004"><path d="M115.55,300.48a7.11,7.11,0,0,0-.61-6.82c-2.71-4.25-7.92-5-14.11-3.32a11,11,0,0,0-7.73,10c-.29,4.53,12.35,7.88,12.06,11Z"></path></g><path d="M115.82,302.2s1.71,2.75,1.47,3a4.21,4.21,0,0,1-1.38.55Z" style="fill:#ffa8a7"></path><path d="M110.58,293.48c1.72.95,4.68,2.69,5.28,9.11.61,6.6-.91,8.84-1.83,9.68-.62.56-3.75.69-5.36.14-2-.69-6.38-3-8.35-6.43-2.33-4.06-2.69-9.39.18-11.4A10.49,10.49,0,0,1,110.58,293.48Z" style="fill:#ffc4c3"></path><path d="M109.46,312.61a9.77,9.77,0,0,0,4.22-.15h0a6.47,6.47,0,0,1-4.12-1Z" style="fill:#ffa8a7"></path><path d="M96.63,289.59c1.73,1.36,1.13,3.58-.48,5.63s-3.62,3.18-5.36,1.82-1.84-4.13-.23-6.19S94.89,288.23,96.63,289.59Z" style="fill:#263238"></path><path d="M110.11,290l.1,3.1a12.67,12.67,0,0,0-10.8-1.28,8.92,8.92,0,0,0-1.88.83c0-.16.08-.33.11-.49a1.67,1.67,0,0,0,.07-3.33l-.2,1.91a2.69,2.69,0,0,0-.88-1.17c-1.74-1.36-4.46-.8-6.07,1.26s-1.51,4.83.23,6.19a2.64,2.64,0,0,0,2.9.29A11.68,11.68,0,0,0,96,308.66c5.2,5.87,11.21,3.19,11.21,3.19a13.56,13.56,0,0,0,3-4.55,3,3,0,0,1-3.13-.75c-1.55-1.43-1.67-4.13.38-4.75s3,1.75,3,1.75a9.36,9.36,0,0,0,.83-2.69,6.57,6.57,0,0,0,3.32-4.88C115.33,291.79,110.11,290,110.11,290Z" style="fill:#ADE0F9"></path><path d="M110.11,290l.1,3.1a12.67,12.67,0,0,0-10.8-1.28,8.92,8.92,0,0,0-1.88.83c0-.16.08-.33.11-.49a1.67,1.67,0,0,0,.07-3.33l-.2,1.91a2.69,2.69,0,0,0-.88-1.17c-1.74-1.36-4.46-.8-6.07,1.26s-1.51,4.83.23,6.19a2.64,2.64,0,0,0,2.9.29A11.68,11.68,0,0,0,96,308.66c5.2,5.87,11.21,3.19,11.21,3.19a13.56,13.56,0,0,0,3-4.55,3,3,0,0,1-3.13-.75c-1.55-1.43-1.67-4.13.38-4.75s3,1.75,3,1.75a9.36,9.36,0,0,0,.83-2.69,6.57,6.57,0,0,0,3.32-4.88C115.33,291.79,110.11,290,110.11,290Z" style="opacity:0.30000000000000004"></path><path d="M93.08,296.79c-2.43.2-3.34-1.69-3.64-3.23A3.81,3.81,0,0,0,90.78,297a2.64,2.64,0,0,0,2.9.3,5.89,5.89,0,0,0,3.67-3.64S95.83,296.57,93.08,296.79Z" style="opacity:0.15"></path></g><g id="freepik--arm--inject-3"><path d="M132.46,325.37a10.51,10.51,0,0,1,9.46,0,3.33,3.33,0,0,1,2,2.73v1.27a3.32,3.32,0,0,1-2,2.73,10.44,10.44,0,0,1-9.46,0,3.33,3.33,0,0,1-2-2.73V328.1A3.33,3.33,0,0,1,132.46,325.37Z" style="fill:#ffbda7"></path><path d="M141.92,330.84a10.51,10.51,0,0,1-9.46,0c-2.61-1.51-2.61-4,0-5.47a10.51,10.51,0,0,1,9.46,0C144.53,326.88,144.53,329.33,141.92,330.84Z" style="fill:#f0997a"></path><path d="M143.73,330.15s-.5.79-2.1.52l-.67.3a2.34,2.34,0,0,0,1.76.21A1.31,1.31,0,0,0,143.73,330.15Z" style="fill:#f0997a"></path><path d="M132.46,323.79a10.44,10.44,0,0,1,9.46,0,3.3,3.3,0,0,1,2,2.72v1.27a3.3,3.3,0,0,1-2,2.73,10.44,10.44,0,0,1-9.46,0,3.33,3.33,0,0,1-2-2.72v-1.27A3.31,3.31,0,0,1,132.46,323.79Z" style="fill:#b16668"></path><path d="M141.92,329.25a10.44,10.44,0,0,1-9.46,0c-2.61-1.51-2.61-4,0-5.46a10.44,10.44,0,0,1,9.46,0C144.53,325.29,144.53,327.74,141.92,329.25Z" style="fill:#9a4a4d"></path><path d="M132.45,325.1h9.48a8.85,8.85,0,0,1,1.06,4.48c0,.48-.06.78-.85.61a21.1,21.1,0,0,0-9.91,0c-.78.17-.84-.13-.84-.61A8.74,8.74,0,0,1,132.45,325.1Z" style="fill:#f0f0f0"></path><path d="M142.75,328.54a1.54,1.54,0,0,1-.93.71,11.11,11.11,0,0,1-1.16.12,9,9,0,0,0-2,.95,2.21,2.21,0,0,1-1,.15,3.55,3.55,0,0,1-1-.28c-.53-.21-1.05-.48-1.6-.64a2.9,2.9,0,0,0-1.34-.12,1.77,1.77,0,0,1-1.11-.11c-.66-.31-.88-1.17-1.48-1.58s-1.16-.39-1.44-.89a1,1,0,0,1,.19-1.15,2.29,2.29,0,0,1,1-.64,9.57,9.57,0,0,1,2.25-.46c1.72-.17,3.45-.28,5.18-.32a14.57,14.57,0,0,1,5,.43,3,3,0,0,1,1.06.52,1.24,1.24,0,0,1,.47,1,1.34,1.34,0,0,1-.66.87c-.2.13-.44.23-.63.37A4.18,4.18,0,0,0,142.75,328.54Z" style="fill:#ADE0F9"></path><path d="M130.28,324.49s0,0,0-.05c.61-2.34,3.46-4.1,6.89-4.1s6.28,1.76,6.89,4.1a.09.09,0,0,1,0,.05,2.16,2.16,0,0,1,.11.79,3.5,3.5,0,0,1-2,2.79,10.91,10.91,0,0,1-9.92,0,3.51,3.51,0,0,1-2.06-2.79A2.4,2.4,0,0,1,130.28,324.49Z" style="fill:#ffbda7"></path><path d="M131.69,326.87c1.75,1.33,6.23,1.77,9,.36s2.92-3.81,2-4.92a4.54,4.54,0,0,1,1.33,2.13.09.09,0,0,1,0,.05,2.16,2.16,0,0,1,.11.79,3.5,3.5,0,0,1-2,2.79,10.91,10.91,0,0,1-9.92,0,3.51,3.51,0,0,1-2.06-2.79,2.4,2.4,0,0,1,.11-.79A3,3,0,0,0,131.69,326.87Z" style="fill:#f0997a"></path><path d="M137.68,323.81a1.44,1.44,0,0,1,.92,1.42,24.09,24.09,0,0,1,0,3.23h-1.21Z" style="fill:#f0997a"></path><path d="M139.9,333.14c-.16-1.72-2-5.09-2-5.09s.8-3.27-.25-4.24S137,325,135.43,327s-1.76,5-2.93,6.32l-6.44,7s-5.16-10.46-8-15.8c-2.21-4.16-4.28-5.11-6.65-5.94-3.35,5.05,1.68,13.77,1.68,13.77s7.63,13.81,9.1,15.82,3.73,3,5.11,1.73,8.85-11.94,8.85-11.94h0C137.54,335.71,140,334.45,139.9,333.14Z" style="fill:#ffc4c3"></path><path d="M110.25,318.16a9,9,0,0,1,7.22,4.8c2.83,5.12,5.82,10.9,5.82,10.9s-2.05,5-7.29,5.33c0-.51-4.29-8.1-5.89-11.35S108.65,319.62,110.25,318.16Z" style="fill:#f5f5f5"></path><path d="M137.93,328.05a13.37,13.37,0,0,0,3,2.7,2,2,0,0,0,2.75-.37l.08-.23s1.11,1.81-1.58,3.22-4.23,2-5.78,4.19Z" style="fill:#ffc4c3"></path></g></g><g id="freepik--Burger--inject-3"><path d="M190.57,328a11.61,11.61,0,0,1-10.52,0c-2.91-1.68-2.91-4.4,0-6.08a11.61,11.61,0,0,1,10.52,0C193.48,323.62,193.48,326.34,190.57,328Z" style="opacity:0.1"></path><path d="M180.58,320.74a10.51,10.51,0,0,1,9.46,0,3.33,3.33,0,0,1,2,2.73v1.26a3.3,3.3,0,0,1-2,2.74,10.44,10.44,0,0,1-9.46,0,3.32,3.32,0,0,1-2-2.73v-1.27A3.32,3.32,0,0,1,180.58,320.74Z" style="fill:#ffbda7"></path><path d="M190,326.21a10.51,10.51,0,0,1-9.46,0c-2.61-1.51-2.61-4,0-5.47a10.51,10.51,0,0,1,9.46,0C192.65,322.25,192.65,324.7,190,326.21Z" style="fill:#f0997a"></path><path d="M180.58,319.16a10.44,10.44,0,0,1,9.46,0,3.3,3.3,0,0,1,2,2.72v1.27a3.28,3.28,0,0,1-2,2.73,10.44,10.44,0,0,1-9.46,0,3.31,3.31,0,0,1-2-2.72v-1.28A3.29,3.29,0,0,1,180.58,319.16Z" style="fill:#b16668"></path><path d="M190,324.62a10.44,10.44,0,0,1-9.46,0c-2.61-1.51-2.61-4,0-5.46a10.44,10.44,0,0,1,9.46,0C192.65,320.66,192.65,323.11,190,324.62Z" style="fill:#9a4a4d"></path><path d="M180.57,320.47h9.48a8.74,8.74,0,0,1,1.06,4.48c0,.48-.06.78-.85.61a21.06,21.06,0,0,0-9.9,0c-.79.17-.85-.13-.85-.61A8.74,8.74,0,0,1,180.57,320.47Z" style="fill:#f0f0f0"></path><path d="M190.87,323.91a1.52,1.52,0,0,1-.93.71,10.84,10.84,0,0,1-1.16.12,9,9,0,0,0-2,.95,2.18,2.18,0,0,1-1,.15,3.41,3.41,0,0,1-1-.28c-.54-.21-1.06-.48-1.61-.64a2.9,2.9,0,0,0-1.34-.12,1.74,1.74,0,0,1-1.1-.11c-.66-.31-.89-1.17-1.48-1.58s-1.17-.39-1.45-.9a1,1,0,0,1,.19-1.14,2.34,2.34,0,0,1,1-.64,9.67,9.67,0,0,1,2.25-.46c1.72-.17,3.45-.28,5.18-.32a14.57,14.57,0,0,1,5,.43,2.92,2.92,0,0,1,1.06.52,1.27,1.27,0,0,1,.48,1,1.39,1.39,0,0,1-.67.87c-.2.13-.43.23-.63.37A4.43,4.43,0,0,0,190.87,323.91Z" style="fill:#ADE0F9"></path><path d="M178.4,319.86s0,0,0-.05c.61-2.34,3.46-4.1,6.89-4.1s6.28,1.76,6.89,4.1c0,0,0,0,0,.05a2.38,2.38,0,0,1,.1.79,3.5,3.5,0,0,1-2,2.79,11,11,0,0,1-9.92,0,3.5,3.5,0,0,1-2-2.79A2.38,2.38,0,0,1,178.4,319.86Z" style="fill:#ffbda7"></path><path d="M179.82,322.24c1.75,1.33,6.22,1.77,9,.36s2.92-3.81,2-4.92a4.42,4.42,0,0,1,1.33,2.13s0,0,0,.05a2.38,2.38,0,0,1,.1.79,3.5,3.5,0,0,1-2,2.79,11,11,0,0,1-9.92,0,3.5,3.5,0,0,1-2-2.79,2.38,2.38,0,0,1,.1-.79A2.94,2.94,0,0,0,179.82,322.24Z" style="fill:#f0997a"></path></g><g id="freepik--Soda--inject-3"><g style="opacity:0.2"><path d="M169.29,347.08a11.31,11.31,0,0,1-7,0c-1.9-.74-1.9-1.94,0-2.68a11.31,11.31,0,0,1,7,0C171.25,345.14,171.25,346.34,169.29,347.08Z"></path></g><path d="M170.48,333.42H161l.72,12h0c0,.4.42.8,1.14,1.11a8.39,8.39,0,0,0,5.68,0c.75-.31,1.14-.71,1.18-1.11h0Z" style="fill:#f0f0f0"></path><path d="M168.75,334.57a9.63,9.63,0,0,1-6.05,0c-1.64-.64-1.64-1.67,0-2.31a9.77,9.77,0,0,1,6.05,0C170.45,332.9,170.45,333.93,168.75,334.57Z" style="fill:#e0e0e0"></path><path d="M168.75,334.57a9.63,9.63,0,0,1-6.05,0c-1.64-.64-1.64-1.67,0-2.31a9.77,9.77,0,0,1,6.05,0C170.45,332.9,170.45,333.93,168.75,334.57Z" style="fill:#e0e0e0"></path><path d="M169.07,334.78a4,4,0,0,0,.62-.31,3.24,3.24,0,0,0-.77-.41,9.69,9.69,0,0,0-6.38,0,3.55,3.55,0,0,0-.76.42,4.19,4.19,0,0,0,.6.3A10.23,10.23,0,0,0,169.07,334.78Z" style="fill:#ADE0F9"></path><path d="M169.38,334.28a8.55,8.55,0,0,1-4,.44c-1.51-.19-2.24-.6-1.24-1.08a7.06,7.06,0,0,0-1.57.42,3.55,3.55,0,0,0-.76.42,4.19,4.19,0,0,0,.6.3,10.23,10.23,0,0,0,6.69,0,4,4,0,0,0,.62-.31Z" style="opacity:0.1"></path><path d="M169.07,332.05a10.23,10.23,0,0,0-6.69,0c-1.81.76-1.81,2,0,2.73a10.23,10.23,0,0,0,6.69,0C171,334,171,332.81,169.07,332.05Zm-.32,2.52a9.63,9.63,0,0,1-6.05,0c-1.64-.64-1.64-1.67,0-2.31a9.77,9.77,0,0,1,6.05,0C170.45,332.9,170.45,333.93,168.75,334.57Z" style="fill:#fafafa"></path><path d="M163.63,341.94c-1.33-.41-1.69-2-1.69-2.8a1.93,1.93,0,0,1,.55-1.57,1.2,1.2,0,0,1,1.08-.17,2.91,2.91,0,0,1,1.85,2.71,2.06,2.06,0,0,1-.62,1.7,1.11,1.11,0,0,1-.67.21A1.86,1.86,0,0,1,163.63,341.94Zm-.9-4.06a1.58,1.58,0,0,0-.4,1.26c0,.69.29,2.09,1.41,2.43a.93.93,0,0,0,.83-.07,1.73,1.73,0,0,0,.47-1.39,2.53,2.53,0,0,0-1.56-2.33,1.15,1.15,0,0,0-.31,0A.66.66,0,0,0,162.73,337.88Z" style="fill:#ADE0F9"></path></g><g id="freepik--soda--inject-3"><g style="opacity:0.2"><path d="M122.33,289a11.31,11.31,0,0,1-7,0c-1.89-.75-1.89-1.94,0-2.68a11.31,11.31,0,0,1,7,0C124.3,287,124.3,288.22,122.33,289Z"></path></g><path d="M123.59,275.22h-9.46l.71,12h0c.05.41.43.81,1.15,1.12a8.39,8.39,0,0,0,5.68,0c.74-.31,1.14-.71,1.18-1.12h0Z" style="fill:#f0f0f0"></path><path d="M121.86,276.37a9.77,9.77,0,0,1-6,0c-1.64-.64-1.64-1.67,0-2.31a9.77,9.77,0,0,1,6,0C123.56,274.7,123.56,275.73,121.86,276.37Z" style="fill:#e0e0e0"></path><path d="M121.86,276.37a9.77,9.77,0,0,1-6,0c-1.64-.64-1.64-1.67,0-2.31a9.77,9.77,0,0,1,6,0C123.56,274.7,123.56,275.73,121.86,276.37Z" style="fill:#e0e0e0"></path><path d="M122.18,276.58a4.47,4.47,0,0,0,.62-.31,3.14,3.14,0,0,0-.78-.41,9.66,9.66,0,0,0-6.37,0,3.16,3.16,0,0,0-.76.41,4.17,4.17,0,0,0,.6.31A10.23,10.23,0,0,0,122.18,276.58Z" style="fill:#ADE0F9"></path><path d="M122.49,276.07a8.54,8.54,0,0,1-4,.45c-1.51-.19-2.24-.6-1.24-1.08a6.91,6.91,0,0,0-1.57.42,3.16,3.16,0,0,0-.76.41,4.17,4.17,0,0,0,.6.31,10.23,10.23,0,0,0,6.69,0,4.47,4.47,0,0,0,.62-.31C122.71,276.2,122.6,276.14,122.49,276.07Z" style="opacity:0.1"></path><path d="M122.18,273.85a10.23,10.23,0,0,0-6.69,0c-1.82.75-1.82,2,0,2.73a10.23,10.23,0,0,0,6.69,0C124.06,275.82,124.06,274.6,122.18,273.85Zm-.32,2.52a9.77,9.77,0,0,1-6,0c-1.64-.64-1.64-1.67,0-2.31a9.77,9.77,0,0,1,6,0C123.56,274.7,123.56,275.73,121.86,276.37Z" style="fill:#fafafa"></path><path d="M116.74,283.73c-1.34-.4-1.69-2-1.69-2.79a1.92,1.92,0,0,1,.55-1.57,1.2,1.2,0,0,1,1.08-.17,2.91,2.91,0,0,1,1.85,2.71,2,2,0,0,1-.62,1.69,1.08,1.08,0,0,1-.67.22A1.51,1.51,0,0,1,116.74,283.73Zm-.9-4.06a1.62,1.62,0,0,0-.4,1.27c0,.69.29,2.08,1.41,2.43a.9.9,0,0,0,.83-.08,1.74,1.74,0,0,0,.47-1.38,2.55,2.55,0,0,0-1.56-2.34,1.76,1.76,0,0,0-.31,0A.7.7,0,0,0,115.84,279.67Z" style="fill:#ADE0F9"></path></g></g></g></svg>