<?xml version="1.0"?>
<svg xmlns="http://www.w3.org/2000/svg" xmlns:xlink="http://www.w3.org/1999/xlink" xmlns:svgjs="http://svgjs.com/svgjs" version="1.1" width="512" height="512" x="0" y="0" viewBox="0 0 511.968 511.968" style="enable-background:new 0 0 512 512" xml:space="preserve"><g><g xmlns="http://www.w3.org/2000/svg"><path d="m287.552 322.317c9.649 0 17.5-7.851 17.5-17.5v-38.373c0-9.649-7.851-17.5-17.5-17.5h-63.135c-9.649 0-17.5 7.851-17.5 17.5v38.373c0 9.649 7.851 17.5 17.5 17.5zm-65.635-17.5v-38.373c0-1.378 1.122-2.5 2.5-2.5h63.135c1.378 0 2.5 1.122 2.5 2.5v38.373c0 1.378-1.122 2.5-2.5 2.5h-63.135c-1.379 0-2.5-1.122-2.5-2.5z" fill="#757575" data-original="#000000" style=""/><path d="m206.917 356.368c0 4.142 3.358 7.5 7.5 7.5s7.5-3.358 7.5-7.5c0-4.142-3.358-7.5-7.5-7.5s-7.5 3.358-7.5 7.5z" fill="#757575" data-original="#000000" style=""/><path d="m429.908 493.619c9.649 0 17.5-7.851 17.5-17.5v-75.293c0-4.142-3.358-7.5-7.5-7.5s-7.5 3.358-7.5 7.5v75.293c0 1.379-1.122 2.5-2.5 2.5h-51.889v-21.821c0-9.649-7.851-17.5-17.5-17.5h-15.506v-212.776c0-9.649-7.851-17.5-17.5-17.5h-143.058c-9.649 0-17.5 7.851-17.5 17.5v42.765c0 4.142 3.358 7.5 7.5 7.5s7.5-3.358 7.5-7.5v-42.765c0-1.378 1.122-2.5 2.5-2.5h143.058c1.378 0 2.5 1.122 2.5 2.5v212.775h-148.058v-137.317c0-4.142-3.358-7.5-7.5-7.5s-7.5 3.358-7.5 7.5v137.317h-15.506c-9.649 0-17.5 7.851-17.5 17.5v21.821h-51.889c-1.378 0-2.5-1.121-2.5-2.5v-244.655c0-.181-.015-.358-.027-.536l176.451-128.199 176.424 128.179v137.443c0 4.142 3.358 7.5 7.5 7.5s7.5-3.358 7.5-7.5v-126.545l4.675 3.397c6.489 4.714 14.148 7.207 22.149 7.207 12.05 0 23.469-5.814 30.546-15.553 12.226-16.829 8.482-40.467-8.347-52.694l-218.273-158.586c-13.262-9.635-31.084-9.636-44.348 0l-88.563 64.345c-3.351 2.435-4.094 7.125-1.66 10.476 2.436 3.352 7.125 4.095 10.476 1.659l88.564-64.345c7.989-5.805 18.726-5.805 26.715 0l218.273 158.584c10.137 7.365 12.393 21.605 5.028 31.742-4.263 5.867-11.145 9.37-18.41 9.37-4.812 0-9.422-1.501-13.332-4.342l-200.509-145.676c-2.628-1.909-6.189-1.909-8.816 0l-200.508 145.678c-4.909 3.568-10.915 5.011-16.911 4.06-5.996-.95-11.263-4.177-14.831-9.087-7.365-10.138-5.11-24.378 5.027-31.743l103.629-75.29c3.351-2.435 4.094-7.125 1.66-10.476-2.435-3.351-7.124-4.094-10.476-1.659l-103.629 75.29c-16.829 12.227-20.573 35.865-8.346 52.695 5.923 8.152 14.667 13.509 24.62 15.086 1.999.316 3.997.473 5.983.473 7.901-.001 15.578-2.479 22.091-7.213l4.675-3.397v234.314c0 9.649 7.851 17.5 17.5 17.5h347.848zm-280.959-36.821c0-1.378 1.122-2.5 2.5-2.5h209.07c1.378 0 2.5 1.122 2.5 2.5v21.821h-214.07z" fill="#757575" data-original="#000000" style=""/></g></g></svg>
