<?xml version="1.0"?>
<svg xmlns="http://www.w3.org/2000/svg" xmlns:xlink="http://www.w3.org/1999/xlink" xmlns:svgjs="http://svgjs.com/svgjs" version="1.1" width="512" height="512" x="0" y="0" viewBox="0 0 451.411 451.411" style="enable-background:new 0 0 512 512" xml:space="preserve" class=""><g>
<g xmlns="http://www.w3.org/2000/svg">
	<g>
		<g>
			<path d="M132.168,175.558h66.873c5.771,0,10.449-4.678,10.449-10.449s-4.678-10.449-10.449-10.449h-66.873     c-5.771,0-10.449,4.678-10.449,10.449S126.398,175.558,132.168,175.558z" fill="#757575" data-original="#000000" style="" class=""/>
			<path d="M261.736,222.579H132.168c-5.771,0-10.449,4.678-10.449,10.449s4.678,10.449,10.449,10.449h129.567     c5.771,0,10.449-4.678,10.449-10.449S267.506,222.579,261.736,222.579z" fill="#757575" data-original="#000000" style="" class=""/>
			<path d="M261.736,290.497H132.168c-5.771,0-10.449,4.678-10.449,10.449s4.678,10.449,10.449,10.449h129.567     c5.771,0,10.449-4.678,10.449-10.449S267.506,290.497,261.736,290.497z" fill="#757575" data-original="#000000" style="" class=""/>
			<path d="M411.156,368.864V39.721c0.874-21.045-15.478-38.814-36.523-39.688c-0.886-0.037-1.774-0.043-2.66-0.018H147.319     c-22.988,0-44.408,16.718-44.408,39.706v17.763H84.626c-23.904,0.525-43.315,19.479-44.408,43.363v329.665     c0.68,6.37,4.644,11.919,10.449,14.629c6.009,2.654,13.026,1.416,17.763-3.135l31.869-28.735l38.139,33.959     c2.845,2.639,6.569,4.128,10.449,4.18c3.861-0.144,7.554-1.621,10.449-4.18l37.616-33.959l37.616,33.959     c5.95,5.322,14.948,5.322,20.898,0l38.139-33.959l31.347,28.735c3.795,4.671,10.374,5.987,15.673,3.135     c5.191-2.98,8.232-8.656,7.837-14.629v-74.188l6.269-4.702l31.869,28.735c2.947,2.811,6.901,4.318,10.971,4.18     c1.806,0.163,3.62-0.2,5.224-1.045C408.288,380.758,411.588,374.983,411.156,368.864z M327.564,419.019l-24.555-24.033     c-5.533-5.656-14.56-5.887-20.376-0.522l-38.139,33.959l-37.094-33.959c-6.108-4.89-14.79-4.89-20.898,0l-37.616,33.959     l-38.139-33.959c-6.589-5.4-16.134-5.178-22.465,0.522l-27.167,24.033V100.848c1.045-12.348,11.127-21.982,23.51-22.465h224.653     c11.494,0,18.286,10.971,18.286,22.465V419.019z M390.258,39.721V357.37l-26.122-24.033c-4.18-4.18-5.224-5.224-15.673-3.657     V100.848c0-22.988-16.196-43.363-39.184-43.363H123.809V39.721c0-11.494,12.016-18.808,23.51-18.808h224.653     c9.502-0.618,17.706,6.583,18.324,16.085C390.356,37.905,390.343,38.816,390.258,39.721z" fill="#757575" data-original="#000000" style="" class=""/>
		</g>
	</g>
</g>
<g xmlns="http://www.w3.org/2000/svg">
</g>
<g xmlns="http://www.w3.org/2000/svg">
</g>
<g xmlns="http://www.w3.org/2000/svg">
</g>
<g xmlns="http://www.w3.org/2000/svg">
</g>
<g xmlns="http://www.w3.org/2000/svg">
</g>
<g xmlns="http://www.w3.org/2000/svg">
</g>
<g xmlns="http://www.w3.org/2000/svg">
</g>
<g xmlns="http://www.w3.org/2000/svg">
</g>
<g xmlns="http://www.w3.org/2000/svg">
</g>
<g xmlns="http://www.w3.org/2000/svg">
</g>
<g xmlns="http://www.w3.org/2000/svg">
</g>
<g xmlns="http://www.w3.org/2000/svg">
</g>
<g xmlns="http://www.w3.org/2000/svg">
</g>
<g xmlns="http://www.w3.org/2000/svg">
</g>
<g xmlns="http://www.w3.org/2000/svg">
</g>
</g></svg>
