<?xml version="1.0"?>
<svg xmlns="http://www.w3.org/2000/svg" xmlns:xlink="http://www.w3.org/1999/xlink" xmlns:svgjs="http://svgjs.com/svgjs" version="1.1" width="512" height="512" x="0" y="0" viewBox="0 0 512 512" style="enable-background:new 0 0 512 512" xml:space="preserve" class=""><g><g xmlns="http://www.w3.org/2000/svg"><path d="m187.978 356.117h133.007c4.143 0 7.5-3.358 7.5-7.5s-3.357-7.5-7.5-7.5h-133.007c-4.142 0-7.5 3.358-7.5 7.5s3.358 7.5 7.5 7.5zm23.501-172.063h89.042c6.791 0 12.678-4.366 14.65-10.863l18.688-61.574c1.423-4.687.565-9.632-2.353-13.566-2.917-3.934-7.399-6.19-12.297-6.19h-6.652l-13.594-33.982c-3.124-7.824-10.587-12.879-19.013-12.879h-47.9c-8.425 0-15.888 5.055-19.013 12.875l-13.594 33.985h-6.652c-4.898 0-9.38 2.256-12.298 6.191s-3.775 8.879-2.353 13.566l18.689 61.574c1.972 6.497 7.859 10.863 14.65 10.863zm-18.937-77.069c.226-.306 40.794-.026 41.084-.125 4.142 0 7.5-3.358 7.5-7.5s-3.358-7.5-7.5-7.5h-18.028l11.366-28.416c.836-2.092 2.832-3.444 5.086-3.444h47.9c2.254 0 4.25 1.352 5.086 3.446l11.366 28.414h-27.777c-4.143 0-7.5 3.358-7.5 7.5s3.357 7.5 7.5 7.5c.252 0 50.641-.134 50.833.125.223.301-18.641 61.534-18.641 61.85 0 .666-89.595.131-89.635 0-.095-.315-18.863-61.55-18.64-61.85zm-4.564 323.952c-4.142 0-7.5 3.358-7.5 7.5s3.358 7.5 7.5 7.5h133.007c4.143 0 7.5-3.358 7.5-7.5s-3.357-7.5-7.5-7.5zm200.507-22.5c0-4.142-3.357-7.5-7.5-7.5h-193.007c-4.142 0-7.5 3.358-7.5 7.5s3.358 7.5 7.5 7.5h193.007c4.143 0 7.5-3.358 7.5-7.5zm37.5-80.131c4.143 0 7.5-3.358 7.5-7.5v-283.306c0-20.678-16.822-37.5-37.5-37.5h-279.97c-20.678 0-37.5 16.822-37.5 37.5v437c0 20.678 16.822 37.5 37.5 37.5h279.971c20.678 0 37.5-16.822 37.5-37.5v-118.694c0-4.142-3.357-7.5-7.5-7.5s-7.5 3.358-7.5 7.5v118.694c0 12.407-10.094 22.5-22.5 22.5h-279.971c-12.407 0-22.5-10.093-22.5-22.5v-437c0-12.407 10.093-22.5 22.5-22.5h279.971c12.406 0 22.5 10.093 22.5 22.5v283.306c-.001 4.142 3.357 7.5 7.499 7.5zm-267.657 33.563c-3.693.046-7.566.082-11.116.1 2.522-3.424 5.712-7.841 9.689-13.524 3.488-4.983 5.956-9.494 6.599-14.181.105-.768.307-2.147.307-2.88 0-11.175-9.091-20.266-20.266-20.266-9.662 0-18.025 6.875-19.886 16.346-.798 4.064 1.849 8.007 5.914 8.805s8.007-1.849 8.805-5.914c.482-2.456 2.655-4.237 5.167-4.237 2.778 0 5.061 2.162 5.253 4.892.19 2.695-1.185 4.552-4.182 8.834-7.88 11.259-12.581 17.414-15.106 20.72-4.409 5.773-6.516 13.297 1.121 15.842.985.328 20.783.552 27.889.462 4.142-.052 7.457-3.452 7.405-7.594s-3.487-7.485-7.593-7.405zm222.657-50.752h-193.007c-4.142 0-7.5 3.358-7.5 7.5s3.358 7.5 7.5 7.5h193.007c4.143 0 7.5-3.358 7.5-7.5s-3.357-7.5-7.5-7.5zm-236.267 89.82c-9.662 0-18.025 6.875-19.886 16.346-.798 4.064 1.849 8.007 5.914 8.805 4.062.797 8.006-1.849 8.805-5.914.482-2.456 2.655-4.237 5.167-4.237 2.904 0 5.266 2.362 5.266 5.266s-2.362 5.266-5.266 5.266c-4.142 0-7.5 3.358-7.5 7.5s3.358 7.5 7.5 7.5c2.904 0 5.266 2.362 5.266 5.266s-2.362 5.266-5.266 5.266c-2.613 0-4.855-1.944-5.215-4.526-.034-.242-.051-.491-.051-.74 0-4.142-3.358-7.5-7.5-7.5s-7.5 3.358-7.5 7.5c0 11.016 9.141 20.266 20.266 20.266 11.175 0 20.266-9.091 20.266-20.266 0-4.836-1.708-9.278-4.546-12.766 2.838-3.488 4.546-7.93 4.546-12.766 0-11.175-9.091-20.266-20.266-20.266zm0-114.359c4.142 0 7.5-3.358 7.5-7.5v-49.89c0-4.142-3.358-7.5-7.5-7.5h-10.664c-4.142 0-7.5 3.358-7.5 7.5s3.358 7.5 7.5 7.5h3.164v42.39c0 4.142 3.358 7.5 7.5 7.5zm43.26-19.89h133.007c4.143 0 7.5-3.358 7.5-7.5s-3.357-7.5-7.5-7.5h-133.007c-4.142 0-7.5 3.358-7.5 7.5s3.358 7.5 7.5 7.5zm193.007-45h-193.007c-4.142 0-7.5 3.358-7.5 7.5s3.358 7.5 7.5 7.5h193.007c4.143 0 7.5-3.358 7.5-7.5s-3.357-7.5-7.5-7.5z" fill="#757575" data-original="#000000" style="" class=""/></g></g></svg>
