<?xml version="1.0"?>
<svg xmlns="http://www.w3.org/2000/svg" xmlns:xlink="http://www.w3.org/1999/xlink" xmlns:svgjs="http://svgjs.com/svgjs" version="1.1" width="512" height="512" x="0" y="0" viewBox="0 0 201.526 201.526" style="enable-background:new 0 0 512 512" xml:space="preserve" class=""><g>
<g xmlns="http://www.w3.org/2000/svg">
	<g>
		<g>
			<path d="M184.136,34.746H17.39C7.801,34.746,0,42.525,0,52.085v97.356c0,9.56,7.801,17.339,17.39,17.339h166.746     c9.589,0,17.39-7.779,17.39-17.339V52.085C201.525,42.525,193.725,34.746,184.136,34.746z M194.577,149.441h-0.001     c0,5.729-4.684,10.39-10.441,10.39H17.39c-5.757,0-10.441-4.66-10.441-10.39V52.085c0-5.729,4.684-10.39,10.441-10.39h166.746     c5.757,0,10.441,4.66,10.441,10.39V149.441z" fill="#5a88e5" data-original="#000000" style=""/>
			<rect x="24.322" y="121.61" width="72.966" height="6.949" fill="#5a88e5" data-original="#000000" style=""/>
			<rect x="104.237" y="121.61" width="72.966" height="6.949" fill="#5a88e5" data-original="#000000" style=""/>
			<path d="M34.717,100.763h20.876h6.949h10.453c5.731,0,10.395-4.676,10.395-10.422V79.915v-6.949V69.49     c0-5.746-4.664-10.422-10.395-10.422H62.542h-6.949H34.717c-5.731,0-10.395,4.676-10.395,10.422v10.425v6.949v3.476     C24.322,96.087,28.986,100.763,34.717,100.763z M62.542,66.017h10.453c1.9,0,3.446,1.557,3.446,3.473v3.476H62.542V66.017z      M62.542,79.915H76.44v10.426h0.001c0,1.948-1.513,3.473-3.446,3.473H62.542V79.915z M31.271,69.49     c0-1.948,1.513-3.473,3.446-3.473h20.876v6.949v6.949H31.271V69.49z M31.271,86.864h24.322v6.949H34.717     c-1.9,0-3.446-1.557-3.446-3.473V86.864z" fill="#5a88e5" data-original="#000000" style=""/>
		</g>
	</g>
</g>
<g xmlns="http://www.w3.org/2000/svg">
</g>
<g xmlns="http://www.w3.org/2000/svg">
</g>
<g xmlns="http://www.w3.org/2000/svg">
</g>
<g xmlns="http://www.w3.org/2000/svg">
</g>
<g xmlns="http://www.w3.org/2000/svg">
</g>
<g xmlns="http://www.w3.org/2000/svg">
</g>
<g xmlns="http://www.w3.org/2000/svg">
</g>
<g xmlns="http://www.w3.org/2000/svg">
</g>
<g xmlns="http://www.w3.org/2000/svg">
</g>
<g xmlns="http://www.w3.org/2000/svg">
</g>
<g xmlns="http://www.w3.org/2000/svg">
</g>
<g xmlns="http://www.w3.org/2000/svg">
</g>
<g xmlns="http://www.w3.org/2000/svg">
</g>
<g xmlns="http://www.w3.org/2000/svg">
</g>
<g xmlns="http://www.w3.org/2000/svg">
</g>
</g></svg>
