<?xml version="1.0"?>
<svg xmlns="http://www.w3.org/2000/svg" xmlns:xlink="http://www.w3.org/1999/xlink" xmlns:svgjs="http://svgjs.com/svgjs" version="1.1" width="512" height="512" x="0" y="0" viewBox="0 0 201.526 201.526" style="enable-background:new 0 0 512 512" xml:space="preserve" class=""><g>
<g xmlns="http://www.w3.org/2000/svg">
	<g>
		<g>
			<path d="M184.136,34.745H17.39C7.801,34.745,0,42.525,0,52.085v17.407v27.797v52.153c0,9.56,7.801,17.339,17.39,17.339h166.746     c9.589,0,17.39-7.779,17.39-17.339V97.288V69.492V52.085C201.525,42.525,193.725,34.745,184.136,34.745z M194.576,149.44     c0,5.729-4.684,10.39-10.44,10.39H17.39c-5.757,0-10.441-4.66-10.441-10.39v-48.678h187.627V149.44z M194.576,93.814H6.949     V72.965h187.627V93.814z M194.577,66.016H6.949V52.085c0-5.73,4.684-10.39,10.441-10.39h166.746     c5.757,0,10.441,4.66,10.441,10.39V66.016z" fill="#5a88e5" data-original="#000000" style="" class=""/>
			<rect x="17.373" y="111.185" width="34.746" height="6.949" fill="#5a88e5" data-original="#000000" style="" class=""/>
			<rect x="59.068" y="111.185" width="34.746" height="6.949" fill="#5a88e5" data-original="#000000" style="" class=""/>
			<rect x="100.763" y="111.185" width="34.746" height="6.949" fill="#5a88e5" data-original="#000000" style="" class=""/>
			<rect x="142.458" y="111.185" width="34.746" height="6.949" fill="#5a88e5" data-original="#000000" style="" class=""/>
			<rect x="17.373" y="128.559" width="20.847" height="6.949" fill="#5a88e5" data-original="#000000" style="" class=""/>
		</g>
	</g>
</g>
<g xmlns="http://www.w3.org/2000/svg">
</g>
<g xmlns="http://www.w3.org/2000/svg">
</g>
<g xmlns="http://www.w3.org/2000/svg">
</g>
<g xmlns="http://www.w3.org/2000/svg">
</g>
<g xmlns="http://www.w3.org/2000/svg">
</g>
<g xmlns="http://www.w3.org/2000/svg">
</g>
<g xmlns="http://www.w3.org/2000/svg">
</g>
<g xmlns="http://www.w3.org/2000/svg">
</g>
<g xmlns="http://www.w3.org/2000/svg">
</g>
<g xmlns="http://www.w3.org/2000/svg">
</g>
<g xmlns="http://www.w3.org/2000/svg">
</g>
<g xmlns="http://www.w3.org/2000/svg">
</g>
<g xmlns="http://www.w3.org/2000/svg">
</g>
<g xmlns="http://www.w3.org/2000/svg">
</g>
<g xmlns="http://www.w3.org/2000/svg">
</g>
</g></svg>
