<?xml version="1.0"?>
<svg xmlns="http://www.w3.org/2000/svg" xmlns:xlink="http://www.w3.org/1999/xlink" xmlns:svgjs="http://svgjs.com/svgjs" version="1.1" width="512" height="512" x="0" y="0" viewBox="0 0 64 64" style="enable-background:new 0 0 512 512" xml:space="preserve" class=""><g><g xmlns="http://www.w3.org/2000/svg" id="Outline"><path d="M52.166,22l5.692-9.485A1,1,0,0,0,57,11H42V7a1,1,0,0,0-1-1H22V5a3,3,0,0,0-6,0V52H14a1,1,0,0,0-.894.553L11.382,56H9a1,1,0,0,0-.894.553l-2,4A1,1,0,0,0,7,62H31a1,1,0,0,0,.895-1.447l-2-4A1,1,0,0,0,29,56H26.618L24.9,52.553A1,1,0,0,0,24,52H22V28H32v4a1,1,0,0,0,1,1H57a1,1,0,0,0,.858-1.515ZM29.382,60H8.618l1-2H28.382Zm-5-4H13.618l1-2h8.764ZM18,52V5a1,1,0,0,1,2,0V52Zm4-26V8H40V26Zm12,2h3.514L34,30.2Zm2.487,3s5.08-3.191,5.1-3.21A.983.983,0,0,0,42,27V13H55.234l-5.091,8.485a1,1,0,0,0,0,1.03L55.234,31Z" fill="#5a88e5" data-original="#000000" style=""/></g></g></svg>
