<?xml version="1.0"?>
<svg xmlns="http://www.w3.org/2000/svg" xmlns:xlink="http://www.w3.org/1999/xlink" xmlns:svgjs="http://svgjs.com/svgjs" version="1.1" width="512" height="512" x="0" y="0" viewBox="0 0 512 512" style="enable-background:new 0 0 512 512" xml:space="preserve" class=""><g transform="matrix(1,0,0,1,0,0)">
<g xmlns="http://www.w3.org/2000/svg">
	<g>
		<g>
			<path d="M501.333,202.667c5.896,0,10.667-4.771,10.667-10.667v-85.333C512,83.135,492.865,64,469.333,64H42.667     C19.135,64,0,83.135,0,106.667V192c0,5.896,4.771,10.667,10.667,10.667C40.073,202.667,64,226.594,64,256     s-23.927,53.333-53.333,53.333C4.771,309.333,0,314.104,0,320v85.333C0,428.865,19.135,448,42.667,448h426.667     C492.865,448,512,428.865,512,405.333V320c0-5.896-4.771-10.667-10.667-10.667C471.927,309.333,448,285.406,448,256     S471.927,202.667,501.333,202.667z M426.667,256c0,37.552,27.865,68.719,64,73.906v75.427c0,11.76-9.573,21.333-21.333,21.333     H42.667c-11.76,0-21.333-9.573-21.333-21.333v-75.427c36.135-5.188,64-36.354,64-73.906s-27.865-68.719-64-73.906v-75.427     c0-11.76,9.573-21.333,21.333-21.333h426.667c11.76,0,21.333,9.573,21.333,21.333v75.427     C454.531,187.281,426.667,218.448,426.667,256z" fill="#5a88e5" data-original="#000000" style="" class=""/>
			<path d="M138.667,104c-5.896,0-10.667,4.771-10.667,10.667v24c0,5.896,4.771,10.667,10.667,10.667     c5.896,0,10.667-4.771,10.667-10.667v-24C149.333,108.771,144.563,104,138.667,104z" fill="#5a88e5" data-original="#000000" style="" class=""/>
			<path d="M138.667,192c-5.896,0-10.667,4.771-10.667,10.667V224c0,5.896,4.771,10.667,10.667,10.667     c5.896,0,10.667-4.771,10.667-10.667v-21.333C149.333,196.771,144.563,192,138.667,192z" fill="#5a88e5" data-original="#000000" style="" class=""/>
			<path d="M138.667,277.333c-5.896,0-10.667,4.771-10.667,10.667v21.333c0,5.896,4.771,10.667,10.667,10.667     c5.896,0,10.667-4.771,10.667-10.667V288C149.333,282.104,144.563,277.333,138.667,277.333z" fill="#5a88e5" data-original="#000000" style="" class=""/>
			<path d="M138.667,362.667c-5.896,0-10.667,4.771-10.667,10.667v21.333c0,5.896,4.771,10.667,10.667,10.667     c5.896,0,10.667-4.771,10.667-10.667v-21.333C149.333,367.438,144.563,362.667,138.667,362.667z" fill="#5a88e5" data-original="#000000" style="" class=""/>
			<path d="M357.917,151.125c-4.938-3.271-11.531-1.948-14.792,2.958l-128,192c-3.271,4.906-1.948,11.521,2.958,14.792     c1.823,1.208,3.875,1.792,5.906,1.792c3.448,0,6.833-1.667,8.885-4.75l128-192C364.146,161.01,362.823,154.396,357.917,151.125z" fill="#5a88e5" data-original="#000000" style="" class=""/>
			<path d="M277.333,202.667c0-29.406-19.135-53.333-42.667-53.333S192,173.26,192,202.667S211.135,256,234.667,256     S277.333,232.073,277.333,202.667z M213.333,202.667c0-17.344,9.771-32,21.333-32s21.333,14.656,21.333,32s-9.771,32-21.333,32     S213.333,220.01,213.333,202.667z" fill="#5a88e5" data-original="#000000" style="" class=""/>
			<path d="M341.333,256c-23.531,0-42.667,23.927-42.667,53.333s19.135,53.333,42.667,53.333c23.531,0,42.667-23.927,42.667-53.333     S364.865,256,341.333,256z M341.333,341.333c-11.563,0-21.333-14.656-21.333-32s9.771-32,21.333-32     c11.563,0,21.333,14.656,21.333,32S352.896,341.333,341.333,341.333z" fill="#5a88e5" data-original="#000000" style="" class=""/>
		</g>
	</g>
</g>
<g xmlns="http://www.w3.org/2000/svg">
</g>
<g xmlns="http://www.w3.org/2000/svg">
</g>
<g xmlns="http://www.w3.org/2000/svg">
</g>
<g xmlns="http://www.w3.org/2000/svg">
</g>
<g xmlns="http://www.w3.org/2000/svg">
</g>
<g xmlns="http://www.w3.org/2000/svg">
</g>
<g xmlns="http://www.w3.org/2000/svg">
</g>
<g xmlns="http://www.w3.org/2000/svg">
</g>
<g xmlns="http://www.w3.org/2000/svg">
</g>
<g xmlns="http://www.w3.org/2000/svg">
</g>
<g xmlns="http://www.w3.org/2000/svg">
</g>
<g xmlns="http://www.w3.org/2000/svg">
</g>
<g xmlns="http://www.w3.org/2000/svg">
</g>
<g xmlns="http://www.w3.org/2000/svg">
</g>
<g xmlns="http://www.w3.org/2000/svg">
</g>
</g></svg>
