<?xml version="1.0"?>
<svg xmlns="http://www.w3.org/2000/svg" xmlns:xlink="http://www.w3.org/1999/xlink" xmlns:svgjs="http://svgjs.com/svgjs" version="1.1" width="512" height="512" x="0" y="0" viewBox="0 0 60 60" style="enable-background:new 0 0 512 512" xml:space="preserve" class=""><g><g xmlns="http://www.w3.org/2000/svg" id="Page-1" fill="none" fill-rule="evenodd"><g id="093---Drawing-Map" fill="rgb(0,0,0)" fill-rule="nonzero"><path id="Shape" d="m60 2.374c-.0007829-.63958668-.3074144-1.24022257-.8249793-1.61598617-.5175649-.37576361-1.18363-.48132695-1.7920207-.28401383l-14.348 4.651-12.291-4.906c-.4760902-.193498-1.0089098-.193498-1.485 0l-12.294 4.9-14.349-4.648c-.60859894-.19702671-1.27472561-.09104101-1.79212293.28514007s-.82362993.97716303-.82387707 1.61685993v42.713c.00120116.8662184.55989056 1.6332053 1.384 1.9l14.963 4.85c.4446586.144419.9258607.1284969 1.36-.045l9.109-3.64c2.582394 8.0783035 10.7237977 13.0175609 19.0814812 11.5764246 8.3576835-1.4411362 14.3747372-8.8217717 14.1025188-17.2984246zm-43.036 47.562-14.964-4.85v-42.713l14.351 4.651c.4433867.14137972.9219704.12548579 1.355-.045l12.294-4.904 12.292 4.906c.433779.17474177.9151926.19137886 1.36.047l14.348-4.654v32.666c-.7841935-1.4954092-1.7883774-2.8646589-2.979-4.062-.4567562-.4580545-.9392024-.8897521-1.445-1.293-6.7667702-5.3765034-16.4905821-4.8201809-22.6 1.293-3.9824043 3.98682-5.7294031 9.6885387-4.664 15.222zm20.136-4.352 3.314 3.316-4.5 1.183zm5.552 2.724-4.962-4.963.884-3.358 7.437 7.437zm10.954-15.916c.3860535.386375.7506021.7936546 1.092 1.22.078.1.144.2.219.3l-9.8 9.8-2.828-2.828 9.8-9.8c.1.075.2.141.3.218.4247897.3413996.8310354.7052516 1.217 1.09zm-5.142-3.343c.192.075.382.15.57.232.211.093.423.182.629.284.245.122.481.26.719.395l-9.5 9.5-1.415-1.414zm-.514 17.485-1.415-1.415 9.5-9.5c.135.239.275.476.4.722.1.2.187.408.277.614s.162.386.238.582zm5.656 7.07c-5.0951729 5.1638103-13.1488302 5.9583903-19.1548753 1.8898346s-8.2553296-11.8424526-5.349714-18.4894911c2.9056155-6.6470386 10.1392761-10.275662 17.2045893-8.6303435l-8.968 8.968c-.015.015-.02.035-.034.052-.0430064.051432-.0802299.1074349-.111.167-.0349446.0555359-.0640974.1145115-.087.176-.007.021-.022.036-.028.057l-3.531 13.435c-.0787791.2999818-.0139062.6195379.1756138.8650525s.4822327.3891943.7923862.3889475c.0857621.000419.1711921-.0106802.254-.033l13.431-3.535c.022-.006.038-.022.06-.029.0633504-.0235054.1240242-.0536747.181-.09.0563005-.0277721.109583-.0612831.159-.1.016-.014.037-.02.053-.036l8.969-8.969c.2118873.919596.3371018 1.8570304.374 2.8v.509c0 .018.009.032.01.05-.0047691 3.9619775-1.5882406 7.7587104-4.4 10.55z" fill="#5a88e5" data-original="#000000" style=""/><path id="Shape" d="m17 10c-.5522847 0-1 .4477153-1 1v21c0 .5522847.4477153 1 1 1s1-.4477153 1-1v-21c0-.5522847-.4477153-1-1-1z" fill="#5a88e5" data-original="#000000" style=""/><path id="Shape" d="m17 36c-.5522847 0-1 .4477153-1 1v9.186c0 .5522847.4477153 1 1 1s1-.4477153 1-1v-9.186c0-.5522847-.4477153-1-1-1z" fill="#5a88e5" data-original="#000000" style=""/><path id="Shape" d="m30 28c.5522847 0 1-.4477153 1-1v-21c0-.55228475-.4477153-1-1-1s-1 .44771525-1 1v21c0 .5522847.4477153 1 1 1z" fill="#5a88e5" data-original="#000000" style=""/><path id="Shape" d="m43 24c.5522847 0 1-.4477153 1-1v-12c0-.5522847-.4477153-1-1-1s-1 .4477153-1 1v12c0 .5522847.4477153 1 1 1z" fill="#5a88e5" data-original="#000000" style=""/></g></g></g></svg>
