<?xml version="1.0"?>
<svg xmlns="http://www.w3.org/2000/svg" xmlns:xlink="http://www.w3.org/1999/xlink" xmlns:svgjs="http://svgjs.com/svgjs" version="1.1" width="512" height="512" x="0" y="0" viewBox="0 0 512.016 512.016" style="enable-background:new 0 0 512 512" xml:space="preserve"><g><g xmlns="http://www.w3.org/2000/svg"><g><path d="m453.47 1.565c-2.933-1.027-5.973-1.549-9.035-1.549-15.123 0-27.427 12.361-27.427 27.555v52.451h-210.716c-7.346 0-14.252 2.861-19.445 8.055l-20 20c-4.873 4.875-12.805 4.875-17.678 0l-20-19.999c-5.193-5.194-12.1-8.056-19.445-8.056h-14.716v-52.451c0-8.918-4.348-17.324-11.63-22.488-7.33-5.197-16.383-6.481-24.831-3.517-35.013 12.277-58.539 45.468-58.539 82.591v340.359c0 48.248 39.252 87.5 87.5 87.5h204.591c7.346 0 14.251-2.86 19.445-8.054l20-20c4.873-4.875 12.805-4.875 17.678 0l20 20c5.194 5.193 12.1 8.054 19.445 8.054h35.841c18.216 0 35.678-5.545 50.499-16.034 3.381-2.394 4.182-7.074 1.789-10.455-2.394-3.381-7.074-4.181-10.455-1.789-12.273 8.687-26.738 13.278-41.833 13.278h-35.841c-3.339 0-6.478-1.3-8.838-3.661l-20-20c-10.723-10.721-28.17-10.721-38.893 0l-20 20c-2.36 2.361-5.499 3.661-8.838 3.661h-204.59c-39.977 0-72.5-32.523-72.5-72.5 0-34.293 24.343-64.164 57.88-71.027 12.817-2.622 22.12-13.9 22.12-26.816v-50.989c0-4.143-3.357-7.5-7.5-7.5s-7.5 3.357-7.5 7.5v50.989c0 5.917-4.164 10.901-10.127 12.121-22.984 4.703-42.39 18.354-54.873 36.85v-291.487c0-30.762 19.491-58.264 48.502-68.437 3.801-1.331 7.88-.749 11.192 1.599 3.372 2.391 5.306 6.128 5.306 10.252v218.112c0 4.143 3.357 7.5 7.5 7.5s7.5-3.357 7.5-7.5v-150.661h14.716c3.339 0 6.478 1.3 8.838 3.662l20 20c5.361 5.361 12.404 8.041 19.446 8.041s14.085-2.68 19.446-8.041l20-20.001c2.36-2.361 5.499-3.661 8.838-3.661h210.716v97.218c0 7.346 2.86 14.251 8.054 19.445l20 20c2.361 2.36 3.662 5.5 3.662 8.839 0 3.338-1.301 6.478-3.662 8.838l-20 20.001c-5.193 5.194-8.054 12.101-8.054 19.445v37.864c0 12.916 9.303 24.194 22.119 26.816 33.538 6.863 57.881 36.734 57.881 71.027 0 14.622-4.33 28.711-12.522 40.744-2.33 3.424-1.444 8.09 1.979 10.421 1.292.879 2.761 1.301 4.214 1.301 2.398 0 4.755-1.148 6.207-3.28 9.893-14.532 15.122-31.541 15.122-49.186v-340.358c0-37.122-23.524-70.314-58.538-82.592zm-11.336 337.229c-5.962-1.22-10.126-6.204-10.126-12.121v-37.864c0-3.339 1.3-6.479 3.661-8.839l20-20c10.722-10.723 10.722-28.169 0-38.892l-20-20c-2.327-2.326-3.661-5.548-3.661-8.838v-164.669c0-6.923 5.574-12.555 12.427-12.555 1.368 0 2.738.237 4.072.704 29.01 10.173 48.501 37.676 48.501 68.437v291.486c-12.483-18.496-31.889-32.146-54.874-36.849z" fill="#ffffff" data-original="#000000" style=""/><path d="m207.508 183.062c0-20.678-16.822-37.5-37.5-37.5s-37.5 16.822-37.5 37.5 16.822 37.5 37.5 37.5 37.5-16.822 37.5-37.5zm-37.5 22.5c-12.406 0-22.5-10.094-22.5-22.5s10.094-22.5 22.5-22.5 22.5 10.094 22.5 22.5-10.094 22.5-22.5 22.5z" fill="#ffffff" data-original="#000000" style=""/><path d="m377.312 319.584c-2.93-2.928-7.678-2.928-10.607 0l-14.696 14.696-14.696-14.696c-2.93-2.928-7.678-2.928-10.607 0-2.929 2.93-2.929 7.678 0 10.607l14.696 14.696-14.696 14.696c-2.929 2.93-2.929 7.678 0 10.607 1.465 1.464 3.385 2.196 5.304 2.196s3.839-.732 5.304-2.196l14.696-14.696 14.696 14.696c1.465 1.464 3.385 2.196 5.304 2.196s3.839-.732 5.304-2.196c2.929-2.93 2.929-7.678 0-10.607l-14.696-14.696 14.696-14.696c2.927-2.93 2.927-7.678-.002-10.607z" fill="#ffffff" data-original="#000000" style=""/><path d="m240.008 190.562h7.5c4.143 0 7.5-3.357 7.5-7.5s-3.357-7.5-7.5-7.5h-7.5c-4.143 0-7.5 3.357-7.5 7.5s3.358 7.5 7.5 7.5z" fill="#ffffff" data-original="#000000" style=""/><path d="m355.587 231.255c.127.006.253.009.378.009 3.971 0 7.285-3.118 7.485-7.128.038-.771.058-1.547.058-2.327 0-5.123-.834-10.16-2.479-14.971-1.341-3.92-5.609-6.007-9.523-4.67-3.92 1.341-6.01 5.604-4.67 9.523 1.11 3.245 1.673 6.649 1.673 10.117 0 .53-.014 1.058-.04 1.583-.206 4.137 2.981 7.658 7.118 7.864z" fill="#ffffff" data-original="#000000" style=""/><path d="m299.207 183.062c0-4.143-3.357-7.5-7.5-7.5h-14.733c-4.143 0-7.5 3.357-7.5 7.5s3.357 7.5 7.5 7.5h14.733c4.143 0 7.5-3.357 7.5-7.5z" fill="#ffffff" data-original="#000000" style=""/><path d="m310.027 260.554c0-4.143-3.357-7.5-7.5-7.5h-14.732c-4.143 0-7.5 3.357-7.5 7.5s3.357 7.5 7.5 7.5h14.732c4.142 0 7.5-3.357 7.5-7.5z" fill="#ffffff" data-original="#000000" style=""/><path d="m335.187 194.953c2.702 0 5.313-1.466 6.652-4.027 1.919-3.671.499-8.202-3.172-10.121-5.234-2.736-10.872-4.422-16.756-5.011-4.115-.411-7.798 2.594-8.209 6.717-.412 4.121 2.595 7.797 6.717 8.209 3.969.396 7.771 1.533 11.299 3.378 1.11.579 2.298.855 3.469.855z" fill="#ffffff" data-original="#000000" style=""/><path d="m331.641 265.302c.927 0 1.869-.173 2.782-.538 5.47-2.187 10.417-5.362 14.704-9.438 3.002-2.854 3.121-7.602.268-10.604-2.855-3.003-7.602-3.121-10.604-.268-2.9 2.758-6.243 4.905-9.937 6.382-3.846 1.537-5.718 5.902-4.18 9.748 1.174 2.933 3.99 4.718 6.967 4.718z" fill="#ffffff" data-original="#000000" style=""/><path d="m209.038 444.763c.667 0 1.347-.09 2.021-.278 5.509-1.538 10.718-3.938 15.482-7.132 3.441-2.307 4.36-6.965 2.054-10.405-2.308-3.441-6.968-4.361-10.405-2.054-3.438 2.305-7.194 4.035-11.164 5.144-3.99 1.114-6.321 5.251-5.207 9.24.926 3.316 3.938 5.485 7.219 5.485z" fill="#ffffff" data-original="#000000" style=""/><path d="m199.396 268.054h14.732c4.143 0 7.5-3.357 7.5-7.5s-3.357-7.5-7.5-7.5h-14.732c-4.143 0-7.5 3.357-7.5 7.5s3.357 7.5 7.5 7.5z" fill="#ffffff" data-original="#000000" style=""/><path d="m162.664 434.552c4.466 3.597 9.441 6.442 14.788 8.46.872.328 1.767.484 2.646.484 3.03 0 5.885-1.851 7.019-4.854 1.462-3.875-.494-8.202-4.37-9.665-3.857-1.455-7.449-3.51-10.677-6.108-3.226-2.599-7.947-2.088-10.545 1.139-2.597 3.224-2.087 7.946 1.139 10.544z" fill="#ffffff" data-original="#000000" style=""/><path d="m237.68 415.375c.844.306 1.706.451 2.555.451 3.067 0 5.946-1.896 7.052-4.946 1.945-5.364 3.021-10.994 3.195-16.732.127-4.141-3.127-7.6-7.267-7.726-.078-.003-.156-.004-.233-.004-4.036 0-7.368 3.209-7.492 7.271-.127 4.147-.902 8.211-2.305 12.08-1.412 3.893.601 8.195 4.495 9.606z" fill="#ffffff" data-original="#000000" style=""/><path d="m150.008 323.673c4.143 0 7.5-3.357 7.5-7.5v-14.733c0-4.143-3.357-7.5-7.5-7.5s-7.5 3.357-7.5 7.5v14.733c0 4.142 3.358 7.5 7.5 7.5z" fill="#ffffff" data-original="#000000" style=""/><path d="m142.508 360.372c0 4.143 3.357 7.5 7.5 7.5s7.5-3.357 7.5-7.5v-14.733c0-4.143-3.357-7.5-7.5-7.5s-7.5 3.357-7.5 7.5z" fill="#ffffff" data-original="#000000" style=""/><path d="m164.953 279.054c2.593-3.045 5.694-5.534 9.218-7.397 3.662-1.937 5.061-6.475 3.124-10.136s-6.474-5.061-10.136-3.124c-5.211 2.756-9.795 6.434-13.626 10.931-2.686 3.154-2.307 7.888.847 10.573 1.412 1.202 3.14 1.79 4.859 1.79 2.123 0 4.231-.895 5.714-2.637z" fill="#ffffff" data-original="#000000" style=""/><path d="m142.508 392.47c0 4.703.606 9.375 1.804 13.886.892 3.359 3.926 5.578 7.244 5.578.637 0 1.284-.082 1.929-.253 4.003-1.063 6.388-5.169 5.325-9.173-.863-3.255-1.302-6.633-1.302-10.038v-2.633c0-4.143-3.357-7.5-7.5-7.5s-7.5 3.357-7.5 7.5z" fill="#ffffff" data-original="#000000" style=""/><path d="m258.328 253.054h-14.732c-4.143 0-7.5 3.357-7.5 7.5s3.357 7.5 7.5 7.5h14.732c4.143 0 7.5-3.357 7.5-7.5s-3.358-7.5-7.5-7.5z" fill="#ffffff" data-original="#000000" style=""/><path d="m254.246 368.798c1.897-3.507 4.415-6.586 7.483-9.151 3.178-2.656 3.601-7.387.943-10.564-2.656-3.177-7.386-3.603-10.564-.943-4.531 3.788-8.251 8.338-11.056 13.522-1.971 3.644-.615 8.194 3.028 10.165 1.135.613 2.356.904 3.562.904 2.667-.001 5.247-1.425 6.604-3.933z" fill="#ffffff" data-original="#000000" style=""/><path d="m284.508 352.387h7.5c4.143 0 7.5-3.357 7.5-7.5s-3.357-7.5-7.5-7.5h-7.5c-4.143 0-7.5 3.357-7.5 7.5s3.358 7.5 7.5 7.5z" fill="#ffffff" data-original="#000000" style=""/></g></g></g></svg>
