<?xml version="1.0"?>
<svg xmlns="http://www.w3.org/2000/svg" xmlns:xlink="http://www.w3.org/1999/xlink" xmlns:svgjs="http://svgjs.com/svgjs" version="1.1" width="512" height="512" x="0" y="0" viewBox="0 0 512 512" style="enable-background:new 0 0 512 512" xml:space="preserve"><g>
<g xmlns="http://www.w3.org/2000/svg">
	<g>
		<path d="M373.998,155.95c-76.093,0-138,61.907-138,138c0,18.674,3.818,37.07,11.039,54.05h-102.87v-52.008c0-5.523-4.477-10-10-10    c-5.523,0-10,4.477-10,10V358c0,5.523,4.477,10,10,10h123.389c2.831,4.456,5.919,8.763,9.267,12.887    c0.153,0.235,0.317,0.464,0.492,0.688L353.507,492h-46.872c-5.523,0-10,4.477-10,10s4.477,10,10,10H441.68c5.523,0,10-4.477,10-10    s-4.477-10-10-10h-47.197l86.673-111.093c0.036-0.045,0.07-0.091,0.105-0.137c19.823-24.465,30.737-55.283,30.737-86.82    C511.998,217.856,450.091,155.95,373.998,155.95z M465.512,368.438c-0.124,0.152-0.243,0.308-0.357,0.465l-91.158,116.843    l-90.219-115.582c-0.238-0.385-0.503-0.756-0.796-1.111c-17.4-21.061-26.983-47.733-26.983-75.103c0-65.065,52.935-118,118-118    s118,52.935,118,118C491.998,321.028,482.592,347.482,465.512,368.438z" fill="#757575" data-original="#000000" style=""/>
	</g>
</g>
<g xmlns="http://www.w3.org/2000/svg">
	<g>
		<path d="M452.052,270.813c-1.692-5.259-7.326-8.149-12.583-6.457c-5.257,1.691-8.147,7.325-6.456,12.583    c7.166,22.268,1.351,46.368-15.175,62.894c-24.173,24.174-63.507,24.174-87.681,0c-11.71-11.71-18.16-27.28-18.16-43.84    s6.449-32.13,18.16-43.841c15.801-15.802,39.007-21.885,60.56-15.875c5.318,1.484,10.835-1.626,12.318-6.946    c1.483-5.32-1.626-10.835-6.946-12.318c-28.495-7.946-59.178,0.101-80.074,20.998c-15.488,15.488-24.018,36.08-24.018,57.983    s8.53,42.495,24.018,57.983c15.986,15.986,36.984,23.979,57.983,23.979c20.999,0,41.997-7.993,57.983-23.979    C453.835,332.122,461.526,300.256,452.052,270.813z" fill="#757575" data-original="#000000" style=""/>
	</g>
</g>
<g xmlns="http://www.w3.org/2000/svg">
	<g>
		<path d="M432.07,238.099l-0.09-0.09c-3.905-3.905-10.237-3.905-14.143,0c-3.905,3.905-3.905,10.237,0,14.143l0.091,0.09    c1.953,1.953,4.512,2.929,7.071,2.929s5.119-0.976,7.071-2.929C435.975,248.337,435.975,242.005,432.07,238.099z" fill="#757575" data-original="#000000" style=""/>
	</g>
</g>
<g xmlns="http://www.w3.org/2000/svg">
	<g>
		<path d="M234.333,420H10c-5.523,0-10,4.477-10,10s4.477,10,10,10h214.333v62c0,5.523,4.477,10,10,10s10-4.477,10-10v-72    C244.333,424.477,239.856,420,234.333,420z" fill="#757575" data-original="#000000" style=""/>
	</g>
</g>
<g xmlns="http://www.w3.org/2000/svg">
	<g>
		<path d="M182.481,0c-5.523,0-10,4.477-10,10v72.006H10c-5.523,0-10,4.477-10,10s4.477,10,10,10h172.481c5.523,0,10-4.477,10-10V10    C192.481,4.477,188.004,0,182.481,0z" fill="#757575" data-original="#000000" style=""/>
	</g>
</g>
<g xmlns="http://www.w3.org/2000/svg">
	<g>
		<path d="M85.852,154.006H10c-5.523,0-10,4.477-10,10s4.477,10,10,10h65.852V348H10c-5.523,0-10,4.477-10,10s4.477,10,10,10h75.852    c5.523,0,10-4.477,10-10V164.006C95.852,158.483,91.375,154.006,85.852,154.006z" fill="#757575" data-original="#000000" style=""/>
	</g>
</g>
<g xmlns="http://www.w3.org/2000/svg">
	<g>
		<path d="M141.24,253.93c-1.86-1.86-4.44-2.93-7.07-2.93c-2.64,0-5.21,1.07-7.07,2.93c-1.87,1.86-2.93,4.44-2.93,7.07    c0,2.64,1.06,5.21,2.93,7.07c1.86,1.87,4.43,2.93,7.07,2.93c2.63,0,5.2-1.06,7.07-2.93c1.86-1.86,2.93-4.44,2.93-7.07    S143.1,255.79,141.24,253.93z" fill="#757575" data-original="#000000" style=""/>
	</g>
</g>
<g xmlns="http://www.w3.org/2000/svg">
	<g>
		<path d="M256,154.006H134.167c-5.523,0-10,4.477-10,10V219.5c0,5.523,4.477,10,10,10c5.523,0,10-4.477,10-10v-45.494H256    c5.523,0,10-4.477,10-10S261.523,154.006,256,154.006z" fill="#757575" data-original="#000000" style=""/>
	</g>
</g>
<g xmlns="http://www.w3.org/2000/svg">
	<g>
		<path d="M400,0c-5.523,0-10,4.477-10,10v71.995l-149.204,0.011V10c0-5.523-4.477-10-10-10s-10,4.477-10,10v82.006    c0,2.652,1.054,5.196,2.929,7.071s4.42,2.929,7.072,2.929L400,101.994c5.523,0,10-4.478,10-10V10C410,4.477,405.523,0,400,0z" fill="#757575" data-original="#000000" style=""/>
	</g>
</g>
<g xmlns="http://www.w3.org/2000/svg">
	<g>
		<path d="M502,82.006h-44V10c0-5.523-4.477-10-10-10s-10,4.477-10,10v82.006c0,5.523,4.477,10,10,10h54c5.523,0,10-4.477,10-10    S507.523,82.006,502,82.006z" fill="#757575" data-original="#000000" style=""/>
	</g>
</g>
<g xmlns="http://www.w3.org/2000/svg">
	<g>
		<path d="M502,154.006h-31.577c-5.523,0-10,4.477-10,10s4.477,10,10,10H502c5.523,0,10-4.477,10-10S507.523,154.006,502,154.006z" fill="#757575" data-original="#000000" style=""/>
	</g>
</g>
<g xmlns="http://www.w3.org/2000/svg">
</g>
<g xmlns="http://www.w3.org/2000/svg">
</g>
<g xmlns="http://www.w3.org/2000/svg">
</g>
<g xmlns="http://www.w3.org/2000/svg">
</g>
<g xmlns="http://www.w3.org/2000/svg">
</g>
<g xmlns="http://www.w3.org/2000/svg">
</g>
<g xmlns="http://www.w3.org/2000/svg">
</g>
<g xmlns="http://www.w3.org/2000/svg">
</g>
<g xmlns="http://www.w3.org/2000/svg">
</g>
<g xmlns="http://www.w3.org/2000/svg">
</g>
<g xmlns="http://www.w3.org/2000/svg">
</g>
<g xmlns="http://www.w3.org/2000/svg">
</g>
<g xmlns="http://www.w3.org/2000/svg">
</g>
<g xmlns="http://www.w3.org/2000/svg">
</g>
<g xmlns="http://www.w3.org/2000/svg">
</g>
</g></svg>
