<?xml version="1.0"?>
<svg xmlns="http://www.w3.org/2000/svg" xmlns:xlink="http://www.w3.org/1999/xlink" xmlns:svgjs="http://svgjs.com/svgjs" version="1.1" width="512" height="512" x="0" y="0" viewBox="0 0 512 512" style="enable-background:new 0 0 512 512" xml:space="preserve" class=""><g><g xmlns="http://www.w3.org/2000/svg"><path d="m504.5 465.649h-14.992l4.504-7.432c2.146-3.542 1.016-8.154-2.527-10.301-3.541-2.146-8.154-1.017-10.301 2.527l-4.015 6.624-2.625-5.82c-1.704-3.777-6.149-5.456-9.92-3.754-3.776 1.703-5.457 6.145-3.754 9.92l3.714 8.235h-15.857v-134.667c0-4.143-3.357-7.5-7.5-7.5s-7.5 3.357-7.5 7.5v134.668h-14.663v-193.93h14.663v29.276c0 4.143 3.357 7.5 7.5 7.5s7.5-3.357 7.5-7.5v-29.276h6.549c4.143 0 7.5-3.357 7.5-7.5v-24.713c9.608-3.911 16.402-13.345 16.402-24.341v-113.704c0-14.486-11.786-26.272-26.273-26.272h-4.178v-6.332c0-12.313-10.019-22.331-22.332-22.331s-22.331 10.018-22.331 22.331v6.332h-7.822c-24.289 0-47.89-7.422-68.25-21.464-21.224-14.638-46.119-22.374-71.992-22.374-17.79 0-35.01 3.617-51.182 10.75-3.789 1.672-5.507 6.1-3.835 9.89 1.671 3.789 6.103 5.504 9.889 3.835 14.253-6.287 29.436-9.475 45.128-9.475 22.817 0 44.767 6.819 63.476 19.722 22.876 15.777 49.421 24.116 76.766 24.116h56.663c6.216 0 11.273 5.057 11.273 11.272v113.703c0 6.216-5.058 11.272-11.273 11.272h-56.663c-27.345 0-53.89 8.339-76.766 24.116-18.709 12.902-40.658 19.722-63.476 19.722s-44.766-6.819-63.475-19.722c-22.876-15.777-49.421-24.116-76.766-24.116h-56.663c-6.216 0-11.272-5.057-11.272-11.272v-113.703c0-6.216 5.057-11.272 11.272-11.272h56.664c24.514 0 48.731-6.841 70.034-19.781 3.54-2.15 4.667-6.764 2.517-10.304-2.152-3.542-6.767-4.663-10.304-2.517-18.955 11.515-40.48 17.602-62.247 17.602h-7.822v-6.332c0-12.313-10.019-22.331-22.332-22.331s-22.332 10.017-22.332 22.33v6.332h-4.179c-14.486 0-26.272 11.786-26.272 26.272v113.703c0 10.996 6.794 20.431 16.402 24.341v24.713c0 4.143 3.357 7.5 7.5 7.5h6.549v35.935c0 4.143 3.357 7.5 7.5 7.5s7.5-3.357 7.5-7.5v-35.935h14.663v193.931h-14.663v-128.008c0-4.143-3.357-7.5-7.5-7.5s-7.5 3.357-7.5 7.5v128.01h-17.07l4.504-7.432c2.146-3.542 1.016-8.154-2.527-10.301-3.541-2.146-8.154-1.017-10.301 2.527l-4.015 6.624-2.625-5.82c-1.704-3.777-6.149-5.456-9.92-3.754-3.776 1.703-5.457 6.145-3.754 9.92l3.714 8.235h-13.78c-4.143 0-7.5 3.357-7.5 7.5s3.357 7.5 7.5 7.5h497c4.143 0 7.5-3.357 7.5-7.5s-3.357-7.5-7.5-7.5zm-85.437-390.461v-6.332c0-4.042 3.289-7.331 7.331-7.331 4.043 0 7.332 3.289 7.332 7.331v6.332zm-340.789-6.332c0-4.042 3.289-7.331 7.331-7.331 4.043 0 7.332 3.289 7.332 7.331v6.332h-14.663zm326.741 187.863v-15.282h42.761v15.282zm-340.789 0v-15.282h42.761v15.282zm43.712 15h6.549c4.143 0 7.5-3.357 7.5-7.5v-22.599c22.082 1.158 43.407 8.442 62.023 21.281 21.224 14.638 46.117 22.374 71.99 22.374s50.768-7.736 71.991-22.374c18.615-12.838 39.941-20.123 62.023-21.281v22.599c0 4.143 3.357 7.5 7.5 7.5h6.549v193.931h-102.343l11.906-10.558c3.1-2.748 3.384-7.488.636-10.587-2.749-3.099-7.487-3.386-10.587-.636l-19.279 17.096-5.916-12.226c-1.804-3.728-6.286-5.29-10.018-3.484-3.729 1.804-5.289 6.289-3.484 10.018l5.021 10.377h-162.061z" fill="#757575" data-original="#000000" style="" class=""/><path d="m256.217 207.417c4.143 0 7.5-3.357 7.5-7.5v-81.297c0-4.143-3.357-7.5-7.5-7.5h-17.377c-4.143 0-7.5 3.357-7.5 7.5s3.357 7.5 7.5 7.5h9.877v73.797c0 4.143 3.357 7.5 7.5 7.5z" fill="#757575" data-original="#000000" style="" class=""/><path d="m161.472 179.736c1.349 2.284 3.805 3.687 6.458 3.687h33.105c-.042 5.823-.086 11.422-.13 16.43-.035 4.142 3.293 7.528 7.436 7.564h.065c4.112 0 7.463-3.315 7.499-7.436.025-3.012.076-9.087.131-16.559h2.945c4.143 0 7.5-3.357 7.5-7.5s-3.357-7.5-7.5-7.5h-2.845c.12-19.924.19-41.855-.055-44.791-.483-5.804-3.923-10.522-8.761-12.021-2.292-.709-8.221-1.635-13.715 5.106-4.652 5.707-27.676 47.302-32.244 55.582-1.28 2.325-1.239 5.153.111 7.438zm39.769-47.294c.028 8.203-.023 21.847-.107 35.98h-20.467c7.987-14.317 15.874-28.155 20.574-35.98z" fill="#757575" data-original="#000000" style="" class=""/><path d="m396.229 123.632c-.483-5.804-3.923-10.522-8.762-12.021-2.294-.709-8.221-1.635-13.714 5.106-4.652 5.707-27.676 47.302-32.244 55.582-1.281 2.323-1.24 5.151.109 7.437 1.349 2.284 3.805 3.687 6.458 3.687h33.105c-.042 5.823-.087 11.421-.13 16.43-.035 4.142 3.294 7.528 7.436 7.564h.065c4.112 0 7.463-3.315 7.499-7.436.025-3.012.076-9.087.131-16.559h2.945c4.143 0 7.5-3.357 7.5-7.5s-3.357-7.5-7.5-7.5h-2.845c.121-19.923.192-41.855-.053-44.79zm-14.949 44.791h-20.467c7.987-14.317 15.873-28.155 20.573-35.979.03 8.202-.023 21.846-.106 35.979z" fill="#757575" data-original="#000000" style="" class=""/><path d="m138.897 154.325c-12.896 18.427-20.595 28.507-24.73 33.923-5.009 6.558-6.883 9.011-5.571 13.275.758 2.465 2.63 4.357 5.139 5.194 1.029.343 2.155.718 17.569.718 6.176 0 14.646-.06 26.324-.207 4.142-.052 7.457-3.451 7.404-7.594-.051-4.109-3.398-7.405-7.497-7.405-.032 0-.064 0-.096.001-9.593.12-19.826.174-27.6.186 4.586-6.074 11.466-15.372 21.347-29.489 4.706-6.723 10.4-16.892 10.4-25.095 0-15.606-12.696-28.303-28.302-28.303-13.494 0-25.174 9.6-27.771 22.825-.799 4.064 1.85 8.006 5.914 8.805 4.066.797 8.007-1.85 8.805-5.914 1.22-6.209 6.709-10.716 13.053-10.716 7.192 0 13.07 5.738 13.295 12.878l-.283 2.218c-1.052 4.244-3.54 9.187-7.4 14.7z" fill="#757575" data-original="#000000" style="" class=""/><path d="m305.781 192.417c-6.601 0-12.264-4.917-13.174-11.44-.086-.609-.129-1.236-.129-1.861 0-4.143-3.357-7.5-7.5-7.5s-7.5 3.357-7.5 7.5c0 1.319.092 2.646.273 3.938 1.938 13.89 13.987 24.364 28.029 24.364 15.605 0 28.302-12.696 28.302-28.302 0-8.219-3.524-15.627-9.137-20.803 5.613-5.175 9.137-12.584 9.137-20.803 0-15.605-12.696-28.302-28.302-28.302-13.495 0-25.175 9.599-27.771 22.824-.798 4.064 1.85 8.007 5.914 8.805 4.071.796 8.007-1.851 8.805-5.914 1.219-6.209 6.709-10.715 13.053-10.715 7.335 0 13.302 5.967 13.302 13.302s-5.967 13.303-13.302 13.303c-4.143 0-7.5 3.357-7.5 7.5s3.357 7.5 7.5 7.5c7.335 0 13.302 5.968 13.302 13.303s-5.967 13.301-13.302 13.301z" fill="#757575" data-original="#000000" style="" class=""/></g></g></svg>
