<?xml version="1.0"?>
<svg xmlns="http://www.w3.org/2000/svg" xmlns:xlink="http://www.w3.org/1999/xlink" xmlns:svgjs="http://svgjs.com/svgjs" version="1.1" width="512" height="512" x="0" y="0" viewBox="0 0 64 64" style="enable-background:new 0 0 512 512" xml:space="preserve" class=""><g><g xmlns="http://www.w3.org/2000/svg" id="Global_pin" data-name="Global pin"><path d="M14,8a3,3,0,1,0-3,3A3,3,0,0,0,14,8ZM10,8a1,1,0,1,1,1,1A1,1,0,0,1,10,8Z" fill="#757575" data-original="#000000" style="" class=""/><path d="M52,11a3,3,0,1,0-3-3A3,3,0,0,0,52,11Zm0-4a1,1,0,1,1-1,1A1,1,0,0,1,52,7Z" fill="#757575" data-original="#000000" style="" class=""/><path d="M48,35a3,3,0,1,0-3,3A3,3,0,0,0,48,35Zm-4,0a1,1,0,1,1,1,1A1,1,0,0,1,44,35Z" fill="#757575" data-original="#000000" style="" class=""/><path d="M11,29a3,3,0,1,0,3-3A3,3,0,0,0,11,29Zm4,0a1,1,0,1,1-1-1A1,1,0,0,1,15,29Z" fill="#757575" data-original="#000000" style="" class=""/><path d="M30,17a3,3,0,1,0,3,3A3,3,0,0,0,30,17Zm0,4a1,1,0,1,1,1-1A1,1,0,0,1,30,21Z" fill="#757575" data-original="#000000" style="" class=""/><path d="M34,45a3,3,0,1,0-3,3A3,3,0,0,0,34,45Zm-4,0a1,1,0,1,1,1,1A1,1,0,0,1,30,45Z" fill="#757575" data-original="#000000" style="" class=""/><path d="M55.658,13.588C56.871,11.669,58,9.485,58,8A6,6,0,0,0,46.454,5.717,29.925,29.925,0,0,0,16.723,6.2,6,6,0,0,0,5,8c0,1.672,1.431,4.231,2.8,6.3A29.687,29.687,0,0,0,2,32,30,30,0,1,0,55.658,13.588ZM52,4a4,4,0,0,1,4,4c0,1.521-2.208,4.972-4,7.365C50.208,12.972,48,9.521,48,8A4,4,0,0,1,52,4Zm-.78,13.625a1,1,0,0,0,1.56,0c.186-.232.88-1.111,1.7-2.277a27.981,27.981,0,0,1,5.5,16.135L58,30a5.025,5.025,0,0,1-2-4V23.47c0-2.085-1.348-2.763-2.651-3.418L52.241,19.5a3.032,3.032,0,0,0-2.723.019,2.73,2.73,0,0,0-1.478,1.993A3.022,3.022,0,0,0,48,22v2.272a.708.708,0,0,1-.541.724.6.6,0,0,1-.669-.517l-.68-4.761A2.011,2.011,0,0,0,44.13,18H44a1,1,0,0,1-1-1V16a3,3,0,0,0-3-3H38a1,1,0,0,1-1-1V4.462a27.9,27.9,0,0,1,9.012,3.3c0,.079-.012.158-.012.238C46,11.025,50.686,16.959,51.22,17.625ZM11,4a4,4,0,0,1,4,4c0,1.521-2.208,4.972-4,7.365C9.208,12.972,7,9.521,7,8A4,4,0,0,1,11,4ZM9.017,16.043c.59.809,1.056,1.4,1.2,1.582a1,1,0,0,0,1.56,0c.512-.639,4.83-6.113,5.185-9.23A27.745,27.745,0,0,1,24,5.163V10a1,1,0,0,1-1,1,3.017,3.017,0,0,0-3,3v5a1,1,0,0,1-1,1H15a2.963,2.963,0,0,0-2.976,3.341A6.007,6.007,0,0,0,8,29c0,3.025,4.686,8.959,5.22,9.625a1,1,0,0,0,1.56,0C15.314,37.959,20,32.025,20,29a5.958,5.958,0,0,0-.812-3h7.419c1.176,1.809,2.36,3.31,2.613,3.625a1,1,0,0,0,1.56,0c.138-.172.556-.7,1.1-1.435A2.982,2.982,0,0,1,32,29a6,6,0,0,1-6,6H24a3.034,3.034,0,0,0-2.4,1.2l-1.993,2.661A2.945,2.945,0,0,0,19,40.67l0,7.913-1.65-1.65a2.009,2.009,0,0,1-.546-1.019l-.5-2.5A3.013,3.013,0,0,0,13.36,41H5.492A27.887,27.887,0,0,1,9.017,16.043ZM18,29c0,1.521-2.208,4.972-4,7.365-1.792-2.393-4-5.844-4-7.365a4,4,0,0,1,8,0Zm12-1.635c-1.792-2.393-4-5.844-4-7.365a4,4,0,0,1,8,0C34,21.521,31.792,24.972,30,27.365ZM6.254,43H13.36a1.007,1.007,0,0,1,.98.806l.5,2.506a4.016,4.016,0,0,0,1.092,2.035L17.583,50A2,2,0,0,0,21,48.59V40.67a.967.967,0,0,1,.2-.6l2-2.665A1.019,1.019,0,0,1,24,37h2a8,8,0,0,0,8-8,4.987,4.987,0,0,0-.8-2.7C34.569,24.231,36,21.672,36,20a6,6,0,0,0-12,0,9.516,9.516,0,0,0,1.4,4H17.31A5.962,5.962,0,0,0,14,23a1,1,0,0,1,1-1h4a3,3,0,0,0,3-3V14a.978.978,0,0,1,.306-.712A.957.957,0,0,1,23,13a3,3,0,0,0,3-3V4.649a27.215,27.215,0,0,1,9-.473V12a3,3,0,0,0,3,3h2a1,1,0,0,1,1,1v1a3,3,0,0,0,3,3h.13l.682,4.77a2.609,2.609,0,0,0,2.856,2.214A2.7,2.7,0,0,0,50,24.272V22a.971.971,0,0,1,.013-.161.741.741,0,0,1,.416-.54,1.035,1.035,0,0,1,.922-.008l1.1.548c1.335.671,1.55.837,1.55,1.631V26a7.035,7.035,0,0,0,2.8,5.6l3.125,2.344a27.829,27.829,0,0,1-4.912,13.98L53.1,46.554A2.988,2.988,0,0,0,51.36,46H51a1,1,0,0,1-1-1V44a3,3,0,0,0-1.78-2.735C49.584,39.2,51,36.663,51,35a6,6,0,0,0-12,0c0,1.595,1.3,3.994,2.612,6.007a2.985,2.985,0,0,0-2.879,2.5l-.439,2.659A1.008,1.008,0,0,1,37.31,47h-.765A5.867,5.867,0,0,0,37,45a6,6,0,0,0-12,0c0,1.627,1.355,4.092,2.691,6.13l-.105.087a2.965,2.965,0,0,0-.771,3.65L28,57.236V59.71A28.082,28.082,0,0,1,6.254,43ZM41,35a4,4,0,0,1,8,0c0,1.521-2.208,4.972-4,7.365C43.208,39.972,41,36.521,41,35ZM27,45a4,4,0,0,1,8,0c0,1.521-2.208,4.972-4,7.365C29.208,49.972,27,46.521,27,45Zm5,15c-.673,0-1.339-.032-2-.079V57a1,1,0,0,0-.105-.447L28.6,53.969a.974.974,0,0,1,.229-1.18c.68.943,1.226,1.634,1.388,1.836a1,1,0,0,0,1.56,0A43.98,43.98,0,0,0,35.6,49H37.31a2.99,2.99,0,0,0,2.957-2.507l.439-2.659A1.008,1.008,0,0,1,41.69,43h1.3c.606.832,1.085,1.439,1.235,1.625a1,1,0,0,0,1.56,0c.15-.186.628-.792,1.233-1.622A1,1,0,0,1,48,44v1a3,3,0,0,0,3,3h.36a.981.981,0,0,1,.577.184l1.877,1.342A27.956,27.956,0,0,1,32,60Z" fill="#757575" data-original="#000000" style="" class=""/></g></g></svg>
