<?xml version="1.0"?>
<svg xmlns="http://www.w3.org/2000/svg" xmlns:xlink="http://www.w3.org/1999/xlink" xmlns:svgjs="http://svgjs.com/svgjs" version="1.1" width="512" height="512" x="0" y="0" viewBox="0 0 24 24" style="enable-background:new 0 0 512 512" xml:space="preserve"><g><path xmlns="http://www.w3.org/2000/svg" d="m4.5 24c-.064 0-.129-.012-.191-.038-.187-.077-.309-.26-.309-.462v-4.5h-1.5c-1.378 0-2.5-1.122-2.5-2.5v-14c0-1.378 1.122-2.5 2.5-2.5h19c1.378 0 2.5 1.122 2.5 2.5v14c0 1.378-1.122 2.5-2.5 2.5h-11.793l-4.854 4.854c-.095.095-.223.146-.353.146zm-2-23c-.827 0-1.5.673-1.5 1.5v14c0 .827.673 1.5 1.5 1.5h2c.276 0 .5.224.5.5v3.793l4.146-4.146c.094-.094.221-.147.354-.147h12c.827 0 1.5-.673 1.5-1.5v-14c0-.827-.673-1.5-1.5-1.5z" fill="#757575" data-original="#000000" style=""/><path xmlns="http://www.w3.org/2000/svg" d="m7.5 13c-.276 0-.5-.224-.5-.5v-5c0-.276.224-.5.5-.5s.5.224.5.5v5c0 .276-.224.5-.5.5z" fill="#757575" data-original="#000000" style=""/><path xmlns="http://www.w3.org/2000/svg" d="m12.5 13h-3c-.276 0-.5-.224-.5-.5v-1.5c0-.827.673-1.5 1.5-1.5h1c.276 0 .5-.224.5-.5v-.5c0-.276-.224-.5-.5-.5h-2c-.276 0-.5-.224-.5-.5s.224-.5.5-.5h2c.827 0 1.5.673 1.5 1.5v.5c0 .827-.673 1.5-1.5 1.5h-1c-.276 0-.5.224-.5.5v1h2.5c.276 0 .5.224.5.5s-.224.5-.5.5z" fill="#757575" data-original="#000000" style=""/><path xmlns="http://www.w3.org/2000/svg" d="m16.5 13h-2c-.276 0-.5-.224-.5-.5s.224-.5.5-.5h2c.276 0 .5-.224.5-.5v-.5c0-.276-.224-.5-.5-.5h-2c-.276 0-.5-.224-.5-.5s.224-.5.5-.5h2c.827 0 1.5.673 1.5 1.5v.5c0 .827-.673 1.5-1.5 1.5z" fill="#757575" data-original="#000000" style=""/><path xmlns="http://www.w3.org/2000/svg" d="m16.5 10.5h-2c-.276 0-.5-.224-.5-.5s.224-.5.5-.5h2c.276 0 .5-.224.5-.5v-.5c0-.276-.224-.5-.5-.5h-2c-.276 0-.5-.224-.5-.5s.224-.5.5-.5h2c.827 0 1.5.673 1.5 1.5v.5c0 .827-.673 1.5-1.5 1.5z" fill="#757575" data-original="#000000" style=""/></g></svg>
