<?xml version="1.0"?>
<svg xmlns="http://www.w3.org/2000/svg" xmlns:xlink="http://www.w3.org/1999/xlink" xmlns:svgjs="http://svgjs.com/svgjs" version="1.1" width="512" height="512" x="0" y="0" viewBox="0 0 512 512" style="enable-background:new 0 0 512 512" xml:space="preserve" class=""><g><g xmlns="http://www.w3.org/2000/svg" id="Flat"><circle cx="356" cy="124" fill="#d5d5d3" r="28" data-original="#d5d5d3" style="" class=""/><path d="m408 200h-16v-21.194l-30.247-37.806 12.494-10 32 40a8 8 0 0 1 1.753 5z" fill="#d5d5d3" data-original="#d5d5d3" style="" class=""/><path d="m264 96-16 8v8a16 16 0 0 1 -16 16h-48v-80h64v24l5.33 8z" fill="#fdc8a2" data-original="#fdc8a2" style="" class=""/><path d="m253.33 80h-37.33v-16h32v8z" fill="#fdb683" data-original="#fdb683" style="" class=""/><path d="m40 352h56v48h-56z" fill="#93bfd4" data-original="#c7483c" style="" class=""/><circle cx="120" cy="432" fill="#455a64" r="56" data-original="#34507b" style="" class=""/><circle cx="120" cy="432" fill="#d5d5d3" r="24" data-original="#d5d5d3" style="" class=""/><path d="m40 136h96a16 16 0 0 1 16 16v112a0 0 0 0 1 0 0h-128a0 0 0 0 1 0 0v-112a16 16 0 0 1 16-16z" fill="#ade0f9" data-original="#d65246" style="" class=""/><path d="m48 192h16v48h-16z" fill="#f9f9f9" data-original="#df6257" style="" class=""/><path d="m24 160h128v16h-128z" fill="#93bfd4" data-original="#c7483c" style="" class=""/><path d="m311.029 408.971 49.942-49.942a24 24 0 0 0 7.029-16.97v-62.059a32 32 0 0 1 32-32v40a40 40 0 0 0 40 40v32h-17.844a32 32 0 0 0 -23.678 10.474l-60.956 67.052a32 32 0 0 1 -23.678 10.474h-289.844a105.442 105.442 0 0 1 86.58-103.742l1.42-.258v-32h136a27.672 27.672 0 0 1 -23.759 27.394 37.552 37.552 0 0 0 -32.241 37.175v1.879a37.553 37.553 0 0 0 37.552 37.552h64.507a24 24 0 0 0 16.97-7.029z" fill="#ade0f9" data-original="#d65246" style="" class=""/><path d="m104.285 387.575-6.138-14.775a81.91 81.91 0 0 1 16.727-4.927l2.861 15.742a65.794 65.794 0 0 0 -13.45 3.96z" fill="#f9f9f9" data-original="#df6257" style="" class=""/><path d="m70.522 419.487-14.4-6.974a81.646 81.646 0 0 1 27.363-31.768l9.03 13.209a65.626 65.626 0 0 0 -21.993 25.533z" fill="#f9f9f9" data-original="#df6257" style="" class=""/><path d="m152 264h-128a8 8 0 0 0 -8 8v9.32a16.008 16.008 0 0 0 13.14 15.75l81.43 14.8a7.608 7.608 0 0 0 1.43.13h40a8 8 0 0 0 8-8v-32a8 8 0 0 0 -8-8zm-8 32h-31.28l-80.72-14.68v-1.32h112z" fill="#d5d5d3" data-original="#d5d5d3" style="" class=""/><path d="m256 64h-40v19a21 21 0 0 1 -32 17.89 20.611 20.611 0 0 1 -3.09-2.32 20.9 20.9 0 0 1 -6.8-13.48l-1.71-17.11a39.992 39.992 0 0 1 39.8-43.98h3.8a40 40 0 0 1 40 40z" fill="#ade0f9" data-original="#d65246" style="" class=""/><path d="m184 240v16a24 24 0 0 0 24 24h80l-40 104h40l37.6-90.517a38.658 38.658 0 0 0 -2.388-34.441 38.655 38.655 0 0 0 -33.312-19.042z" fill="#7a432a" data-original="#7a432a" style="" class=""/><path d="m280 184-48-56h-48v112h64v-40l8.971 8.971a24 24 0 0 0 16.97 7.029h78.059v-32z" fill="#ade0f9" data-original="#d65246" style="" class=""/><path d="m368 248h64v-56h-14.111a28.944 28.944 0 0 0 -25.889 16l-24 8z" fill="#ade0f9" data-original="#d65246" style="" class=""/><path d="m488 432a55.967 55.967 0 1 1 -.57-8 56 56 0 0 1 .57 8z" fill="#455a64" data-original="#34507b" style="" class=""/><path d="m487.43 424h-63.43l-31.68 47.52a56 56 0 1 1 95.11-47.52z" fill="#2f486e" data-original="#2f486e" style="" class=""/><path d="m455 432a24.025 24.025 0 1 1 -1.38-8 23.6 23.6 0 0 1 1.38 8z" fill="#cececc" data-original="#cececc" style="" class=""/><path d="m453.62 424h-29.62l-13.57 20.35a23.994 23.994 0 1 1 43.19-20.35z" fill="#c6c6c4" data-original="#c6c6c4" style="" class=""/><path d="m396 419.151 24.5 24.5a14.849 14.849 0 0 0 21 0 14.849 14.849 0 0 0 0-21l-24.5-24.5z" fill="#d5d5d3" data-original="#d5d5d3" style="" class=""/><path d="m360 456h32l32-48h64a48 48 0 0 0 -48-48h-16a64 64 0 0 0 -64 64z" fill="#ade0f9" data-original="#d65246" style="" class=""/><path d="m352 184v32l16 8v16h32v-40z" fill="#fdc8a2" data-original="#fdc8a2" style="" class=""/><circle cx="368" cy="232" fill="#455a64" r="16" data-original="#34507b" style="" class=""/><g fill="#c7483c"><path d="m112 336h56v16h-56z" fill="#93bfd4" data-original="#c7483c" style="" class=""/><path d="m278.059 432h-150.059v-16h166.059a24 24 0 0 0 16.97-7.029l.971-.971-16.971 16.971a24 24 0 0 1 -16.97 7.029z" fill="#93bfd4" data-original="#c7483c" style="" class=""/><path d="m424 352a72.1 72.1 0 0 0 -70.98 60h16.289a56.088 56.088 0 0 1 54.691-44h16v-16z" fill="#93bfd4" data-original="#c7483c" style="" class=""/></g><rect fill="#455a64" height="32" rx="16" width="96" x="152" y="280" data-original="#34507b" style="" class=""/><path d="m248 201.373-26.343-26.343-11.314 11.313 37.657 37.657z" fill="#93bfd4" data-original="#c7483c" style="" class=""/><path d="m248 384h48a16 16 0 0 1 16 16 16 16 0 0 1 -16 16h-48a0 0 0 0 1 0 0v-32a0 0 0 0 1 0 0z" fill="#d5d5d3" data-original="#d5d5d3" style="" class=""/></g></g></svg>
