<?xml version="1.0" encoding="iso-8859-1"?>
<!-- Generator: Adobe Illustrator 19.0.0, SVG Export Plug-In . SVG Version: 6.00 Build 0)  -->
<svg version="1.1" id="Layer_1" xmlns="http://www.w3.org/2000/svg" xmlns:xlink="http://www.w3.org/1999/xlink" x="0px" y="0px"
	 viewBox="0 0 511.998 511.998" style="enable-background:new 0 0 511.998 511.998;" xml:space="preserve">
<g>
	<g>
		<path d="M237.963,205.825c-4.448,0-8.055,3.606-8.055,8.055v12.884c0,4.448,3.607,8.055,8.055,8.055
			c4.448,0,8.055-3.606,8.055-8.055V213.88C246.018,209.431,242.411,205.825,237.963,205.825z"/>
	</g>
</g>
<g>
	<g>
		<path d="M357.695,177.039c-13.294-13.296-34.927-13.296-48.222,0c-3.146,3.146-3.146,8.245,0,11.391
			c3.146,3.146,8.246,3.146,11.391,0c7.014-7.014,18.427-7.014,25.441,0c1.572,1.573,3.634,2.36,5.695,2.36s4.123-0.786,5.695-2.36
			C360.841,185.284,360.841,180.184,357.695,177.039z"/>
	</g>
</g>
<g>
	<g>
		<path d="M262.073,177.039c-13.294-13.296-34.927-13.295-48.222,0c-3.146,3.146-3.146,8.245,0,11.391
			c3.146,3.146,8.246,3.146,11.391,0c7.015-7.014,18.427-7.013,25.441,0c1.572,1.573,3.634,2.36,5.695,2.36s4.123-0.786,5.695-2.36
			C265.219,185.284,265.219,180.184,262.073,177.039z"/>
	</g>
</g>
<g>
	<g>
		<path d="M333.585,205.825c-4.448,0-8.055,3.606-8.055,8.055v12.884c0,4.448,3.606,8.055,8.055,8.055s8.055-3.606,8.055-8.055
			V213.88C341.64,209.431,338.033,205.825,333.585,205.825z"/>
	</g>
</g>
<g>
	<g>
		<path d="M225.423,478.393h-3.188v-74.714c0-22.705-10.044-43.709-27.275-57.851c2.058-1.736,4.251-3.345,6.607-4.777
			c3.803-2.309,5.013-7.262,2.705-11.065c-2.309-3.802-7.264-5.013-11.065-2.705c-20.382,12.375-32.551,33.979-32.551,57.793
			v101.374c0,4.448,3.606,8.055,8.055,8.055h56.711c4.448,0,8.055-3.606,8.055-8.055S229.872,478.393,225.423,478.393z
			 M206.126,478.393h-29.359V440.39h29.359V478.393z M206.126,424.28h-29.359v-39.206c0-9.787,2.72-19.073,7.647-27.042
			c13.706,11.103,21.712,27.694,21.712,45.647V424.28z"/>
	</g>
</g>
<g>
	<g>
		<path d="M402.842,466.166c-4.448,0-8.055,3.606-8.055,8.055v4.172h-29.363v-19.208c0-4.448-3.607-8.055-8.055-8.055
			c-4.448,0-8.055,3.606-8.055,8.055v19.208h-97.042c-4.448,0-8.055,3.606-8.055,8.055s3.606,8.055,8.055,8.055h150.569
			c4.448,0,8.055-3.606,8.055-8.055v-12.227C410.897,469.772,407.291,466.166,402.842,466.166z"/>
	</g>
</g>
<g>
	<g>
		<path d="M298.124,194.011c-4.448,0-8.055,3.606-8.055,8.055v38.127c0,2.369-1.927,4.296-4.296,4.296
			c-2.369,0-4.296-1.927-4.296-4.296v-38.127c0-4.448-3.606-8.055-8.055-8.055c-4.448,0-8.055,3.606-8.055,8.055v38.127
			c0,11.252,9.154,20.406,20.406,20.406c11.252,0,20.406-9.154,20.406-20.406v-38.127
			C306.179,197.618,302.573,194.011,298.124,194.011z"/>
	</g>
</g>
<g>
	<g>
		<path d="M430.962,206.71c0-17.03-12.93-31.094-29.492-32.908l-1.862-19.268c-0.001-0.01-0.002-0.019-0.003-0.029
			c-0.002-0.017-0.004-0.033-0.005-0.05c-1.799-18.46-7.985-36.005-18.012-51.358c5.765-1.51,12.082-2.367,19.111-2.367
			c2.424,0,4.719-1.091,6.248-2.972c1.529-1.881,2.131-4.35,1.637-6.723c-0.154-0.74-3.893-18.332-14.617-36.086
			c-14.8-24.502-35.683-37.452-60.393-37.452c-21.258,0-40.641,7.876-56.541,22.875c-8.246-1.289-27.045-3.409-47.676-0.22
			c-37.218,5.753-62.191,25.918-72.216,58.315c-7.424,23.99-3.695,55.402,4.887,77.266c-12.515,4.73-21.44,16.831-21.44,30.982
			c-0.001,14.901,9.775,27.524,23.391,31.67c-1.274,29.726,12.514,58.565,36.723,76.155l44.086,32.025
			c12.261,8.911,26.623,13.366,40.988,13.365c14.361-0.001,28.726-4.456,40.977-13.364l44.086-32.026
			c24.217-17.588,38.01-46.43,36.734-76.159C421.187,234.229,430.962,221.608,430.962,206.71z M382.021,145.775
			c-14.998-4.711-24.948-19.526-29.356-27.485c4.211-3.386,8.684-6.5,13.578-9.133C373.972,120.162,379.327,132.595,382.021,145.775
			z M165.461,221.592c-5.243-2.899-8.766-8.475-8.766-14.882c0-7.546,4.947-13.952,11.765-16.167L165.461,221.592z M172.529,103.225
			c8.156-26.355,27.965-42.198,58.875-47.091c7.166-1.134,14.15-1.535,20.443-1.535c4.54,0,8.72,0.208,12.344,0.499
			c-7.917,10.988-11.523,20.246-11.708,20.726c-1.592,4.147,0.477,8.79,4.619,10.391c4.141,1.6,8.802-0.462,10.413-4.601
			c0.048-0.124,4.926-12.477,15.712-24.535c0.668-0.746,1.343-1.476,2.023-2.187c0.188-0.177,0.368-0.363,0.539-0.557
			c13.43-13.76,29.489-20.732,47.78-20.732c18.913,0,34.521,9.865,46.39,29.32c4.924,8.072,8.205,16.253,10.218,22.239
			c-31.569,3.354-49.96,21.599-66.369,37.881c-9.897,9.821-19.246,19.096-30.2,23.336c-27.332,10.578-57.083-26.135-57.374-26.499
			c-1.528-1.922-3.849-3.043-6.305-3.043c-17.244,0-31.327,5.492-41.86,16.325c-7.37,7.579-11.925,16.755-14.734,25.377
			C168.755,141.002,167.513,119.435,172.529,103.225z M322.554,329.7l-5.274,3.831c-7.124,5.181-15.177,8.399-23.455,9.662V331.1
			c0-4.448-3.606-8.055-8.055-8.055s-8.055,3.606-8.055,8.055v12.092c-8.277-1.264-16.33-4.482-23.458-9.663l-5.271-3.829v-34.064
			c0-9.463,7.704-17.162,17.173-17.162h39.233c9.464,0,17.162,7.699,17.162,17.162V329.7z M361.37,301.503l-22.706,16.494v-22.361
			c0-18.347-14.925-33.272-33.272-33.272h-39.233c-18.352,0-33.283,14.925-33.283,33.272v22.362l-22.706-16.494
			c-20.89-15.18-32.324-40.579-29.839-66.289l4.586-47.492l-0.021-0.002c0.032-0.324,0.064-0.649,0.056-0.981
			c-0.001-0.045-0.013-0.856,0.038-2.225c0.15-0.444,0.272-0.903,0.344-1.382c0.144-0.947,0.107-1.878-0.068-2.768
			c0.826-8.895,3.795-25.157,14.414-36.03c6.664-6.823,15.61-10.609,26.632-11.278c7.66,8.58,30.501,31.382,56.925,31.38
			c5.283,0,10.714-0.913,16.19-3.033c14.094-5.456,24.604-15.883,35.731-26.923c1.74-1.726,3.487-3.457,5.254-5.176
			c2.104,3.49,4.843,7.55,8.234,11.617c10.323,12.38,22.503,19.816,35.572,21.85l7,72.443
			C393.705,260.926,382.268,286.326,361.37,301.503z M406.087,221.588l-3-31.042c6.819,2.217,11.763,8.62,11.763,16.164
			C414.851,213.114,411.33,218.688,406.087,221.588z"/>
	</g>
</g>
<g>
	<g>
		<path d="M309.7,292.231c-1.897-4.027-6.696-5.754-10.719-3.86c-8.396,3.951-18.027,3.95-26.422,0
			c-4.025-1.895-8.825-0.166-10.717,3.859c-1.895,4.025-0.166,8.824,3.859,10.719c6.377,3.002,13.223,4.502,20.071,4.502
			c6.846,0,13.693-1.5,20.071-4.502C309.867,301.054,311.594,296.255,309.7,292.231z"/>
	</g>
</g>
<g>
	<g>
		<path d="M480.316,396.893c-9.822,0-18.614,4.493-24.43,11.531l-11.69-24.161l25.19-52.061c1.938-4.005,0.262-8.822-3.742-10.759
			s-8.822-0.263-10.759,3.743l-19.638,40.585l-19.638-40.585c-1.936-4.005-6.755-5.68-10.759-3.743
			c-4.005,1.937-5.68,6.754-3.742,10.759l25.19,52.061l-11.69,24.161c-5.816-7.039-14.608-11.531-24.43-11.531
			c-17.47,0-31.683,14.213-31.683,31.683s14.213,31.683,31.683,31.683c16.802,0,30.584-13.148,31.614-29.695l13.455-27.807
			l13.455,27.807c1.03,16.547,14.813,29.695,31.614,29.695c17.47,0,31.683-14.213,31.683-31.683S497.785,396.893,480.316,396.893z
			 M390.178,444.149c-8.587,0-15.573-6.986-15.573-15.573s6.986-15.573,15.573-15.573s15.573,6.986,15.573,15.573
			S398.764,444.149,390.178,444.149z M480.316,444.149c-8.587,0-15.573-6.986-15.573-15.573s6.986-15.573,15.573-15.573
			c8.587,0,15.573,6.986,15.573,15.573S488.902,444.149,480.316,444.149z"/>
	</g>
</g>
<g>
	<g>
		<path d="M129.919,339.721c6.016-2.499,12.943,0.361,15.443,6.377c1.707,4.108,6.419,6.055,10.529,4.348
			c4.108-1.707,6.054-6.421,4.348-10.529c-5.908-14.219-22.284-20.98-36.501-15.072c-3.898,1.62-7.231,4.03-9.901,6.963
			l-9.016-21.701l0.099-0.057c9.59-5.566,16.352-14.994,18.552-25.864c2.195-10.847-0.36-22.134-7.01-30.966
			c-15.674-20.813-34.043-39.483-54.597-55.492c-8.724-6.793-19.969-9.532-30.848-7.513c-10.904,2.023-20.44,8.632-26.161,18.129
			l-3.699,6.141c-2.295,3.811-1.068,8.761,2.743,11.056c34.433,20.743,63.317,50.054,83.566,84.778l21.202,51.027l32.142,77.36
			c1.287,3.098,4.283,4.967,7.442,4.966c1.03,0,2.077-0.199,3.088-0.619c4.108-1.707,6.055-6.421,4.348-10.529l-32.141-77.36
			C121.044,349.147,123.904,342.22,129.919,339.721z M97.483,295.725c-19.925-31.942-46.814-59.271-78.427-79.712
			c3.381-5.21,8.77-8.823,14.899-9.96c6.356-1.18,12.92,0.419,18.011,4.383c19.437,15.138,36.807,32.792,51.628,52.473
			c3.881,5.154,5.372,11.744,4.09,18.08C106.447,287.098,102.746,292.428,97.483,295.725z"/>
	</g>
</g>
<g>
	<g>
		<path d="M327.661,355.084c-4.448,0-8.055,3.606-8.055,8.055v45.031h-67.661v-45.031c0-4.448-3.606-8.055-8.055-8.055
			s-8.055,3.606-8.055,8.055v53.086c0,4.448,3.606,8.055,8.055,8.055h83.771c4.448,0,8.055-3.607,8.055-8.055v-53.086
			C335.716,358.691,332.109,355.084,327.661,355.084z"/>
	</g>
</g>
<g>
	<g>
		<path d="M378.335,327.283c-3.802-2.309-8.757-1.098-11.065,2.705c-2.308,3.803-1.098,8.757,2.705,11.065
			c2.368,1.438,4.572,3.057,6.638,4.803c-14.098,11.613-23.571,28.035-26.411,46.308c-0.683,4.396,2.327,8.514,6.722,9.197
			c0.42,0.065,0.836,0.097,1.247,0.097c3.903,0,7.331-2.842,7.95-6.819c2.248-14.469,9.792-27.462,21.02-36.593
			c4.925,7.967,7.645,17.248,7.645,27.029c0,4.448,3.606,8.055,8.055,8.055s8.055-3.606,8.055-8.055
			C410.896,361.266,398.725,339.662,378.335,327.283z"/>
	</g>
</g>
<g>
	<g>
		<path d="M33.784,164.224l-10.507-3.323c-4.242-1.342-8.768,1.01-10.109,5.251c-1.341,4.241,1.01,8.768,5.251,10.109l10.507,3.323
			c0.808,0.256,1.626,0.377,2.432,0.377c3.42,0,6.592-2.194,7.678-5.628C40.376,170.092,38.025,165.565,33.784,164.224z"/>
	</g>
</g>
<g>
	<g>
		<path d="M83.693,180.009l-10.507-3.323c-4.24-1.341-8.768,1.01-10.109,5.251c-1.341,4.241,1.01,8.768,5.251,10.109l10.507,3.323
			c0.808,0.256,1.626,0.377,2.432,0.377c3.42,0,6.592-2.194,7.678-5.628C90.285,185.878,87.934,181.351,83.693,180.009z"/>
	</g>
</g>
<g>
	<g>
		<path d="M63.039,140.248c-4.242-1.341-8.768,1.01-10.109,5.251l-3.323,10.507c-1.341,4.241,1.01,8.768,5.251,10.109
			c0.808,0.256,1.626,0.377,2.432,0.377c3.42,0,6.592-2.194,7.678-5.628l3.323-10.507C69.631,146.116,67.28,141.589,63.039,140.248z
			"/>
	</g>
</g>
<g>
</g>
<g>
</g>
<g>
</g>
<g>
</g>
<g>
</g>
<g>
</g>
<g>
</g>
<g>
</g>
<g>
</g>
<g>
</g>
<g>
</g>
<g>
</g>
<g>
</g>
<g>
</g>
<g>
</g>
</svg>
