<?xml version="1.0" encoding="iso-8859-1"?>
<!-- Generator: Adobe Illustrator 19.0.0, SVG Export Plug-In . SVG Version: 6.00 Build 0)  -->
<svg version="1.1" id="Layer_1" xmlns="http://www.w3.org/2000/svg" xmlns:xlink="http://www.w3.org/1999/xlink" x="0px" y="0px"
	 viewBox="0 0 512.001 512.001" style="enable-background:new 0 0 512.001 512.001;" xml:space="preserve">
<g>
	<g>
		<circle cx="300.835" cy="381.397" r="8.501"/>
	</g>
</g>
<g>
	<g>
		<path d="M403.227,494.999h-13.141v-5.766c0-12.795-10.409-23.205-23.205-23.205c-17.321,0-31.414-14.093-31.414-31.414V352.51
			c0-4.672-3.769-8.46-8.432-8.497v-38.625h22.628l12.76,37.035c0.955,2.77,3.27,4.854,6.126,5.513l31.936,7.367
			c0.643,0.148,1.285,0.22,1.918,0.22c3.87,0,7.368-2.661,8.275-6.592c1.056-4.574-1.798-9.139-6.372-10.193l-27.345-6.309
			l-9.317-27.04h9.244c18.751,0,34.007-15.256,34.007-34.007s-15.256-34.007-34.007-34.007h-64.666v-30.716h14.333
			c14.375,0,26.069-11.693,26.069-26.069c0-14.375-11.693-26.069-26.069-26.069H172.234l-8.218-54.082
			c-1.714-11.27-10.442-19.76-21.07-21.719l-1.916-12.606c9.565-5.028,15.379-15.73,13.667-26.999l-2.577-16.957
			c-1.046-6.884-4.711-12.949-10.319-17.077c-5.607-4.128-12.485-5.825-19.372-4.78c-14.209,2.163-24.014,15.482-21.855,29.691
			l2.576,16.958c1.713,11.27,10.443,19.767,21.071,21.724l1.915,12.61c-3.46,1.812-6.505,4.377-8.888,7.615
			c-4.129,5.607-5.826,12.487-4.78,19.371l17.792,117.083c1.046,6.884,4.711,12.949,10.319,17.077
			c3.293,2.423,7.025,3.998,10.936,4.682l1.494,3.722c6.489,16.177,21.201,27.099,38.254,28.805
			c3.701,14.772,17.085,25.747,32.987,25.747h50.368v38.625c-4.663,0.037-8.432,3.825-8.432,8.497v17.556h-27.017
			c-2.138,0-4.196,0.805-5.766,2.254l-29.469,27.202c-3.45,3.185-3.664,8.562-0.481,12.012c1.676,1.816,3.958,2.735,6.249,2.735
			c2.061,0,4.13-0.746,5.763-2.254l27.028-24.948h23.693v47.548c0,17.321-14.093,31.414-31.414,31.414
			c-12.795,0-23.205,10.409-23.205,23.205v5.766h-13.141c-4.696,0-8.501,3.805-8.501,8.501c0,4.696,3.805,8.501,8.501,8.501h21.642
			h161.513h21.642c4.696,0,8.501-3.805,8.501-8.501C411.725,498.804,407.921,494.999,403.227,494.999z M326.558,171.523
			c5,0,9.067,4.068,9.067,9.067s-4.068,9.067-9.067,9.067H177.575l-2.756-18.135H326.558z M119.959,44.396l-2.576-16.958
			c-0.751-4.942,2.66-9.575,7.602-10.327c2.393-0.37,4.786,0.227,6.737,1.663s3.225,3.545,3.588,5.94l2.577,16.957
			c0.751,4.943-2.659,9.576-7.602,10.327C125.349,52.74,120.71,49.337,119.959,44.396z M163.338,226.814
			c-1.436,1.951-3.544,3.225-5.939,3.588c-2.396,0.365-4.788-0.228-6.737-1.663c-1.951-1.436-3.225-3.545-3.588-5.94L129.28,105.717
			c-0.364-2.394,0.226-4.788,1.662-6.737c1.437-1.951,3.545-3.225,5.94-3.588c0.461-0.071,0.923-0.105,1.382-0.105
			c1.918,0,3.781,0.609,5.357,1.768c1.951,1.436,3.225,3.545,3.588,5.939l17.792,117.083
			C165.364,222.47,164.775,224.864,163.338,226.814z M191.422,262.53c-2.079-0.321-4.093-0.862-6.017-1.602l-13.43-10.522
			c-1.262-1.81-2.335-3.783-3.184-5.901l-0.114-0.286c3.238-1.794,6.093-4.257,8.354-7.328c4.128-5.607,5.825-12.487,4.779-19.371
			l-1.651-10.863h115.065v30.715h-70.969C208.564,237.373,195.328,248.057,191.422,262.53z M224.255,288.386
			c-9.379,0-17.007-7.628-17.007-17.006c0-9.377,7.628-17.006,17.006-17.006h152.637c9.377,0,17.006,7.628,17.006,17.006
			s-7.628,17.006-17.006,17.006h-58.354h-35.413H224.255z M310.034,305.388v38.621h-18.411v-38.621H310.034z M373.086,494.999
			H228.573v-5.766c0-3.421,2.783-6.203,6.203-6.203c26.697,0,48.415-21.719,48.415-48.415v-73.604h35.276v73.604
			c0,26.697,21.719,48.415,48.415,48.415c3.421,0,6.203,2.783,6.203,6.203V494.999z"/>
	</g>
</g>
<g>
</g>
<g>
</g>
<g>
</g>
<g>
</g>
<g>
</g>
<g>
</g>
<g>
</g>
<g>
</g>
<g>
</g>
<g>
</g>
<g>
</g>
<g>
</g>
<g>
</g>
<g>
</g>
<g>
</g>
</svg>
