<?xml version="1.0" encoding="iso-8859-1"?>
<!-- Generator: Adobe Illustrator 19.0.0, SVG Export Plug-In . SVG Version: 6.00 Build 0)  -->
<svg version="1.1" id="Layer_1" xmlns="http://www.w3.org/2000/svg" xmlns:xlink="http://www.w3.org/1999/xlink" x="0px" y="0px"
	 viewBox="0 0 503.607 503.607" style="enable-background:new 0 0 503.607 503.607;" xml:space="preserve">
<g transform="translate(1 1)">
	<g>
		<path d="M435.459,234.016h-33.574c-18.466,0-33.574,15.108-33.574,33.574s15.108,33.574,33.574,33.574h7.582
			c-3.328,16.966-16.601,29.97-33.712,32.927c-4.04-19.026-20.629-32.927-41.017-32.927h-75.541v-8.393h100.721v-83.934
			c0-36.931-30.216-67.148-67.148-67.148h-33.574v-16.787h58.754V82.934c0-34.088-25.749-62.434-58.754-66.6V7.393
			c0-5.036-3.357-8.393-8.393-8.393s-8.393,3.357-8.393,8.393v8.941c-33.005,4.166-58.754,32.512-58.754,66.6v41.967h58.754v16.787
			h-33.574c-36.931,0-67.148,30.216-67.148,67.148v83.934H242.41v8.393h-75.541c-20.388,0-36.978,13.901-41.017,32.927
			c-17.111-2.957-30.384-15.961-33.712-32.927h7.582c18.466,0,33.574-15.108,33.574-33.574c0-18.466-15.108-33.574-33.574-33.574
			H66.148c-18.466,0-33.574,15.108-33.574,33.574s15.108,33.574,33.574,33.574h8.986c3.659,26.178,24.208,46.511,50.492,49.859
			c3.604,19.613,20.447,34.076,41.243,34.076h58.754v16.787h-8.393v48.776c-12.703,7.393-21.92,20.174-24.462,35.159h-51.079
			c-5.036,0-8.393,3.357-8.393,8.393s3.357,8.393,8.393,8.393h50.361h117.508h50.361c5.036,0,8.393-3.357,8.393-8.393
			s-3.357-8.393-8.393-8.393h-51.079c-2.542-14.985-11.759-27.765-24.462-35.159v-48.776h-8.393v-16.787h58.754
			c20.796,0,37.638-14.463,41.243-34.076c26.284-3.348,46.833-23.681,50.492-49.859h8.986c18.466,0,33.574-15.108,33.574-33.574
			C469.033,249.125,453.925,234.016,435.459,234.016z M200.443,82.934c0-27.698,22.662-50.361,50.361-50.361
			s50.361,22.662,50.361,50.361v25.18H200.443V82.934z M158.475,208.836c0-27.698,22.662-50.361,50.361-50.361h83.934
			c27.698,0,50.361,22.662,50.361,50.361v67.148H158.475V208.836z M49.361,267.59c0-9.233,7.554-16.787,16.787-16.787h33.574
			c9.233,0,16.787,7.554,16.787,16.787s-7.554,16.787-16.787,16.787H66.148C56.915,284.377,49.361,276.823,49.361,267.59z
			 M209.675,485.82c4.197-14.269,16.787-25.18,31.895-25.18h16.787c15.948,0,29.377,10.911,32.734,25.18H209.675z M242.41,443.852
			h-8.393v-25.18h33.574v25.18h-8.393H242.41z M259.197,401.885H242.41v-16.787h16.787V401.885z M334.738,368.311h-58.754h-50.361
			h-58.754c-14.269,0-25.18-10.911-25.18-25.18s10.911-25.18,25.18-25.18h167.869c14.269,0,25.18,10.911,25.18,25.18
			S349.007,368.311,334.738,368.311z M435.459,284.377h-33.574c-9.233,0-16.787-7.554-16.787-16.787s7.554-16.787,16.787-16.787
			h33.574c9.233,0,16.787,7.554,16.787,16.787S444.692,284.377,435.459,284.377z"/>
	</g>
</g>
<g>
</g>
<g>
</g>
<g>
</g>
<g>
</g>
<g>
</g>
<g>
</g>
<g>
</g>
<g>
</g>
<g>
</g>
<g>
</g>
<g>
</g>
<g>
</g>
<g>
</g>
<g>
</g>
<g>
</g>
</svg>
