<?xml version="1.0" encoding="iso-8859-1"?>
<!-- Generator: Adobe Illustrator 19.0.0, SVG Export Plug-In . SVG Version: 6.00 Build 0)  -->
<svg version="1.1" id="Layer_1" xmlns="http://www.w3.org/2000/svg" xmlns:xlink="http://www.w3.org/1999/xlink" x="0px" y="0px"
	 viewBox="0 0 512.002 512.002" style="enable-background:new 0 0 512.002 512.002;" xml:space="preserve">
<g>
	<g>
		<path d="M468.146,372.001c-1.552-4.371-6.355-6.657-10.725-5.104c-4.371,1.551-6.657,6.353-5.105,10.725
			c4.831,13.613-0.062,28.927-11.899,37.242c-14.585,10.242-34.783,6.713-45.027-7.871c-4.962-7.065-6.876-15.64-5.39-24.145
			c1.486-8.505,6.197-15.921,13.261-20.884c10.682-7.502,24.728-7.865,35.784-0.924c3.93,2.467,9.112,1.281,11.579-2.647
			c2.466-3.928,1.281-9.112-2.647-11.579c-16.799-10.547-38.14-9.996-54.37,1.404c-22.164,15.567-27.531,46.263-11.963,68.427
			c9.55,13.597,24.79,20.872,40.265,20.87c9.75,0,19.596-2.89,28.163-8.908C468.059,415.974,475.491,392.697,468.146,372.001z"/>
	</g>
</g>
<g>
	<g>
		<path d="M484.733,340.609c-11.666-15.376-28.617-25.908-47.728-29.653c-19.117-3.747-38.786-0.386-55.386,9.458
			c-5.255,3.118-10.086,6.784-14.442,10.958l-66.567-94.773L330.725,64.35c16.764,28.675,23.023,62.608,17.233,95.724
			l-17.121,97.931c-0.798,4.569,2.258,8.921,6.828,9.719c0.489,0.086,0.977,0.128,1.456,0.128c4.005,0,7.55-2.875,8.263-6.954
			l17.121-97.931c7.773-44.459-3.865-90.232-31.927-125.582c-2.056-2.59-5.438-3.734-8.647-2.917
			c-3.205,0.815-5.634,3.435-6.204,6.693l-30.77,175.999l-46.94-66.829c-2.666-3.796-7.905-4.712-11.7-2.046
			c-3.796,2.665-4.712,7.905-2.046,11.7l105.833,150.678l-20.606,28.88L210.813,196.196c-19.313-27.496-28.079-60.848-25.103-93.958
			l24.156,34.391c2.666,3.796,7.905,4.711,11.7,2.046c3.796-2.665,4.712-7.904,2.046-11.7l-36.005-51.261
			c-1.9-2.707-5.215-4.039-8.463-3.414c-3.247,0.626-5.828,3.105-6.587,6.325c-10.362,43.924-1.428,90.295,24.512,127.226
			l73.556,104.724l-6.701,38.334c-3.781-1.272-7.66-2.259-11.61-2.948c-20.782-3.633-41.739,1.046-59.009,13.176
			c-17.269,12.13-28.781,30.255-32.415,51.039c-3.635,20.787,1.045,41.746,13.175,59.015c12.129,17.266,30.255,28.776,51.041,32.409
			c4.598,0.804,9.204,1.202,13.777,1.202c16.102,0,31.789-4.926,45.237-14.371c17.266-12.128,28.776-30.256,32.411-51.045
			l8.603-49.206l31.401,44.706c12.419,17.682,30.974,29.45,52.249,33.139c4.588,0.795,9.177,1.189,13.728,1.189
			c16.059,0,31.637-4.895,44.919-14.278c17.646-12.469,29.184-31.1,32.484-52.463C503.213,379.118,497.822,357.858,484.733,340.609z
			 M299.982,434.491c-2.861,16.37-11.924,30.643-25.519,40.192c-13.595,9.548-30.095,13.232-46.466,10.368
			c-16.365-2.861-30.637-11.924-40.187-25.519c-9.551-13.596-13.235-30.098-10.373-46.466c2.861-16.364,11.925-30.635,25.523-40.186
			s30.1-13.234,46.463-10.374c5.994,1.048,11.782,2.96,17.199,5.681c2.375,1.193,5.171,1.192,7.545-0.001
			c2.373-1.194,4.042-3.44,4.5-6.057l5.615-32.114l27.198,38.724L299.982,434.491z M483.312,397.904
			c-2.599,16.821-11.683,31.492-25.577,41.308c-13.373,9.449-29.74,13.092-46.084,10.259c-16.844-2.92-31.539-12.241-41.373-26.243
			l-43.039-61.277c-0.01-0.015-0.02-0.029-0.031-0.044l-5.471-7.791l20.606-28.88l17.117,24.369c1.526,2.174,3.99,3.497,6.645,3.569
			c2.665,0.082,5.186-1.117,6.829-3.203c4.771-6.064,10.577-11.147,17.258-15.109c13.046-7.738,28.528-10.375,43.587-7.422
			c15.061,2.951,28.406,11.234,37.577,23.322C481.663,364.351,485.91,381.093,483.312,397.904z"/>
	</g>
</g>
<g>
	<g>
		<path d="M247.17,375.396c-12.926-2.26-25.955,0.649-36.691,8.19c-10.737,7.541-17.894,18.812-20.154,31.736
			c-4.664,26.68,13.248,52.181,39.926,56.845c2.858,0.499,5.721,0.747,8.563,0.747c10.011,0,19.765-3.064,28.128-8.936
			c10.737-7.541,17.894-18.812,20.154-31.736C291.76,405.56,273.849,380.061,247.17,375.396z M270.549,429.348
			c-3.069,17.556-19.843,29.348-37.406,26.272c-17.556-3.069-29.342-19.849-26.272-37.406c3.069-17.556,19.846-29.342,37.406-26.272
			C261.833,395.012,273.619,411.792,270.549,429.348z"/>
	</g>
</g>
<g>
	<g>
		<path d="M309.113,292.421c-3.164-1.677-7.148-1.156-9.746,1.321c-2.932,2.795-3.409,7.375-1.189,10.745
			c4.091,6.214,13.974,4.041,15.244-3.226C314.038,297.737,312.279,294.099,309.113,292.421z"/>
	</g>
</g>
<g>
	<g>
		<path d="M168.539,317.755l-0.06-0.336c-2.036-11.321-11.862-19.539-23.364-19.539h-42.697c-7.754,0-14.878-2.936-19.262-7.458
			h54.866c4.638,0,8.399-3.76,8.399-8.399s-3.76-8.399-8.399-8.399H76.927c-1.006-4.796-1.94-9.597-2.801-14.401h59.136
			c4.638,0,8.399-3.76,8.399-8.399s-3.76-8.399-8.399-8.399H71.399c-0.691-4.794-1.315-9.59-1.863-14.39h61.822
			c4.638,0,8.399-3.76,8.399-8.399c0-4.638-3.76-8.399-8.399-8.399H67.922c-0.381-4.798-0.69-9.599-0.928-14.401h64.364
			c4.638,0,8.399-3.76,8.399-8.399s-3.76-8.399-8.399-8.399H66.442c-0.072-4.801-0.072-9.6,0-14.401h65.544
			c4.638,0,8.399-3.76,8.399-8.399s-3.76-8.399-8.399-8.399H66.994c0.237-4.797,0.546-9.595,0.927-14.39h65.341
			c4.638,0,8.399-3.76,8.399-8.399s-3.76-8.399-8.399-8.399H69.535c0.549-4.803,1.172-9.602,1.865-14.401h63.845
			c4.638,0,8.399-3.76,8.399-8.399s-3.76-8.399-8.399-8.399H74.126c0.862-4.804,1.795-9.605,2.802-14.401h61.094
			c4.638,0,8.399-3.76,8.399-8.399c0-4.638-3.76-8.399-8.399-8.399H83.154c4.384-4.522,11.51-7.459,19.263-7.459h42.697
			c11.512,0,21.338-8.221,23.366-19.55l0.055-0.307c1.25-6.936-0.627-14.018-5.149-19.427C158.863,3.103,152.224,0,145.17,0H65.153
			C45.79,0,28.708,13.107,23.613,31.873c-9.545,35.168-18.532,116.992-7.131,307.083c0.278,4.629,4.261,8.168,8.886,7.88
			c4.63-0.278,8.159-4.256,7.881-8.887c-8.915-148.663-6.642-252.981,6.576-301.676c3.112-11.466,13.529-19.475,25.328-19.475
			h80.017c2.824,0,4.551,1.561,5.329,2.492c0.776,0.929,2.004,2.901,1.485,5.785l-0.039,0.219c-0.592,3.309-3.465,5.71-6.831,5.71
			h-42.697c-19.353,0-36.088,11.699-39.791,27.818c-17.388,75.659-17.388,152.382,0,228.04
			c3.703,16.119,20.438,27.818,39.791,27.818h42.697c3.363,0,6.236,2.403,6.831,5.709l0.06,0.337
			c0.499,2.775-0.728,4.746-1.505,5.673c-0.776,0.928-2.499,2.486-5.318,2.486h-28.1c-16.178,0-29.771,12.639-30.945,28.776
			l-8.884,122.155c-0.627,8.629-7.897,15.389-16.549,15.389c-8.615,0-15.717-6.467-16.52-15.043
			c-2.356-25.154-5.829-64.957-8.991-111.731c-0.312-4.628-4.331-8.13-8.946-7.813c-4.628,0.312-8.125,4.318-7.813,8.946
			c3.175,46.954,6.661,86.912,9.026,112.164c1.616,17.26,15.908,30.275,33.244,30.275c17.411,0,32.038-13.603,33.303-30.968
			l8.884-122.154c0.538-7.4,6.772-13.197,14.192-13.197h28.1c7.047-0.003,13.683-3.104,18.204-8.511
			C167.907,331.766,169.785,324.687,168.539,317.755z"/>
	</g>
</g>
<g>
</g>
<g>
</g>
<g>
</g>
<g>
</g>
<g>
</g>
<g>
</g>
<g>
</g>
<g>
</g>
<g>
</g>
<g>
</g>
<g>
</g>
<g>
</g>
<g>
</g>
<g>
</g>
<g>
</g>
</svg>
