<?xml version="1.0" encoding="iso-8859-1"?>
<!-- Generator: Adobe Illustrator 18.0.0, SVG Export Plug-In . SVG Version: 6.00 Build 0)  -->
<!DOCTYPE svg PUBLIC "-//W3C//DTD SVG 1.1//EN" "http://www.w3.org/Graphics/SVG/1.1/DTD/svg11.dtd">
<svg version="1.1" id="Capa_1" xmlns="http://www.w3.org/2000/svg" xmlns:xlink="http://www.w3.org/1999/xlink" x="0px" y="0px"
	 viewBox="0 0 58 58" style="enable-background:new 0 0 58 58;" xml:space="preserve">
<g>
	<path d="M55,5V0H3v5H0v6v2v5v40h4h6h3h17h2h17h9V18v-5v-2V5H55z M5,2h48v3H5V2z M48,18c0,1.654-1.346,3-3,3s-3-1.346-3-3v-5h6V18z
		 M40,18c0,1.654-1.346,3-3,3s-3-1.346-3-3v-5h6V18z M32,18c0,1.654-1.346,3-3,3s-3-1.346-3-3v-5h6V18z M24,18c0,1.654-1.346,3-3,3
		s-3-1.346-3-3v-5h6V18z M16,18c0,1.654-1.346,3-3,3s-3-1.346-3-3v-5h6V18z M8,18c0,1.654-1.346,3-3,3s-3-1.346-3-3v-5h6V18z M6,56
		v-1.586l2-2V56H6z M7,31c-1.103,0-2-0.897-2-2s0.897-2,2-2s2,0.897,2,2S8.103,31,7,31z M6,42.414l2-2v3.172l-2,2V42.414z M6,48.414
		l2-2v3.172l-2,2V48.414z M8,36v1.586l-2,2V36H8z M15,56V28h15v28H15z M32,56V28h15v28H32z M49,56V26H32h-2H13v30h-3V34H8v-1.142
		c1.721-0.447,3-1.999,3-3.858c0-2.206-1.794-4-4-4s-4,1.794-4,4c0,1.859,1.279,3.411,3,3.858V34H4v22H2V21.974
		C2.838,22.609,3.87,23,5,23c1.641,0,3.088-0.806,4-2.031C9.912,22.194,11.359,23,13,23s3.088-0.806,4-2.031
		C17.912,22.194,19.359,23,21,23s3.088-0.806,4-2.031C25.912,22.194,27.359,23,29,23s3.088-0.806,4-2.031
		C33.912,22.194,35.359,23,37,23s3.088-0.806,4-2.031C41.912,22.194,43.359,23,45,23s3.088-0.806,4-2.031
		C49.912,22.194,51.359,23,53,23c1.13,0,2.162-0.391,3-1.026V56H49z M56,18c0,1.654-1.346,3-3,3s-3-1.346-3-3v-5h6V18z M50,11h-2h-6
		h-2h-6h-2h-6h-2h-6h-2h-6H8H2V7h1h52h1v4H50z"/>
	<path d="M34,37c0.256,0,0.512-0.098,0.707-0.293l2-2c0.391-0.391,0.391-1.023,0-1.414s-1.023-0.391-1.414,0l-2,2
		c-0.391,0.391-0.391,1.023,0,1.414C33.488,36.902,33.744,37,34,37z"/>
	<path d="M41.293,33.293l-8,8c-0.391,0.391-0.391,1.023,0,1.414C33.488,42.902,33.744,43,34,43s0.512-0.098,0.707-0.293l8-8
		c0.391-0.391,0.391-1.023,0-1.414S41.684,32.902,41.293,33.293z"/>
	<path d="M41.293,39.293l-8,8c-0.391,0.391-0.391,1.023,0,1.414C33.488,48.902,33.744,49,34,49s0.512-0.098,0.707-0.293l8-8
		c0.391-0.391,0.391-1.023,0-1.414S41.684,38.902,41.293,39.293z"/>
	<path d="M20,37c0.256,0,0.512-0.098,0.707-0.293l2-2c0.391-0.391,0.391-1.023,0-1.414s-1.023-0.391-1.414,0l-2,2
		c-0.391,0.391-0.391,1.023,0,1.414C19.488,36.902,19.744,37,20,37z"/>
	<path d="M27.293,33.293l-8,8c-0.391,0.391-0.391,1.023,0,1.414C19.488,42.902,19.744,43,20,43s0.512-0.098,0.707-0.293l8-8
		c0.391-0.391,0.391-1.023,0-1.414S27.684,32.902,27.293,33.293z"/>
	<path d="M27.293,39.293l-8,8c-0.391,0.391-0.391,1.023,0,1.414C19.488,48.902,19.744,49,20,49s0.512-0.098,0.707-0.293l8-8
		c0.391-0.391,0.391-1.023,0-1.414S27.684,38.902,27.293,39.293z"/>
</g>
<g>
</g>
<g>
</g>
<g>
</g>
<g>
</g>
<g>
</g>
<g>
</g>
<g>
</g>
<g>
</g>
<g>
</g>
<g>
</g>
<g>
</g>
<g>
</g>
<g>
</g>
<g>
</g>
<g>
</g>
</svg>
