<?xml version="1.0" encoding="iso-8859-1"?>
<!-- Generator: Adobe Illustrator 19.0.0, SVG Export Plug-In . SVG Version: 6.00 Build 0)  -->
<svg version="1.1" id="Layer_1" xmlns="http://www.w3.org/2000/svg" xmlns:xlink="http://www.w3.org/1999/xlink" x="0px" y="0px"
	 viewBox="0 0 503.607 503.607" style="enable-background:new 0 0 503.607 503.607;" xml:space="preserve">
<g transform="translate(1 1)">
	<g>
		<g>
			<path d="M460.639,451.407c-1.308,0-2.388-0.232-3.36-0.685c26.142-5.988,45.328-29.126,45.328-57.23
				c0-29.88-21.684-54.153-50.361-58.161V57.754C452.246,25.02,426.226-1,393.492-1h-58.754v285.377h67.148v50.361h-67.148H166.869
				H99.721H57.754C25.02,334.738-1,360.757-1,393.492s26.02,58.754,58.754,58.754h41.967h67.148h167.869h67.148
				c4.197,27.698,27.698,48.682,55.397,50.361c0.839,0,0.839,0,1.679,0c6.715,0,13.43-2.518,18.466-8.393
				c5.036-4.197,8.393-10.072,8.393-16.787c0.839-6.715-1.679-13.43-6.715-18.466S467.354,451.407,460.639,451.407z M351.525,15.787
				h16.787V267.59h-16.787V15.787z M385.098,267.59v-75.541l12.59,12.59c1.679,1.679,3.357,2.518,5.875,2.518
				c2.518,0,5.036-0.839,5.875-2.518c3.357-3.357,3.357-8.393,0-11.751l-24.341-24.341v-23.502l12.59,12.59
				c1.679,1.679,3.357,2.518,5.875,2.518c2.518,0,5.036-0.839,5.875-2.518c3.357-3.357,3.357-8.393,0-11.751l-24.341-24.341V97.203
				l12.59,12.59c1.679,1.679,3.357,2.518,5.875,2.518c2.518,0,5.036-0.839,5.875-2.518c3.357-3.357,3.357-8.393,0-11.751
				l-24.341-24.341V49.361l12.59,12.59c1.679,1.679,3.357,2.518,5.875,2.518c2.518,0,4.197-0.839,5.875-2.518
				c3.357-3.357,3.357-8.393,0-11.751l-24.341-24.341V15.787h8.393c23.502,0,41.967,18.466,41.967,41.967v276.984h-16.787V267.59
				H385.098z M443.852,351.525c23.502,0,41.967,18.466,41.967,41.967c0,20.619-14.215,37.359-33.574,41.155v-0.027h-12.59
				l-1.679,0.839h-36.092v-83.934H443.852z M57.754,435.459c-23.502,0-41.967-18.466-41.967-41.967s18.466-41.967,41.967-41.967
				h41.967v83.934H57.754z M116.508,435.459v-83.934h33.574v83.934H116.508z M166.869,435.459v-83.934h167.869v83.934H166.869z
				 M351.525,435.459v-83.934h33.574v83.934H351.525z M466.515,484.141c-1.679,1.679-5.036,2.518-7.554,2.518
				c-17.626-0.839-31.895-12.59-37.771-28.538c0.839-0.839,2.518-0.839,4.197,0l8.393-1.679c1.679,0,2.518-0.839,4.197-0.839
				c0.839,2.518,2.518,5.036,5.036,7.554c5.036,5.036,10.911,7.554,17.626,7.554c2.518,0,4.197,0.839,5.875,2.518
				c1.679,1.679,2.518,3.357,2.518,5.875C469.033,481.623,467.354,483.302,466.515,484.141z"/>
			<path d="M57.754,376.705c-9.233,0-16.787,7.554-16.787,16.787s7.554,16.787,16.787,16.787s16.787-7.554,16.787-16.787
				S66.987,376.705,57.754,376.705z"/>
			<path d="M443.852,410.279c9.233,0,16.787-7.554,16.787-16.787s-7.554-16.787-16.787-16.787c-9.233,0-16.787,7.554-16.787,16.787
				S434.62,410.279,443.852,410.279z"/>
		</g>
	</g>
</g>
<g>
</g>
<g>
</g>
<g>
</g>
<g>
</g>
<g>
</g>
<g>
</g>
<g>
</g>
<g>
</g>
<g>
</g>
<g>
</g>
<g>
</g>
<g>
</g>
<g>
</g>
<g>
</g>
<g>
</g>
</svg>
