<?xml version="1.0" encoding="iso-8859-1"?>
<!-- Generator: Adobe Illustrator 19.0.0, SVG Export Plug-In . SVG Version: 6.00 Build 0)  -->
<svg version="1.1" id="Layer_1" xmlns="http://www.w3.org/2000/svg" xmlns:xlink="http://www.w3.org/1999/xlink" x="0px" y="0px"
	 viewBox="0 0 512.375 512.375" style="enable-background:new 0 0 512.375 512.375;" xml:space="preserve">
<g transform="translate(1 1)">
	<g>
		<g>
			<path d="M67.428,407.507c-18.773,0-34.133,15.36-34.133,34.133c0,18.773,15.36,34.133,34.133,34.133s34.133-15.36,34.133-34.133
				C101.561,422.867,86.201,407.507,67.428,407.507z M67.428,458.707c-9.387,0-17.067-7.68-17.067-17.067
				c0-9.387,7.68-17.067,17.067-17.067s17.067,7.68,17.067,17.067C84.495,451.027,76.815,458.707,67.428,458.707z"/>
			<path d="M494.095,369.961L249.546,125.412c3.546-2.964,6.139-6.351,8.175-9.745l6.827-11.947
				c5.973-10.24,7.68-22.187,3.413-32.427c-6.827-16.213-24.747-25.6-48.64-26.453c-13.594-0.566-28.307,1.891-41.661,6.84
				c-0.1-0.532-0.153-1.1-0.153-1.72c0-2.56,0.853-4.267,2.56-5.12c5.12-5.12,7.68-11.947,7.68-18.773
				c0-7.68-3.413-13.653-8.533-18.773s-11.093-6.827-17.92-6.827c-7.68,0.853-14.507,3.413-19.627,9.387
				C124.054,29,121.571,56.389,133.581,78.46c-79.529,60.918-155.54,189.972-129.3,376.834c2.56,17.067,11.093,31.573,24.747,41.813
				c11.093,8.533,23.893,12.8,37.547,12.8c2.56,0,5.12,0,9.387-0.853c17.067-2.56,31.573-11.093,41.813-24.747
				s14.507-29.867,11.947-46.933c-12.477-85.874,15.45-203.942,81.606-277.647l59.194,59.194l-16.049,16.049
				c-0.975,0.426-1.9,1.047-2.724,1.871s-1.445,1.749-1.871,2.724l-27.996,27.996l229.547,228.693l42.667-41.813
				C517.135,431.401,517.135,393.001,494.095,369.961z M147.641,67.881c-7.68-15.36-5.12-34.133,6.827-46.933
				c1.707-1.707,4.267-3.413,7.68-3.413c1.707,0,3.413,0.853,5.12,2.56s2.56,3.413,2.56,5.973c0,1.707-0.853,4.267-1.707,5.12
				c-5.12,5.12-7.68,11.093-7.68,17.92c0,3.413,0.853,5.973,1.707,9.387c-0.853,0.853-2.56,1.707-3.413,2.56c0,0,0,0,0,0l-7.68,5.12
				l0,0C149.348,66.174,148.495,67.027,147.641,67.881z M111.801,439.934c1.707,11.947-0.853,24.747-8.533,34.133
				c-7.68,10.24-18.773,16.213-30.72,17.92c-11.947,1.707-24.747-0.853-34.133-8.533c-10.24-7.68-16.213-18.773-17.92-30.72
				C-4.162,273.779,67.555,149.694,143.054,92.2l0.321,0.427l6.827-5.12c3.413-2.56,6.827-4.267,10.24-6.827l7.68-5.12
				c2.56-1.707,5.973-3.413,10.24-5.12l7.193-3.32c10.029-3.344,20.925-5.214,31.207-5.214h0.853
				c8.533,0.853,28.16,2.56,33.28,16.213c1.707,5.12,0.853,11.093-2.56,17.067l-6.827,11.947c-0.853,2.56-3.413,5.12-5.973,6.827
				C139.961,183.934,97.295,334.974,111.801,439.934z M450.575,472.361l-204.8-204.8l12.156-12.59l205.017,205.017L450.575,472.361z
				 M480.441,442.494l-5.547,5.547l-6.4-6.4v-34.987c0-5.12-3.413-8.533-8.533-8.533c-5.12,0-8.533,3.413-8.533,8.533v17.92
				l-17.067-17.067v-35.84c0-5.12-3.413-8.533-8.533-8.533s-8.533,3.413-8.533,8.533v18.773l-17.067-17.067v0v-35.84
				c0-5.12-3.413-8.533-8.533-8.533c-5.12,0-8.533,3.413-8.533,8.533v18.773l-17.067-17.067v-35.84c0-5.12-3.413-8.533-8.533-8.533
				s-8.533,3.413-8.533,8.533v18.773l-79.36-79.36l23.893-24.747l-70.518-70.518c4.064-3.941,8.258-7.716,12.574-11.319
				l244.823,245.676C496.655,398.974,496.655,426.281,480.441,442.494z"/>
			<path d="M221.028,104.574c0-16.213-13.653-29.867-29.867-29.867s-29.867,13.653-29.867,29.867
				c0,16.213,13.653,29.867,29.867,29.867S221.028,120.787,221.028,104.574z M191.161,117.374c-6.827,0-12.8-5.973-12.8-12.8
				s5.973-12.8,12.8-12.8s12.8,5.973,12.8,12.8S197.988,117.374,191.161,117.374z"/>
		</g>
	</g>
</g>
<g>
</g>
<g>
</g>
<g>
</g>
<g>
</g>
<g>
</g>
<g>
</g>
<g>
</g>
<g>
</g>
<g>
</g>
<g>
</g>
<g>
</g>
<g>
</g>
<g>
</g>
<g>
</g>
<g>
</g>
</svg>
